<svg width="73" height="100" viewBox="0 0 73 100" fill="none" xmlns="http://www.w3.org/2000/svg">
<path d="M62.6442 20.3327V80.0634H52.5218V79.1832C52.5218 69.9938 52.5218 60.8016 52.5218 51.6064C52.4781 51.247 52.3924 50.894 52.2666 50.5545C51.979 50.7499 51.7121 50.9741 51.47 51.2235C46.4968 57.4289 41.5369 63.6432 36.5901 69.8662C36.5065 69.9718 36.4097 70.0687 36.2556 70.2359L30.5343 63.0798L1.14427 100L0 99.0846L62.6442 20.3327Z" fill="#038405"/>
<path d="M26.7978 58.2827L20.5176 50.5105L20.2711 50.5677C20.2183 51.131 20.1303 51.6944 20.1259 52.2621C20.1083 56.267 20.1083 60.2734 20.1259 64.2813C20.1735 65.8308 19.6628 67.3459 18.6868 68.5503C15.8041 72.1195 12.9654 75.7372 10.0035 79.5V20.6848L32.418 48.8513C33.7603 47.2009 35.0234 45.6782 36.2556 44.129C42.2293 36.6121 48.2 29.0907 54.1678 21.565C59.5664 14.7698 64.9694 7.97754 70.3768 1.18823C70.588 0.928568 70.7597 0.638101 70.9709 0.37844C71.0297 0.275904 71.1117 0.188644 71.2105 0.123726C71.3092 0.0588079 71.4219 0.0180563 71.5393 0.004771C71.6567 -0.00851429 71.7756 0.00604014 71.8864 0.0472558C71.9971 0.0884714 72.0966 0.15519 72.1768 0.242009C72.7005 0.682111 72.4497 0.950573 72.1416 1.33786C64.4017 11.0641 56.6676 20.7948 48.9394 30.5298C41.707 39.6253 34.4718 48.7207 27.2335 57.8162C27.1147 57.9526 26.9783 58.0935 26.7978 58.2827Z" fill="#038405"/>
</svg>
