<svg width="105" height="195" viewBox="0 0 105 195" fill="none" xmlns="http://www.w3.org/2000/svg">
<mask id="path-1-inside-1_132_14" fill="white">
<path d="M5.52136 38.7717L6.18151 39.3964L9.48222 38.737L10.4551 37.2447L10.5419 35.6136L11.6711 34.2602L13.8253 32.3341L14.9718 32.23L15.8926 31.0674L22.2681 31.2236L21.608 30.8765L21.5385 29.6272L22.8067 29.5404L22.4245 28.7596L23.3279 28.0481L23.5537 26.8508L24.6308 27.0938L24.596 26.2435L25.4299 26.2262L25.1172 25.0636L27.0976 24.196L27.9662 21.6278L30.6937 21.9228L31.4233 19.4068L32.6741 19.6497L33.369 16.856L34.4287 17.1337L34.7588 14.3747L35.9227 14.5482L35.3668 13.3162L35.8358 11.5116L36.4265 11.3381L36.1833 12.9865L38.8412 12.3965L39.0497 11.6677L37.4515 12.171L37.6773 10.4184L38.2158 10.4011L38.6849 9.22111L40.6827 9.16904L41.117 7.5553L41.6729 7.38178L42.8716 8.64849L45.5469 5.28219L47.3883 6.54888L50.2721 7.31237L50.689 6.3233L51.9051 5.82009L52.4437 3.98078L55.5012 4.65751L55.6575 2.47115L58.2112 0.874756L59.0798 1.46472L59.0972 3.92871L62.8322 3.7552L63.6835 6.51417L66.6367 8.23204L67.1058 10.2969L68.982 10.1581L68.5477 13.2988L66.5846 16.6478L66.0982 19.1812L70.1285 21.6105L69.9895 25.0289L72.9255 25.0809L73.9504 25.8791L76.0177 27.9961L75.0275 28.3605L75.2707 28.9157L74.3326 28.8116L76.2262 30.5121L76.2609 30.0436L77.4422 30.1477L77.4596 31.4491L79.6311 31.8482L80.2044 33.3752L81.8895 34.5899L82.4628 34.5552L83.2967 32.8026L86.4931 31.7441L86.2847 35.7178L87.1185 35.5442L88.0566 39.6393L89.1511 39.4832L88.8036 38.1297L90.4019 37.6265L90.4714 39.6567L91.4095 40.8019L88.5604 42.0686L88.1782 44.0468L89.1337 44.7929L88.1261 44.9144L88.3693 45.8514L87.5702 47.3784L90.6277 48.246L91.3747 51.942L90.6104 52.931L89.0642 51.9073L87.2575 54.8571L85.2423 53.5383L84.4606 53.4863L84.2174 54.1977L83.5746 54.2845L83.6267 56.0544L85.086 59.9933L84.1479 60.323L84.0437 61.3815L83.4704 61.4856L83.5051 64.1058L84.2869 64.2793L84.9123 63.5852L86.441 65.4072L88.1435 65.1816L87.327 66.6565L88.1435 68.9297L87.9177 70.0055L90.0544 73.8403L90.6451 72.7818L94.1543 73.3892L92.6603 76.3043L94.3975 76.6513L97.7503 80.1391L98.9143 79.9482L99.2791 78.5427L100.374 78.3171L100.495 79.9135L98.7058 81.7529L98.9837 82.4643L96.2216 82.846L96.4127 85.7438L99.0011 87.6526L99.0532 89.4051L98.9316 90.4116L98.2367 89.9778L97.7503 91.5568L96.7427 92.0253L95.8915 93.6911L98.0283 95.704L97.8546 97.9597L96.8122 98.9141L95.7004 97.5259L94.7102 98.0812L94.6928 101.1L97.4202 101.864L97.0554 102.766L96.2563 102.714L95.7873 104.016L95.075 105.039L95.4398 106.115L96.3953 105.699L97.9588 106.428L98.6884 106.133L99.9566 107.555L101.312 107.035L100.321 110.245L99.0532 110.766L99.1575 111.494L100.078 111.651L100.096 112.397L99.1575 112.57L99.2443 113.577L100.895 114.201L101.885 116.197L101.485 117.706L102.145 118.904L102.076 120.535L101.294 121.732L102.754 123.415L101.711 124.3L102.337 126.348L103.414 126.226L103.796 126.712L104.161 128.76L103.292 129.645L101.607 130.131L100.356 129.246L99.557 129.367L99.2964 128.604L97.9762 129.662L97.1249 127.979L97.2118 130.165L95.7699 131.172L95.9436 131.814L94.8492 132.924L93.4246 132.3L92.3997 132.994L89.0295 130.495L88.5431 131.085L86.3541 131.467L86.58 133.427L85.364 134.625L82.7581 132.907L82.9145 134.555L81.212 133.809L80.3781 134.521L80.8646 136.03L79.5964 137.557L80.7429 139.136L77.1469 139.292L73.7593 144.706L74.8538 145.4L74.5063 146.372L75.8614 148.09L75.8092 149.548L74.5237 150.797L74.3847 153.868L75.8266 156.089L75.8787 159.82V160.826L75.5139 162.215L76.4694 163.689L75.2186 165.546L75.3576 166.171L74.1936 166.31L74.2458 167.195L75.4618 168.6L74.7669 169.78L75.7224 172.47L74.2284 174.465L73.2382 178.404L72.0568 178.508L71.5357 180.486L70.1633 181.128L67.8528 179.046L65.7855 179.081L65.3164 180.417L66.8973 182.586L65.7855 184.165L60.9908 182.621L59.5836 183.211L58.2633 184.772L56.3524 184.859L51.3318 183.662L50.7759 182.1L49.4382 183.211L47.1104 183.332L45.599 185.675L44.2613 186.282L41.9508 184.738L40.7869 182.621L41.1343 180.642L39.8662 180.157L38.3722 181.441L39.4145 184.026L38.4243 185.813L37.243 185.64L36.635 182.898L35.4537 182.117L34.9325 182.881L36.0269 183.957L36.2875 185.241L36.0964 186.473L35.3842 187.08L33.9423 187.028L31.3017 184.477L29.9293 184.46L29.0607 185.119L28.8175 186.039L29.3734 186.768L32.2398 186.334L32.5525 187.705L34.2723 189.266L34.6198 190.446L33.6469 191.158L31.2843 191.21L29.8945 189.371L28.5395 189.284L28.3484 190.412L29.4255 193.257L27.862 194.16L25.0651 193.587L21.139 185.987L18.62 186.594L18.1683 185.779L16.6222 186.282L15.0761 184.304L14.4333 186.143L13.7384 186.16L14.0337 184.79L12.366 183.87L13.6516 182.256L12.7308 182.395L11.6364 180.139L9.79493 179.098L11.5495 178.473L11.2889 177.901L9.58647 177.693L10.7157 176.235L8.50938 176.894L8.78734 174.882L7.08487 175.003L7.01537 173.632L5.9383 173.806L5.66034 173.268L6.70268 172.331L6.14676 171.324L6.91114 168.878L5.69509 167.472L6.82427 167.785L6.98064 167.368L6.09464 166.691L6.45947 165.355L5.24342 165.043L4.79173 163.499L5.22603 163.099L6.40736 164.141L5.85143 162.093L7.15435 162.527L7.76239 161.763L6.37261 161.52L5.36502 158.744L4.47904 158.276L5.13917 156.176L4.63539 154.649L5.66034 153.486L5.00021 153.261L4.07946 153.972L3.40195 152.706H4.11422L3.94051 151.231L4.757 149.548L2.98503 147.882L5.05233 146.893L3.38459 146.476L3.03715 145.765L3.83625 145.157L4.86123 145.504L5.20867 144.88L4.21844 143.422L4.77437 142.416L3.4367 140.646L5.19131 139.067L3.81889 138.72L4.49641 136.655L4.07946 134.017L4.53116 133.549L3.6973 131.189L4.94807 130.998L3.6973 130.078L3.97523 129.193L3.38459 127.857L3.99262 126.521L3.71466 125.775L4.42693 125.619L4.49641 123.623L6.89378 123.658L6.84166 122.738L7.69288 121.923L6.80691 120.639L7.58865 120.795L7.24121 119.875L7.86661 119.598L7.13699 118.8L7.1891 117.533L5.86882 116.266L5.88619 114.34L6.84166 114.479L6.23362 113.334L6.85902 112.431L5.53875 111.633L6.28574 109.603L3.99262 106.913L3.83625 102.35L0.952491 99.5908L2.91553 96.0857L4.1316 95.3396L4.53116 96.2592L5.41713 95.9469L4.757 93.3788L5.15656 92.65L4.3227 90.7239L5.86882 89.3704L6.25099 88.2252L7.71027 88.3293L7.76239 86.9411L8.66575 86.542L8.47465 85.4489L6.68529 83.4187L3.78414 81.5446L5.10444 79.4103L6.92853 78.3519L6.59845 75.7143L5.74721 75.1764L5.20867 72.5562L2.98503 69.2246L4.37481 67.2986L1.99481 66.0666L1.89058 65.4766L0.361816 64.7131V64.0017L2.1859 62.5267L1.05672 59.2646L1.24782 57.4946L2.41175 56.5923L2.48123 55.7768L4.34006 55.9329L4.94807 53.7639L2.96764 53.0178L4.20108 51.994L5.3129 51.942L5.34765 51.0744H5.88619L5.60822 49.7903L4.42693 48.9748L4.37481 46.2852L8.64836 45.9902V44.9838L6.35524 43.2312L6.85902 42.1901L5.66034 42.2421L4.86123 41.2531L5.39977 40.7499L5.01758 39.2923L5.52136 38.7717Z"/>
</mask>
<path d="M5.52136 38.7717L6.18151 39.3964L9.48222 38.737L10.4551 37.2447L10.5419 35.6136L11.6711 34.2602L13.8253 32.3341L14.9718 32.23L15.8926 31.0674L22.2681 31.2236L21.608 30.8765L21.5385 29.6272L22.8067 29.5404L22.4245 28.7596L23.3279 28.0481L23.5537 26.8508L24.6308 27.0938L24.596 26.2435L25.4299 26.2262L25.1172 25.0636L27.0976 24.196L27.9662 21.6278L30.6937 21.9228L31.4233 19.4068L32.6741 19.6497L33.369 16.856L34.4287 17.1337L34.7588 14.3747L35.9227 14.5482L35.3668 13.3162L35.8358 11.5116L36.4265 11.3381L36.1833 12.9865L38.8412 12.3965L39.0497 11.6677L37.4515 12.171L37.6773 10.4184L38.2158 10.4011L38.6849 9.22111L40.6827 9.16904L41.117 7.5553L41.6729 7.38178L42.8716 8.64849L45.5469 5.28219L47.3883 6.54888L50.2721 7.31237L50.689 6.3233L51.9051 5.82009L52.4437 3.98078L55.5012 4.65751L55.6575 2.47115L58.2112 0.874756L59.0798 1.46472L59.0972 3.92871L62.8322 3.7552L63.6835 6.51417L66.6367 8.23204L67.1058 10.2969L68.982 10.1581L68.5477 13.2988L66.5846 16.6478L66.0982 19.1812L70.1285 21.6105L69.9895 25.0289L72.9255 25.0809L73.9504 25.8791L76.0177 27.9961L75.0275 28.3605L75.2707 28.9157L74.3326 28.8116L76.2262 30.5121L76.2609 30.0436L77.4422 30.1477L77.4596 31.4491L79.6311 31.8482L80.2044 33.3752L81.8895 34.5899L82.4628 34.5552L83.2967 32.8026L86.4931 31.7441L86.2847 35.7178L87.1185 35.5442L88.0566 39.6393L89.1511 39.4832L88.8036 38.1297L90.4019 37.6265L90.4714 39.6567L91.4095 40.8019L88.5604 42.0686L88.1782 44.0468L89.1337 44.7929L88.1261 44.9144L88.3693 45.8514L87.5702 47.3784L90.6277 48.246L91.3747 51.942L90.6104 52.931L89.0642 51.9073L87.2575 54.8571L85.2423 53.5383L84.4606 53.4863L84.2174 54.1977L83.5746 54.2845L83.6267 56.0544L85.086 59.9933L84.1479 60.323L84.0437 61.3815L83.4704 61.4856L83.5051 64.1058L84.2869 64.2793L84.9123 63.5852L86.441 65.4072L88.1435 65.1816L87.327 66.6565L88.1435 68.9297L87.9177 70.0055L90.0544 73.8403L90.6451 72.7818L94.1543 73.3892L92.6603 76.3043L94.3975 76.6513L97.7503 80.1391L98.9143 79.9482L99.2791 78.5427L100.374 78.3171L100.495 79.9135L98.7058 81.7529L98.9837 82.4643L96.2216 82.846L96.4127 85.7438L99.0011 87.6526L99.0532 89.4051L98.9316 90.4116L98.2367 89.9778L97.7503 91.5568L96.7427 92.0253L95.8915 93.6911L98.0283 95.704L97.8546 97.9597L96.8122 98.9141L95.7004 97.5259L94.7102 98.0812L94.6928 101.1L97.4202 101.864L97.0554 102.766L96.2563 102.714L95.7873 104.016L95.075 105.039L95.4398 106.115L96.3953 105.699L97.9588 106.428L98.6884 106.133L99.9566 107.555L101.312 107.035L100.321 110.245L99.0532 110.766L99.1575 111.494L100.078 111.651L100.096 112.397L99.1575 112.57L99.2443 113.577L100.895 114.201L101.885 116.197L101.485 117.706L102.145 118.904L102.076 120.535L101.294 121.732L102.754 123.415L101.711 124.3L102.337 126.348L103.414 126.226L103.796 126.712L104.161 128.76L103.292 129.645L101.607 130.131L100.356 129.246L99.557 129.367L99.2964 128.604L97.9762 129.662L97.1249 127.979L97.2118 130.165L95.7699 131.172L95.9436 131.814L94.8492 132.924L93.4246 132.3L92.3997 132.994L89.0295 130.495L88.5431 131.085L86.3541 131.467L86.58 133.427L85.364 134.625L82.7581 132.907L82.9145 134.555L81.212 133.809L80.3781 134.521L80.8646 136.03L79.5964 137.557L80.7429 139.136L77.1469 139.292L73.7593 144.706L74.8538 145.4L74.5063 146.372L75.8614 148.09L75.8092 149.548L74.5237 150.797L74.3847 153.868L75.8266 156.089L75.8787 159.82V160.826L75.5139 162.215L76.4694 163.689L75.2186 165.546L75.3576 166.171L74.1936 166.31L74.2458 167.195L75.4618 168.6L74.7669 169.78L75.7224 172.47L74.2284 174.465L73.2382 178.404L72.0568 178.508L71.5357 180.486L70.1633 181.128L67.8528 179.046L65.7855 179.081L65.3164 180.417L66.8973 182.586L65.7855 184.165L60.9908 182.621L59.5836 183.211L58.2633 184.772L56.3524 184.859L51.3318 183.662L50.7759 182.1L49.4382 183.211L47.1104 183.332L45.599 185.675L44.2613 186.282L41.9508 184.738L40.7869 182.621L41.1343 180.642L39.8662 180.157L38.3722 181.441L39.4145 184.026L38.4243 185.813L37.243 185.64L36.635 182.898L35.4537 182.117L34.9325 182.881L36.0269 183.957L36.2875 185.241L36.0964 186.473L35.3842 187.08L33.9423 187.028L31.3017 184.477L29.9293 184.46L29.0607 185.119L28.8175 186.039L29.3734 186.768L32.2398 186.334L32.5525 187.705L34.2723 189.266L34.6198 190.446L33.6469 191.158L31.2843 191.21L29.8945 189.371L28.5395 189.284L28.3484 190.412L29.4255 193.257L27.862 194.16L25.0651 193.587L21.139 185.987L18.62 186.594L18.1683 185.779L16.6222 186.282L15.0761 184.304L14.4333 186.143L13.7384 186.16L14.0337 184.79L12.366 183.87L13.6516 182.256L12.7308 182.395L11.6364 180.139L9.79493 179.098L11.5495 178.473L11.2889 177.901L9.58647 177.693L10.7157 176.235L8.50938 176.894L8.78734 174.882L7.08487 175.003L7.01537 173.632L5.9383 173.806L5.66034 173.268L6.70268 172.331L6.14676 171.324L6.91114 168.878L5.69509 167.472L6.82427 167.785L6.98064 167.368L6.09464 166.691L6.45947 165.355L5.24342 165.043L4.79173 163.499L5.22603 163.099L6.40736 164.141L5.85143 162.093L7.15435 162.527L7.76239 161.763L6.37261 161.52L5.36502 158.744L4.47904 158.276L5.13917 156.176L4.63539 154.649L5.66034 153.486L5.00021 153.261L4.07946 153.972L3.40195 152.706H4.11422L3.94051 151.231L4.757 149.548L2.98503 147.882L5.05233 146.893L3.38459 146.476L3.03715 145.765L3.83625 145.157L4.86123 145.504L5.20867 144.88L4.21844 143.422L4.77437 142.416L3.4367 140.646L5.19131 139.067L3.81889 138.72L4.49641 136.655L4.07946 134.017L4.53116 133.549L3.6973 131.189L4.94807 130.998L3.6973 130.078L3.97523 129.193L3.38459 127.857L3.99262 126.521L3.71466 125.775L4.42693 125.619L4.49641 123.623L6.89378 123.658L6.84166 122.738L7.69288 121.923L6.80691 120.639L7.58865 120.795L7.24121 119.875L7.86661 119.598L7.13699 118.8L7.1891 117.533L5.86882 116.266L5.88619 114.34L6.84166 114.479L6.23362 113.334L6.85902 112.431L5.53875 111.633L6.28574 109.603L3.99262 106.913L3.83625 102.35L0.952491 99.5908L2.91553 96.0857L4.1316 95.3396L4.53116 96.2592L5.41713 95.9469L4.757 93.3788L5.15656 92.65L4.3227 90.7239L5.86882 89.3704L6.25099 88.2252L7.71027 88.3293L7.76239 86.9411L8.66575 86.542L8.47465 85.4489L6.68529 83.4187L3.78414 81.5446L5.10444 79.4103L6.92853 78.3519L6.59845 75.7143L5.74721 75.1764L5.20867 72.5562L2.98503 69.2246L4.37481 67.2986L1.99481 66.0666L1.89058 65.4766L0.361816 64.7131V64.0017L2.1859 62.5267L1.05672 59.2646L1.24782 57.4946L2.41175 56.5923L2.48123 55.7768L4.34006 55.9329L4.94807 53.7639L2.96764 53.0178L4.20108 51.994L5.3129 51.942L5.34765 51.0744H5.88619L5.60822 49.7903L4.42693 48.9748L4.37481 46.2852L8.64836 45.9902V44.9838L6.35524 43.2312L6.85902 42.1901L5.66034 42.2421L4.86123 41.2531L5.39977 40.7499L5.01758 39.2923L5.52136 38.7717Z" fill="#038405" stroke="#EAEAEA" stroke-width="2" mask="url(#path-1-inside-1_132_14)"/>
</svg>
