<svg width="191" height="175" viewBox="0 0 191 175" fill="none" xmlns="http://www.w3.org/2000/svg">
<mask id="path-1-inside-1_132_12" fill="white">
<path d="M154.523 0.350952L155.097 0.59388L154.784 2.67613L153.655 3.17934L153.707 7.25708L154.871 9.68637L156.017 10.1549L157.06 11.6645L159.075 12.3412L160.169 14.1979L161.733 13.365L163.835 13.9029L163.227 15.6729L163.244 20.4967L162.514 22.3881L164.078 24.8174L164.165 26.3617L168.039 30.5609L170.801 35.1246L173.25 34.656L176.482 37.0159L178.723 37.5538L180.668 38.8726L183.187 44.2864L184.959 45.5532L185.463 45.2929L187.739 48.451L186.558 49.1277L186.453 50.4291L187.096 51.3835L190.571 56.1726L189.511 57.1791L186.436 57.1964L185.793 59.3654L188.382 61.2047L188.364 61.8815L187.27 62.055L185.098 64.7793L183.813 63.4952L182.423 66.7054L183.761 68.7356L184.681 68.1456L186.036 68.3018L186.245 69.0132L185.289 69.5164L186.002 70.037L186.818 72.9174L187.861 73.3859L184.264 74.375L185.064 76.1275L183.848 76.5093L183.674 77.5157L181.954 77.6372L181.641 79.1642L182.284 81.2985L179.365 81.0555L178.497 83.0163L180.964 83.3807L180.721 84.1789L178.514 85.8447L176.395 85.6885L175.735 88.1179L176.482 88.8119L176.134 92.4732L178.045 92.4559L178.011 94.9719L179.157 96.256L178.028 103.058L178.358 104.654L182.11 105.47L182.701 107.101L179.279 108.402L179.991 109.339L177.298 110.589L177.593 111.404L176.499 112.619L176.1 114.701L174.97 114.597L174.936 114.146L173.198 114.528L162.601 111.786L159.301 112.255L158.519 113.14L155.896 115.708L162.184 118.05L163.731 119.837L158.415 122.683L155.531 123.169L155.027 123.655L155.861 124.453L156.156 126.345L154.436 127.125L154.593 127.559L153.742 127.247L152.908 127.837L152.821 127.334L150.927 127.091L150.25 127.993L149.068 128.219L149.346 130.422L148.443 130.336L148.287 133.181L147.505 133.268L146.567 132.21L146.324 133.008L144.708 133.737L145.351 134.101L144.951 134.708L144.43 134.396L143.753 135.194L145.212 136.461L144.604 137.797L145.907 138.109L145.629 139.688L142.154 139.567L142.015 140.972L139.722 140.92L138.906 142.603L137.69 143.454L137.62 149.18L134.736 147.531L134.98 146.681L132.148 145.935L131.418 147.618L130.671 147.462L130.341 149.215L127.77 148.85L127.475 150.221L126.867 150.169L126.137 151.297L127.718 152.598L127.787 153.292L128.934 153.414L128.239 154.854L124.469 150.915L117.885 150.256L116.912 152.72L115.905 152.824L115.54 152.234L113.021 152.095L111.701 151.401L111.631 150.325L109.894 149.943L108.14 152.633L108.331 153.171H109.373L109.616 155.444L110.902 158.776L110.398 159.765L109.668 159.903L110.12 163.426L111.11 165.734L107.254 165.907L107.288 166.532L106.072 166.74L106.211 167.348L102.355 167.972L101.59 166.723L100.774 166.671L95.9616 162.541L93.738 165.126L92.8867 164.988L92.6435 165.387L93.5817 165.734L92.9736 166.619L93.9117 166.792L92.383 167.313L89.9682 170.749L90.6979 171.252L88.4221 173.976L88.37 173.369L86.6675 172.119L85.0519 174.202L83.5405 173.091L86.3027 169.1L82.4634 166.237L84.2354 162.819L76.001 157.006L77.0954 154.854L75.7578 153.327L77.9119 153.136L78.4678 151.765L77.8077 151.262L76.887 151.522L74.7849 149.475H71.3452L71.9533 147.115L68.7394 145.484L69.9034 143.749L68.3398 142.447L70.077 139.896L66.1162 136.027L66.759 135.194L63.9794 132.522L62.5202 135.107L60.7308 134.674L60.4008 135.68L59.0457 136.114L58.5419 136.912L57.239 136.999L56.0577 138.89L55.4671 138.526L55.0154 136.617L53.5561 136.235L52.34 136.6L52.0621 135.697L51.2804 135.715L50.4118 137.033L48.8656 135.246L45.7734 135.454L45.6344 133.927L43.7061 133.91L41.8472 134.969L38.9461 134.5L38.5986 133.771L38.4076 134.604L37.2263 135.038L37.4173 134.118L36.8093 134.205L35.5933 132.886L32.2925 131.082V129.954L31.615 130.353L28.9224 128.219L29.0439 127.524L26.4381 126.258L27.0288 125.598L26.8551 124.696L24.8746 124.123L23.8323 122.371L22.6163 122.18L22.1646 123.204L19.9235 122.666L19.8541 121.694L22.2167 121.226L20.1147 119.733L20.1842 119.178L21.0875 118.883L20.1147 118.172L18.3774 118.033L17.144 119.039L15.9801 117.651L14.2429 118.449L13.7564 119.612L13.4264 118.016L11.8976 116.87L11.2896 118.501L9.84769 119.109L7.67617 110.276L10.2299 103.474L10.9248 102.937L13.1658 104.064L14.1039 105.539L16.3623 105.401L17.9953 106.043L22.9116 105.47L23.3285 105.8L22.651 106.338L25.0831 107.812L25.7953 106.199L25.3263 103.995L30.8854 97.0368L29.3046 96.3774L30.0689 92.5079L27.3415 91.5709L28.5228 87.4238L37.1047 89.0722L37.2957 86.4L34.0124 85.2374L33.9429 83.051L32.6053 82.7561L32.9875 82.0793L37.3652 81.125L34.9505 74.9303L33.7692 73.3512L34.2556 72.0498L29.513 72.7612L28.2796 71.3384L24.5445 70.9219L23.0506 70.089L23.8149 68.7009L23.0332 68.3191L23.9018 67.7639L23.7281 66.4451L22.1298 66.2542L21.1049 65.1263L21.2091 61.9162L20.6358 60.5107L21.8345 60.0595L21.5392 57.7343L17.2135 55.2009L16.0843 55.6868L12.8357 55.1662L11.9845 52.7369L10.6989 52.7022L9.32655 53.9863L8.04097 52.5287L7.01602 52.7369L5.3483 51.3661L3.76743 48.1907L2.55135 48.5204L1.99548 47.9824L0.397217 43.4709L6.63383 35.246L4.914 32.9035L4.74026 30.2486L5.33091 28.3572L7.13763 27.7326L6.49487 25.39L8.68373 25.5983L9.06592 26.1362L9.27438 25.5462L10.4905 25.8932L10.56 26.9864L11.3243 27.1599L12.9921 24.8695L12.9052 23.5507L15.3894 22.4749L17.5957 20.115L20.0278 21.3296L20.3405 20.4967L22.5468 21.5379L22.8073 20.7917L23.9365 20.8264L24.4403 18.1195L26.5771 18.2236L28.1406 17.1651L26.2297 15.8637L28.1753 13.1568L31.1633 15.3258L31.0591 13.1568L32.6226 13.1221L33.7171 11.8901L34.6726 13.4518L35.7496 13.5559L37.869 15.4993L38.425 14.9788L39.5889 15.7423L40.1969 14.7358L39.172 13.3824L42.4379 13.1568L43.654 12.2371L45.7386 12.7403L45.4954 13.1915L46.3293 13.7988H47.3716L47.6148 12.7924L48.4834 12.5321L48.7961 11.0745L47.4237 10.7275L47.7364 10.1028L52.2532 9.77314L56.0056 5.86892L56.1967 4.77574L55.6234 4.20312L57.8123 2.72819L58.125 3.47433L58.9936 3.05787L59.9491 3.6305L61.113 1.94734L63.3193 2.69348L71.4842 1.06238L77.0259 2.88436L77.9467 5.55658L78.8153 5.15748L81.5254 9.30463L84.0791 11.3175L83.5231 12.6536L85.0519 15.5687L89.1864 15.9678L89.8814 15.534L89.5513 14.9094L91.4622 14.0071L93.0257 12.2198L93.6338 13.8682H96.0659L96.9518 15.0829L98.5327 15.3779L98.6022 16.1761L99.8704 16.5578L102.059 16.2108L102.441 17.0957L101.434 17.1998L101.677 18.3104L100.669 19.4209L103.536 21.7287L105.812 22.2146L107.427 20.5661L108.14 17.8592L108.8 18.0848L109.703 16.9743L111.562 16.5752L112.847 14.6664L116.565 13.5733L118.268 11.8901L122.367 10.4499L127.735 10.3284L129.125 10.901L132.513 10.3284L132.443 9.61697L134.302 9.37404L135.171 9.9293L143.457 5.79951L144.673 3.37021L145.994 2.38114L150.649 2.78025L154.523 0.350952Z"/>
</mask>
<path d="M154.523 0.350952L155.097 0.59388L154.784 2.67613L153.655 3.17934L153.707 7.25708L154.871 9.68637L156.017 10.1549L157.06 11.6645L159.075 12.3412L160.169 14.1979L161.733 13.365L163.835 13.9029L163.227 15.6729L163.244 20.4967L162.514 22.3881L164.078 24.8174L164.165 26.3617L168.039 30.5609L170.801 35.1246L173.25 34.656L176.482 37.0159L178.723 37.5538L180.668 38.8726L183.187 44.2864L184.959 45.5532L185.463 45.2929L187.739 48.451L186.558 49.1277L186.453 50.4291L187.096 51.3835L190.571 56.1726L189.511 57.1791L186.436 57.1964L185.793 59.3654L188.382 61.2047L188.364 61.8815L187.27 62.055L185.098 64.7793L183.813 63.4952L182.423 66.7054L183.761 68.7356L184.681 68.1456L186.036 68.3018L186.245 69.0132L185.289 69.5164L186.002 70.037L186.818 72.9174L187.861 73.3859L184.264 74.375L185.064 76.1275L183.848 76.5093L183.674 77.5157L181.954 77.6372L181.641 79.1642L182.284 81.2985L179.365 81.0555L178.497 83.0163L180.964 83.3807L180.721 84.1789L178.514 85.8447L176.395 85.6885L175.735 88.1179L176.482 88.8119L176.134 92.4732L178.045 92.4559L178.011 94.9719L179.157 96.256L178.028 103.058L178.358 104.654L182.11 105.47L182.701 107.101L179.279 108.402L179.991 109.339L177.298 110.589L177.593 111.404L176.499 112.619L176.1 114.701L174.97 114.597L174.936 114.146L173.198 114.528L162.601 111.786L159.301 112.255L158.519 113.14L155.896 115.708L162.184 118.05L163.731 119.837L158.415 122.683L155.531 123.169L155.027 123.655L155.861 124.453L156.156 126.345L154.436 127.125L154.593 127.559L153.742 127.247L152.908 127.837L152.821 127.334L150.927 127.091L150.25 127.993L149.068 128.219L149.346 130.422L148.443 130.336L148.287 133.181L147.505 133.268L146.567 132.21L146.324 133.008L144.708 133.737L145.351 134.101L144.951 134.708L144.43 134.396L143.753 135.194L145.212 136.461L144.604 137.797L145.907 138.109L145.629 139.688L142.154 139.567L142.015 140.972L139.722 140.92L138.906 142.603L137.69 143.454L137.62 149.18L134.736 147.531L134.98 146.681L132.148 145.935L131.418 147.618L130.671 147.462L130.341 149.215L127.77 148.85L127.475 150.221L126.867 150.169L126.137 151.297L127.718 152.598L127.787 153.292L128.934 153.414L128.239 154.854L124.469 150.915L117.885 150.256L116.912 152.72L115.905 152.824L115.54 152.234L113.021 152.095L111.701 151.401L111.631 150.325L109.894 149.943L108.14 152.633L108.331 153.171H109.373L109.616 155.444L110.902 158.776L110.398 159.765L109.668 159.903L110.12 163.426L111.11 165.734L107.254 165.907L107.288 166.532L106.072 166.74L106.211 167.348L102.355 167.972L101.59 166.723L100.774 166.671L95.9616 162.541L93.738 165.126L92.8867 164.988L92.6435 165.387L93.5817 165.734L92.9736 166.619L93.9117 166.792L92.383 167.313L89.9682 170.749L90.6979 171.252L88.4221 173.976L88.37 173.369L86.6675 172.119L85.0519 174.202L83.5405 173.091L86.3027 169.1L82.4634 166.237L84.2354 162.819L76.001 157.006L77.0954 154.854L75.7578 153.327L77.9119 153.136L78.4678 151.765L77.8077 151.262L76.887 151.522L74.7849 149.475H71.3452L71.9533 147.115L68.7394 145.484L69.9034 143.749L68.3398 142.447L70.077 139.896L66.1162 136.027L66.759 135.194L63.9794 132.522L62.5202 135.107L60.7308 134.674L60.4008 135.68L59.0457 136.114L58.5419 136.912L57.239 136.999L56.0577 138.89L55.4671 138.526L55.0154 136.617L53.5561 136.235L52.34 136.6L52.0621 135.697L51.2804 135.715L50.4118 137.033L48.8656 135.246L45.7734 135.454L45.6344 133.927L43.7061 133.91L41.8472 134.969L38.9461 134.5L38.5986 133.771L38.4076 134.604L37.2263 135.038L37.4173 134.118L36.8093 134.205L35.5933 132.886L32.2925 131.082V129.954L31.615 130.353L28.9224 128.219L29.0439 127.524L26.4381 126.258L27.0288 125.598L26.8551 124.696L24.8746 124.123L23.8323 122.371L22.6163 122.18L22.1646 123.204L19.9235 122.666L19.8541 121.694L22.2167 121.226L20.1147 119.733L20.1842 119.178L21.0875 118.883L20.1147 118.172L18.3774 118.033L17.144 119.039L15.9801 117.651L14.2429 118.449L13.7564 119.612L13.4264 118.016L11.8976 116.87L11.2896 118.501L9.84769 119.109L7.67617 110.276L10.2299 103.474L10.9248 102.937L13.1658 104.064L14.1039 105.539L16.3623 105.401L17.9953 106.043L22.9116 105.47L23.3285 105.8L22.651 106.338L25.0831 107.812L25.7953 106.199L25.3263 103.995L30.8854 97.0368L29.3046 96.3774L30.0689 92.5079L27.3415 91.5709L28.5228 87.4238L37.1047 89.0722L37.2957 86.4L34.0124 85.2374L33.9429 83.051L32.6053 82.7561L32.9875 82.0793L37.3652 81.125L34.9505 74.9303L33.7692 73.3512L34.2556 72.0498L29.513 72.7612L28.2796 71.3384L24.5445 70.9219L23.0506 70.089L23.8149 68.7009L23.0332 68.3191L23.9018 67.7639L23.7281 66.4451L22.1298 66.2542L21.1049 65.1263L21.2091 61.9162L20.6358 60.5107L21.8345 60.0595L21.5392 57.7343L17.2135 55.2009L16.0843 55.6868L12.8357 55.1662L11.9845 52.7369L10.6989 52.7022L9.32655 53.9863L8.04097 52.5287L7.01602 52.7369L5.3483 51.3661L3.76743 48.1907L2.55135 48.5204L1.99548 47.9824L0.397217 43.4709L6.63383 35.246L4.914 32.9035L4.74026 30.2486L5.33091 28.3572L7.13763 27.7326L6.49487 25.39L8.68373 25.5983L9.06592 26.1362L9.27438 25.5462L10.4905 25.8932L10.56 26.9864L11.3243 27.1599L12.9921 24.8695L12.9052 23.5507L15.3894 22.4749L17.5957 20.115L20.0278 21.3296L20.3405 20.4967L22.5468 21.5379L22.8073 20.7917L23.9365 20.8264L24.4403 18.1195L26.5771 18.2236L28.1406 17.1651L26.2297 15.8637L28.1753 13.1568L31.1633 15.3258L31.0591 13.1568L32.6226 13.1221L33.7171 11.8901L34.6726 13.4518L35.7496 13.5559L37.869 15.4993L38.425 14.9788L39.5889 15.7423L40.1969 14.7358L39.172 13.3824L42.4379 13.1568L43.654 12.2371L45.7386 12.7403L45.4954 13.1915L46.3293 13.7988H47.3716L47.6148 12.7924L48.4834 12.5321L48.7961 11.0745L47.4237 10.7275L47.7364 10.1028L52.2532 9.77314L56.0056 5.86892L56.1967 4.77574L55.6234 4.20312L57.8123 2.72819L58.125 3.47433L58.9936 3.05787L59.9491 3.6305L61.113 1.94734L63.3193 2.69348L71.4842 1.06238L77.0259 2.88436L77.9467 5.55658L78.8153 5.15748L81.5254 9.30463L84.0791 11.3175L83.5231 12.6536L85.0519 15.5687L89.1864 15.9678L89.8814 15.534L89.5513 14.9094L91.4622 14.0071L93.0257 12.2198L93.6338 13.8682H96.0659L96.9518 15.0829L98.5327 15.3779L98.6022 16.1761L99.8704 16.5578L102.059 16.2108L102.441 17.0957L101.434 17.1998L101.677 18.3104L100.669 19.4209L103.536 21.7287L105.812 22.2146L107.427 20.5661L108.14 17.8592L108.8 18.0848L109.703 16.9743L111.562 16.5752L112.847 14.6664L116.565 13.5733L118.268 11.8901L122.367 10.4499L127.735 10.3284L129.125 10.901L132.513 10.3284L132.443 9.61697L134.302 9.37404L135.171 9.9293L143.457 5.79951L144.673 3.37021L145.994 2.38114L150.649 2.78025L154.523 0.350952Z" fill="#038405" stroke="#EAEAEA" stroke-width="2" mask="url(#path-1-inside-1_132_12)"/>
</svg>
