<svg width="175" height="156" viewBox="0 0 175 156" fill="none" xmlns="http://www.w3.org/2000/svg">
<mask id="path-1-inside-1_132_20" fill="white">
<path d="M80.5832 147.08L84.961 147.15L90.9544 146.282L93.8382 148.035L96.9131 148.868L96.2529 150.412L94.8632 150.481L93.925 152.078L90.9196 151.28L89.0261 151.713L87.6363 153.171L87.3758 154.559L88.2617 155.583H87.8448L83.3106 150.742L78.8807 147.098L76.3444 143.419L77.8558 145.536L80.5832 147.08ZM5.57007 8.12489L9.44409 5.38326L16.7057 6.00794L17.1921 7.06641L18.5645 5.34855L20.2496 7.27463L24.1062 7.22258L24.3842 6.30292L26.2082 5.81706L25.7739 4.61976L29.9259 3.596L30.1865 4.42889L33.9736 4.09919L34.5121 6.12939L35.7456 5.95588L35.7977 4.15125L36.5273 4.88003L37.6392 4.79327L38.1603 6.77143L39.9149 6.26821L40.714 6.89288L42.2254 6.25086L42.6424 4.67182L45.9604 4.44623L45.3524 1.35756L49.5739 0.507324L49.7997 1.34022L54.7334 0.594064L54.8724 1.37493L56.1927 1.61786L57.8256 3.82155L57.1134 5.03622L58.2773 6.00794L59.4586 5.8344L60.3968 10.5542L65.3478 8.94044L65.6605 10.8839L68.0578 10.346L69.0481 9.25277L69.7429 11.3177L71.2196 10.988L71.1849 10.2419L75.1631 9.4957L75.9101 13.0529L74.7288 13.5214L74.3292 15.1178L75.3195 15.0484L75.5452 16.2977L76.4139 15.7425L76.5181 14.9443L78.8807 14.8228L78.429 11.4044L79.315 11.2656L79.871 12.0465L80.7917 11.5779L80.8785 9.53041L83.7449 8.9925L84.2661 10.693L86.8372 10.346L87.4452 12.6017L91.7014 11.8382L92.4831 17.0439L89.5646 17.7727L89.4604 18.5882L90.6938 25.6852L92.1878 24.4011L92.57 24.7482L96.0966 24.0541L96.6872 28.3227L98.1118 28.0278L98.5113 32.7302L96.9305 32.8169L96.8262 34.6215L97.6427 36.2873L95.2454 36.8252L95.7491 39.671L103.237 38.6646L103.132 37.5714L108.552 36.8426L108.917 37.8664L109.821 37.797L110.602 39.7751L111.818 39.6363L112.166 42.1524L113.017 42.0309L113.573 42.8811L114.511 41.6665L114.859 42.5862L118.802 41.7879L118.368 39.0637L119.41 38.8034L119.375 37.0508L123.058 36.1312L126.811 39.1331L130.094 38.0746L130.493 39.1678L131.414 39.1157L143.853 36.617L145.26 33.8754L144.652 33.4763L144.391 32.0708L145.59 31.8625L145.121 29.0168L143.922 29.1209L143.731 27.8542L149.116 26.8651L148.543 25.1646L146.302 25.6158L146.042 22.5271L151.861 21.5381L152.574 23.1344L157.785 22.2495L157.438 19.2649L156.5 18.1717H159.262L159.175 17.6685L160.756 17.3041L161.364 17.8247L163.64 16.5927L164.369 21.9198L163.761 23.0303L164.526 26.466L163.709 26.7957L164.421 28.3227L165.186 28.6871L168.817 28.0104L169.129 30.9602L168.226 31.342L168.903 35.2636L167.531 35.6627L168.087 39.5669L167.097 40.0354L167.462 41.6838L168.07 41.7879L168.313 43.7487L162.528 45.241L163.935 54.2641L161.85 56.4158L169.633 55.9819L169.546 57.6651L169.633 62.3155L172.274 60.7191L172.517 61.2397L172.795 63.2004L171.474 63.9118L172.239 71.46L168.365 72.05L168.122 66.8097L167.201 67.174L167.253 68.7531L165.95 69.1696L166.193 74.271L166.489 74.9304L171.388 74.1496L172.117 78.9561L170.224 79.8064L170.328 83.3809L171.11 83.3462L172.291 84.3006L174.775 87.129L171.909 87.5628L171.822 88.8989L172.586 89.5756L171.805 90.0962L170.832 89.94L169.946 88.4304L168.052 88.708L168.017 90.3912L166.298 91.4844L166.384 92.2652L165.116 92.0569L164.456 90.6862L164.335 91.2414H161.694L161.19 93.4278L158.775 96.7594L160.235 100.785L168.209 105.661L165.533 109.843L161.312 107.518L160.13 108.576L161.225 112.099L162.823 111.925L163.084 113.261L159.696 113.695L159.905 115.083L154.693 116.263L154.867 117.773L155.614 118.102L159.244 117.478L159.522 118.97L161.016 118.71L161.173 119.682L153.199 121.122L153.129 121.764L150.784 122.041L150.541 122.944L149.916 122.371L146.406 122.926L145.955 119.543L139.753 119.994L139.041 118.415L137.425 118.675L137.269 117.599L136.626 117.686L137.095 120.41L136.331 120.584L136.695 122.753L133.065 123.221L132.665 121.104L126.967 122.041L127.401 125.026L125.82 125.182L118.576 120.584L120.018 123.083L117.864 124.176L118.229 127.16L115.414 127.785L115.084 128.722L112.114 129.225L111.575 128.757L108.709 129.468L109.021 130.874L109.803 130.752L110.359 134.552L106.416 135.194L107.093 136.149L104.626 136.287L104.331 137.103L99.8142 136.739L98.4766 138.908L93.3344 140.99L92.101 139.793L89.5125 139.446L85.9338 137.919L82.6157 137.849L80.6353 139.081L78.9676 141.805L77.074 140.244L75.1804 139.602L71.3412 139.359L70.49 140.122L68.1795 139.862L67.2066 141.771L63.5932 140.764L60.3099 140.886L57.0439 139.463L57.7388 137.745L56.9744 137.329L58.1557 136.652L56.9049 135.819L57.3566 132.626L55.2372 129.832L56.9049 127.386L55.463 124.748L55.7062 121.903L54.108 120.809L52.9788 120.913L51.7801 117.582L49.9908 116.246L48.8616 116.159L47.5587 110.936L51.6933 109.826L51.7454 108.975L54.4207 108.507L54.8724 109.34L60.8832 108.333L60.0319 105.696L62.0992 105.227L63.6453 105.54L63.7322 103.666L64.3576 103.457L63.819 100.681L64.2881 100.455L62.325 92.8552L61.1959 93.046L60.8137 92.2999L58.3989 92.7858L58.1036 94.1566L53.0483 94.1913L52.9962 91.3108L53.5521 91.2067L53.8474 92.2999L55.7931 91.9702L55.1503 88.7948L56.9049 88.3783L56.6617 84.6997L47.6803 87.0075L46.9854 84.4047L45.8041 84.5609L46.3426 82.7042L41.0962 83.7626L40.2276 80.1014L39.2895 80.2749L38.9421 78.9214L41.0962 77.8283L40.6098 76.6656L39.7933 76.7351L39.5327 75.9889L39.081 73.1779L40.2623 72.9003L39.7759 70.9221L37.6218 71.2692L37.5349 69.3604L38.5251 69.1522L37.7781 64.2069L39.5675 63.8077L38.9421 60.7885L36.5968 61.1702L36.3015 60.2506L33.1745 60.3373L31.889 59.2962L31.6979 58.446L31.5415 57.6478L33.5393 57.214L33.244 53.8824L34.3558 52.6851L34.1126 51.5398L29.4047 52.4595L30.0475 55.0102L27.4243 55.7217H26.4862L26.7468 52.8586L24.0715 53.6047L23.6893 52.7545L15.6112 54.2467L15.1596 52.2339L12.5537 52.7024L10.6775 42.4126L12.7275 41.7186L12.2063 39.5148L13.4397 39.3413L13.4049 38.3349L12.9359 38.2828L12.5885 36.5303L7.16834 37.2591L5.36162 27.6807L5.8307 27.1428L4.40617 25.182L2.25203 23.9153L2.47783 22.718L1.17491 19.7508L2.94691 18.8311L1.67872 16.0548L0.115234 15.0831L1.47026 14.8054L2.52994 13.2264L4.42356 13.5387L4.71885 12.5323L6.78615 12.5844L6.14339 12.22L6.33445 11.6821L7.11622 12.3414L8.64499 11.9597V11.1095L6.16078 10.7798L5.57007 8.12489Z"/>
</mask>
<path d="M80.5832 147.08L84.961 147.15L90.9544 146.282L93.8382 148.035L96.9131 148.868L96.2529 150.412L94.8632 150.481L93.925 152.078L90.9196 151.28L89.0261 151.713L87.6363 153.171L87.3758 154.559L88.2617 155.583H87.8448L83.3106 150.742L78.8807 147.098L76.3444 143.419L77.8558 145.536L80.5832 147.08ZM5.57007 8.12489L9.44409 5.38326L16.7057 6.00794L17.1921 7.06641L18.5645 5.34855L20.2496 7.27463L24.1062 7.22258L24.3842 6.30292L26.2082 5.81706L25.7739 4.61976L29.9259 3.596L30.1865 4.42889L33.9736 4.09919L34.5121 6.12939L35.7456 5.95588L35.7977 4.15125L36.5273 4.88003L37.6392 4.79327L38.1603 6.77143L39.9149 6.26821L40.714 6.89288L42.2254 6.25086L42.6424 4.67182L45.9604 4.44623L45.3524 1.35756L49.5739 0.507324L49.7997 1.34022L54.7334 0.594064L54.8724 1.37493L56.1927 1.61786L57.8256 3.82155L57.1134 5.03622L58.2773 6.00794L59.4586 5.8344L60.3968 10.5542L65.3478 8.94044L65.6605 10.8839L68.0578 10.346L69.0481 9.25277L69.7429 11.3177L71.2196 10.988L71.1849 10.2419L75.1631 9.4957L75.9101 13.0529L74.7288 13.5214L74.3292 15.1178L75.3195 15.0484L75.5452 16.2977L76.4139 15.7425L76.5181 14.9443L78.8807 14.8228L78.429 11.4044L79.315 11.2656L79.871 12.0465L80.7917 11.5779L80.8785 9.53041L83.7449 8.9925L84.2661 10.693L86.8372 10.346L87.4452 12.6017L91.7014 11.8382L92.4831 17.0439L89.5646 17.7727L89.4604 18.5882L90.6938 25.6852L92.1878 24.4011L92.57 24.7482L96.0966 24.0541L96.6872 28.3227L98.1118 28.0278L98.5113 32.7302L96.9305 32.8169L96.8262 34.6215L97.6427 36.2873L95.2454 36.8252L95.7491 39.671L103.237 38.6646L103.132 37.5714L108.552 36.8426L108.917 37.8664L109.821 37.797L110.602 39.7751L111.818 39.6363L112.166 42.1524L113.017 42.0309L113.573 42.8811L114.511 41.6665L114.859 42.5862L118.802 41.7879L118.368 39.0637L119.41 38.8034L119.375 37.0508L123.058 36.1312L126.811 39.1331L130.094 38.0746L130.493 39.1678L131.414 39.1157L143.853 36.617L145.26 33.8754L144.652 33.4763L144.391 32.0708L145.59 31.8625L145.121 29.0168L143.922 29.1209L143.731 27.8542L149.116 26.8651L148.543 25.1646L146.302 25.6158L146.042 22.5271L151.861 21.5381L152.574 23.1344L157.785 22.2495L157.438 19.2649L156.5 18.1717H159.262L159.175 17.6685L160.756 17.3041L161.364 17.8247L163.64 16.5927L164.369 21.9198L163.761 23.0303L164.526 26.466L163.709 26.7957L164.421 28.3227L165.186 28.6871L168.817 28.0104L169.129 30.9602L168.226 31.342L168.903 35.2636L167.531 35.6627L168.087 39.5669L167.097 40.0354L167.462 41.6838L168.07 41.7879L168.313 43.7487L162.528 45.241L163.935 54.2641L161.85 56.4158L169.633 55.9819L169.546 57.6651L169.633 62.3155L172.274 60.7191L172.517 61.2397L172.795 63.2004L171.474 63.9118L172.239 71.46L168.365 72.05L168.122 66.8097L167.201 67.174L167.253 68.7531L165.95 69.1696L166.193 74.271L166.489 74.9304L171.388 74.1496L172.117 78.9561L170.224 79.8064L170.328 83.3809L171.11 83.3462L172.291 84.3006L174.775 87.129L171.909 87.5628L171.822 88.8989L172.586 89.5756L171.805 90.0962L170.832 89.94L169.946 88.4304L168.052 88.708L168.017 90.3912L166.298 91.4844L166.384 92.2652L165.116 92.0569L164.456 90.6862L164.335 91.2414H161.694L161.19 93.4278L158.775 96.7594L160.235 100.785L168.209 105.661L165.533 109.843L161.312 107.518L160.13 108.576L161.225 112.099L162.823 111.925L163.084 113.261L159.696 113.695L159.905 115.083L154.693 116.263L154.867 117.773L155.614 118.102L159.244 117.478L159.522 118.97L161.016 118.71L161.173 119.682L153.199 121.122L153.129 121.764L150.784 122.041L150.541 122.944L149.916 122.371L146.406 122.926L145.955 119.543L139.753 119.994L139.041 118.415L137.425 118.675L137.269 117.599L136.626 117.686L137.095 120.41L136.331 120.584L136.695 122.753L133.065 123.221L132.665 121.104L126.967 122.041L127.401 125.026L125.82 125.182L118.576 120.584L120.018 123.083L117.864 124.176L118.229 127.16L115.414 127.785L115.084 128.722L112.114 129.225L111.575 128.757L108.709 129.468L109.021 130.874L109.803 130.752L110.359 134.552L106.416 135.194L107.093 136.149L104.626 136.287L104.331 137.103L99.8142 136.739L98.4766 138.908L93.3344 140.99L92.101 139.793L89.5125 139.446L85.9338 137.919L82.6157 137.849L80.6353 139.081L78.9676 141.805L77.074 140.244L75.1804 139.602L71.3412 139.359L70.49 140.122L68.1795 139.862L67.2066 141.771L63.5932 140.764L60.3099 140.886L57.0439 139.463L57.7388 137.745L56.9744 137.329L58.1557 136.652L56.9049 135.819L57.3566 132.626L55.2372 129.832L56.9049 127.386L55.463 124.748L55.7062 121.903L54.108 120.809L52.9788 120.913L51.7801 117.582L49.9908 116.246L48.8616 116.159L47.5587 110.936L51.6933 109.826L51.7454 108.975L54.4207 108.507L54.8724 109.34L60.8832 108.333L60.0319 105.696L62.0992 105.227L63.6453 105.54L63.7322 103.666L64.3576 103.457L63.819 100.681L64.2881 100.455L62.325 92.8552L61.1959 93.046L60.8137 92.2999L58.3989 92.7858L58.1036 94.1566L53.0483 94.1913L52.9962 91.3108L53.5521 91.2067L53.8474 92.2999L55.7931 91.9702L55.1503 88.7948L56.9049 88.3783L56.6617 84.6997L47.6803 87.0075L46.9854 84.4047L45.8041 84.5609L46.3426 82.7042L41.0962 83.7626L40.2276 80.1014L39.2895 80.2749L38.9421 78.9214L41.0962 77.8283L40.6098 76.6656L39.7933 76.7351L39.5327 75.9889L39.081 73.1779L40.2623 72.9003L39.7759 70.9221L37.6218 71.2692L37.5349 69.3604L38.5251 69.1522L37.7781 64.2069L39.5675 63.8077L38.9421 60.7885L36.5968 61.1702L36.3015 60.2506L33.1745 60.3373L31.889 59.2962L31.6979 58.446L31.5415 57.6478L33.5393 57.214L33.244 53.8824L34.3558 52.6851L34.1126 51.5398L29.4047 52.4595L30.0475 55.0102L27.4243 55.7217H26.4862L26.7468 52.8586L24.0715 53.6047L23.6893 52.7545L15.6112 54.2467L15.1596 52.2339L12.5537 52.7024L10.6775 42.4126L12.7275 41.7186L12.2063 39.5148L13.4397 39.3413L13.4049 38.3349L12.9359 38.2828L12.5885 36.5303L7.16834 37.2591L5.36162 27.6807L5.8307 27.1428L4.40617 25.182L2.25203 23.9153L2.47783 22.718L1.17491 19.7508L2.94691 18.8311L1.67872 16.0548L0.115234 15.0831L1.47026 14.8054L2.52994 13.2264L4.42356 13.5387L4.71885 12.5323L6.78615 12.5844L6.14339 12.22L6.33445 11.6821L7.11622 12.3414L8.64499 11.9597V11.1095L6.16078 10.7798L5.57007 8.12489Z" fill="#038405" stroke="#EAEAEA" stroke-width="2" mask="url(#path-1-inside-1_132_20)"/>
</svg>
