<svg width="194" height="161" viewBox="0 0 194 161" fill="none" xmlns="http://www.w3.org/2000/svg">
<mask id="path-1-inside-1_132_6" fill="white">
<path d="M148.218 0.416382L148.687 0.79813L147.957 1.87395L150.893 4.19914L151.693 6.10787L158.919 8.20747L159.249 10.4285L156.192 11.1573L157.373 12.4067L156.47 13.8122L159.701 17.8379L160.326 17.7511L160.917 16.0853L161.959 16.9182L161.768 18.1155L162.95 18.3064L163.801 23.0782L166.546 24.8655L166.042 27.1213L166.737 27.7459L166.146 27.9889L165.868 30.0017L167.067 31.3899L165.156 32.5698L164.478 31.7195L163.488 32.6392L167.136 37.3243L167.953 39.7189L171.062 38.9033L171.827 41.7317L174.155 42.0614L175.162 43.7793L175.232 48.2735L180.426 50.1301L181.642 51.8133L183.119 52.1603L182.493 53.2882L183.379 56.186L182.459 57.1577L185.898 59.6391L185.447 60.1076L185.534 64.3068L183.223 66.6146L181.225 66.684L181.069 71.1956L179.818 72.2194L181.538 73.3646L181.312 75.5683L182.111 76.9738L183.431 76.9218L184.769 77.9629L184.926 79.8543L179.888 79.6981L176.465 77.7547L173.182 77.3729L171.306 75.0304L169.516 79.5246L168.544 80.4269L168.682 80.9475L169.534 80.9995L168.839 82.1448L171.184 84.1055L173.581 84.8864L174.52 86.101L176.118 86.7257L177.316 88.9121L178.411 88.2006L179.905 89.3806L183.536 88.5477L185.117 89.207L186.211 90.8555L189.338 89.2591L191.701 89.502L191.127 90.9596L186.836 94.9506L185.933 97.1023L186.941 98.6292L193.785 100.972L193.768 102.933L189.251 104.893L190.137 105.605L190.884 109.093L190.12 110.515L192.621 111.591L192.691 112.164L191.058 112.337L191.04 113.205L184.543 114.593L184.335 113.535L182.441 113.743L182.268 113.084L181.138 112.91L180.617 113.83L181.295 115.27L177.16 115.548L177.004 114.732L175.631 115.929L175.162 115.183L173.13 114.489L173.616 116.866L172.07 116.936L170.715 110.238L169.273 110.897L168.839 108.902L169.256 108.451L168.005 108.034L167.466 106.871L166.25 108.902L163.818 108.555L163.106 108.121L163.453 107.01L162.915 105.102L162.168 105.327L161.977 104.338L158.937 104.997L158.103 103.956L157.981 104.46L156.713 104.494L156.644 106.195L155.045 106.282L154.159 112.702L152.301 111.678L151.814 113.847L149.278 114.593L149.208 115.738L150.424 116.658L150.355 118.862L149.886 119.296L147.575 119.4L147.176 120.128L146.516 119.903L146.707 118.723L144.309 118.775L142.972 117.543L141.686 119.122L138.194 119.816L136.457 121.933L136.492 119.764L132.218 117.352L131.141 117.283L129.943 115.999L129.404 116.866L126.59 118.012L123.827 117.63L122.942 120.684L119.102 119.955L116.653 121.603L117.556 119.816L116.861 119.296L115.854 120.354L116.531 120.753L116.027 121.239L116.757 122.783L115.489 123.877L115.941 124.467L115.037 126.08L115.558 126.618L113.665 127.815L113.63 129.047L109.235 131.06L107.532 132.57L108.14 133.333L107.81 133.837L106.872 133.247V134.132L105.708 135.086L105.83 133.923L104.979 135.624L103.519 134.704L103.363 135.711L101.939 135.763L100.775 133.073L98.0298 133.871L97.4218 132.344L95.3892 132.049L94.7465 133.195L92.7487 132.778L91.6021 134.531L90.9246 134.08L90.3166 134.878L89.9344 134.548L89.3958 135.711L88.1451 134.739L87.7976 135.346L86.7379 134.895L85.904 133.264L85.3307 133.524L83.9584 132.639L82.7076 132.969L82.2906 132.362L80.4318 132.639L79.7021 131.893L79.2505 131.945L79.4068 132.952L76.4362 132.691L76.3319 133.802L75.6718 134.062L72.7707 133.559L71.5025 132.032L71.0161 133.177L68.1323 132.084L67.9585 132.83L66.7946 132.934L64.6057 132.223L61.2008 133.68L61.0965 134.704L60.4364 134.461L59.5504 136.492L57.5873 136.387L59.6025 138.522L58.8555 141.454L56.4408 142.304L54.9642 144.595L57.3268 146.59L56.6493 147.423L57.153 147.857L56.9967 149.922L52.0456 150.217L50.4648 148.551L47.5289 149.315L46.5908 153.323L42.9079 153.896L41.7439 154.833L38.808 155.457L38.8775 156.88L37.3487 157.453L36.6886 157.557L33.3705 155.475L32.6409 156.151L32.3455 158.078L30.3825 160.16L29.1491 160.038L26.578 157.557L21.8354 158.355L21.8007 156.776L23.8853 156.256L24.0938 154.711L23.2773 154.208L24.9103 154.26L24.0069 149.471L21.2621 148.638L20.6367 147.562L20.8278 146.295L22.9125 146.018L23.3468 144.057L22.4087 144.005L22.2176 142.704L20.4283 142.131L20.5499 140.725L19.0211 140.673L16.6237 138.244L15.5988 138.192L15.9115 137.463L15.1992 136.925L15.842 135.502L16.9885 135.294L15.6509 133.229L15.9289 132.639L10.1092 130.748L9.53591 125.299L8.0766 124.362L7.50334 121.655L6.87791 121.013L7.95503 119.851L6.1657 118.931L5.31445 119.417L3.26452 117.179L3.92467 116.172L3.24716 115.478L5.81823 111.539L5.22759 111.175L5.17547 109.544L2.69123 110.585L0.658691 106.837L1.17986 106.629V105.744L1.92685 106.941L3.28188 103.175L5.40129 103.87L5.05385 101.631L8.11138 100.729L8.04187 99.7051H7.32961L6.86058 98.716L7.60757 93.8054L6.33938 91.5843L7.57284 91.8619L8.12871 91.1158L9.36217 91.3934L8.75414 92.7469L7.65968 93.1113L9.90071 95.5926L12.7845 95.02L13.2361 95.7314L15.2166 94.8465L16.9017 95.02L16.3805 93.7012L17.7008 93.2501L19.6986 89.3459L21.1231 88.7732L21.0536 86.2919L20.3066 84.5393L20.6367 83.5503L21.349 83.932L23.5552 83.3073L24.5107 82.0059L25.4141 81.7803L28.0894 82.5438L28.8017 85.8407L30.0003 87.2983L30.9037 85.9275L30.1046 84.2443L31.338 83.6891L32.3108 81.6242L32.4846 82.4571L35.5247 82.1621L34.8298 86.8819L45.0099 88.6518L45.1489 90.2829L45.6874 90.3696L47.1467 84.574L48.3627 84.2443L48.1542 82.0927L49.5441 81.6762L49.5962 79.9931L51.5418 78.7958L54.2171 82.1448H55.3637L57.292 79.8022L58.0564 80.0972L59.4288 78.414L61.2355 79.6287L63.3375 79.646L66.6904 81.8151L67.837 80.6525L69.7826 80.6698L70.8771 79.8022L74.7163 79.9931L75.7239 79.1255L77.1484 79.3511L77.8954 77.3729L78.5209 77.3556L78.764 74.9957L77.8954 74.1975L82.2906 73.5555L82.9334 72.6878L82.8291 71.2823L84.2537 69.3389L85.1744 70.623L84.9138 69.1307L86.1993 68.6622L88.0234 66.8923L88.4577 62.7278L89.1526 61.6519L89.778 61.3396L90.7161 62.3113L91.0115 61.461L91.5673 61.5305L90.803 59.9514L91.3937 59.3615L90.2644 59.1879L90.5598 57.1924L94.6075 51.0324L94.4164 49.5749L95.2155 49.9566L95.5108 49.2278L94.2774 48.5337L94.8854 45.9656L95.5108 45.5665L94.7639 43.8487L95.2155 41.6623L93.7389 40.465L95.4935 36.6996L94.9028 34.8082L96.918 33.5068L97.8734 34.3744L99.7323 31.9451L104.718 30.3661L104.857 29.6894L103.259 27.2774L102.408 27.0171L102.373 26.323L103.102 25.8025L100.914 24.6052L99.6107 25.1952L101.018 23.5814L99.9929 23.46L100.514 22.2106L105.326 21.7942L107.515 22.1933L108.505 23.0782L108.748 23.7897L107.498 27.3121L107.567 30.3487L108.575 32.483L110.103 32.8301L110.59 34.0968L111.754 33.9059L112.119 35.5197L112.831 35.3288L113.126 32.9342L115.402 32.5872L116.027 30.8173L116.948 30.5396L117.243 29.6894L118.564 29.7761L118.842 34.4438L124.661 34.9644L126.902 31.147L128.014 31.0428L127.893 28.7003L129.473 27.2774L130.62 24.4143L134.859 24.7093L135.623 26.6701L136.613 24.5358L135.536 19.6078L139.41 17.352L140.314 17.4908L140.574 16.6406L137.187 15.825L135.919 16.1374L136.127 12.0249L139.775 9.99473L138.941 8.60657L138.281 8.83214L137.638 6.97547L139.324 7.46133L141.287 3.57446L141.026 2.93243L142.225 2.56804L144.709 4.14708L146.446 1.04106L147.645 1.17988L148.218 0.416382Z"/>
</mask>
<path d="M148.218 0.416382L148.687 0.79813L147.957 1.87395L150.893 4.19914L151.693 6.10787L158.919 8.20747L159.249 10.4285L156.192 11.1573L157.373 12.4067L156.47 13.8122L159.701 17.8379L160.326 17.7511L160.917 16.0853L161.959 16.9182L161.768 18.1155L162.95 18.3064L163.801 23.0782L166.546 24.8655L166.042 27.1213L166.737 27.7459L166.146 27.9889L165.868 30.0017L167.067 31.3899L165.156 32.5698L164.478 31.7195L163.488 32.6392L167.136 37.3243L167.953 39.7189L171.062 38.9033L171.827 41.7317L174.155 42.0614L175.162 43.7793L175.232 48.2735L180.426 50.1301L181.642 51.8133L183.119 52.1603L182.493 53.2882L183.379 56.186L182.459 57.1577L185.898 59.6391L185.447 60.1076L185.534 64.3068L183.223 66.6146L181.225 66.684L181.069 71.1956L179.818 72.2194L181.538 73.3646L181.312 75.5683L182.111 76.9738L183.431 76.9218L184.769 77.9629L184.926 79.8543L179.888 79.6981L176.465 77.7547L173.182 77.3729L171.306 75.0304L169.516 79.5246L168.544 80.4269L168.682 80.9475L169.534 80.9995L168.839 82.1448L171.184 84.1055L173.581 84.8864L174.52 86.101L176.118 86.7257L177.316 88.9121L178.411 88.2006L179.905 89.3806L183.536 88.5477L185.117 89.207L186.211 90.8555L189.338 89.2591L191.701 89.502L191.127 90.9596L186.836 94.9506L185.933 97.1023L186.941 98.6292L193.785 100.972L193.768 102.933L189.251 104.893L190.137 105.605L190.884 109.093L190.12 110.515L192.621 111.591L192.691 112.164L191.058 112.337L191.04 113.205L184.543 114.593L184.335 113.535L182.441 113.743L182.268 113.084L181.138 112.91L180.617 113.83L181.295 115.27L177.16 115.548L177.004 114.732L175.631 115.929L175.162 115.183L173.13 114.489L173.616 116.866L172.07 116.936L170.715 110.238L169.273 110.897L168.839 108.902L169.256 108.451L168.005 108.034L167.466 106.871L166.25 108.902L163.818 108.555L163.106 108.121L163.453 107.01L162.915 105.102L162.168 105.327L161.977 104.338L158.937 104.997L158.103 103.956L157.981 104.46L156.713 104.494L156.644 106.195L155.045 106.282L154.159 112.702L152.301 111.678L151.814 113.847L149.278 114.593L149.208 115.738L150.424 116.658L150.355 118.862L149.886 119.296L147.575 119.4L147.176 120.128L146.516 119.903L146.707 118.723L144.309 118.775L142.972 117.543L141.686 119.122L138.194 119.816L136.457 121.933L136.492 119.764L132.218 117.352L131.141 117.283L129.943 115.999L129.404 116.866L126.59 118.012L123.827 117.63L122.942 120.684L119.102 119.955L116.653 121.603L117.556 119.816L116.861 119.296L115.854 120.354L116.531 120.753L116.027 121.239L116.757 122.783L115.489 123.877L115.941 124.467L115.037 126.08L115.558 126.618L113.665 127.815L113.63 129.047L109.235 131.06L107.532 132.57L108.14 133.333L107.81 133.837L106.872 133.247V134.132L105.708 135.086L105.83 133.923L104.979 135.624L103.519 134.704L103.363 135.711L101.939 135.763L100.775 133.073L98.0298 133.871L97.4218 132.344L95.3892 132.049L94.7465 133.195L92.7487 132.778L91.6021 134.531L90.9246 134.08L90.3166 134.878L89.9344 134.548L89.3958 135.711L88.1451 134.739L87.7976 135.346L86.7379 134.895L85.904 133.264L85.3307 133.524L83.9584 132.639L82.7076 132.969L82.2906 132.362L80.4318 132.639L79.7021 131.893L79.2505 131.945L79.4068 132.952L76.4362 132.691L76.3319 133.802L75.6718 134.062L72.7707 133.559L71.5025 132.032L71.0161 133.177L68.1323 132.084L67.9585 132.83L66.7946 132.934L64.6057 132.223L61.2008 133.68L61.0965 134.704L60.4364 134.461L59.5504 136.492L57.5873 136.387L59.6025 138.522L58.8555 141.454L56.4408 142.304L54.9642 144.595L57.3268 146.59L56.6493 147.423L57.153 147.857L56.9967 149.922L52.0456 150.217L50.4648 148.551L47.5289 149.315L46.5908 153.323L42.9079 153.896L41.7439 154.833L38.808 155.457L38.8775 156.88L37.3487 157.453L36.6886 157.557L33.3705 155.475L32.6409 156.151L32.3455 158.078L30.3825 160.16L29.1491 160.038L26.578 157.557L21.8354 158.355L21.8007 156.776L23.8853 156.256L24.0938 154.711L23.2773 154.208L24.9103 154.26L24.0069 149.471L21.2621 148.638L20.6367 147.562L20.8278 146.295L22.9125 146.018L23.3468 144.057L22.4087 144.005L22.2176 142.704L20.4283 142.131L20.5499 140.725L19.0211 140.673L16.6237 138.244L15.5988 138.192L15.9115 137.463L15.1992 136.925L15.842 135.502L16.9885 135.294L15.6509 133.229L15.9289 132.639L10.1092 130.748L9.53591 125.299L8.0766 124.362L7.50334 121.655L6.87791 121.013L7.95503 119.851L6.1657 118.931L5.31445 119.417L3.26452 117.179L3.92467 116.172L3.24716 115.478L5.81823 111.539L5.22759 111.175L5.17547 109.544L2.69123 110.585L0.658691 106.837L1.17986 106.629V105.744L1.92685 106.941L3.28188 103.175L5.40129 103.87L5.05385 101.631L8.11138 100.729L8.04187 99.7051H7.32961L6.86058 98.716L7.60757 93.8054L6.33938 91.5843L7.57284 91.8619L8.12871 91.1158L9.36217 91.3934L8.75414 92.7469L7.65968 93.1113L9.90071 95.5926L12.7845 95.02L13.2361 95.7314L15.2166 94.8465L16.9017 95.02L16.3805 93.7012L17.7008 93.2501L19.6986 89.3459L21.1231 88.7732L21.0536 86.2919L20.3066 84.5393L20.6367 83.5503L21.349 83.932L23.5552 83.3073L24.5107 82.0059L25.4141 81.7803L28.0894 82.5438L28.8017 85.8407L30.0003 87.2983L30.9037 85.9275L30.1046 84.2443L31.338 83.6891L32.3108 81.6242L32.4846 82.4571L35.5247 82.1621L34.8298 86.8819L45.0099 88.6518L45.1489 90.2829L45.6874 90.3696L47.1467 84.574L48.3627 84.2443L48.1542 82.0927L49.5441 81.6762L49.5962 79.9931L51.5418 78.7958L54.2171 82.1448H55.3637L57.292 79.8022L58.0564 80.0972L59.4288 78.414L61.2355 79.6287L63.3375 79.646L66.6904 81.8151L67.837 80.6525L69.7826 80.6698L70.8771 79.8022L74.7163 79.9931L75.7239 79.1255L77.1484 79.3511L77.8954 77.3729L78.5209 77.3556L78.764 74.9957L77.8954 74.1975L82.2906 73.5555L82.9334 72.6878L82.8291 71.2823L84.2537 69.3389L85.1744 70.623L84.9138 69.1307L86.1993 68.6622L88.0234 66.8923L88.4577 62.7278L89.1526 61.6519L89.778 61.3396L90.7161 62.3113L91.0115 61.461L91.5673 61.5305L90.803 59.9514L91.3937 59.3615L90.2644 59.1879L90.5598 57.1924L94.6075 51.0324L94.4164 49.5749L95.2155 49.9566L95.5108 49.2278L94.2774 48.5337L94.8854 45.9656L95.5108 45.5665L94.7639 43.8487L95.2155 41.6623L93.7389 40.465L95.4935 36.6996L94.9028 34.8082L96.918 33.5068L97.8734 34.3744L99.7323 31.9451L104.718 30.3661L104.857 29.6894L103.259 27.2774L102.408 27.0171L102.373 26.323L103.102 25.8025L100.914 24.6052L99.6107 25.1952L101.018 23.5814L99.9929 23.46L100.514 22.2106L105.326 21.7942L107.515 22.1933L108.505 23.0782L108.748 23.7897L107.498 27.3121L107.567 30.3487L108.575 32.483L110.103 32.8301L110.59 34.0968L111.754 33.9059L112.119 35.5197L112.831 35.3288L113.126 32.9342L115.402 32.5872L116.027 30.8173L116.948 30.5396L117.243 29.6894L118.564 29.7761L118.842 34.4438L124.661 34.9644L126.902 31.147L128.014 31.0428L127.893 28.7003L129.473 27.2774L130.62 24.4143L134.859 24.7093L135.623 26.6701L136.613 24.5358L135.536 19.6078L139.41 17.352L140.314 17.4908L140.574 16.6406L137.187 15.825L135.919 16.1374L136.127 12.0249L139.775 9.99473L138.941 8.60657L138.281 8.83214L137.638 6.97547L139.324 7.46133L141.287 3.57446L141.026 2.93243L142.225 2.56804L144.709 4.14708L146.446 1.04106L147.645 1.17988L148.218 0.416382Z" fill="#038405" stroke="#EAEAEA" stroke-width="2" mask="url(#path-1-inside-1_132_6)"/>
</svg>
