<svg width="246" height="154" viewBox="0 0 246 154" fill="none" xmlns="http://www.w3.org/2000/svg">
<mask id="path-1-inside-1_132_5" fill="white">
<path d="M245.343 70.9225L245.464 71.4257L244.543 71.9636L243.241 74.2194L239.801 74.2888L236.917 72.918L235.597 73.6468L235.215 75.5034L237.351 76.9089L236.361 77.9328L233.859 78.6441L232.643 79.7721L233.147 81.7849L233.512 80.4314L233.859 81.4032L231.757 85.8453L232.869 92.2829L234.867 95.6145L229.986 98.8767L223.297 99.4146L221.108 101.462L209.521 99.5535L207.471 99.9178L206.464 101.289L204.917 102.087L202.173 101.584L198.125 103.284L197.621 102.087L196.422 101.41L196.44 99.9005L194.268 97.5232L189.335 94.2784L183.115 92.3523L178.095 93.4108L174.62 95.3369L171.459 98.8767L171.58 100.994L173.7 102.052L169.774 104.065L169.513 105.123L170.156 106.165L171.615 106.893L171.302 107.379L167.585 105.644L164.023 106.026L163.294 106.945L163.537 108.282L162.686 109.93L159.923 110.607L158.134 111.7L156.727 114.841L156.38 117.721L153.583 120.272L151.62 119.578L151.724 118.398L150.595 117.235L148.857 116.784L148.18 117.253L146.807 116.35L143.993 117.183L143.976 117.895L142.621 118.328L141.266 117.86L132.91 118.693L129.435 120.671L125.822 121.816L116.875 127.039L114.374 130.163L111.75 136.895L110.5 137.537L110.395 140.383L107.963 139.984L106.243 141.06L104.663 143.888L99.8157 144.894L97.4531 150.256L93.527 150.968L91.9461 152.217L89.1666 152.408L88.2111 153.119L82.8431 152.13L82.9126 150.707L83.5032 150.135H84.7714L85.6052 148.608L81.158 141.337L80.4805 137.346L75.5294 134.882L75.0256 133.945L75.1125 130.909L77.1276 129.711L77.3708 129.035L76.9539 127.126L74.018 125.373L69.8139 127.022L68.3199 125.616L68.1462 124.315L68.8932 123.482L70.5783 123.725L71.7423 123.135L71.169 120.55L70.2482 119.734L66.4611 119.595L64.9497 118.658L63.4557 118.866L63.7163 116.42L64.8281 116.541L66.0268 115.83L66.8086 114.06L67.1907 110.624L66.4264 105.158L66.687 103.406L64.2722 96.1004L61.4232 92.04L57.636 88.5522L53.9184 86.7823L51.7295 88.6563L49.0542 88.7778L47.7513 90.9121L46.3963 90.8774L44.5548 88.7084L42.0358 87.8581L39.9164 86.2964L34.8958 80.1885L30.3617 76.0587L25.6712 73.0915L22.6832 72.5015L16.8809 72.7792L10.6269 77.0304L1.40225 74.3235L2.4967 73.1262L2.56621 71.9983L0.551025 70.1937L4.1992 65.2831L6.90925 63.0967L11.5824 60.303L13.1633 59.8345L13.945 60.1989L14.1708 59.0884L18.7918 56.312L19.643 57.0408L20.4769 56.5897L20.8938 57.0408L22.0057 55.1495L21.6582 54.5074L20.529 54.5421L20.7028 54.0736L25.897 49.7703L36.772 43.6971L39.2736 43.2806L40.2291 41.4413L41.4104 35.9754L40.9761 37.4503L41.7057 38.7343L43.8252 40.3481L45.1802 40.5737L51.6948 37.7626L56.0204 33.5634L57.4102 34.4484L57.8097 33.6502L58.8521 33.3552V32.3314L59.5644 31.8976L60.1376 31.8456L60.5025 33.0602L62.1876 32.4356L62.5698 33.5114L63.0388 33.494L64.4285 30.683L65.1582 30.8045L67.1907 28.8784L68.5979 30.3186L69.675 30.5441L71.2559 32.9387L71.0821 27.4728L71.9855 27.5249L73.8096 25.8244L75.5468 26.1714L75.8074 25.6856L74.9561 23.7942L70.0224 23.4645L68.65 24.0024L68.5458 24.5577L67.3992 24.1586L68.2331 22.7704L67.2429 15.1876L68.8932 12.6368L67.295 8.26406L68.511 7.83026L67.2429 0.472987L68.9627 0.177979L71.4295 2.60731L72.3503 2.83285L72.9062 5.48777L73.5316 4.89775L74.0875 5.12334L73.8617 6.63296L74.5566 7.58736L75.7205 8.02116L76.3633 7.44851L77.753 9.42667L78.1352 9.56547L79.9419 6.94534L78.9517 6.56359L78.5521 4.68953L79.5598 4.01283L80.7411 4.88043L81.9745 6.75444V7.76089L80.4457 9.63489L80.8627 10.381L79.5771 9.9299L79.4381 10.7801L81.158 10.9537L83.2948 12.7409L84.146 15.7428L83.9028 16.246L83.1905 15.8643L82.9647 17.2872L83.5379 16.5237L84.3023 17.2872L84.6151 17.0095L84.5629 14.7885L85.31 13.9209L86.1959 13.5738L86.7171 13.9729L86.1612 14.2159L86.3349 15.0835L87.0298 16.8534L87.5509 16.9575L88.0721 16.6452L86.8213 14.8752L89.9483 14.3373L89.1492 13.5044L87.8289 13.9555L86.0222 12.6889L86.7344 11.6651L91.2339 11.0057L93.9265 13.3135L94.7778 13.3309L95.4032 15.7949L97.6268 16.541L99.8505 19.1959L100.945 19.5256L98.3217 22.2498L97.8527 22.1978L97.592 21.0699L95.9591 21.1914L97.1577 23.586L99.0514 23.6727L98.8428 24.818L101.431 24.0892L101.935 23.3778L102.665 24.0718L102.908 23.4992L102.144 22.9613L101.622 19.4041L100.597 18.6233L100.962 17.6689L99.7288 17.3566L100.302 18.2415L99.6593 18.4324L97.8874 15.8122L96.8277 15.0835L96.1154 15.4825L96.5498 13.7994L98.5302 15.3784L99.6767 14.7885L101.952 15.899L102.665 15.6734L104.141 16.9401L104.124 17.9986L103.29 18.2415L104.159 20.1156L104.524 19.7511L103.985 18.363L105.879 15.3437L106.73 16.0725L106.07 17.8945L106.539 19.3347L108.832 19.942L108.901 20.6187L109.787 19.7511L109.353 18.953L109.718 18.2936L108.345 17.8771L108.432 17.3219L109.944 17.1831L110.847 16.4543L112.88 19.0571L113.974 22.1111L118.682 25.9285L118.022 28.3578L118.543 30.2839L120.211 29.3642L121.479 26.1194L123.442 27.2299L124.328 26.6573L122.625 22.3193L123.407 21.3129L122.695 20.6187L127.611 23.7942L128.237 24.9741L126.968 29.1213L122.608 31.1862L122.591 32.9387L120.35 34.8995L120.106 35.9754L117.171 36.1489L117.918 37.832L122.208 36.9298L125.857 32.9041L128.74 30.7004L133.066 29.3122L134.352 28.3231L135.272 29.9369L134.63 31.03L133.205 29.8674L129.661 31.7762L128.723 36.4786L134.282 34.5352L134.508 36.2183L135.168 36.0448L136.071 37.0512L134.89 38.8038L134.039 39.1508L133.813 40.5563L131.624 40.8513L129.557 43.1071L130.582 43.4368L130.877 44.3391L134.074 42.8989L134.908 43.0724L136.315 42.0139L141.631 40.5563L138.312 43.2459L139.181 43.5062L139.129 45.3282L141.509 43.7665L142.447 44.9811L141.717 45.4149L141.7 46.3866L142.69 47.3236L143.854 46.4907L146.825 45.9355L146.512 47.7054L147.711 49.0242L150.299 49.8223L153.843 56.6417L155.233 62.767L153.808 64.5022L151.289 65.4566L150.421 66.6886L152.158 70.8531L153.93 73.3518L156.831 75.4167L157.735 75.3299L158.395 74.5317L160.201 74.8267L164.892 77.8633L169.409 79.6506L170.051 80.5008L168.297 82.0973L169.704 83.0863L169.635 84.0581L170.764 81.9758L175.159 81.0214L175.732 81.5593L175.941 78.5574L173.213 78.2277L171.354 74.9482L169.113 73.56L167.585 70.5581L166.664 70.8531L161.869 62.7149L159.246 59.1404L157.596 57.8216L153.27 51.3493L152.106 50.5685L150.786 47.5666L149.778 46.4387H149.049L146.912 39.9837L145.279 37.6933L146.252 37.19L152.766 49.857L166.646 69.0484L172.553 75.4687L175.819 77.9154L179.241 79.5812L184.401 77.0825L191.037 75.3993L191.454 73.9938L193.33 72.2065L193.452 71.4084L192.74 70.506L197.065 66.9662L196.926 64.7625L198.663 63.7387L200.036 64.346L198.438 65.8557L199.741 68.1982L203.093 71.1481L206.012 72.3801L208.791 72.1545L210.807 70.7316L211.866 69.2393L211.727 66.5671L212.526 65.821L216.956 64.1725L224.305 63.1141L226.337 64.0163L227.588 63.5305L229.308 64.1725L231.74 65.9945L234.068 65.1269L235.562 65.231L238.585 67.6082L240.096 67.9726L240.895 67.6082L241.26 66.5671L242.546 66.7233L243.588 68.1288L243.345 69.3435L245.343 70.9225Z"/>
</mask>
<path d="M245.343 70.9225L245.464 71.4257L244.543 71.9636L243.241 74.2194L239.801 74.2888L236.917 72.918L235.597 73.6468L235.215 75.5034L237.351 76.9089L236.361 77.9328L233.859 78.6441L232.643 79.7721L233.147 81.7849L233.512 80.4314L233.859 81.4032L231.757 85.8453L232.869 92.2829L234.867 95.6145L229.986 98.8767L223.297 99.4146L221.108 101.462L209.521 99.5535L207.471 99.9178L206.464 101.289L204.917 102.087L202.173 101.584L198.125 103.284L197.621 102.087L196.422 101.41L196.44 99.9005L194.268 97.5232L189.335 94.2784L183.115 92.3523L178.095 93.4108L174.62 95.3369L171.459 98.8767L171.58 100.994L173.7 102.052L169.774 104.065L169.513 105.123L170.156 106.165L171.615 106.893L171.302 107.379L167.585 105.644L164.023 106.026L163.294 106.945L163.537 108.282L162.686 109.93L159.923 110.607L158.134 111.7L156.727 114.841L156.38 117.721L153.583 120.272L151.62 119.578L151.724 118.398L150.595 117.235L148.857 116.784L148.18 117.253L146.807 116.35L143.993 117.183L143.976 117.895L142.621 118.328L141.266 117.86L132.91 118.693L129.435 120.671L125.822 121.816L116.875 127.039L114.374 130.163L111.75 136.895L110.5 137.537L110.395 140.383L107.963 139.984L106.243 141.06L104.663 143.888L99.8157 144.894L97.4531 150.256L93.527 150.968L91.9461 152.217L89.1666 152.408L88.2111 153.119L82.8431 152.13L82.9126 150.707L83.5032 150.135H84.7714L85.6052 148.608L81.158 141.337L80.4805 137.346L75.5294 134.882L75.0256 133.945L75.1125 130.909L77.1276 129.711L77.3708 129.035L76.9539 127.126L74.018 125.373L69.8139 127.022L68.3199 125.616L68.1462 124.315L68.8932 123.482L70.5783 123.725L71.7423 123.135L71.169 120.55L70.2482 119.734L66.4611 119.595L64.9497 118.658L63.4557 118.866L63.7163 116.42L64.8281 116.541L66.0268 115.83L66.8086 114.06L67.1907 110.624L66.4264 105.158L66.687 103.406L64.2722 96.1004L61.4232 92.04L57.636 88.5522L53.9184 86.7823L51.7295 88.6563L49.0542 88.7778L47.7513 90.9121L46.3963 90.8774L44.5548 88.7084L42.0358 87.8581L39.9164 86.2964L34.8958 80.1885L30.3617 76.0587L25.6712 73.0915L22.6832 72.5015L16.8809 72.7792L10.6269 77.0304L1.40225 74.3235L2.4967 73.1262L2.56621 71.9983L0.551025 70.1937L4.1992 65.2831L6.90925 63.0967L11.5824 60.303L13.1633 59.8345L13.945 60.1989L14.1708 59.0884L18.7918 56.312L19.643 57.0408L20.4769 56.5897L20.8938 57.0408L22.0057 55.1495L21.6582 54.5074L20.529 54.5421L20.7028 54.0736L25.897 49.7703L36.772 43.6971L39.2736 43.2806L40.2291 41.4413L41.4104 35.9754L40.9761 37.4503L41.7057 38.7343L43.8252 40.3481L45.1802 40.5737L51.6948 37.7626L56.0204 33.5634L57.4102 34.4484L57.8097 33.6502L58.8521 33.3552V32.3314L59.5644 31.8976L60.1376 31.8456L60.5025 33.0602L62.1876 32.4356L62.5698 33.5114L63.0388 33.494L64.4285 30.683L65.1582 30.8045L67.1907 28.8784L68.5979 30.3186L69.675 30.5441L71.2559 32.9387L71.0821 27.4728L71.9855 27.5249L73.8096 25.8244L75.5468 26.1714L75.8074 25.6856L74.9561 23.7942L70.0224 23.4645L68.65 24.0024L68.5458 24.5577L67.3992 24.1586L68.2331 22.7704L67.2429 15.1876L68.8932 12.6368L67.295 8.26406L68.511 7.83026L67.2429 0.472987L68.9627 0.177979L71.4295 2.60731L72.3503 2.83285L72.9062 5.48777L73.5316 4.89775L74.0875 5.12334L73.8617 6.63296L74.5566 7.58736L75.7205 8.02116L76.3633 7.44851L77.753 9.42667L78.1352 9.56547L79.9419 6.94534L78.9517 6.56359L78.5521 4.68953L79.5598 4.01283L80.7411 4.88043L81.9745 6.75444V7.76089L80.4457 9.63489L80.8627 10.381L79.5771 9.9299L79.4381 10.7801L81.158 10.9537L83.2948 12.7409L84.146 15.7428L83.9028 16.246L83.1905 15.8643L82.9647 17.2872L83.5379 16.5237L84.3023 17.2872L84.6151 17.0095L84.5629 14.7885L85.31 13.9209L86.1959 13.5738L86.7171 13.9729L86.1612 14.2159L86.3349 15.0835L87.0298 16.8534L87.5509 16.9575L88.0721 16.6452L86.8213 14.8752L89.9483 14.3373L89.1492 13.5044L87.8289 13.9555L86.0222 12.6889L86.7344 11.6651L91.2339 11.0057L93.9265 13.3135L94.7778 13.3309L95.4032 15.7949L97.6268 16.541L99.8505 19.1959L100.945 19.5256L98.3217 22.2498L97.8527 22.1978L97.592 21.0699L95.9591 21.1914L97.1577 23.586L99.0514 23.6727L98.8428 24.818L101.431 24.0892L101.935 23.3778L102.665 24.0718L102.908 23.4992L102.144 22.9613L101.622 19.4041L100.597 18.6233L100.962 17.6689L99.7288 17.3566L100.302 18.2415L99.6593 18.4324L97.8874 15.8122L96.8277 15.0835L96.1154 15.4825L96.5498 13.7994L98.5302 15.3784L99.6767 14.7885L101.952 15.899L102.665 15.6734L104.141 16.9401L104.124 17.9986L103.29 18.2415L104.159 20.1156L104.524 19.7511L103.985 18.363L105.879 15.3437L106.73 16.0725L106.07 17.8945L106.539 19.3347L108.832 19.942L108.901 20.6187L109.787 19.7511L109.353 18.953L109.718 18.2936L108.345 17.8771L108.432 17.3219L109.944 17.1831L110.847 16.4543L112.88 19.0571L113.974 22.1111L118.682 25.9285L118.022 28.3578L118.543 30.2839L120.211 29.3642L121.479 26.1194L123.442 27.2299L124.328 26.6573L122.625 22.3193L123.407 21.3129L122.695 20.6187L127.611 23.7942L128.237 24.9741L126.968 29.1213L122.608 31.1862L122.591 32.9387L120.35 34.8995L120.106 35.9754L117.171 36.1489L117.918 37.832L122.208 36.9298L125.857 32.9041L128.74 30.7004L133.066 29.3122L134.352 28.3231L135.272 29.9369L134.63 31.03L133.205 29.8674L129.661 31.7762L128.723 36.4786L134.282 34.5352L134.508 36.2183L135.168 36.0448L136.071 37.0512L134.89 38.8038L134.039 39.1508L133.813 40.5563L131.624 40.8513L129.557 43.1071L130.582 43.4368L130.877 44.3391L134.074 42.8989L134.908 43.0724L136.315 42.0139L141.631 40.5563L138.312 43.2459L139.181 43.5062L139.129 45.3282L141.509 43.7665L142.447 44.9811L141.717 45.4149L141.7 46.3866L142.69 47.3236L143.854 46.4907L146.825 45.9355L146.512 47.7054L147.711 49.0242L150.299 49.8223L153.843 56.6417L155.233 62.767L153.808 64.5022L151.289 65.4566L150.421 66.6886L152.158 70.8531L153.93 73.3518L156.831 75.4167L157.735 75.3299L158.395 74.5317L160.201 74.8267L164.892 77.8633L169.409 79.6506L170.051 80.5008L168.297 82.0973L169.704 83.0863L169.635 84.0581L170.764 81.9758L175.159 81.0214L175.732 81.5593L175.941 78.5574L173.213 78.2277L171.354 74.9482L169.113 73.56L167.585 70.5581L166.664 70.8531L161.869 62.7149L159.246 59.1404L157.596 57.8216L153.27 51.3493L152.106 50.5685L150.786 47.5666L149.778 46.4387H149.049L146.912 39.9837L145.279 37.6933L146.252 37.19L152.766 49.857L166.646 69.0484L172.553 75.4687L175.819 77.9154L179.241 79.5812L184.401 77.0825L191.037 75.3993L191.454 73.9938L193.33 72.2065L193.452 71.4084L192.74 70.506L197.065 66.9662L196.926 64.7625L198.663 63.7387L200.036 64.346L198.438 65.8557L199.741 68.1982L203.093 71.1481L206.012 72.3801L208.791 72.1545L210.807 70.7316L211.866 69.2393L211.727 66.5671L212.526 65.821L216.956 64.1725L224.305 63.1141L226.337 64.0163L227.588 63.5305L229.308 64.1725L231.74 65.9945L234.068 65.1269L235.562 65.231L238.585 67.6082L240.096 67.9726L240.895 67.6082L241.26 66.5671L242.546 66.7233L243.588 68.1288L243.345 69.3435L245.343 70.9225Z" fill="#038405" stroke="#EAEAEA" stroke-width="2" mask="url(#path-1-inside-1_132_5)"/>
</svg>
