<svg width="162" height="213" viewBox="0 0 162 213" fill="none" xmlns="http://www.w3.org/2000/svg">
<mask id="path-1-inside-1_132_24" fill="white">
<path d="M53.3937 1.60707L54.4186 4.22723L53.6195 5.54599L55.5305 6.81269L57.3545 7.38531L57.6846 6.70858L58.2579 7.05562L59.7519 9.25934L59.4566 12.5042L60.5163 12.7298L60.7074 13.7709L62.931 14.2394L63.5564 16.5472L66.0406 16.8943L66.6313 18.6642L66.4055 20.1912L69.7409 22.6031L69.4282 24.6854L68.1774 25.9347L68.7333 27.3229L66.5965 29.2837L67.6389 29.3704L68.7507 32.0947L68.3685 33.4655L68.716 35.3569L71.0612 36.1204L70.6616 37.7688L71.3913 39.1049L74.0318 39.0182L75.0568 41.6904L76.2207 42.8183L75.9254 43.6685L78.2011 44.5709L78.1838 46.6184L77.5932 47.3819L78.5139 47.5728L79.3825 46.7052H80.5464L82.3184 48.4924L84.073 49.2039L84.681 50.5573L85.7059 50.8176L87.3911 52.5181L86.9567 56.0406L88.6245 58.227L88.8677 60.2918L87.7732 62.3047L84.4204 63.2764L81.1197 62.5476L80.0426 63.9878L76.8114 64.734L75.4564 64.2308L74.8657 65.0116L72.4162 65.7925L70.4879 65.5322L67.8299 67.5797L68.2816 68.135L69.1329 67.9268L69.5151 69.1414L70.6269 69.2282L70.6443 69.957L72.7289 69.7314L73.667 74.1215L75.4564 73.8785L75.6995 76.169L76.8461 75.2667L78.0101 77.6266L78.149 80.16L80.3032 80.3162L81.1023 81.5482L80.946 82.2596L79.8863 82.277L80.06 85.1227L78.7571 85.73L77.4715 87.3611L77.8885 88.9402L77.3847 89.7731L76.0991 90.016L76.4987 90.9356L75.8559 91.1786L76.325 92.8791L77.6626 92.775L78.8266 94.059L79.9905 93.8855L79.7994 94.996L80.7549 94.8572L82.5442 95.8116L82.8048 96.9221L81.3108 98.987L79.5215 98.8482L79.9036 100.098L79.5388 101.156L79.0872 101.069L78.8092 102.18L77.2457 102.787L77.8885 104.227L76.7246 104.696L76.5508 105.477L81.2239 108.01L82.4921 107.871L85.6364 104.765L88.6071 106.24L89.2672 105.893L91.6299 107.42L93.0891 107.611L93.6451 106.778L94.7742 106.795L97.0847 108.409L98.405 106.535L101.897 107.195L102.383 111.897L105.198 114.101L105.962 113.32L108.55 113.927L109.315 112.99L110.513 114.187L111.816 114.378L112.007 113.181L113.588 111.689L114.44 112.296L115.742 111.88L116.472 110.943L118.036 111.133L118.348 109.954L120.485 108.375L122.188 108.548L123.855 109.711L124.116 111.099L125.384 110.023L125.975 108.617L128.98 108.704L130.526 109.381L129.397 112.209L129.744 114.292L129.102 114.986L129.918 115.957L130.127 117.762L131.864 118.682L131.221 120.035L132.055 121.111L131.881 121.961L130.839 121.77L130.422 122.499L131.325 122.43L132.785 125.31L134.209 125.9L136.398 124.13L137.631 124.842L137.77 124.096L139.594 123.419L139.647 122.933L142.113 124.338L143.746 124.113L144.372 125.189L145.484 125.622L145.692 127.774L144.285 128.399L143.538 129.492L140.498 128.763L142.409 132.372L141.019 135.409L141.349 136.225L143.347 136.485L143.399 137.11L144.667 137.283L145.24 138.116L145.414 139.244L144.111 139.886L145.084 141.291L144.215 142.211L145.484 142.975L146.335 144.536L146.092 148.735L148.281 150.436L149.792 150.401L150.435 150.939L149.462 153.872L149.722 154.583L148.454 155.59L148.628 156.301L149.288 156.44L148.784 157.811L149.306 159.077L150.8 160.292L150.348 162.287L148.889 161.316L145.119 162.635L144.91 163.762L146.717 167.163L144.841 169.315L147.012 170.981L147.429 173.809L149.775 177.644L154.778 180.785L155.229 179.882L156.133 181.149L156.081 186.979L157.783 187.969L157.262 188.767L158.6 190.068L160.736 190.103L160.424 190.728L161.796 191.075L161.483 192.532L160.615 192.792L160.372 193.799H159.329L158.495 193.192L158.739 192.74L156.654 192.237L155.438 193.157L152.172 193.382L153.197 194.736L152.589 195.742L151.425 194.979L150.869 195.499L148.75 193.556L147.673 193.452L146.717 191.89L145.623 193.122L144.059 193.157L144.163 195.326L141.175 193.157L139.23 195.864L141.141 197.165L139.577 198.224L137.44 198.12L136.937 200.826L135.807 200.792L135.547 201.538L133.341 200.497L133.028 201.33L130.596 200.115L128.389 202.475L125.905 203.551L125.992 204.869L124.324 207.16L123.56 206.986L123.49 205.893L122.274 205.546L122.066 206.136L121.684 205.598L119.495 205.39L120.138 207.733L118.331 208.357L112.859 207.264L112.181 207.871L110.218 207.733L110.01 208.236L106.639 209.069L107.056 208.01L106.136 207.611L104.207 208.791L104.19 212.192L102.957 212.105L103.182 211.533L102.679 211.22L101.827 212.227L101.306 211.55L100.09 212.14L97.6406 210.717L96.6852 211.324L95.1043 210.145L94.1662 208.149L94.5832 206.744L93.7146 205.807L95.9034 203.377L96.6157 201.59L95.3649 199.837L94.2183 199.577L94.0794 200.271L93.4366 199.803L93.0023 196.367L89.3888 195.881L87.1826 193.955L86.4529 193.209L87.061 191.404L85.2195 189.496L85.7233 188.697L78.2185 182.503L77.5758 174.764L75.8907 173.341L74.8483 174.399L73.1458 174.122L70.0189 175.631L69.9146 177.28L68.8028 178.217L68.0037 177.453L69.046 176.03L66.6834 175.093L64.4771 176.603L64.703 175.527L60.2731 172.178L58.0321 175.059L56.6075 173.497H55.5305L51.8649 175.059L52.1255 175.805L53.6716 175.996L54.158 176.655L53.828 177.349L50.7531 178.564L48.7727 180.23L47.5914 180.316L46.2537 179.31L37.7935 176.95L35.8477 177.436L34.9791 178.303L33.5894 176.759L32.5644 178.564L32.2344 177.488L31.3657 177.21L29.7154 177.852L29.6632 178.685L28.8468 178.061L28.3777 176.568L26.3104 176.655L26.1367 174.59L22.9402 174.521L22.7318 173.497L21.7936 173.219L20.4734 171.588L18.354 172.89L18.1108 175.562L17.1379 176.082L15.4007 175.631L14.341 174.278L11.0924 175.944L10.2238 174.885L8.19125 174.607L7.11418 172.716L9.96319 169.194L10.1543 168.083L11.3877 167.753L10.3107 167.077L11.353 163.849L11.075 163.016L12.9339 162.045L13.1076 158.557L12.3084 156.995L16.7383 155.971L18.215 154.982L17.8155 154.496L16.7731 154.618L16.3562 153.663H15.2791L13.2118 149.62L14.0631 148.892L13.3334 146.376L15.0185 144.363L14.1325 143.981L14.7753 142.575L14.2368 140.754L14.949 140.059L16.3909 140.077L15.7655 137.3L16.0087 133.847L13.7156 133.969L13.0033 134.524L12.3953 134.194L11.1098 129.596L8.79929 130.95L8.7819 131.835L6.69721 130.95L7.65272 127.896L9.12936 126.802L7.77433 125.657L8.36498 123.853L6.50615 123.488L6.41931 122.621L1.85041 121.788L1.60718 122.239L0.929688 121.632L3.7092 116.86L1.95464 115.159L3.27489 113.129L2.78847 112.678L3.62236 111.741L5.79388 111.654L6.57565 111.116L6.08923 108.999L8.24336 106.587L7.68744 105.477L8.53871 103.238L6.61037 102.804L7.68744 102.562L6.92306 101.937L8.13914 101.555L8.8514 100.011L8.01752 97.8938L6.38453 97.9285L6.50615 95.7942L5.34219 93.2782L7.00995 92.0635L7.54849 92.5147L6.43664 93.764L7.82645 94.5102L7.79167 95.5687L9.28571 95.8983L10.7276 95.6728L10.606 94.4408L9.73735 94.3714L9.33782 93.5558L10.7276 93.6773L11.075 94.5622L11.8741 94.6143L12.1347 93.0526L11.0924 92.48L12.0305 91.2306L10.9187 90.1895L11.3356 87.4132L12.1174 86.4241L11.8568 84.9492L12.2737 83.8213L12.9686 84.1336L15.4876 82.7802L15.0706 79.8303L14.1325 79.3097L13.3682 77.4531L13.5766 76.7243L16.304 76.811L17.2248 75.822L15.3833 75.4923L13.2813 73.0803L13.1249 70.0784L11.7178 69.662L12.6038 67.8053L12.1347 62.3047L10.2759 60.2051L9.54628 57.6717L8.86874 57.4635L9.35516 56.7347L10.1369 56.8214L11.3877 54.0972L12.7428 53.4898L12.2737 52.1537L11.631 51.8761L11.3182 49.0824L14.4974 47.0696L14.5495 45.2129L17.1379 45.0047L17.0337 44.2412L18.632 44.1371L19.2921 43.2L21.1162 43.6512L21.481 42.4886L22.5754 42.1416L23.4093 42.853L24.8512 42.8183L26.2062 38.272L23.8609 35.4089L22.0716 34.6455L22.7839 33.1011L25.0596 33.1705L27.0227 31.2965L27.8566 31.3312L29.2463 33.5523L31.6784 32.4764L33.5373 32.4244L33.572 27.722L33.0508 28.2078L31.1052 27.5311L29.976 27.8434L30.3234 26.9758L29.8023 25.7612L28.3777 25.258L28.5167 24.2863L24.2605 22.3255L23.4614 22.8113L24.33 23.2278L23.1313 23.0543L23.444 21.4058L24.0694 21.2149L22.7839 19.3236L22.5928 18.0395L23.7741 16.8422L22.7839 15.6623L24.7817 14.8814L25.8587 12.938L25.3723 11.5151L26.1367 11.411L26.7447 10.4566L26.6752 9.18993L27.4049 8.35703L26.8837 7.73236L27.7871 7.40267L27.1095 5.82363L28.4993 5.30306L29.3158 3.13405L30.445 3.48109L30.0107 2.35321L31.0704 1.03445L31.609 1.90205L34.4059 2.02352L34.7881 3.37698L34.2495 4.17518L33.1551 4.3487L32.4081 6.18802L36.9422 7.35061L37.3418 6.37889L36.2299 5.26836L38.3667 6.37889L39.7739 4.26194L42.8661 3.70667L44.0995 2.80436L44.308 1.97146L46.1668 1.4856L47.1049 2.2838L50.5968 0.89563L53.3937 1.60707Z"/>
</mask>
<path d="M53.3937 1.60707L54.4186 4.22723L53.6195 5.54599L55.5305 6.81269L57.3545 7.38531L57.6846 6.70858L58.2579 7.05562L59.7519 9.25934L59.4566 12.5042L60.5163 12.7298L60.7074 13.7709L62.931 14.2394L63.5564 16.5472L66.0406 16.8943L66.6313 18.6642L66.4055 20.1912L69.7409 22.6031L69.4282 24.6854L68.1774 25.9347L68.7333 27.3229L66.5965 29.2837L67.6389 29.3704L68.7507 32.0947L68.3685 33.4655L68.716 35.3569L71.0612 36.1204L70.6616 37.7688L71.3913 39.1049L74.0318 39.0182L75.0568 41.6904L76.2207 42.8183L75.9254 43.6685L78.2011 44.5709L78.1838 46.6184L77.5932 47.3819L78.5139 47.5728L79.3825 46.7052H80.5464L82.3184 48.4924L84.073 49.2039L84.681 50.5573L85.7059 50.8176L87.3911 52.5181L86.9567 56.0406L88.6245 58.227L88.8677 60.2918L87.7732 62.3047L84.4204 63.2764L81.1197 62.5476L80.0426 63.9878L76.8114 64.734L75.4564 64.2308L74.8657 65.0116L72.4162 65.7925L70.4879 65.5322L67.8299 67.5797L68.2816 68.135L69.1329 67.9268L69.5151 69.1414L70.6269 69.2282L70.6443 69.957L72.7289 69.7314L73.667 74.1215L75.4564 73.8785L75.6995 76.169L76.8461 75.2667L78.0101 77.6266L78.149 80.16L80.3032 80.3162L81.1023 81.5482L80.946 82.2596L79.8863 82.277L80.06 85.1227L78.7571 85.73L77.4715 87.3611L77.8885 88.9402L77.3847 89.7731L76.0991 90.016L76.4987 90.9356L75.8559 91.1786L76.325 92.8791L77.6626 92.775L78.8266 94.059L79.9905 93.8855L79.7994 94.996L80.7549 94.8572L82.5442 95.8116L82.8048 96.9221L81.3108 98.987L79.5215 98.8482L79.9036 100.098L79.5388 101.156L79.0872 101.069L78.8092 102.18L77.2457 102.787L77.8885 104.227L76.7246 104.696L76.5508 105.477L81.2239 108.01L82.4921 107.871L85.6364 104.765L88.6071 106.24L89.2672 105.893L91.6299 107.42L93.0891 107.611L93.6451 106.778L94.7742 106.795L97.0847 108.409L98.405 106.535L101.897 107.195L102.383 111.897L105.198 114.101L105.962 113.32L108.55 113.927L109.315 112.99L110.513 114.187L111.816 114.378L112.007 113.181L113.588 111.689L114.44 112.296L115.742 111.88L116.472 110.943L118.036 111.133L118.348 109.954L120.485 108.375L122.188 108.548L123.855 109.711L124.116 111.099L125.384 110.023L125.975 108.617L128.98 108.704L130.526 109.381L129.397 112.209L129.744 114.292L129.102 114.986L129.918 115.957L130.127 117.762L131.864 118.682L131.221 120.035L132.055 121.111L131.881 121.961L130.839 121.77L130.422 122.499L131.325 122.43L132.785 125.31L134.209 125.9L136.398 124.13L137.631 124.842L137.77 124.096L139.594 123.419L139.647 122.933L142.113 124.338L143.746 124.113L144.372 125.189L145.484 125.622L145.692 127.774L144.285 128.399L143.538 129.492L140.498 128.763L142.409 132.372L141.019 135.409L141.349 136.225L143.347 136.485L143.399 137.11L144.667 137.283L145.24 138.116L145.414 139.244L144.111 139.886L145.084 141.291L144.215 142.211L145.484 142.975L146.335 144.536L146.092 148.735L148.281 150.436L149.792 150.401L150.435 150.939L149.462 153.872L149.722 154.583L148.454 155.59L148.628 156.301L149.288 156.44L148.784 157.811L149.306 159.077L150.8 160.292L150.348 162.287L148.889 161.316L145.119 162.635L144.91 163.762L146.717 167.163L144.841 169.315L147.012 170.981L147.429 173.809L149.775 177.644L154.778 180.785L155.229 179.882L156.133 181.149L156.081 186.979L157.783 187.969L157.262 188.767L158.6 190.068L160.736 190.103L160.424 190.728L161.796 191.075L161.483 192.532L160.615 192.792L160.372 193.799H159.329L158.495 193.192L158.739 192.74L156.654 192.237L155.438 193.157L152.172 193.382L153.197 194.736L152.589 195.742L151.425 194.979L150.869 195.499L148.75 193.556L147.673 193.452L146.717 191.89L145.623 193.122L144.059 193.157L144.163 195.326L141.175 193.157L139.23 195.864L141.141 197.165L139.577 198.224L137.44 198.12L136.937 200.826L135.807 200.792L135.547 201.538L133.341 200.497L133.028 201.33L130.596 200.115L128.389 202.475L125.905 203.551L125.992 204.869L124.324 207.16L123.56 206.986L123.49 205.893L122.274 205.546L122.066 206.136L121.684 205.598L119.495 205.39L120.138 207.733L118.331 208.357L112.859 207.264L112.181 207.871L110.218 207.733L110.01 208.236L106.639 209.069L107.056 208.01L106.136 207.611L104.207 208.791L104.19 212.192L102.957 212.105L103.182 211.533L102.679 211.22L101.827 212.227L101.306 211.55L100.09 212.14L97.6406 210.717L96.6852 211.324L95.1043 210.145L94.1662 208.149L94.5832 206.744L93.7146 205.807L95.9034 203.377L96.6157 201.59L95.3649 199.837L94.2183 199.577L94.0794 200.271L93.4366 199.803L93.0023 196.367L89.3888 195.881L87.1826 193.955L86.4529 193.209L87.061 191.404L85.2195 189.496L85.7233 188.697L78.2185 182.503L77.5758 174.764L75.8907 173.341L74.8483 174.399L73.1458 174.122L70.0189 175.631L69.9146 177.28L68.8028 178.217L68.0037 177.453L69.046 176.03L66.6834 175.093L64.4771 176.603L64.703 175.527L60.2731 172.178L58.0321 175.059L56.6075 173.497H55.5305L51.8649 175.059L52.1255 175.805L53.6716 175.996L54.158 176.655L53.828 177.349L50.7531 178.564L48.7727 180.23L47.5914 180.316L46.2537 179.31L37.7935 176.95L35.8477 177.436L34.9791 178.303L33.5894 176.759L32.5644 178.564L32.2344 177.488L31.3657 177.21L29.7154 177.852L29.6632 178.685L28.8468 178.061L28.3777 176.568L26.3104 176.655L26.1367 174.59L22.9402 174.521L22.7318 173.497L21.7936 173.219L20.4734 171.588L18.354 172.89L18.1108 175.562L17.1379 176.082L15.4007 175.631L14.341 174.278L11.0924 175.944L10.2238 174.885L8.19125 174.607L7.11418 172.716L9.96319 169.194L10.1543 168.083L11.3877 167.753L10.3107 167.077L11.353 163.849L11.075 163.016L12.9339 162.045L13.1076 158.557L12.3084 156.995L16.7383 155.971L18.215 154.982L17.8155 154.496L16.7731 154.618L16.3562 153.663H15.2791L13.2118 149.62L14.0631 148.892L13.3334 146.376L15.0185 144.363L14.1325 143.981L14.7753 142.575L14.2368 140.754L14.949 140.059L16.3909 140.077L15.7655 137.3L16.0087 133.847L13.7156 133.969L13.0033 134.524L12.3953 134.194L11.1098 129.596L8.79929 130.95L8.7819 131.835L6.69721 130.95L7.65272 127.896L9.12936 126.802L7.77433 125.657L8.36498 123.853L6.50615 123.488L6.41931 122.621L1.85041 121.788L1.60718 122.239L0.929688 121.632L3.7092 116.86L1.95464 115.159L3.27489 113.129L2.78847 112.678L3.62236 111.741L5.79388 111.654L6.57565 111.116L6.08923 108.999L8.24336 106.587L7.68744 105.477L8.53871 103.238L6.61037 102.804L7.68744 102.562L6.92306 101.937L8.13914 101.555L8.8514 100.011L8.01752 97.8938L6.38453 97.9285L6.50615 95.7942L5.34219 93.2782L7.00995 92.0635L7.54849 92.5147L6.43664 93.764L7.82645 94.5102L7.79167 95.5687L9.28571 95.8983L10.7276 95.6728L10.606 94.4408L9.73735 94.3714L9.33782 93.5558L10.7276 93.6773L11.075 94.5622L11.8741 94.6143L12.1347 93.0526L11.0924 92.48L12.0305 91.2306L10.9187 90.1895L11.3356 87.4132L12.1174 86.4241L11.8568 84.9492L12.2737 83.8213L12.9686 84.1336L15.4876 82.7802L15.0706 79.8303L14.1325 79.3097L13.3682 77.4531L13.5766 76.7243L16.304 76.811L17.2248 75.822L15.3833 75.4923L13.2813 73.0803L13.1249 70.0784L11.7178 69.662L12.6038 67.8053L12.1347 62.3047L10.2759 60.2051L9.54628 57.6717L8.86874 57.4635L9.35516 56.7347L10.1369 56.8214L11.3877 54.0972L12.7428 53.4898L12.2737 52.1537L11.631 51.8761L11.3182 49.0824L14.4974 47.0696L14.5495 45.2129L17.1379 45.0047L17.0337 44.2412L18.632 44.1371L19.2921 43.2L21.1162 43.6512L21.481 42.4886L22.5754 42.1416L23.4093 42.853L24.8512 42.8183L26.2062 38.272L23.8609 35.4089L22.0716 34.6455L22.7839 33.1011L25.0596 33.1705L27.0227 31.2965L27.8566 31.3312L29.2463 33.5523L31.6784 32.4764L33.5373 32.4244L33.572 27.722L33.0508 28.2078L31.1052 27.5311L29.976 27.8434L30.3234 26.9758L29.8023 25.7612L28.3777 25.258L28.5167 24.2863L24.2605 22.3255L23.4614 22.8113L24.33 23.2278L23.1313 23.0543L23.444 21.4058L24.0694 21.2149L22.7839 19.3236L22.5928 18.0395L23.7741 16.8422L22.7839 15.6623L24.7817 14.8814L25.8587 12.938L25.3723 11.5151L26.1367 11.411L26.7447 10.4566L26.6752 9.18993L27.4049 8.35703L26.8837 7.73236L27.7871 7.40267L27.1095 5.82363L28.4993 5.30306L29.3158 3.13405L30.445 3.48109L30.0107 2.35321L31.0704 1.03445L31.609 1.90205L34.4059 2.02352L34.7881 3.37698L34.2495 4.17518L33.1551 4.3487L32.4081 6.18802L36.9422 7.35061L37.3418 6.37889L36.2299 5.26836L38.3667 6.37889L39.7739 4.26194L42.8661 3.70667L44.0995 2.80436L44.308 1.97146L46.1668 1.4856L47.1049 2.2838L50.5968 0.89563L53.3937 1.60707Z" fill="#038405" stroke="#EAEAEA" stroke-width="2" mask="url(#path-1-inside-1_132_24)"/>
</svg>
