<svg width="151" height="195" viewBox="0 0 151 195" fill="none" xmlns="http://www.w3.org/2000/svg">
<mask id="path-1-inside-1_132_30" fill="white">
<path d="M63.3373 5.96976L64.814 5.76153L68.4795 10.3772L69.0875 13.6914L71.2938 12.5462L75.8453 8.58993L78.6422 8.81551L79.0939 9.54429L80.8833 9.78722L80.9006 10.7416L86.8767 10.9151L85.2784 11.6786L85.4695 12.0951L86.5813 11.6612L85.9038 12.3553L88.3186 22.2981L89.3956 22.7666L91.4803 20.5282L91.4629 23.4086L92.3836 25.3173L93.426 24.2242L93.6171 22.0899L94.0861 21.8816L93.7734 19.7473L92.9048 18.6021L96.553 11.7307L98.2902 11.3663L101.487 9.07578L105.013 8.97167L105.43 10.5507L106.803 10.4292L108.557 9.07578L113.178 3.17608L116.653 3.01991L117.191 3.55782L116.444 5.36244L117.643 5.883L117.243 6.88942L118.946 8.27759L119.276 10.5507L121.743 11.1407L122.16 14.5938L121.395 17.7865L122.611 19.73V20.9967L124.748 21.6734L125.929 26.5146L125.738 28.7878L128.014 28.1978L128.031 29.0654L130.099 28.7531L130.359 33.924L127.823 38.6264L126.312 38.852L126.346 38.2794L122.681 39.4593L124.279 47.3719L125.651 52.2825L126.155 52.4213L126.468 49.5929L127.441 49.35L131.228 51.9355L133.921 55.8744L136.822 58.5119L134.129 62.659L134.285 65.5569L134.876 66.1815L132.826 65.3833L131.193 65.4874L131.106 68.8537L132.531 69.3396L133.973 70.7972L135.223 73.9032L137.065 75.3955L137.569 76.4713L136.266 79.3518L137.916 80.4623L138.715 80.0979L139.15 81.5034L136.717 81.0349L135.953 81.4514L136.127 82.7701L137.395 83.551L136.665 84.0889L136.909 85.0606L134.633 85.3556L136.735 85.8588L138.177 84.9738L140.557 85.3556L140.626 87.2643L142.085 89.2425L140.852 92.1056L138.211 94.0143L138.159 95.2636L136.77 96.0965L135.779 95.6107L135.276 95.9404L134.945 96.3568L135.484 97.1377L134.459 98.1961L134.65 98.7167L133.695 98.5432L133.903 99.0637L133.139 99.3761L135.936 101.857L136.596 103.593L136.387 105.796L135.606 107.046L134.007 106.907L134.442 107.913L134.025 109.041L136.665 110.36L136.909 112.98L135.345 114.143L133.712 113.119L133.313 114.75L136.057 115.08L136.283 116.017L134.529 118.22L132.948 118.116L133.868 119.557L135.05 119.279L135.64 118.359L139.688 117.596L140.678 118.411L141.582 119.921L141.651 121.916L142.832 122.211L143.284 123.01L144.396 122.454L143.11 125.144L143.701 126.168L146.411 126.931L147.679 126.619L146.689 129.17L147.384 130.714L146.029 131.235L148.166 135.278L147.332 135.642L146.654 137.69L144.882 139.685L147.679 142.34L145.734 144.717L145.629 145.498L146.724 145.585L145.108 146.73L147.87 149.957L147.731 152.543L146.724 153.341L147.957 155.805L147.523 156.517L149.191 158.408L148.895 158.963L150.181 161.271L149.66 162.434L146.463 164.186L147.853 164.95L145.299 167.327L146.081 167.709L145.282 168.576L144.639 168.194L143.423 169.791L142.416 169.426L142.085 170.45L139.167 171.196L138.733 172.654L136.804 171.248L135.884 172.029L136.179 172.88L135.328 174.164L134.598 173.122L133.399 174.164L132.635 173.973L134.077 177.877L132.704 180.983L133.226 182.389L135.988 182.423L135.762 186.275L137.204 186.883L136.596 188.115L132.253 187.126L131.975 187.959L130.863 187.317L129.3 190.683L127.84 189.937L126.989 191.255L126.225 190.093L123.324 190.006L123.063 193.477H121.795L121.187 192.314L119.519 193.615L115.697 193.32L113.995 194.032L113.074 193.164L107.949 193.407L106.386 192.852L106.334 191.429L107.55 189.486L105.83 188.583L105.274 186.813L103.797 185.425L106.542 182.215L107.081 180.167L104.822 178.536L104.839 176.645L103.467 176.038L105.031 174.112L104.562 172.567L103.78 172.654L104.11 170.728L100.67 168.333L100.792 167.067L99.4367 166.39L98.5681 166.581L97.769 168.923L94.4162 169.808L94.2251 170.572L92.4358 170.502L91.2371 174.667L90.6291 174.806L89.6736 173.678L87.9885 174.094L84.7225 173.244L83.4891 173.591L83.3675 176.055L81.665 176.749L79.146 172.758L76.6097 173.747L75.7411 172.411H72.9963L72.0408 175.378L70.3731 176.281L67.7846 175.049L63.7369 174.354L62.6598 173.279L62.5556 174.684L61.3917 175.708L60.9052 175.291L56.927 175.482L54.4949 177.009L52.3581 177.166L45.583 176.402L44.0368 177.235L42.2649 177.356L41.292 178.432L39.2074 178.901L38.3562 178.536L38.3735 179.317L37.2791 179.543L36.9143 180.948L35.7503 181.139L32.3975 177.651L30.6603 177.304L32.1543 174.389L28.6451 173.782L28.0544 174.84L25.9177 171.006L26.1435 169.93L25.327 167.657L26.1435 166.182L24.441 166.407L22.9123 164.585L22.2869 165.279L21.5051 165.106L21.4704 162.486L22.0437 162.382L22.1479 161.323L23.086 160.993L21.6267 157.054L21.5746 155.285L22.2174 155.198L22.4606 154.486L23.2423 154.538L25.2575 155.857L27.0642 152.907L28.6104 153.931L29.3747 152.942L28.6277 149.246L25.5702 148.378L26.3693 146.851L26.1261 145.914L27.1337 145.793L26.1782 145.047L26.5604 143.069L29.4095 141.802L28.4714 140.657L28.4019 138.627L26.8036 139.13L27.1511 140.483L26.0566 140.639L25.1185 136.544L24.2847 136.718L24.4931 132.744L21.2967 133.803L20.4628 135.555L19.8895 135.59L18.2044 134.375L17.6311 132.848L15.4596 132.449L15.4422 131.148L14.2609 131.044L14.2262 131.512L12.3326 129.812L13.2707 129.916L13.0275 129.361L14.0177 128.996L11.9504 126.879L10.9255 126.081L7.98955 126.029L8.12853 122.611L4.0982 120.181L4.58462 117.648L6.54766 114.299L6.98196 111.158L5.10579 111.297L4.63673 109.232L1.68346 107.514L0.832218 104.755L2.91688 104.321L2.04827 102.534L2.83001 100.851L0.519531 99.1332L1.73558 97.7623L1.83981 96.2006L1.23177 95.628L1.75294 94.8645L3.69862 94.4134L5.54009 90.0927L4.86258 87.8543L5.26213 86.2579L3.62914 85.5638L3.66389 83.4989L3.12536 82.961L3.61178 80.2541L3.07322 79.1782L4.13292 77.5124L3.80287 76.3672L4.2719 75.2567L3.80287 74.8749L4.37613 73.8338L2.11777 71.8383L2.32623 70.5716L3.33382 70.1725L3.29907 69.3223L0.988561 64.2034L2.56944 63.4573L2.41309 61.3924L5.55745 61.1494L5.85278 60.3165L8.61495 60.2298L7.97219 58.8069L8.31963 56.8808L10.8212 55.1803L10.7517 50.9985L11.603 50.5646L11.3424 49.697L13.8092 45.3243L17.1795 42.0621L17.0405 41.1251L15.6507 40.379L16.5193 39.494L15.199 35.2427L18.3607 34.5834L19.9069 32.2582L19.8721 29.8115L18.2913 29.0654L19.073 21.9857L20.7234 21.9337L20.4628 23.7904L22.9123 25.4041L23.6245 26.7055L25.4486 26.6882L24.6147 24.1027H23.5029L23.4161 19.5217L26.0219 19.1226L27.568 17.2486L28.7319 17.6304L28.3671 15.8778L32.7102 19.5738L34.0478 19.73L36.3757 14.4376L38.4256 14.1426L39.2769 13.4312L37.9045 10.221L38.721 7.27116L37.5918 6.42092L39.4506 5.11951L43.0466 6.43826L43.6546 7.5488L43.4636 10.0822L44.8533 9.80458L45.583 8.53787L46.799 8.55522L44.6796 11.9042L50.3603 11.1927L52.2539 9.92604L54.0432 10.0822L55.6936 7.42733L57.205 7.18441L58.1257 5.65742L58.3689 3.59252L63.3547 0.208862L63.9454 0.781485L63.3373 5.96976Z"/>
</mask>
<path d="M63.3373 5.96976L64.814 5.76153L68.4795 10.3772L69.0875 13.6914L71.2938 12.5462L75.8453 8.58993L78.6422 8.81551L79.0939 9.54429L80.8833 9.78722L80.9006 10.7416L86.8767 10.9151L85.2784 11.6786L85.4695 12.0951L86.5813 11.6612L85.9038 12.3553L88.3186 22.2981L89.3956 22.7666L91.4803 20.5282L91.4629 23.4086L92.3836 25.3173L93.426 24.2242L93.6171 22.0899L94.0861 21.8816L93.7734 19.7473L92.9048 18.6021L96.553 11.7307L98.2902 11.3663L101.487 9.07578L105.013 8.97167L105.43 10.5507L106.803 10.4292L108.557 9.07578L113.178 3.17608L116.653 3.01991L117.191 3.55782L116.444 5.36244L117.643 5.883L117.243 6.88942L118.946 8.27759L119.276 10.5507L121.743 11.1407L122.16 14.5938L121.395 17.7865L122.611 19.73V20.9967L124.748 21.6734L125.929 26.5146L125.738 28.7878L128.014 28.1978L128.031 29.0654L130.099 28.7531L130.359 33.924L127.823 38.6264L126.312 38.852L126.346 38.2794L122.681 39.4593L124.279 47.3719L125.651 52.2825L126.155 52.4213L126.468 49.5929L127.441 49.35L131.228 51.9355L133.921 55.8744L136.822 58.5119L134.129 62.659L134.285 65.5569L134.876 66.1815L132.826 65.3833L131.193 65.4874L131.106 68.8537L132.531 69.3396L133.973 70.7972L135.223 73.9032L137.065 75.3955L137.569 76.4713L136.266 79.3518L137.916 80.4623L138.715 80.0979L139.15 81.5034L136.717 81.0349L135.953 81.4514L136.127 82.7701L137.395 83.551L136.665 84.0889L136.909 85.0606L134.633 85.3556L136.735 85.8588L138.177 84.9738L140.557 85.3556L140.626 87.2643L142.085 89.2425L140.852 92.1056L138.211 94.0143L138.159 95.2636L136.77 96.0965L135.779 95.6107L135.276 95.9404L134.945 96.3568L135.484 97.1377L134.459 98.1961L134.65 98.7167L133.695 98.5432L133.903 99.0637L133.139 99.3761L135.936 101.857L136.596 103.593L136.387 105.796L135.606 107.046L134.007 106.907L134.442 107.913L134.025 109.041L136.665 110.36L136.909 112.98L135.345 114.143L133.712 113.119L133.313 114.75L136.057 115.08L136.283 116.017L134.529 118.22L132.948 118.116L133.868 119.557L135.05 119.279L135.64 118.359L139.688 117.596L140.678 118.411L141.582 119.921L141.651 121.916L142.832 122.211L143.284 123.01L144.396 122.454L143.11 125.144L143.701 126.168L146.411 126.931L147.679 126.619L146.689 129.17L147.384 130.714L146.029 131.235L148.166 135.278L147.332 135.642L146.654 137.69L144.882 139.685L147.679 142.34L145.734 144.717L145.629 145.498L146.724 145.585L145.108 146.73L147.87 149.957L147.731 152.543L146.724 153.341L147.957 155.805L147.523 156.517L149.191 158.408L148.895 158.963L150.181 161.271L149.66 162.434L146.463 164.186L147.853 164.95L145.299 167.327L146.081 167.709L145.282 168.576L144.639 168.194L143.423 169.791L142.416 169.426L142.085 170.45L139.167 171.196L138.733 172.654L136.804 171.248L135.884 172.029L136.179 172.88L135.328 174.164L134.598 173.122L133.399 174.164L132.635 173.973L134.077 177.877L132.704 180.983L133.226 182.389L135.988 182.423L135.762 186.275L137.204 186.883L136.596 188.115L132.253 187.126L131.975 187.959L130.863 187.317L129.3 190.683L127.84 189.937L126.989 191.255L126.225 190.093L123.324 190.006L123.063 193.477H121.795L121.187 192.314L119.519 193.615L115.697 193.32L113.995 194.032L113.074 193.164L107.949 193.407L106.386 192.852L106.334 191.429L107.55 189.486L105.83 188.583L105.274 186.813L103.797 185.425L106.542 182.215L107.081 180.167L104.822 178.536L104.839 176.645L103.467 176.038L105.031 174.112L104.562 172.567L103.78 172.654L104.11 170.728L100.67 168.333L100.792 167.067L99.4367 166.39L98.5681 166.581L97.769 168.923L94.4162 169.808L94.2251 170.572L92.4358 170.502L91.2371 174.667L90.6291 174.806L89.6736 173.678L87.9885 174.094L84.7225 173.244L83.4891 173.591L83.3675 176.055L81.665 176.749L79.146 172.758L76.6097 173.747L75.7411 172.411H72.9963L72.0408 175.378L70.3731 176.281L67.7846 175.049L63.7369 174.354L62.6598 173.279L62.5556 174.684L61.3917 175.708L60.9052 175.291L56.927 175.482L54.4949 177.009L52.3581 177.166L45.583 176.402L44.0368 177.235L42.2649 177.356L41.292 178.432L39.2074 178.901L38.3562 178.536L38.3735 179.317L37.2791 179.543L36.9143 180.948L35.7503 181.139L32.3975 177.651L30.6603 177.304L32.1543 174.389L28.6451 173.782L28.0544 174.84L25.9177 171.006L26.1435 169.93L25.327 167.657L26.1435 166.182L24.441 166.407L22.9123 164.585L22.2869 165.279L21.5051 165.106L21.4704 162.486L22.0437 162.382L22.1479 161.323L23.086 160.993L21.6267 157.054L21.5746 155.285L22.2174 155.198L22.4606 154.486L23.2423 154.538L25.2575 155.857L27.0642 152.907L28.6104 153.931L29.3747 152.942L28.6277 149.246L25.5702 148.378L26.3693 146.851L26.1261 145.914L27.1337 145.793L26.1782 145.047L26.5604 143.069L29.4095 141.802L28.4714 140.657L28.4019 138.627L26.8036 139.13L27.1511 140.483L26.0566 140.639L25.1185 136.544L24.2847 136.718L24.4931 132.744L21.2967 133.803L20.4628 135.555L19.8895 135.59L18.2044 134.375L17.6311 132.848L15.4596 132.449L15.4422 131.148L14.2609 131.044L14.2262 131.512L12.3326 129.812L13.2707 129.916L13.0275 129.361L14.0177 128.996L11.9504 126.879L10.9255 126.081L7.98955 126.029L8.12853 122.611L4.0982 120.181L4.58462 117.648L6.54766 114.299L6.98196 111.158L5.10579 111.297L4.63673 109.232L1.68346 107.514L0.832218 104.755L2.91688 104.321L2.04827 102.534L2.83001 100.851L0.519531 99.1332L1.73558 97.7623L1.83981 96.2006L1.23177 95.628L1.75294 94.8645L3.69862 94.4134L5.54009 90.0927L4.86258 87.8543L5.26213 86.2579L3.62914 85.5638L3.66389 83.4989L3.12536 82.961L3.61178 80.2541L3.07322 79.1782L4.13292 77.5124L3.80287 76.3672L4.2719 75.2567L3.80287 74.8749L4.37613 73.8338L2.11777 71.8383L2.32623 70.5716L3.33382 70.1725L3.29907 69.3223L0.988561 64.2034L2.56944 63.4573L2.41309 61.3924L5.55745 61.1494L5.85278 60.3165L8.61495 60.2298L7.97219 58.8069L8.31963 56.8808L10.8212 55.1803L10.7517 50.9985L11.603 50.5646L11.3424 49.697L13.8092 45.3243L17.1795 42.0621L17.0405 41.1251L15.6507 40.379L16.5193 39.494L15.199 35.2427L18.3607 34.5834L19.9069 32.2582L19.8721 29.8115L18.2913 29.0654L19.073 21.9857L20.7234 21.9337L20.4628 23.7904L22.9123 25.4041L23.6245 26.7055L25.4486 26.6882L24.6147 24.1027H23.5029L23.4161 19.5217L26.0219 19.1226L27.568 17.2486L28.7319 17.6304L28.3671 15.8778L32.7102 19.5738L34.0478 19.73L36.3757 14.4376L38.4256 14.1426L39.2769 13.4312L37.9045 10.221L38.721 7.27116L37.5918 6.42092L39.4506 5.11951L43.0466 6.43826L43.6546 7.5488L43.4636 10.0822L44.8533 9.80458L45.583 8.53787L46.799 8.55522L44.6796 11.9042L50.3603 11.1927L52.2539 9.92604L54.0432 10.0822L55.6936 7.42733L57.205 7.18441L58.1257 5.65742L58.3689 3.59252L63.3547 0.208862L63.9454 0.781485L63.3373 5.96976Z" fill="#038405" stroke="#EAEAEA" stroke-width="2" mask="url(#path-1-inside-1_132_30)"/>
</svg>
