<svg width="244" height="133" viewBox="0 0 244 133" fill="none" xmlns="http://www.w3.org/2000/svg">
<mask id="path-1-inside-1_132_17" fill="white">
<path d="M182.701 0.501953L184.681 1.45632L187.026 1.71659L189.58 0.606061L190.414 1.36956L190.188 3.38241L190.779 4.30207L192.099 4.45823L193.193 5.89846L197.675 6.08933L200.177 10.0109L199.673 11.1909L200.333 12.232L200.559 15.1298L202.071 14.8521L202.991 15.7891L205.615 15.5809L205.58 9.75062L205.041 7.94602L205.441 7.87659L206.587 9.28211L206.761 10.6529L207.3 10.41L208.881 11.8676L208.134 13.7763L206.726 14.2622L207.699 15.1471L209.158 15.4421L208.95 16.0147L210.01 16.917L209.732 18.2011L210.618 20.1445L208.759 22.1574L210.496 25.9401L209.61 26.2698L209.94 26.9292L211.834 26.6342L214.735 28.89L215.065 26.3219L216.107 26.3045L216.142 26.8598L216.542 26.3566L218.8 26.6342L219.2 26.7383L219.026 29.9658L222.726 28.6297L223.369 30.2434L224.793 30.3129L224.429 29.7576L226.062 29.5667L227.121 27.953L226.426 27.5712L228.459 25.836L228.598 24.7775L230.231 24.3437L231.36 26.3045L233.115 27.7794L235.842 27.2936L239.091 28.0224L243.694 31.1458L242.617 36.5076L241.992 36.8199L241.106 40.1515L241.123 42.789L239.178 42.5634L238.795 40.03L237.84 40.2556L237.909 40.7762L236.607 41.0017L235.998 40.4812L234.383 41.2447L233.792 41.1232L233.393 39.3707L231.812 39.4401L231.291 38.8154L229.744 40.9323L227.538 41.262L226.6 40.3597L225.436 40.5853L225.61 44.368L226.009 44.9407L226.913 44.5763L227.538 46.6585L229.414 47.3353L231.325 47.1617L234.105 49.8687L235.078 49.7472L235.286 50.8057L238.5 50.2678L238.24 52.6277L235.616 53.1309L235.964 55.7337L234.782 56.5492L229.901 59.2909L229.38 58.1456L227.104 58.1977L227.747 60.9566L225.801 61.564L225.471 60.2626L221.11 60.8352L221.163 61.7722L219.547 61.8243L219.599 62.5877L218.956 62.8654L220.433 76.2959L218.713 76.7818L218.852 78.6384L218.209 79.7837L219.078 80.3043L219.095 82.0221L221.493 81.9006L221.371 86.4469L222.396 86.6031L223.265 89.9173L220.659 90.6635L220.45 92.9019L219.425 93.301L219.391 93.8389L216.403 94.3941L216.524 95.8864L209.749 96.9449L209.68 97.5869L208.377 97.7431L209.784 100.381L209.019 100.363L208.272 101.908L207.421 101.717L207.178 97.396L205.615 97.5349L205.476 95.6608L203.738 95.7823L204.555 99.7906L201.862 100.45L202.071 101.647L204.972 100.901L205.059 101.526L204.329 101.63L204.468 102.688L199.534 104.042L200.177 107.079L199.656 105.135L197.762 105.395L197.397 104.996L197.606 107.217L193.593 107.686L193.298 109.456L192.499 110.115L192.377 112.232L191.387 111.85L190.657 106.523L188.364 107.755L187.756 107.235L186.175 107.599L186.262 108.102H183.5L184.438 109.195L184.785 112.18L179.574 113.082L178.861 111.486L173.024 112.475L173.302 115.564L175.543 115.113L176.099 116.813L170.714 117.802L170.922 119.051L172.121 118.965L172.59 121.81L171.391 122.019L171.652 123.407L172.243 123.823L170.853 126.548L158.414 129.046L157.476 129.098L157.077 128.005L153.793 129.064L150.041 126.062L146.358 126.981L146.375 128.734L145.35 128.994L145.767 131.701L141.841 132.499L141.494 131.58L140.556 132.794L140 131.961L139.149 132.083L138.801 129.567L137.602 129.723L136.821 127.745L135.917 127.814L135.552 126.791L130.132 127.519L130.237 128.595L122.767 129.602L122.245 126.756L124.66 126.235L123.844 124.569L123.948 122.782L125.529 122.695L125.129 117.993L123.705 118.288L123.114 114.019L119.587 114.713L119.205 114.384L117.711 115.65L116.478 108.571L116.582 107.738L119.501 107.009L118.701 101.803L114.445 102.584L113.855 100.329L111.266 100.676L110.745 98.9751L107.879 99.513L107.792 101.561L106.871 102.029L106.315 101.248L105.412 101.387L105.863 104.805L103.501 104.927L103.397 105.725L102.528 106.28L102.32 105.031L101.329 105.1L101.746 103.504L102.927 103.035L102.181 99.4783L98.1849 100.224L98.2197 100.971L96.7604 101.3L96.0655 99.2354L95.0753 100.329L92.6779 100.866L92.3478 98.923L87.3968 100.537L86.4587 95.817L85.2774 95.9905L84.1134 95.0188L84.8257 93.8042L83.1927 91.6005L81.8724 91.3749L81.7335 90.5767L76.7998 91.3402L76.5739 90.4899L72.3525 91.3402L72.9605 94.4289L69.6424 94.6544L69.2429 96.2508L67.7141 96.8755L66.9323 96.2682L65.1778 96.754L64.6566 94.7932L63.5448 94.88L62.8151 94.1512L62.763 95.9558L61.5296 96.1294L60.9911 94.0992L57.2213 94.4289L56.9607 93.596L52.8088 94.6197L53.2431 95.817L51.419 96.3029L51.141 97.2225L47.2844 97.2746L45.5819 95.3485L44.2095 97.0664L43.7231 96.0079L36.4442 95.3659L32.5701 98.1249L30.3292 97.7605L28.9394 98.3157L25.1348 97.0664L21.9905 97.0317L20.9482 98.0207L17.9254 97.2573L16.5356 94.7238L15.0069 94.6718L15.2674 92.5722L14.1035 90.6114L13.1654 91.7913L10.6464 90.4379L8.19696 94.6024L5.69536 92.121L2.69 93.3183L1.90823 92.5028L1.40448 91.2881L1.99512 89.5876L1.33497 88.373L1.45659 86.9675L0.101562 85.4405L0.136288 84.6943L0.86589 84.8679L1.56082 84.1391L2.09935 81.9874L3.24592 81.7271L3.73234 80.2348L2.30781 78.3608L7.05044 74.3004L6.70297 73.5022L11.7409 71.3679L12.8354 69.3551L17.578 68.5569L20.149 71.0382L21.3825 71.1597L23.3455 69.0774L23.6409 67.1514L24.3705 66.4746L27.6886 68.5569L28.3487 68.4528L29.8775 67.8801L29.808 66.4573L32.7439 65.8326L33.9078 64.8956L37.5907 64.323L38.5288 60.3146L41.4647 59.5511L43.0456 61.2169L47.9966 60.922L48.153 58.8571L47.6492 58.4233L48.3267 57.5904L45.9641 55.5949L47.4408 53.3044L49.8555 52.4541L50.6025 49.5216L48.5873 47.3873L50.5504 47.4914L51.4364 45.4612L52.0965 45.7042L52.2007 44.6804L55.6057 43.2228L57.7946 43.9342L58.9585 43.8301L59.1322 43.084L62.016 44.1772L62.5024 43.032L63.7706 44.5589L66.6717 45.0621L67.3319 44.8019L67.4361 43.6913L70.4068 43.9516L70.2504 42.9452L70.7021 42.8931L71.4318 43.6393L73.2906 43.3616L73.7075 43.969L74.9583 43.6393L76.3307 44.5242L76.904 44.2639L77.7378 45.895L78.7976 46.3462L79.145 45.7389L80.3958 46.7106L80.9344 45.548L81.3165 45.8777L81.9245 45.0795L82.6021 45.5306L83.7486 43.7781L85.7464 44.1945L86.3892 43.0493L88.4218 43.3443L89.0297 44.8713L91.7746 44.0731L92.9385 46.7626L94.363 46.7106L94.5194 45.7042L95.9786 46.6238L96.8299 44.9233L96.7083 46.0859L97.8722 45.1315V44.2466L98.8103 44.8366L99.1404 44.3334L98.5323 43.5699L100.235 42.0602L104.63 40.0474L104.665 38.8154L106.558 37.6181L106.037 37.0802L106.941 35.4664L106.489 34.8764L107.757 33.7833L107.027 32.239L107.531 31.7531L106.854 31.354L107.861 30.2955L108.556 30.8161L107.653 32.6033L110.102 30.9549L113.942 31.6837L114.827 28.6297L117.59 29.0115L120.404 27.8662L120.943 26.9986L122.141 28.2827L123.218 28.3521L127.492 30.764L127.457 32.933L129.194 30.8161L132.686 30.122L133.972 28.5429L135.309 29.775L137.707 29.7229L137.516 30.9028L138.176 31.1284L138.575 30.3996L140.886 30.2955L141.355 29.8617L141.424 27.658L140.208 26.7383L140.278 25.5931L142.814 24.8469L143.301 22.6779L145.159 23.7017L146.045 17.2814L147.644 17.1947L147.713 15.4942L148.981 15.4595L149.103 14.9563L149.937 15.9974L152.977 15.338L153.168 16.3271L153.915 16.1015L154.453 18.0102L154.106 19.1208L154.818 19.5546L157.25 19.9016L158.466 17.8714L159.005 19.034L160.256 19.4504L159.839 19.9016L160.273 21.8971L161.715 21.2377L163.07 27.9356L164.616 27.8662L164.13 25.489L166.162 26.1831L166.631 26.9292L168.004 25.7319L168.16 26.5475L172.295 26.2698L171.617 24.8296L172.138 23.9099L173.268 24.0834L173.441 24.7428L175.335 24.5346L175.543 25.5931L182.04 24.2049L182.058 23.3373L183.691 23.1638L183.621 22.5912L181.12 21.5153L181.884 20.0925L181.137 16.6047L180.251 15.8933L184.768 13.9325L184.785 11.9717L177.941 9.62917L176.933 8.10218L177.836 5.95051L182.127 1.95952L182.701 0.501953Z"/>
</mask>
<path d="M182.701 0.501953L184.681 1.45632L187.026 1.71659L189.58 0.606061L190.414 1.36956L190.188 3.38241L190.779 4.30207L192.099 4.45823L193.193 5.89846L197.675 6.08933L200.177 10.0109L199.673 11.1909L200.333 12.232L200.559 15.1298L202.071 14.8521L202.991 15.7891L205.615 15.5809L205.58 9.75062L205.041 7.94602L205.441 7.87659L206.587 9.28211L206.761 10.6529L207.3 10.41L208.881 11.8676L208.134 13.7763L206.726 14.2622L207.699 15.1471L209.158 15.4421L208.95 16.0147L210.01 16.917L209.732 18.2011L210.618 20.1445L208.759 22.1574L210.496 25.9401L209.61 26.2698L209.94 26.9292L211.834 26.6342L214.735 28.89L215.065 26.3219L216.107 26.3045L216.142 26.8598L216.542 26.3566L218.8 26.6342L219.2 26.7383L219.026 29.9658L222.726 28.6297L223.369 30.2434L224.793 30.3129L224.429 29.7576L226.062 29.5667L227.121 27.953L226.426 27.5712L228.459 25.836L228.598 24.7775L230.231 24.3437L231.36 26.3045L233.115 27.7794L235.842 27.2936L239.091 28.0224L243.694 31.1458L242.617 36.5076L241.992 36.8199L241.106 40.1515L241.123 42.789L239.178 42.5634L238.795 40.03L237.84 40.2556L237.909 40.7762L236.607 41.0017L235.998 40.4812L234.383 41.2447L233.792 41.1232L233.393 39.3707L231.812 39.4401L231.291 38.8154L229.744 40.9323L227.538 41.262L226.6 40.3597L225.436 40.5853L225.61 44.368L226.009 44.9407L226.913 44.5763L227.538 46.6585L229.414 47.3353L231.325 47.1617L234.105 49.8687L235.078 49.7472L235.286 50.8057L238.5 50.2678L238.24 52.6277L235.616 53.1309L235.964 55.7337L234.782 56.5492L229.901 59.2909L229.38 58.1456L227.104 58.1977L227.747 60.9566L225.801 61.564L225.471 60.2626L221.11 60.8352L221.163 61.7722L219.547 61.8243L219.599 62.5877L218.956 62.8654L220.433 76.2959L218.713 76.7818L218.852 78.6384L218.209 79.7837L219.078 80.3043L219.095 82.0221L221.493 81.9006L221.371 86.4469L222.396 86.6031L223.265 89.9173L220.659 90.6635L220.45 92.9019L219.425 93.301L219.391 93.8389L216.403 94.3941L216.524 95.8864L209.749 96.9449L209.68 97.5869L208.377 97.7431L209.784 100.381L209.019 100.363L208.272 101.908L207.421 101.717L207.178 97.396L205.615 97.5349L205.476 95.6608L203.738 95.7823L204.555 99.7906L201.862 100.45L202.071 101.647L204.972 100.901L205.059 101.526L204.329 101.63L204.468 102.688L199.534 104.042L200.177 107.079L199.656 105.135L197.762 105.395L197.397 104.996L197.606 107.217L193.593 107.686L193.298 109.456L192.499 110.115L192.377 112.232L191.387 111.85L190.657 106.523L188.364 107.755L187.756 107.235L186.175 107.599L186.262 108.102H183.5L184.438 109.195L184.785 112.18L179.574 113.082L178.861 111.486L173.024 112.475L173.302 115.564L175.543 115.113L176.099 116.813L170.714 117.802L170.922 119.051L172.121 118.965L172.59 121.81L171.391 122.019L171.652 123.407L172.243 123.823L170.853 126.548L158.414 129.046L157.476 129.098L157.077 128.005L153.793 129.064L150.041 126.062L146.358 126.981L146.375 128.734L145.35 128.994L145.767 131.701L141.841 132.499L141.494 131.58L140.556 132.794L140 131.961L139.149 132.083L138.801 129.567L137.602 129.723L136.821 127.745L135.917 127.814L135.552 126.791L130.132 127.519L130.237 128.595L122.767 129.602L122.245 126.756L124.66 126.235L123.844 124.569L123.948 122.782L125.529 122.695L125.129 117.993L123.705 118.288L123.114 114.019L119.587 114.713L119.205 114.384L117.711 115.65L116.478 108.571L116.582 107.738L119.501 107.009L118.701 101.803L114.445 102.584L113.855 100.329L111.266 100.676L110.745 98.9751L107.879 99.513L107.792 101.561L106.871 102.029L106.315 101.248L105.412 101.387L105.863 104.805L103.501 104.927L103.397 105.725L102.528 106.28L102.32 105.031L101.329 105.1L101.746 103.504L102.927 103.035L102.181 99.4783L98.1849 100.224L98.2197 100.971L96.7604 101.3L96.0655 99.2354L95.0753 100.329L92.6779 100.866L92.3478 98.923L87.3968 100.537L86.4587 95.817L85.2774 95.9905L84.1134 95.0188L84.8257 93.8042L83.1927 91.6005L81.8724 91.3749L81.7335 90.5767L76.7998 91.3402L76.5739 90.4899L72.3525 91.3402L72.9605 94.4289L69.6424 94.6544L69.2429 96.2508L67.7141 96.8755L66.9323 96.2682L65.1778 96.754L64.6566 94.7932L63.5448 94.88L62.8151 94.1512L62.763 95.9558L61.5296 96.1294L60.9911 94.0992L57.2213 94.4289L56.9607 93.596L52.8088 94.6197L53.2431 95.817L51.419 96.3029L51.141 97.2225L47.2844 97.2746L45.5819 95.3485L44.2095 97.0664L43.7231 96.0079L36.4442 95.3659L32.5701 98.1249L30.3292 97.7605L28.9394 98.3157L25.1348 97.0664L21.9905 97.0317L20.9482 98.0207L17.9254 97.2573L16.5356 94.7238L15.0069 94.6718L15.2674 92.5722L14.1035 90.6114L13.1654 91.7913L10.6464 90.4379L8.19696 94.6024L5.69536 92.121L2.69 93.3183L1.90823 92.5028L1.40448 91.2881L1.99512 89.5876L1.33497 88.373L1.45659 86.9675L0.101562 85.4405L0.136288 84.6943L0.86589 84.8679L1.56082 84.1391L2.09935 81.9874L3.24592 81.7271L3.73234 80.2348L2.30781 78.3608L7.05044 74.3004L6.70297 73.5022L11.7409 71.3679L12.8354 69.3551L17.578 68.5569L20.149 71.0382L21.3825 71.1597L23.3455 69.0774L23.6409 67.1514L24.3705 66.4746L27.6886 68.5569L28.3487 68.4528L29.8775 67.8801L29.808 66.4573L32.7439 65.8326L33.9078 64.8956L37.5907 64.323L38.5288 60.3146L41.4647 59.5511L43.0456 61.2169L47.9966 60.922L48.153 58.8571L47.6492 58.4233L48.3267 57.5904L45.9641 55.5949L47.4408 53.3044L49.8555 52.4541L50.6025 49.5216L48.5873 47.3873L50.5504 47.4914L51.4364 45.4612L52.0965 45.7042L52.2007 44.6804L55.6057 43.2228L57.7946 43.9342L58.9585 43.8301L59.1322 43.084L62.016 44.1772L62.5024 43.032L63.7706 44.5589L66.6717 45.0621L67.3319 44.8019L67.4361 43.6913L70.4068 43.9516L70.2504 42.9452L70.7021 42.8931L71.4318 43.6393L73.2906 43.3616L73.7075 43.969L74.9583 43.6393L76.3307 44.5242L76.904 44.2639L77.7378 45.895L78.7976 46.3462L79.145 45.7389L80.3958 46.7106L80.9344 45.548L81.3165 45.8777L81.9245 45.0795L82.6021 45.5306L83.7486 43.7781L85.7464 44.1945L86.3892 43.0493L88.4218 43.3443L89.0297 44.8713L91.7746 44.0731L92.9385 46.7626L94.363 46.7106L94.5194 45.7042L95.9786 46.6238L96.8299 44.9233L96.7083 46.0859L97.8722 45.1315V44.2466L98.8103 44.8366L99.1404 44.3334L98.5323 43.5699L100.235 42.0602L104.63 40.0474L104.665 38.8154L106.558 37.6181L106.037 37.0802L106.941 35.4664L106.489 34.8764L107.757 33.7833L107.027 32.239L107.531 31.7531L106.854 31.354L107.861 30.2955L108.556 30.8161L107.653 32.6033L110.102 30.9549L113.942 31.6837L114.827 28.6297L117.59 29.0115L120.404 27.8662L120.943 26.9986L122.141 28.2827L123.218 28.3521L127.492 30.764L127.457 32.933L129.194 30.8161L132.686 30.122L133.972 28.5429L135.309 29.775L137.707 29.7229L137.516 30.9028L138.176 31.1284L138.575 30.3996L140.886 30.2955L141.355 29.8617L141.424 27.658L140.208 26.7383L140.278 25.5931L142.814 24.8469L143.301 22.6779L145.159 23.7017L146.045 17.2814L147.644 17.1947L147.713 15.4942L148.981 15.4595L149.103 14.9563L149.937 15.9974L152.977 15.338L153.168 16.3271L153.915 16.1015L154.453 18.0102L154.106 19.1208L154.818 19.5546L157.25 19.9016L158.466 17.8714L159.005 19.034L160.256 19.4504L159.839 19.9016L160.273 21.8971L161.715 21.2377L163.07 27.9356L164.616 27.8662L164.13 25.489L166.162 26.1831L166.631 26.9292L168.004 25.7319L168.16 26.5475L172.295 26.2698L171.617 24.8296L172.138 23.9099L173.268 24.0834L173.441 24.7428L175.335 24.5346L175.543 25.5931L182.04 24.2049L182.058 23.3373L183.691 23.1638L183.621 22.5912L181.12 21.5153L181.884 20.0925L181.137 16.6047L180.251 15.8933L184.768 13.9325L184.785 11.9717L177.941 9.62917L176.933 8.10218L177.836 5.95051L182.127 1.95952L182.701 0.501953Z" fill="#038405" stroke="#EAEAEA" stroke-width="2" mask="url(#path-1-inside-1_132_17)"/>
</svg>
