<svg width="201" height="167" viewBox="0 0 201 167" fill="none" xmlns="http://www.w3.org/2000/svg">
<mask id="path-1-inside-1_132_22" fill="white">
<path d="M58.1912 3.6074L60.2237 3.88502L61.0923 4.9435L64.341 3.2777L65.4007 4.63116L67.1379 5.08232L68.1107 4.56175L68.354 1.88953L70.4734 0.588135L71.7936 2.21922L72.7317 2.49686L72.9402 3.52063L76.1367 3.59004L76.3104 5.65494L78.3777 5.56818L78.8467 7.06046L79.6632 7.68513L79.7153 6.85223L81.3657 6.21021L82.2343 6.48784L82.5644 7.56367L83.5894 5.75905L84.9791 7.30339L85.8477 6.43578L87.7934 5.94993L96.2537 8.30981L97.5913 9.31622L98.7726 9.22947L100.753 7.56367L103.828 6.34902L104.158 5.65494L103.672 4.99555L102.126 4.80468L101.865 4.05854L105.53 2.49686H106.608L108.032 4.05854L110.273 1.1781L114.703 4.52705L114.477 5.60288L116.683 4.09325L119.046 5.03027L118.004 6.45314L118.803 7.21662L119.915 6.27961L120.019 4.63116L123.146 3.12153L124.848 3.39917L125.891 2.34069L127.576 3.76356L128.219 11.5026L135.723 17.6973L135.219 18.4955L137.061 20.4042L136.453 22.2088L137.183 22.955L139.389 24.8811L143.002 25.3669L143.437 28.8026L144.079 29.2711L144.218 28.5771L145.365 28.8373L146.616 30.5899L145.903 32.3772L143.715 34.8065L144.583 35.7435L144.166 37.149L145.104 39.1445L146.685 40.3244L147.641 39.7171L150.09 41.14L151.306 40.55L151.827 41.2267L152.679 40.2203L153.182 40.5326L152.956 41.1053L154.19 41.192L154.207 37.791L156.136 36.6111L157.056 37.0102L156.639 38.0687L160.01 37.2357L160.218 36.7325L162.181 36.8714L162.859 36.264L168.331 37.3572L167.74 39.2486L167.914 41.9035L169.634 44.246L163.397 52.4709L164.995 56.9824L165.551 57.5203L166.767 57.1906L168.348 60.3661L170.016 61.7369L171.041 61.5287L172.327 62.9863L173.699 61.7022L174.984 61.7369L175.836 64.1662L179.084 64.6868L180.213 64.2009L184.539 66.7343L184.834 69.0595L183.636 69.5106L184.209 70.9162L184.105 74.1263L185.13 75.2542L186.728 75.4451L186.902 76.7638L186.033 77.3191L186.815 77.7008L186.051 79.089L187.545 79.9219L191.28 80.3384L192.513 81.7612L197.256 81.0498L196.769 82.3512L197.951 83.9302L200.365 90.1249L195.987 91.0793L195.605 91.756L196.943 92.051L197.012 94.2374L200.296 95.4L200.105 98.0722L191.523 96.4237L190.341 100.571L193.069 101.508L192.305 105.377L193.885 106.037L188.326 112.995L188.795 115.199L188.083 116.812L185.651 115.338L186.329 114.8L185.912 114.47L180.995 115.043L179.362 114.401L177.104 114.539L176.166 113.064L173.925 111.937L173.23 112.474L170.676 119.276L172.848 128.109L172.379 128.334L172.361 127.363L168.869 124.204L167.601 125.124L166.889 127.432L165.777 128.143L163.866 127.102L164.04 126.46L165.308 126.582L165.847 125.749L163.762 125.107L163.501 124.534L161.295 124.864L161.573 125.523L160.774 126.183L159.176 125.471L157.994 126.061L157.96 128.716L156.535 128.473L154.572 129.722L153.651 129.479L152.748 130.729L151.949 130.885L151.237 130L149.882 130.364L148.874 131.51L147.727 131.423L147.814 133.106L146.824 132.794L146.199 134.095L146.633 135.813L145.365 136.472L143.28 135.084L142.168 135.917L140.9 134.945L140.205 135.535L136.644 132.967L137.461 136.542L134.403 138.468L133.76 140.064L132.214 141.452L133.76 142.945L131.432 146.554L130.755 150.58L131.207 151.673L132.787 152.818L132.735 154.224L133.465 154.328L133.43 155.265L132.075 155.404L131.988 156.323L133.343 157.121L130.286 157.382L130.494 160.522L132.023 159.915L132.909 160.574L131.259 162.206L131.554 164.062L130.303 166.11L130.39 164.774L129.817 164.322L127.767 164.288L126.551 163.09L124.727 162.587L123.302 161.13L122.121 161.459L120.696 160.869L120.106 159.898L120.436 157.954L120.054 157.243L117.013 156.878L115.085 155.421L114.095 153.46L112.045 153.495L108.866 152.193L106.694 150.146L102.091 147.022L98.8421 146.294L96.1147 146.78L94.3601 145.305L93.2309 143.344L91.598 143.778L91.459 144.836L89.4264 146.571L90.1213 146.953L89.0616 148.567L87.4286 148.758L87.7934 149.313L86.3689 149.244L85.7262 147.63L82.0259 148.966L82.1996 145.738L81.8 145.634L79.5417 145.357L79.1421 145.86L79.1074 145.305L78.065 145.322L77.7349 147.89L74.8338 145.634L72.9402 145.929L72.6101 145.27L73.4961 144.94L71.7589 141.157L73.6177 139.145L72.7317 137.201L73.0097 135.917L71.95 135.015L72.1585 134.442L70.6992 134.147L69.7263 133.262L71.1335 132.776L71.8805 130.868L70.2996 129.41L69.7611 129.653L69.5874 128.282L68.4408 126.877L68.0412 126.946L68.5798 128.751L68.6145 134.581L65.9913 134.789L65.0706 133.852L63.5592 134.13L63.3334 131.232L62.6732 130.191L63.177 129.011L60.6754 125.089L56.1934 124.899L55.099 123.458L53.7787 123.302L53.188 122.382L53.4139 120.37L52.58 119.606L50.0263 120.717L47.6811 120.456L45.7006 119.502L43.338 119.259L40.211 120.855L39.1165 119.207L37.5357 118.548L33.9049 119.381L32.4109 118.201L31.3164 118.912L30.1178 116.726L28.5195 116.101L27.5814 114.886L25.1841 114.106L22.8388 112.145L23.5337 111L22.6825 110.947L22.5435 110.427L23.5163 109.525L25.3057 105.03L27.1819 107.373L30.4652 107.755L33.8875 109.698L38.9255 109.854L38.7691 107.963L37.4314 106.922L36.1112 106.974L35.312 105.568L35.5379 103.365L33.818 102.219L35.0688 101.196L35.2252 96.684L37.223 96.6146L39.5335 94.3068L39.4466 90.1076L39.8983 89.6391L36.4586 87.1577L37.3793 86.186L36.4934 83.2882L37.1187 82.1603L35.6421 81.8133L34.4261 80.1301L29.2318 78.2735L29.1623 73.7793L28.1547 72.0614L25.8268 71.7317L25.0624 68.9033L21.9528 69.7189L21.1363 67.3243L17.4882 62.6392L18.4784 61.7195L19.1559 62.5698L21.0669 61.3899L19.8682 60.0017L20.1461 57.9889L20.7368 57.7459L20.0419 57.1213L20.5457 54.8655L17.8009 53.0782L16.9497 48.3064L15.7683 48.1155L15.9594 46.9182L14.9171 46.0853L14.3264 47.7511L13.701 47.8379L10.4698 43.8122L11.3732 42.4067L10.1919 41.1573L13.2494 40.4285L12.9193 38.2075L5.69247 36.1079L4.89336 34.1991L1.95746 31.8739L2.68706 30.7981L2.21803 30.4164L0.654541 28.6465L1.55788 25.5751L1.21046 25.1761L3.67728 23.5276L3.03452 22.5038L4.30271 20.6819L3.88574 19.6234L8.14195 18.669L8.74999 19.3804L9.34064 18.8772L10.2614 19.5713L10.9041 18.1658L10.2961 17.1594L12.4676 16.5521L12.6761 15.0598L14.3959 14.2789L13.9616 13.1684L14.3959 12.4396L16.9497 12.1967L17.2102 13.4113L18.5653 14.088L19.017 13.6716L21.4838 14.8515L24.2981 14.7995L23.9333 17.5064L26.2437 19.7795L28.4153 18.4608L32.4804 18.7558L32.6715 17.7146L34.9646 17.4023L34.8777 18.5996H38.856L39.0644 19.0855L39.4466 18.4608L40.2805 19.3804L40.6453 18.9466L41.8787 19.5366L42.4346 18.7558L41.6355 18.2526L41.844 17.4197L44.6062 17.142L49.2793 13.9492L49.0708 12.5437L50.7212 12.0058L50.2695 11.3811L51.086 10.635L51.9372 10.7738L52.302 9.29888L52.9448 9.0386L52.6148 7.91071L54.9774 7.99747L55.6028 5.30789L56.732 5.18643L58.1912 3.6074Z"/>
</mask>
<path d="M58.1912 3.6074L60.2237 3.88502L61.0923 4.9435L64.341 3.2777L65.4007 4.63116L67.1379 5.08232L68.1107 4.56175L68.354 1.88953L70.4734 0.588135L71.7936 2.21922L72.7317 2.49686L72.9402 3.52063L76.1367 3.59004L76.3104 5.65494L78.3777 5.56818L78.8467 7.06046L79.6632 7.68513L79.7153 6.85223L81.3657 6.21021L82.2343 6.48784L82.5644 7.56367L83.5894 5.75905L84.9791 7.30339L85.8477 6.43578L87.7934 5.94993L96.2537 8.30981L97.5913 9.31622L98.7726 9.22947L100.753 7.56367L103.828 6.34902L104.158 5.65494L103.672 4.99555L102.126 4.80468L101.865 4.05854L105.53 2.49686H106.608L108.032 4.05854L110.273 1.1781L114.703 4.52705L114.477 5.60288L116.683 4.09325L119.046 5.03027L118.004 6.45314L118.803 7.21662L119.915 6.27961L120.019 4.63116L123.146 3.12153L124.848 3.39917L125.891 2.34069L127.576 3.76356L128.219 11.5026L135.723 17.6973L135.219 18.4955L137.061 20.4042L136.453 22.2088L137.183 22.955L139.389 24.8811L143.002 25.3669L143.437 28.8026L144.079 29.2711L144.218 28.5771L145.365 28.8373L146.616 30.5899L145.903 32.3772L143.715 34.8065L144.583 35.7435L144.166 37.149L145.104 39.1445L146.685 40.3244L147.641 39.7171L150.09 41.14L151.306 40.55L151.827 41.2267L152.679 40.2203L153.182 40.5326L152.956 41.1053L154.19 41.192L154.207 37.791L156.136 36.6111L157.056 37.0102L156.639 38.0687L160.01 37.2357L160.218 36.7325L162.181 36.8714L162.859 36.264L168.331 37.3572L167.74 39.2486L167.914 41.9035L169.634 44.246L163.397 52.4709L164.995 56.9824L165.551 57.5203L166.767 57.1906L168.348 60.3661L170.016 61.7369L171.041 61.5287L172.327 62.9863L173.699 61.7022L174.984 61.7369L175.836 64.1662L179.084 64.6868L180.213 64.2009L184.539 66.7343L184.834 69.0595L183.636 69.5106L184.209 70.9162L184.105 74.1263L185.13 75.2542L186.728 75.4451L186.902 76.7638L186.033 77.3191L186.815 77.7008L186.051 79.089L187.545 79.9219L191.28 80.3384L192.513 81.7612L197.256 81.0498L196.769 82.3512L197.951 83.9302L200.365 90.1249L195.987 91.0793L195.605 91.756L196.943 92.051L197.012 94.2374L200.296 95.4L200.105 98.0722L191.523 96.4237L190.341 100.571L193.069 101.508L192.305 105.377L193.885 106.037L188.326 112.995L188.795 115.199L188.083 116.812L185.651 115.338L186.329 114.8L185.912 114.47L180.995 115.043L179.362 114.401L177.104 114.539L176.166 113.064L173.925 111.937L173.23 112.474L170.676 119.276L172.848 128.109L172.379 128.334L172.361 127.363L168.869 124.204L167.601 125.124L166.889 127.432L165.777 128.143L163.866 127.102L164.04 126.46L165.308 126.582L165.847 125.749L163.762 125.107L163.501 124.534L161.295 124.864L161.573 125.523L160.774 126.183L159.176 125.471L157.994 126.061L157.96 128.716L156.535 128.473L154.572 129.722L153.651 129.479L152.748 130.729L151.949 130.885L151.237 130L149.882 130.364L148.874 131.51L147.727 131.423L147.814 133.106L146.824 132.794L146.199 134.095L146.633 135.813L145.365 136.472L143.28 135.084L142.168 135.917L140.9 134.945L140.205 135.535L136.644 132.967L137.461 136.542L134.403 138.468L133.76 140.064L132.214 141.452L133.76 142.945L131.432 146.554L130.755 150.58L131.207 151.673L132.787 152.818L132.735 154.224L133.465 154.328L133.43 155.265L132.075 155.404L131.988 156.323L133.343 157.121L130.286 157.382L130.494 160.522L132.023 159.915L132.909 160.574L131.259 162.206L131.554 164.062L130.303 166.11L130.39 164.774L129.817 164.322L127.767 164.288L126.551 163.09L124.727 162.587L123.302 161.13L122.121 161.459L120.696 160.869L120.106 159.898L120.436 157.954L120.054 157.243L117.013 156.878L115.085 155.421L114.095 153.46L112.045 153.495L108.866 152.193L106.694 150.146L102.091 147.022L98.8421 146.294L96.1147 146.78L94.3601 145.305L93.2309 143.344L91.598 143.778L91.459 144.836L89.4264 146.571L90.1213 146.953L89.0616 148.567L87.4286 148.758L87.7934 149.313L86.3689 149.244L85.7262 147.63L82.0259 148.966L82.1996 145.738L81.8 145.634L79.5417 145.357L79.1421 145.86L79.1074 145.305L78.065 145.322L77.7349 147.89L74.8338 145.634L72.9402 145.929L72.6101 145.27L73.4961 144.94L71.7589 141.157L73.6177 139.145L72.7317 137.201L73.0097 135.917L71.95 135.015L72.1585 134.442L70.6992 134.147L69.7263 133.262L71.1335 132.776L71.8805 130.868L70.2996 129.41L69.7611 129.653L69.5874 128.282L68.4408 126.877L68.0412 126.946L68.5798 128.751L68.6145 134.581L65.9913 134.789L65.0706 133.852L63.5592 134.13L63.3334 131.232L62.6732 130.191L63.177 129.011L60.6754 125.089L56.1934 124.899L55.099 123.458L53.7787 123.302L53.188 122.382L53.4139 120.37L52.58 119.606L50.0263 120.717L47.6811 120.456L45.7006 119.502L43.338 119.259L40.211 120.855L39.1165 119.207L37.5357 118.548L33.9049 119.381L32.4109 118.201L31.3164 118.912L30.1178 116.726L28.5195 116.101L27.5814 114.886L25.1841 114.106L22.8388 112.145L23.5337 111L22.6825 110.947L22.5435 110.427L23.5163 109.525L25.3057 105.03L27.1819 107.373L30.4652 107.755L33.8875 109.698L38.9255 109.854L38.7691 107.963L37.4314 106.922L36.1112 106.974L35.312 105.568L35.5379 103.365L33.818 102.219L35.0688 101.196L35.2252 96.684L37.223 96.6146L39.5335 94.3068L39.4466 90.1076L39.8983 89.6391L36.4586 87.1577L37.3793 86.186L36.4934 83.2882L37.1187 82.1603L35.6421 81.8133L34.4261 80.1301L29.2318 78.2735L29.1623 73.7793L28.1547 72.0614L25.8268 71.7317L25.0624 68.9033L21.9528 69.7189L21.1363 67.3243L17.4882 62.6392L18.4784 61.7195L19.1559 62.5698L21.0669 61.3899L19.8682 60.0017L20.1461 57.9889L20.7368 57.7459L20.0419 57.1213L20.5457 54.8655L17.8009 53.0782L16.9497 48.3064L15.7683 48.1155L15.9594 46.9182L14.9171 46.0853L14.3264 47.7511L13.701 47.8379L10.4698 43.8122L11.3732 42.4067L10.1919 41.1573L13.2494 40.4285L12.9193 38.2075L5.69247 36.1079L4.89336 34.1991L1.95746 31.8739L2.68706 30.7981L2.21803 30.4164L0.654541 28.6465L1.55788 25.5751L1.21046 25.1761L3.67728 23.5276L3.03452 22.5038L4.30271 20.6819L3.88574 19.6234L8.14195 18.669L8.74999 19.3804L9.34064 18.8772L10.2614 19.5713L10.9041 18.1658L10.2961 17.1594L12.4676 16.5521L12.6761 15.0598L14.3959 14.2789L13.9616 13.1684L14.3959 12.4396L16.9497 12.1967L17.2102 13.4113L18.5653 14.088L19.017 13.6716L21.4838 14.8515L24.2981 14.7995L23.9333 17.5064L26.2437 19.7795L28.4153 18.4608L32.4804 18.7558L32.6715 17.7146L34.9646 17.4023L34.8777 18.5996H38.856L39.0644 19.0855L39.4466 18.4608L40.2805 19.3804L40.6453 18.9466L41.8787 19.5366L42.4346 18.7558L41.6355 18.2526L41.844 17.4197L44.6062 17.142L49.2793 13.9492L49.0708 12.5437L50.7212 12.0058L50.2695 11.3811L51.086 10.635L51.9372 10.7738L52.302 9.29888L52.9448 9.0386L52.6148 7.91071L54.9774 7.99747L55.6028 5.30789L56.732 5.18643L58.1912 3.6074Z" fill="#038405" stroke="#EAEAEA" stroke-width="2" mask="url(#path-1-inside-1_132_22)"/>
</svg>
