<svg width="164" height="177" viewBox="0 0 164 177" fill="none" xmlns="http://www.w3.org/2000/svg">
<mask id="path-1-inside-1_132_19" fill="white">
<path d="M85.1461 0.541216L88.1862 0.350342L90.3751 4.37603L91.4696 4.68837L92.0776 6.28475L94.3534 7.88114L98.4706 8.62729L99.2871 6.52768L101.528 6.54504L102.345 5.59067L104.082 7.44734L103.491 8.57523L103.873 9.94605L106.305 11.6465L107.417 11.6813L109.954 10.2757L110.961 10.6228L112.577 13.6247L112.473 16.0366L113.046 16.5572L114.245 16.2622L114.436 15.4119L115.044 15.7416L114.609 16.2622L115.183 18.6221L114.557 19.0732L115.096 19.455L114.939 23.5327L118.344 23.8277V24.4524L122.323 26.847L121.836 29.8142L125.571 30.3L126.422 29.6407L130.488 29.1722L131.009 28.4607L132.138 28.5648L132.103 29.7795L135.039 29.7968L134.692 26.8123L135.369 25.8232L139.903 30.0398L141.832 30.1092L142.37 31.4106L142.179 33.7358L145.41 35.0545L146.157 35.4189L148.624 34.6728L150.917 35.7486L150.83 38.7332H149.979L149.145 39.9652L149.423 40.9195L148.659 41.4054L148.798 42.9324L151.473 44.8758L150.674 46.0731L150.344 49.4741L157.102 59.1739L159.273 60.8918L162.279 62.6791L162.852 64.1366L162.418 65.8371L163.703 66.67L161.462 67.4162L160.819 69.2902L161.723 70.661L160.628 73.4547L156.32 74.5826L155.695 76.9772L154.027 76.0575L153.297 76.2484V77.1854L152.324 77.3416L149.336 76.0055L148.85 76.5607L147.53 76.474L146.731 78.0183L143.621 77.0466L144.09 80.6732L143.204 82.1481L145.619 84.6295L142.718 87.5967L141.397 85.7747L139.99 85.2715L138.722 88.7593L138.044 93.8781L136.759 94.2946L135.908 96.0818L134.883 95.9604L135.126 96.6545L133.493 96.1166L132.868 96.6892L133.215 97.5915L131.287 96.6198L130.644 97.5568L129.219 97.5741L129.358 99.1358L128.663 98.112L126.857 98.7888L126.544 99.9514L122.079 100.16L122.74 102.259L122.444 106.892L121.107 107.1L118.518 105.955L117.493 106.632L115.026 105.209L113.637 103.439L111.847 104.532L110.457 104.393L109.832 103.352L110.683 102.797L109.467 101.635L107.921 101.305L108.164 101.912L107.452 101.669L107.4 102.207L105.611 103.335L106.201 106.059L104.238 106.215L103.613 107.152L104.412 109.113L104.047 111.543L102.379 111.838L101.684 112.879L102.744 116.193L105.489 117.477L103.005 119.698L103.422 121.364L102.084 123.55L101.059 122.683L99.982 123.706L97.6367 123.116L97.5672 124.4L97.7236 126.049L99.7214 125.685L101.302 126.396L100.607 128.877L99.8256 129.606L100.399 130.578L102.588 131.081L106.41 130.821L105.732 132.157L106.132 132.782L105.35 134.222L105.385 135.888L104.325 136.339L102.362 134.638L100.955 134.864L96.3685 136.356L93.5369 138.577L92.1297 138.195L91.5391 139.115L90.0972 138.629L89.6629 140.104L88.7769 139.965L88.1515 138.976L83.4784 138.282L81.0636 141.058L80.4904 139.931L78.232 139.028L74.7228 141.51L74.2364 142.447L70.5361 141.267L68.1909 141.961L67.1833 140.798L66.6968 141.058L65.7935 140.399L63.7088 142.759L62.9966 142.29L61.8153 142.933L60.5818 148.398L59.4353 149.266L58.5667 148.711L57.9586 149.197L57.6633 150.394L54.5189 153.83L55.735 155.704L54.2236 159.504L54.8316 161.135L56.7252 161.812L56.9684 162.471L54.988 163.391L54.9011 165.126L53.7893 167.156L55.2138 170.748L53.1118 174.461L53.4592 175.711L51.0271 175.207L48.8556 176.439L46.0587 175.589L43.366 174.322L42.48 171.963L40.3259 173.368L37.9632 171.459L36.7298 172.587L33.0469 172.726L30.0589 166.323L29.0513 166.115L28.9645 164.709L26.9493 163.581L24.6388 165.004L23.5964 164.64L22.2935 165.126L21.2686 166.462L20.5216 166.184L19.653 165.091L19.1839 162.332L17.2035 161.534L14.9625 159.643L13.7464 156.727L13.7985 155.252L15.2057 154.177L16.387 154.159L15.4315 151.296L17.5335 149.839L14.1981 147.965L13.3469 147.913L13.8159 146.802L13.26 145.483L14.7019 142.811L12.8604 142.29L12.4782 141.215L11.1753 141.44L10.2893 139.809L9.03855 139.046L8.81271 137.328L6.62382 137.744L5.85944 137.241L6.83228 135.107L5.59886 135.124L4.67813 136.72L4.00062 135.783L5.54674 132.625L6.31112 132.174L4.71288 131.706L4.43492 130.803L4.81711 129.814L5.89419 129.276L6.55433 123.099L6.27637 119.039L3.40996 107.17L1.34267 106.476L0.0571289 103.89L1.41216 103.057L3.35784 99.0664L8.39578 92.5073L8.67374 90.6333L9.57709 89.3145L10.7931 88.9675L12.0439 87.6661L13.5727 85.0806L14.9277 84.0048L16.3349 81.1243L18.8191 79.0768L19.3576 76.0402L20.9559 75.589L27.8874 65.4033L33.6897 58.5319L33.9676 56.8314L35.3922 56.2414L37.6158 53.4824L37.5637 51.9034L38.4323 51.9728L39.7178 50.9837L48.9077 41.4401L55.3528 36.998L58.5667 32.1914L61.3983 31.0462L62.2669 27.2461L63.7783 25.91L68.5036 24.3309L76.3905 23.446L79.8129 23.6542L80.2298 21.5199L81.9323 20.5308L84.9029 11.6465L85.7889 5.8336L85.3372 4.58426L85.6673 2.9358L85.0245 2.91844L84.6249 2.12025L85.1461 0.541216Z"/>
</mask>
<path d="M85.1461 0.541216L88.1862 0.350342L90.3751 4.37603L91.4696 4.68837L92.0776 6.28475L94.3534 7.88114L98.4706 8.62729L99.2871 6.52768L101.528 6.54504L102.345 5.59067L104.082 7.44734L103.491 8.57523L103.873 9.94605L106.305 11.6465L107.417 11.6813L109.954 10.2757L110.961 10.6228L112.577 13.6247L112.473 16.0366L113.046 16.5572L114.245 16.2622L114.436 15.4119L115.044 15.7416L114.609 16.2622L115.183 18.6221L114.557 19.0732L115.096 19.455L114.939 23.5327L118.344 23.8277V24.4524L122.323 26.847L121.836 29.8142L125.571 30.3L126.422 29.6407L130.488 29.1722L131.009 28.4607L132.138 28.5648L132.103 29.7795L135.039 29.7968L134.692 26.8123L135.369 25.8232L139.903 30.0398L141.832 30.1092L142.37 31.4106L142.179 33.7358L145.41 35.0545L146.157 35.4189L148.624 34.6728L150.917 35.7486L150.83 38.7332H149.979L149.145 39.9652L149.423 40.9195L148.659 41.4054L148.798 42.9324L151.473 44.8758L150.674 46.0731L150.344 49.4741L157.102 59.1739L159.273 60.8918L162.279 62.6791L162.852 64.1366L162.418 65.8371L163.703 66.67L161.462 67.4162L160.819 69.2902L161.723 70.661L160.628 73.4547L156.32 74.5826L155.695 76.9772L154.027 76.0575L153.297 76.2484V77.1854L152.324 77.3416L149.336 76.0055L148.85 76.5607L147.53 76.474L146.731 78.0183L143.621 77.0466L144.09 80.6732L143.204 82.1481L145.619 84.6295L142.718 87.5967L141.397 85.7747L139.99 85.2715L138.722 88.7593L138.044 93.8781L136.759 94.2946L135.908 96.0818L134.883 95.9604L135.126 96.6545L133.493 96.1166L132.868 96.6892L133.215 97.5915L131.287 96.6198L130.644 97.5568L129.219 97.5741L129.358 99.1358L128.663 98.112L126.857 98.7888L126.544 99.9514L122.079 100.16L122.74 102.259L122.444 106.892L121.107 107.1L118.518 105.955L117.493 106.632L115.026 105.209L113.637 103.439L111.847 104.532L110.457 104.393L109.832 103.352L110.683 102.797L109.467 101.635L107.921 101.305L108.164 101.912L107.452 101.669L107.4 102.207L105.611 103.335L106.201 106.059L104.238 106.215L103.613 107.152L104.412 109.113L104.047 111.543L102.379 111.838L101.684 112.879L102.744 116.193L105.489 117.477L103.005 119.698L103.422 121.364L102.084 123.55L101.059 122.683L99.982 123.706L97.6367 123.116L97.5672 124.4L97.7236 126.049L99.7214 125.685L101.302 126.396L100.607 128.877L99.8256 129.606L100.399 130.578L102.588 131.081L106.41 130.821L105.732 132.157L106.132 132.782L105.35 134.222L105.385 135.888L104.325 136.339L102.362 134.638L100.955 134.864L96.3685 136.356L93.5369 138.577L92.1297 138.195L91.5391 139.115L90.0972 138.629L89.6629 140.104L88.7769 139.965L88.1515 138.976L83.4784 138.282L81.0636 141.058L80.4904 139.931L78.232 139.028L74.7228 141.51L74.2364 142.447L70.5361 141.267L68.1909 141.961L67.1833 140.798L66.6968 141.058L65.7935 140.399L63.7088 142.759L62.9966 142.29L61.8153 142.933L60.5818 148.398L59.4353 149.266L58.5667 148.711L57.9586 149.197L57.6633 150.394L54.5189 153.83L55.735 155.704L54.2236 159.504L54.8316 161.135L56.7252 161.812L56.9684 162.471L54.988 163.391L54.9011 165.126L53.7893 167.156L55.2138 170.748L53.1118 174.461L53.4592 175.711L51.0271 175.207L48.8556 176.439L46.0587 175.589L43.366 174.322L42.48 171.963L40.3259 173.368L37.9632 171.459L36.7298 172.587L33.0469 172.726L30.0589 166.323L29.0513 166.115L28.9645 164.709L26.9493 163.581L24.6388 165.004L23.5964 164.64L22.2935 165.126L21.2686 166.462L20.5216 166.184L19.653 165.091L19.1839 162.332L17.2035 161.534L14.9625 159.643L13.7464 156.727L13.7985 155.252L15.2057 154.177L16.387 154.159L15.4315 151.296L17.5335 149.839L14.1981 147.965L13.3469 147.913L13.8159 146.802L13.26 145.483L14.7019 142.811L12.8604 142.29L12.4782 141.215L11.1753 141.44L10.2893 139.809L9.03855 139.046L8.81271 137.328L6.62382 137.744L5.85944 137.241L6.83228 135.107L5.59886 135.124L4.67813 136.72L4.00062 135.783L5.54674 132.625L6.31112 132.174L4.71288 131.706L4.43492 130.803L4.81711 129.814L5.89419 129.276L6.55433 123.099L6.27637 119.039L3.40996 107.17L1.34267 106.476L0.0571289 103.89L1.41216 103.057L3.35784 99.0664L8.39578 92.5073L8.67374 90.6333L9.57709 89.3145L10.7931 88.9675L12.0439 87.6661L13.5727 85.0806L14.9277 84.0048L16.3349 81.1243L18.8191 79.0768L19.3576 76.0402L20.9559 75.589L27.8874 65.4033L33.6897 58.5319L33.9676 56.8314L35.3922 56.2414L37.6158 53.4824L37.5637 51.9034L38.4323 51.9728L39.7178 50.9837L48.9077 41.4401L55.3528 36.998L58.5667 32.1914L61.3983 31.0462L62.2669 27.2461L63.7783 25.91L68.5036 24.3309L76.3905 23.446L79.8129 23.6542L80.2298 21.5199L81.9323 20.5308L84.9029 11.6465L85.7889 5.8336L85.3372 4.58426L85.6673 2.9358L85.0245 2.91844L84.6249 2.12025L85.1461 0.541216Z" fill="#038405" stroke="#EAEAEA" stroke-width="2" mask="url(#path-1-inside-1_132_19)"/>
</svg>
