<svg width="155" height="84" viewBox="0 0 155 84" fill="none" xmlns="http://www.w3.org/2000/svg">
<mask id="path-1-inside-1_132_8" fill="white">
<path d="M42.7247 0.569284L47.6758 1.541L49.0482 4.14381L50.3337 1.48894L51.2718 0.413095L51.9493 0.395752L53.0785 1.05514L56.0665 5.08081L55.806 7.28454L57.2652 7.05895L59.2109 8.2042L60.7397 7.77039L63.1196 5.15024L65.8123 6.174L66.4203 3.31092L67.5669 2.89446L68.1054 3.50179L68.4703 6.52104L67.1847 8.49918L70.138 12.6116L72.0316 11.2929L71.9273 10.0088L70.1901 7.16308L70.4855 5.89636L71.4409 5.32374L73.0218 7.12837L73.2129 11.6746L74.4463 13.4445L76.1488 13.7222L80.3355 12.4208L82.2985 15.1624L83.7057 14.4856L85.3213 15.2665L87.597 12.8372L90.6198 12.5943L93.1388 11.987L97.0649 19.5872L99.8618 20.1598L101.425 19.2575L100.348 16.4117L100.539 15.2839L101.894 15.3706L103.284 17.2099L105.647 17.1579L106.62 16.4464L106.272 15.2665L104.552 13.7048L104.24 12.334L101.373 12.7678L100.817 12.039L101.06 11.1194L101.929 10.46L103.302 10.4773L105.942 13.0281L107.384 13.0801L108.096 12.4728L108.287 11.2408L108.027 9.95675L106.932 8.88093L107.453 8.11743L108.635 8.89829L109.243 11.6399L110.424 11.8134L111.414 10.0262L110.372 7.4407L111.866 6.15666L113.134 6.64252L112.787 8.62066L113.951 10.7376L116.261 12.2819L117.599 11.6746L119.11 9.3321L121.438 9.21062L122.776 8.10009L123.332 9.66177L128.352 10.8591L130.263 10.7723L131.583 9.21062L132.991 8.62066L137.785 10.165L138.897 8.58594L137.316 6.41693L137.785 5.08081L139.853 5.04613L142.163 7.12837L143.535 6.48633L144.057 4.50819L145.238 4.40408L149.911 7.111L151.648 12.334L151.475 15.2318L152.639 17.4355L154.654 18.5461L152.847 19.8648L151.04 20.1077L149.459 23.7343L146.089 23.7517L145.481 22.8494L145.603 21.5653L144.873 20.958L143.918 20.368V21.1142L143.31 20.4374L143.119 21.1315L142.111 20.9406L139.974 27.2221L138.81 26.3718L137.125 26.9965L135.892 25.6431L134.676 25.2787L133.095 26.5974L131.444 27.0139L128.734 23.8731L128.161 21.6694L127.067 22.8667L124.235 22.7105L125.642 23.8037L126.163 26.4066L125.972 26.8404L124.947 26.1983L123.453 26.4933L122.915 28.402L119.145 27.2568L118.989 27.8815L117.217 26.233L117.303 24.8969L116.087 23.0229L114.559 23.5434L110.355 23.1096L108.895 24.8448L107.262 23.8731L106.515 24.411L109.486 28.7664L111.154 29.7034L112.022 29.0267L112.839 29.6687L113.238 32.393L112.405 34.0762L111.327 34.2497L110.077 33.5036L109.121 31.751L108.114 32.393L105.404 28.5582L104.813 28.697L105.56 31.0916L104.431 31.3345L104.361 32.0286L102.815 33.1565V33.8159L100.991 35.8114L101.651 37.3037L101.564 38.1539L100.748 37.8936L101.008 38.848L99.6534 38.9174L99.0106 38.2754L98.2462 38.7265L98.142 40.6179L96.9607 40.1147L96.7174 40.965L95.3972 41.5896L92.1312 40.6006L91.3321 41.8499L90.0639 42.1796L90.255 42.8563L89.3517 42.2837L87.3017 43.5331L86.5721 42.5961L85.7035 43.6372L85.026 43.1513L84.9217 43.776L84.1226 43.7586L83.7752 44.366L84.2095 45.9277L82.0727 48.1487L80.7003 52.6429L77.1043 55.3325L76.2183 59.2541L75.4018 60.3472L70.885 61.7528L68.2792 60.9199L61.7125 62.4468L59.5583 61.8916L58.9677 63.0542L58.0817 63.3492L56.3097 62.5336L54.2598 63.1062L53.3738 64.2168L51.2718 65.2058L45.9038 64.9455L43.7844 64.2688L40.3273 65.31L24.1538 67.3401L21.6175 69.2142L19.3417 69.2836L18.7337 72.164L15.5893 76.502L15.5025 78.0464L14.408 78.2025L13.5394 79.0875L12.5839 81.2565L9.7349 82.4017L8.95314 81.9506L8.04979 83.8246L6.19097 83.0438L5.58295 83.8246L1.11829 83.6858L2.59493 77.8729L4.71434 74.8883L5.53082 72.4937L4.64485 72.164L4.80119 71.522L2.66442 69.5612L2.47332 68.6936L3.32456 68.3466L3.13346 67.0278L0.909824 64.5812L1.39624 63.9912L0.840333 63.7136L1.13566 63.0195L0.284424 60.2431L1.01405 59.0285L0.597124 57.4495L5.37448 52.2265L4.55798 50.3177L4.87068 49.6931L5.82616 49.294L7.78921 50.0748L8.01504 48.5825L9.61329 48.1834L9.66541 45.8929L11.1594 45.5285L10.7251 43.9148L11.6459 43.4984L13.2093 44.123L13.7826 43.828L13.9216 42.6655L12.5318 41.5202L12.6882 40.5832L12.028 40.1321L14.1996 38.2233L16.4927 37.7895L21.1137 31.1437L25.4046 26.7536L29.1918 25.1572L31.4328 25.1919L33.309 24.4631L36.4707 24.9837L37.8779 26.2851H41.8387L42.4467 24.8102L41.1786 20.4721L41.2654 9.64442L40.4142 7.99598L40.501 4.95936L40.0667 4.3694L42.7247 0.569284Z"/>
</mask>
<path d="M42.7247 0.569284L47.6758 1.541L49.0482 4.14381L50.3337 1.48894L51.2718 0.413095L51.9493 0.395752L53.0785 1.05514L56.0665 5.08081L55.806 7.28454L57.2652 7.05895L59.2109 8.2042L60.7397 7.77039L63.1196 5.15024L65.8123 6.174L66.4203 3.31092L67.5669 2.89446L68.1054 3.50179L68.4703 6.52104L67.1847 8.49918L70.138 12.6116L72.0316 11.2929L71.9273 10.0088L70.1901 7.16308L70.4855 5.89636L71.4409 5.32374L73.0218 7.12837L73.2129 11.6746L74.4463 13.4445L76.1488 13.7222L80.3355 12.4208L82.2985 15.1624L83.7057 14.4856L85.3213 15.2665L87.597 12.8372L90.6198 12.5943L93.1388 11.987L97.0649 19.5872L99.8618 20.1598L101.425 19.2575L100.348 16.4117L100.539 15.2839L101.894 15.3706L103.284 17.2099L105.647 17.1579L106.62 16.4464L106.272 15.2665L104.552 13.7048L104.24 12.334L101.373 12.7678L100.817 12.039L101.06 11.1194L101.929 10.46L103.302 10.4773L105.942 13.0281L107.384 13.0801L108.096 12.4728L108.287 11.2408L108.027 9.95675L106.932 8.88093L107.453 8.11743L108.635 8.89829L109.243 11.6399L110.424 11.8134L111.414 10.0262L110.372 7.4407L111.866 6.15666L113.134 6.64252L112.787 8.62066L113.951 10.7376L116.261 12.2819L117.599 11.6746L119.11 9.3321L121.438 9.21062L122.776 8.10009L123.332 9.66177L128.352 10.8591L130.263 10.7723L131.583 9.21062L132.991 8.62066L137.785 10.165L138.897 8.58594L137.316 6.41693L137.785 5.08081L139.853 5.04613L142.163 7.12837L143.535 6.48633L144.057 4.50819L145.238 4.40408L149.911 7.111L151.648 12.334L151.475 15.2318L152.639 17.4355L154.654 18.5461L152.847 19.8648L151.04 20.1077L149.459 23.7343L146.089 23.7517L145.481 22.8494L145.603 21.5653L144.873 20.958L143.918 20.368V21.1142L143.31 20.4374L143.119 21.1315L142.111 20.9406L139.974 27.2221L138.81 26.3718L137.125 26.9965L135.892 25.6431L134.676 25.2787L133.095 26.5974L131.444 27.0139L128.734 23.8731L128.161 21.6694L127.067 22.8667L124.235 22.7105L125.642 23.8037L126.163 26.4066L125.972 26.8404L124.947 26.1983L123.453 26.4933L122.915 28.402L119.145 27.2568L118.989 27.8815L117.217 26.233L117.303 24.8969L116.087 23.0229L114.559 23.5434L110.355 23.1096L108.895 24.8448L107.262 23.8731L106.515 24.411L109.486 28.7664L111.154 29.7034L112.022 29.0267L112.839 29.6687L113.238 32.393L112.405 34.0762L111.327 34.2497L110.077 33.5036L109.121 31.751L108.114 32.393L105.404 28.5582L104.813 28.697L105.56 31.0916L104.431 31.3345L104.361 32.0286L102.815 33.1565V33.8159L100.991 35.8114L101.651 37.3037L101.564 38.1539L100.748 37.8936L101.008 38.848L99.6534 38.9174L99.0106 38.2754L98.2462 38.7265L98.142 40.6179L96.9607 40.1147L96.7174 40.965L95.3972 41.5896L92.1312 40.6006L91.3321 41.8499L90.0639 42.1796L90.255 42.8563L89.3517 42.2837L87.3017 43.5331L86.5721 42.5961L85.7035 43.6372L85.026 43.1513L84.9217 43.776L84.1226 43.7586L83.7752 44.366L84.2095 45.9277L82.0727 48.1487L80.7003 52.6429L77.1043 55.3325L76.2183 59.2541L75.4018 60.3472L70.885 61.7528L68.2792 60.9199L61.7125 62.4468L59.5583 61.8916L58.9677 63.0542L58.0817 63.3492L56.3097 62.5336L54.2598 63.1062L53.3738 64.2168L51.2718 65.2058L45.9038 64.9455L43.7844 64.2688L40.3273 65.31L24.1538 67.3401L21.6175 69.2142L19.3417 69.2836L18.7337 72.164L15.5893 76.502L15.5025 78.0464L14.408 78.2025L13.5394 79.0875L12.5839 81.2565L9.7349 82.4017L8.95314 81.9506L8.04979 83.8246L6.19097 83.0438L5.58295 83.8246L1.11829 83.6858L2.59493 77.8729L4.71434 74.8883L5.53082 72.4937L4.64485 72.164L4.80119 71.522L2.66442 69.5612L2.47332 68.6936L3.32456 68.3466L3.13346 67.0278L0.909824 64.5812L1.39624 63.9912L0.840333 63.7136L1.13566 63.0195L0.284424 60.2431L1.01405 59.0285L0.597124 57.4495L5.37448 52.2265L4.55798 50.3177L4.87068 49.6931L5.82616 49.294L7.78921 50.0748L8.01504 48.5825L9.61329 48.1834L9.66541 45.8929L11.1594 45.5285L10.7251 43.9148L11.6459 43.4984L13.2093 44.123L13.7826 43.828L13.9216 42.6655L12.5318 41.5202L12.6882 40.5832L12.028 40.1321L14.1996 38.2233L16.4927 37.7895L21.1137 31.1437L25.4046 26.7536L29.1918 25.1572L31.4328 25.1919L33.309 24.4631L36.4707 24.9837L37.8779 26.2851H41.8387L42.4467 24.8102L41.1786 20.4721L41.2654 9.64442L40.4142 7.99598L40.501 4.95936L40.0667 4.3694L42.7247 0.569284Z" fill="#038405" stroke="#EAEAEA" stroke-width="2" mask="url(#path-1-inside-1_132_8)"/>
</svg>
