<svg width="39" height="24" viewBox="0 0 39 24" fill="none" xmlns="http://www.w3.org/2000/svg">
<path d="M4.18507 20.7646C4.69837 17.7101 6.24892 16.1346 8.68595 16.1147C11.1748 16.0948 12.7238 17.6304 13.2813 20.708C13.464 20.7248 13.659 20.7585 13.8555 20.7585C16.4448 20.7585 19.0342 20.7478 21.6235 20.7723C22.1596 20.7723 22.3622 20.6574 22.4033 20.0664C22.5557 17.8509 24.5022 16.1223 26.7732 16.1101C29.0442 16.0978 31.038 17.7943 31.2056 19.9975C31.2574 20.6743 31.5178 20.7769 32.0951 20.7723C33.967 20.7539 34.6007 20.1369 34.6037 18.2414C34.6037 17.1941 34.6037 16.1473 34.6037 15.1011C34.6037 14.0293 34.5306 13.9481 33.4248 13.9451C31.3929 13.9451 29.3611 13.9573 27.3322 13.9374C26.0147 13.9313 25.3095 13.2392 25.2882 12.0037C25.2653 10.6119 25.969 9.8892 27.3855 9.88308C29.4915 9.87389 31.5985 9.87389 33.7066 9.88308C34.2579 9.88308 34.6205 9.7958 34.6205 9.09609C34.6205 8.39638 34.3036 8.30451 33.7279 8.30757C30.5537 8.32595 27.3794 8.31982 24.2067 8.30757C22.6212 8.30757 21.7697 7.25418 22.1155 5.69398C22.283 4.93762 22.7506 4.42317 23.5548 4.31599C23.8817 4.27538 24.211 4.25697 24.5403 4.26087C27.5866 4.26087 30.6329 4.24556 33.6792 4.26853C34.3615 4.26853 34.6768 4.04652 34.6067 3.33609C34.5732 2.98241 34.6067 2.6226 34.6067 2.26432C34.5915 0.939918 33.929 0.20499 32.5992 0.0610661C32.2199 0.0194452 31.8385 -0.00151049 31.4569 -0.00170898C25.6172 -0.00170898 19.7785 -0.00170898 13.9408 -0.00170898C13.7885 -0.00170898 13.6362 -0.00170898 13.4838 0.00747762C12.2059 0.0840326 11.5967 0.710253 11.5738 1.99791C11.5601 2.81398 11.554 3.63159 11.5738 4.44767C11.5875 4.94221 11.3926 5.13973 10.9006 5.11982C10.3172 5.09379 9.73235 5.10451 9.14898 5.11982C7.7614 5.14738 6.72262 5.77207 6.07681 7.0092C5.60616 7.90949 5.13399 8.81284 4.7334 9.74681C4.30387 10.7512 3.56059 11.2779 2.5416 11.5612C0.32848 12.1644 0.0223312 12.5855 0.00405121 14.9296C-0.00508881 16.1545 0.00405121 17.3793 0.00405121 18.6042C0.00405121 20.0128 0.754959 20.7615 2.16691 20.7815C2.84319 20.7738 3.52251 20.7646 4.18507 20.7646ZM11.5632 6.49322C11.5632 8.08556 11.5845 9.58604 11.5312 11.0865C11.5312 11.2396 11.0834 11.5045 10.8381 11.5106C9.41858 11.552 7.99597 11.5351 6.57336 11.529C6.23065 11.529 5.88947 11.4984 5.42948 11.477C6.09661 10.1648 6.65865 8.9491 7.31512 7.79006C7.52956 7.42408 7.82936 7.11603 8.18865 6.8925C8.54795 6.66897 8.95595 6.53666 9.37745 6.507C10.0568 6.43657 10.7498 6.49322 11.5632 6.49322Z" fill="#121212"/>
<path d="M29.8576 7.41647C31.76 7.41647 33.6654 7.41647 35.5663 7.41647C36.4452 7.41647 36.727 7.13322 36.73 6.3003C36.7331 5.46738 36.4376 5.13513 35.5968 5.13207C31.7666 5.12288 27.9359 5.12288 24.1047 5.13207C23.27 5.13207 22.97 5.47504 22.976 6.30643C22.9821 7.13781 23.2685 7.41341 24.1504 7.41647C26.0497 7.41954 27.9537 7.41647 29.8576 7.41647Z" fill="#121212"/>
<path d="M8.76211 23.9983C9.66617 23.9983 10.5332 23.6373 11.1725 22.9947C11.8118 22.3521 12.1709 21.4805 12.1709 20.5717C12.1709 19.6629 11.8118 18.7913 11.1725 18.1487C10.5332 17.5061 9.66617 17.1451 8.76211 17.1451C7.85804 17.1451 6.991 17.5061 6.35173 18.1487C5.71246 18.7913 5.35332 19.6629 5.35332 20.5717C5.35332 21.4805 5.71246 22.3521 6.35173 22.9947C6.991 23.6373 7.85804 23.9983 8.76211 23.9983ZM7.28314 20.5824C7.27591 20.3836 7.30884 20.1853 7.37994 19.9996C7.45105 19.8139 7.55885 19.6446 7.69683 19.5019C7.83482 19.3592 8.00013 19.2462 8.18279 19.1695C8.36545 19.0928 8.56168 19.0541 8.75962 19.0558C8.95756 19.0574 9.15312 19.0994 9.33448 19.1791C9.51585 19.2588 9.67927 19.3747 9.81487 19.5196C9.95048 19.6646 10.0555 19.8357 10.1235 20.0225C10.1915 20.2094 10.2211 20.4082 10.2106 20.6069C10.2038 20.9915 10.0503 21.3587 9.78191 21.6328C9.51349 21.9069 9.15061 22.0669 8.7682 22.0798C8.57211 22.0823 8.37751 22.0452 8.19592 21.9708C8.01433 21.8964 7.84943 21.7861 7.71097 21.6465C7.57252 21.5069 7.46332 21.3408 7.38983 21.158C7.31635 20.9752 7.28007 20.7795 7.28314 20.5824Z" fill="#121212"/>
<path d="M26.8372 23.9952C27.5103 23.9904 28.1669 23.7851 28.7241 23.4054C29.2812 23.0257 29.7139 22.4885 29.9675 21.8617C30.2212 21.2349 30.2843 20.5467 30.1491 19.8838C30.0138 19.221 29.6862 18.6133 29.2076 18.1375C28.7289 17.6617 28.1208 17.3392 27.4599 17.2106C26.799 17.082 26.1151 17.1532 25.4944 17.4152C24.8738 17.6771 24.3443 18.118 23.9728 18.6823C23.6012 19.2465 23.4044 19.9088 23.4071 20.5855C23.4042 21.0373 23.4912 21.4852 23.663 21.9027C23.8349 22.3202 24.088 22.699 24.4076 23.0167C24.7272 23.3344 25.1068 23.5846 25.5241 23.7527C25.9413 23.9207 26.3878 24.0032 26.8372 23.9952ZM25.3141 20.5594C25.3338 20.1625 25.5032 19.7879 25.7878 19.512C26.0725 19.2362 26.451 19.0796 26.8463 19.0743C27.6384 19.0972 28.3436 19.8505 28.307 20.6314C28.2894 21.0247 28.1192 21.3953 27.8329 21.664C27.5466 21.9326 27.167 22.0777 26.7755 22.0683C26.384 22.0589 26.0117 21.8957 25.7385 21.6136C25.4654 21.3315 25.313 20.9531 25.3141 20.5594Z" fill="#121212"/>
<path d="M32.5673 13.0708C34.2915 13.0708 36.0157 13.0708 37.7459 13.0708C38.672 13.0708 38.9949 12.7646 39.001 11.9378C39.001 11.0819 38.6964 10.7849 37.7825 10.7849C34.33 10.7849 30.8806 10.7849 27.4343 10.7849C26.4823 10.7849 26.1944 11.0513 26.1899 11.9026C26.1899 12.786 26.4945 13.0693 27.4739 13.0724C29.1676 13.0739 30.8674 13.0708 32.5673 13.0708Z" fill="#121212"/>
</svg>
