<svg width="24" height="32" viewBox="0 0 24 32" fill="none" xmlns="http://www.w3.org/2000/svg">
<path d="M21.6892 29.6961H2.31844V5.76263H5.10782C5.2852 6.67738 5.92102 6.88733 6.76921 6.87858C10.2669 6.85608 13.7645 6.86983 17.2684 6.86858C18.3077 6.86858 18.5176 6.72862 18.926 5.75638H21.6892V29.6961ZM11.1238 7.99952C10.5404 7.99952 9.95582 8.02202 9.37496 7.99952C8.6467 7.96328 8.09207 8.24071 7.64112 8.80055C7.04027 9.55035 6.43568 10.2889 5.79486 11C5.59053 11.2173 5.32463 11.3668 5.03287 11.4286C4.03354 11.6185 3.46892 12.1784 3.43145 13.1931C3.39772 14.1291 3.39647 15.0676 3.43145 16.0036C3.46642 16.9396 3.93736 17.4269 4.82301 17.6944C5.04298 17.7637 5.23085 17.9096 5.35266 18.1055C5.79236 18.934 6.44567 19.4002 7.39004 19.4139C8.36064 19.4276 9.03518 18.9615 9.50487 18.1218C9.56965 18.0201 9.65589 17.9339 9.75753 17.8691C9.85917 17.8043 9.97375 17.7626 10.0932 17.7469C11.3424 17.7131 12.5915 17.7406 13.8407 17.7231C14.193 17.7231 14.3816 17.8131 14.5465 18.1555C14.9512 18.9978 15.6607 19.4201 16.6051 19.4052C17.5257 19.3952 18.1653 18.9403 18.6225 18.1555C18.7473 17.9407 18.9416 17.7749 19.1734 17.6856C20.0803 17.4044 20.5387 16.8921 20.5712 15.9361C20.6012 15.0413 20.6012 14.1441 20.5712 13.2493C20.5362 12.1009 19.8717 11.4561 18.7162 11.4236C18.0504 11.4036 17.3808 11.4486 16.7175 11.4023C16.4654 11.3744 16.234 11.2499 16.0717 11.0549C15.5446 10.3339 15.0724 9.57659 14.5727 8.83179C14.4074 8.56588 14.1745 8.34869 13.8977 8.20245C13.6209 8.05621 13.3103 7.98618 12.9975 7.99952C12.3729 7.99952 11.7484 7.99952 11.1238 7.99952ZM14.3166 27.4217C12.7344 27.4217 11.1521 27.4217 9.56983 27.4217C9.36371 27.4217 9.12263 27.3992 8.96273 27.4954C8.80284 27.5917 8.62046 27.8278 8.62171 28.0016C8.62296 28.1753 8.80409 28.4039 8.96898 28.5014C9.13387 28.5989 9.37121 28.5751 9.57732 28.5751C12.7177 28.5751 15.8581 28.5751 18.9985 28.5751C19.2046 28.5751 19.4444 28.5951 19.6056 28.4989C19.7667 28.4027 19.9653 28.1665 19.9641 27.9991C19.9629 27.8316 19.7692 27.5992 19.5993 27.4992C19.4295 27.3992 19.1971 27.4267 18.991 27.4267C17.4354 27.4209 15.8773 27.4192 14.3166 27.4217ZM14.3166 24.0026C15.9181 24.0026 17.5207 24.0026 19.1234 24.0026C19.5481 24.0026 19.9766 23.9689 19.9878 23.439C19.9991 22.9092 19.5731 22.8642 19.1446 22.8655C15.9193 22.8705 12.694 22.8705 9.46865 22.8655C9.05517 22.8655 8.61797 22.8567 8.61047 23.4178C8.60297 23.9789 9.02144 24.0026 9.44741 24.0014C11.0676 23.9951 12.6902 24.0026 14.3141 24.0026H14.3166ZM4.6219 22.6205C3.98857 22.2019 3.54887 22.2581 3.47642 22.733C3.38148 23.3466 3.89738 23.6153 4.28587 23.8764C4.44577 23.9827 4.89421 23.8627 5.07784 23.6977C5.78861 23.0579 6.44193 22.3556 7.12272 21.682C7.41377 21.3959 7.53994 21.0709 7.2214 20.7623C6.90287 20.4536 6.58058 20.5961 6.30077 20.8872C5.75988 21.4571 5.20651 22.0219 4.6219 22.6205ZM4.66062 27.1743C3.95859 26.7781 3.43644 26.8706 3.50765 27.3067C3.5751 27.7154 3.92237 28.1228 4.24965 28.4189C4.37456 28.5439 4.87423 28.4564 5.04786 28.294C5.77362 27.6454 6.44442 26.9331 7.13271 26.242C7.41252 25.9609 7.53869 25.6322 7.2214 25.3173C6.90412 25.0024 6.58183 25.1711 6.31201 25.4522L4.66062 27.1743ZM10.8677 20.5873C10.3056 20.5873 9.74346 20.5411 9.18508 20.6111C8.97148 20.6373 8.7916 20.9297 8.59673 21.1009C8.78285 21.3071 8.96148 21.682 9.1576 21.692C10.2811 21.7491 11.4068 21.7491 12.5303 21.692C12.7377 21.6808 12.9288 21.3171 13.1262 21.1259C12.9163 20.9447 12.724 20.6411 12.4916 20.6061C11.9632 20.5336 11.4136 20.5873 10.8677 20.5873ZM10.8527 26.2708C11.3949 26.2708 11.9432 26.322 12.4766 26.247C12.7115 26.2133 13.0425 25.9534 13.095 25.7384C13.1924 25.3398 12.8626 25.1436 12.4854 25.1386C11.4036 25.1261 10.3206 25.1286 9.23755 25.1386C8.85531 25.1386 8.52927 25.3335 8.62546 25.7334C8.67668 25.9484 9.00021 26.2145 9.2338 26.247C9.76844 26.3233 10.3168 26.2708 10.8577 26.2708H10.8527Z" fill="#121212"/>
<path d="M18.8961 4.58296V3.48201C20.164 3.48201 21.4094 3.42452 22.6436 3.50325C23.4018 3.55074 23.9289 4.2393 23.9939 5.00284C24.0076 5.1678 23.9939 5.3365 23.9939 5.5027C23.9939 13.648 23.9939 21.7932 23.9939 29.9385C23.9939 31.3656 23.3693 32.0017 21.949 32.0017H2.0174C0.643318 32.0017 0 31.3556 0 29.9735V5.48021C0 4.06185 0.637072 3.42577 2.06361 3.41952C3.06294 3.41952 4.06227 3.41952 5.09158 3.41952V4.58421C4.23216 4.58421 3.38273 4.57671 2.53455 4.58421C1.53522 4.5942 1.13299 4.99534 1.13174 5.99007C1.13174 13.8021 1.13174 21.6141 1.13174 29.4262C1.13174 30.4446 1.55521 30.8695 2.57577 30.8695C8.86738 30.8695 15.1594 30.8695 21.4518 30.8695C22.4299 30.8695 22.8696 30.4321 22.8696 29.4624C22.8696 21.6312 22.8696 13.8 22.8696 5.96883C22.8696 5.01409 22.4587 4.6017 21.5031 4.5942C20.6524 4.57421 19.8017 4.58296 18.8961 4.58296Z" fill="#121212"/>
<path d="M17.6881 5.69765H6.32076V2.86843H7.81975C8.7179 2.86843 8.99146 2.68098 9.32624 1.8687C9.81091 0.689021 10.8115 0.00170898 12.0207 0.00170898C13.2011 0.00170898 14.1905 0.695269 14.6614 1.83996C15.0124 2.69222 15.2747 2.86593 16.2166 2.86843H17.6881V5.69765ZM12.0144 4.57296C12.4651 4.56308 12.8945 4.37949 13.2132 4.0605C13.5318 3.74152 13.715 3.31177 13.7245 2.86093C13.7207 2.40355 13.5355 1.96643 13.2095 1.64571C12.8835 1.32499 12.4435 1.14696 11.9863 1.15077C11.5291 1.15458 11.0922 1.33993 10.7716 1.66603C10.451 1.99214 10.273 2.4323 10.2769 2.88967C10.2948 3.3395 10.4855 3.76507 10.8091 4.07789C11.1327 4.3907 11.5644 4.56668 12.0144 4.56921V4.57296Z" fill="#121212"/>
<path d="M17.0873 12.5808C17.2572 14.3653 17.6756 14.7852 19.3133 14.8951C19.5931 15.8274 19.4582 16.336 18.8411 16.5559C18.7674 16.421 18.6912 16.281 18.6163 16.141C18.1765 15.3163 17.5008 14.8701 16.5564 14.8726C15.6358 14.8726 14.95 15.3138 14.5577 16.1223C14.3816 16.481 14.1967 16.5997 13.8082 16.5922C12.5791 16.5672 11.3499 16.5922 10.122 16.5697C9.92084 16.5697 9.62229 16.431 9.54359 16.271C9.09265 15.3588 8.39686 14.8564 7.37005 14.8726C6.34324 14.8889 5.66994 15.4487 5.27271 16.3722C5.24382 16.4277 5.21127 16.4811 5.17528 16.5322C4.67561 16.5509 4.58192 16.2373 4.58067 15.8474C4.58067 15.0351 4.57193 14.2228 4.58067 13.4105C4.58817 12.7007 4.70559 12.5808 5.43635 12.5795C7.97715 12.5733 10.5192 12.5795 13.0562 12.5795L17.0873 12.5808Z" fill="#121212"/>
<path d="M14.865 11.3911H11.4661V9.22294C13.1162 8.84304 13.6159 9.15046 14.865 11.3911Z" fill="#121212"/>
<path d="M10.2331 9.07173V11.3873H6.96283C7.61988 10.6238 8.13704 9.87401 8.80909 9.29667C9.10389 9.04174 9.70349 9.14171 10.2331 9.07173Z" fill="#121212"/>
<path d="M6.27579 17.1358C6.2846 16.8311 6.41229 16.5421 6.63153 16.3304C6.85076 16.1188 7.14411 16.0015 7.44875 16.0036C7.59984 16.0067 7.74883 16.0396 7.88718 16.1004C8.02553 16.1612 8.15052 16.2487 8.25497 16.358C8.35942 16.4673 8.44128 16.5961 8.49585 16.737C8.55043 16.878 8.57664 17.0284 8.573 17.1795C8.56578 17.4736 8.44264 17.753 8.2304 17.9566C8.01816 18.1603 7.73405 18.2718 7.44001 18.2667C7.28918 18.2695 7.13928 18.2424 6.99896 18.187C6.85865 18.1316 6.73069 18.0489 6.62246 17.9438C6.51423 17.8387 6.42788 17.7131 6.36838 17.5745C6.30888 17.4358 6.27741 17.2867 6.27579 17.1358Z" fill="#121212"/>
<path d="M16.5364 18.2655C16.3855 18.2643 16.2364 18.2326 16.0982 18.1721C15.9599 18.1116 15.8354 18.0237 15.7321 17.9136C15.6289 17.8035 15.549 17.6736 15.4975 17.5317C15.4459 17.3899 15.4237 17.239 15.4321 17.0883C15.4487 16.795 15.5769 16.5192 15.7904 16.3175C16.0039 16.1157 16.2865 16.0034 16.5801 16.0036C16.8849 16.0085 17.1756 16.1326 17.39 16.3494C17.6043 16.5662 17.7253 16.8583 17.7269 17.1633C17.7214 17.3139 17.6862 17.4621 17.6234 17.5991C17.5605 17.7362 17.4712 17.8594 17.3606 17.9618C17.25 18.0643 17.1202 18.1438 16.9788 18.1959C16.8373 18.248 16.687 18.2717 16.5364 18.2655Z" fill="#121212"/>
<path d="M19.362 13.6817C18.4601 13.7704 18.2615 13.5805 18.2952 12.7057C19.1671 12.3958 19.4944 12.6807 19.362 13.6817Z" fill="#121212"/>
<path d="M12.7939 2.92716C12.4104 3.1496 12.1693 3.40078 11.9795 3.36829C11.7896 3.3358 11.6172 3.02838 11.4398 2.84218C11.6459 2.65723 11.8358 2.35732 12.0644 2.32482C12.233 2.30108 12.4504 2.62599 12.7939 2.92716Z" fill="#121212"/>
</svg>
