<svg width="36" height="32" viewBox="0 0 36 32" fill="none" xmlns="http://www.w3.org/2000/svg">
<path d="M35.5 16.0323C31.6001 21.5153 26.8347 25.6985 19.9596 26.5576C14.5728 27.2329 9.81042 25.5222 5.6383 22.0756C3.69242 20.4643 2.00162 18.5625 0.624364 16.4357C0.500089 16.246 0.449787 15.8381 0.563706 15.6887C3.7357 11.129 7.67554 7.54791 13.0934 6.00311C18.8929 4.34925 24.1894 5.64306 29.0303 9.10764C31.6149 10.9542 33.7291 13.2595 35.5 16.0323ZM17.8943 23.722C22.0664 23.722 25.5002 20.2858 25.5491 16.0488C25.5964 11.8342 22.1093 8.28744 17.9105 8.27997C13.7488 8.27997 10.3046 11.7251 10.2557 15.9591C10.2069 20.1931 13.694 23.7145 17.8943 23.722Z" fill="#121212"/>
<path d="M7.67554 4.90054L6.75678 5.70282L4.70623 3.56042L5.59392 2.6939L7.67554 4.90054Z" fill="#121212"/>
<path d="M31.0172 3.77705L29.0051 5.79395L28.0449 4.81389L30.1828 2.64161C30.4402 2.98971 30.7154 3.3647 31.0172 3.77705Z" fill="#121212"/>
<path d="M5.60575 29.3753L4.71807 28.3668L6.81152 26.2961L7.68293 27.2224L5.60575 29.3753Z" fill="#121212"/>
<path d="M29.0125 26.2812L31.1518 28.3967L30.1976 29.311L28.1263 27.1193L29.0125 26.2812Z" fill="#121212"/>
<path d="M17.2078 0.00170898H18.6088V2.96282H17.2078V0.00170898Z" fill="#121212"/>
<path d="M17.1989 29.0272H18.5941V32.0017H17.1989V29.0272Z" fill="#121212"/>
<path d="M22.4141 15.254C22.6804 18.224 20.6638 20.5771 17.9357 20.607C15.4576 20.6339 13.2265 18.3241 13.3493 15.8531C13.4795 13.1026 15.8644 11.0977 18.637 11.4652C18.6266 12.502 18.7494 13.5149 19.5454 14.3187C20.3413 15.1225 21.3237 15.2898 22.4141 15.254Z" fill="#121212"/>
</svg>
