<svg width="32" height="32" viewBox="0 0 32 32" fill="none" xmlns="http://www.w3.org/2000/svg">
<path d="M14.4768 31.973C17.0077 30.0419 18.4144 27.606 18.7908 24.5038H19.4508C21.8149 24.5038 24.1777 24.5038 26.5417 24.5038C27.1792 24.5038 27.5769 24.1351 27.5882 23.5877C27.5995 23.0128 27.1917 22.6478 26.5166 22.6303C26.3911 22.6303 26.2657 22.6303 26.1402 22.6303H18.905L17.8196 18.8745H18.7055C21.3192 18.8745 23.9342 18.8745 26.548 18.8745C27.1817 18.8745 27.5807 18.4995 27.5857 17.9471C27.5907 17.3947 27.193 17.0272 26.5643 17.0022C26.4188 16.996 26.2719 17.0022 26.1251 17.0022C23.0722 17.0022 20.018 17.0022 16.9651 16.9922C16.7216 16.9922 16.3979 16.9247 16.2498 16.7635C13.9912 14.3063 11.2005 13.1552 7.87276 13.2639C7.78994 13.2639 7.70838 13.2539 7.55529 13.2439C7.544 13.0202 7.52141 12.8015 7.52141 12.5827C7.52141 9.4581 7.52141 6.33347 7.52141 3.20883C7.53019 1.09783 8.63317 0.00170898 10.7299 0.00170898H23.8426V0.725374C23.8426 2.7468 23.8426 4.7674 23.8426 6.78716C23.8426 7.84454 24.13 8.12576 25.1727 8.12576H31.9989V8.80068C31.9989 15.4666 31.9989 22.1324 31.9989 28.7983C31.9989 30.5219 31.2058 31.6155 29.7339 31.943C29.55 31.9819 29.3623 32.0004 29.1743 31.998C24.406 31.998 19.6378 31.998 14.8695 31.998C14.788 31.998 14.7064 31.9892 14.4768 31.973ZM19.762 11.3754C17.526 11.3754 15.2912 11.3754 13.0551 11.3754C12.3361 11.3754 11.917 11.7503 11.9358 12.344C11.9546 12.9077 12.3624 13.2489 13.0563 13.2502C16.0436 13.2502 19.0313 13.2502 22.0194 13.2502C23.5252 13.2502 25.0309 13.2502 26.5367 13.2502C27.2043 13.2502 27.6108 12.8577 27.592 12.2815C27.5732 11.7053 27.1641 11.3754 26.4689 11.3754C24.2329 11.3754 21.9968 11.3754 19.762 11.3754Z" fill="#121212"/>
<path d="M0.00137232 23.5265C0.0390164 18.7908 3.85362 15.0912 8.65952 15.1249C13.1906 15.1612 16.9676 19.0295 16.9312 23.5989C16.8935 28.3346 13.0752 32.0367 8.27304 31.998C3.7432 31.9642 -0.0337622 28.0947 0.00137232 23.5265ZM7.10356 24.9738C6.70704 24.5426 6.37075 24.1426 5.99682 23.7839C5.55262 23.3565 4.96914 23.3515 4.59897 23.7264C4.22881 24.1014 4.23006 24.6463 4.67552 25.1138C5.20881 25.6712 5.76092 26.2099 6.30676 26.7486C6.89652 27.3223 7.39342 27.326 7.98067 26.7486C8.96067 25.7837 9.93063 24.8088 10.9056 23.8377C11.3184 23.4265 11.7451 23.0253 12.1429 22.5991C12.5783 22.1316 12.5833 21.5917 12.1893 21.2105C11.7953 20.8293 11.2532 20.8743 10.7927 21.2942C10.6547 21.4192 10.5254 21.5579 10.3937 21.6904L7.10356 24.9738Z" fill="#121212"/>
<path d="M31.1883 6.21348H25.7738V0.780368L31.1883 6.21348Z" fill="#121212"/>
</svg>
