<svg width="41" height="17" viewBox="0 0 41 17" fill="none" xmlns="http://www.w3.org/2000/svg">
<path d="M19.6182 13.8272C16.882 13.8272 14.1426 13.835 11.4095 13.8272C10.9761 13.8272 10.7336 13.9319 10.5115 14.3493C9.7699 15.756 8.5856 16.5047 6.97577 16.4921C5.36593 16.4796 4.19102 15.731 3.45103 14.3258C3.24921 13.9429 3.03644 13.7897 2.61247 13.8194C2.12123 13.8538 1.62373 13.8194 1.1278 13.8194C0.631863 13.8194 0.37529 13.6084 0.37529 13.0707C0.395628 11.639 0.350259 10.2057 0.397193 8.77559C0.428482 7.78464 1.02298 7.07816 1.84589 6.59988C3.85896 5.44585 6.10302 4.75191 8.41664 4.56797C9.08239 4.51997 9.73157 4.33815 10.3253 4.03342C13.0944 2.49855 15.9574 1.25596 19.1238 0.80269C24.2615 0.066514 29.2131 0.613566 33.8126 3.10344C35.1784 3.8443 36.5895 4.04124 38.0367 4.27882C38.3495 4.32727 38.653 4.37572 38.9628 4.41949C40.3708 4.61486 40.3708 4.61486 40.3708 5.99656C40.3708 7.37826 40.3802 8.80997 40.3708 10.2167C40.3583 11.7641 39.8593 12.4924 38.4262 13.0676C37.7535 13.338 37.062 13.5615 36.3924 13.8491C36.1958 13.9452 36.0344 14.1004 35.9309 14.293C35.158 15.7216 33.9831 16.5062 32.3451 16.5C30.7071 16.4937 29.551 15.6997 28.7359 14.3008C28.5998 14.0648 28.1868 13.8663 27.8989 13.8632C25.147 13.8147 22.3842 13.8272 19.6182 13.8272ZM1.64407 12.4393C2.86279 12.6237 2.86279 12.6237 3.0693 11.6578C3.40566 10.0698 4.79803 8.79747 6.48453 8.53176C7.9473 8.30668 9.64005 9.08819 10.3879 10.4511C10.7289 11.0763 10.9057 11.7859 11.1701 12.4705H21.6254V5.88871C21.536 5.86643 21.445 5.85075 21.3532 5.84182C17.2371 5.84182 13.1194 5.79806 9.00488 5.86839C6.76769 5.90591 4.6541 6.56081 2.68757 7.65335C2.05709 7.99408 1.67067 8.49424 1.65189 9.20229C1.62686 10.2667 1.64407 11.3327 1.64407 12.4393ZM23.0898 5.83713V12.5268H28.3072C28.6561 10.1432 30.036 8.61928 32.0307 8.54582C32.8812 8.54624 33.7186 8.755 34.4697 9.15383C35.7212 9.79935 36.2375 11.0294 36.4143 12.4361C37.0808 12.1673 37.6956 11.9985 38.2197 11.6781C38.5561 11.4718 38.9393 11.0638 38.9816 10.7075C39.0895 9.79154 39.0176 8.8553 39.0176 7.82528H37.0526V6.48109H38.9644C39.138 5.86683 38.9221 5.71991 38.4121 5.66051C36.4315 5.42763 34.418 5.26664 32.73 4.01154C32.6194 3.97511 32.5049 3.95151 32.3889 3.94121C32.1402 4.23349 31.8054 4.59767 31.5019 4.98686C30.9809 5.65583 30.3332 5.88402 29.4681 5.85745C27.3654 5.79493 25.2503 5.83713 23.0898 5.83713ZM6.96325 9.86969C6.26436 9.8717 5.59435 10.1485 5.09811 10.6402C4.60187 11.1318 4.31929 11.7989 4.31148 12.4971C4.29897 13.9335 5.57557 15.2011 7.01019 15.1839C7.72073 15.1683 8.39598 14.8714 8.8874 14.3585C9.37883 13.8455 9.64619 13.1585 9.63066 12.4487C9.62956 12.103 9.55917 11.7611 9.42365 11.443C9.28813 11.125 9.09021 10.8373 8.84159 10.5969C8.59297 10.3565 8.29867 10.1683 7.97606 10.0434C7.65346 9.91854 7.30908 9.85946 6.96325 9.86969ZM32.3811 9.86969C32.0289 9.86598 31.6794 9.93188 31.3528 10.0636C31.0261 10.1953 30.7288 10.3902 30.4778 10.6372C30.2269 10.8841 30.0273 11.1782 29.8905 11.5025C29.7537 11.8268 29.6825 12.1749 29.6808 12.5268C29.7019 13.223 29.9874 13.885 30.4793 14.3786C30.9712 14.8721 31.6328 15.16 32.3295 15.1839C33.786 15.212 35 13.9898 34.9985 12.4955C35.0024 12.1505 34.9375 11.8082 34.8075 11.4885C34.6775 11.1689 34.485 10.8783 34.2414 10.6339C33.9977 10.3894 33.7076 10.1959 33.3882 10.0647C33.0688 9.93346 32.7265 9.86718 32.3811 9.86969ZM23.0725 4.50076C25.0547 4.50076 26.9587 4.43668 28.8611 4.52577C29.8967 4.57266 30.6039 4.22724 31.1624 3.3332C28.5779 2.27504 25.8995 1.82646 23.0788 1.85303L23.0725 4.50076ZM12.7142 4.44137H21.6066V1.89836C18.4778 2.00052 15.4228 2.8747 12.7142 4.44293V4.44137Z" fill="#121212"/>
</svg>
