<svg width="41" height="19" viewBox="0 0 41 19" fill="none" xmlns="http://www.w3.org/2000/svg">
<path d="M2.49829 14.604C3.23828 17.0868 4.72866 18.3861 6.87566 18.4937C8.97679 18.5992 10.4588 17.3909 11.5553 14.664H28.775C29.3211 15.5516 29.6921 16.4309 30.3029 17.093C31.5077 18.4026 33.0835 18.7999 34.7928 18.2764C36.5021 17.753 37.5589 16.5344 37.9549 14.7633C38.0488 14.3991 38.2388 14.0664 38.5052 13.7992C41.0066 11.2585 40.5522 12.144 40.5897 8.75301C40.5897 8.02887 40.5897 7.30474 40.5897 6.5806C40.6132 6.1911 40.5175 5.80364 40.3151 5.46911C40.1127 5.13457 39.8132 4.86861 39.4557 4.70613C38.7178 4.32751 37.9466 4.00268 37.2379 3.57648C37.1019 3.48583 36.9868 3.36761 36.9002 3.22959C36.8136 3.09158 36.7575 2.93691 36.7355 2.77579C36.7126 2.182 36.4979 1.89235 35.9122 1.7558C31.4472 0.706835 26.9177 0.369595 22.3465 0.543387C20.2285 0.617029 18.1692 1.25289 16.3829 2.38476C15.8993 2.6889 15.3615 2.92476 14.9237 3.28269C12.9456 4.91509 10.5797 5.21716 8.14092 5.33509C7.2048 5.3837 6.27222 5.48524 5.34775 5.63923C2.9402 6.02405 0.761944 8.19439 0.607693 10.553C0.540989 11.5027 0.926613 12.4751 1.06002 13.4495C1.17883 14.2771 1.46024 14.8606 2.49829 14.604ZM4.31594 7.36267C5.12263 6.93233 21.6044 5.08682 23.1719 5.31026C22.9281 6.91371 22.6758 8.50266 22.4361 10.1475H12.8789V11.4344H22.2381C22.1276 12.1482 22.0297 12.744 21.9379 13.3751H11.5782C10.4609 10.5406 9.11228 9.46473 6.8027 9.51852C4.7912 9.56611 3.34667 10.822 2.40658 13.282C2.19813 12.3468 1.91882 11.3868 1.98969 10.4496C2.07306 9.16059 2.49621 8.8999 3.75314 8.88335C3.97826 8.88335 4.2013 8.85232 4.50354 8.82956C4.43267 8.32266 4.38056 7.89439 4.31594 7.35853V7.36267ZM23.7577 10.1371C24.0245 8.37853 24.2746 6.72957 24.5248 5.0682C26.7947 4.84268 28.9897 4.60061 31.195 4.41854C31.4391 4.41101 31.6765 4.33797 31.882 4.20718C32.0876 4.07639 32.2535 3.89275 32.3623 3.67579C33.0981 2.4489 33.0981 2.45717 34.5135 2.77579C34.6129 2.80471 34.7148 2.82479 34.8178 2.83579C35.3139 2.85441 35.4431 3.10269 35.4682 3.58268C35.4954 3.74779 35.5571 3.90542 35.6494 4.04545C35.7417 4.18548 35.8624 4.30481 36.0039 4.39578C36.8377 4.87578 37.7152 5.26268 38.5698 5.69923C38.7869 5.82395 38.9957 5.96215 39.1952 6.11302L39.116 6.31991H36.7355V7.61094H39.266V10.1599C37.7235 10.0171 36.2603 10.2737 34.7553 9.74611C32.3769 8.89783 29.9277 10.3254 29.1689 12.7399C29.1022 12.9468 29.0209 13.1537 28.9605 13.3399H23.2845C23.3846 12.6882 23.4742 12.0882 23.5784 11.4033H28.281V10.1371H23.7577ZM33.4587 17.1716C33.0357 17.1697 32.6173 17.0846 32.2276 16.9212C31.838 16.7578 31.4848 16.5193 31.1886 16.2195C30.8924 15.9197 30.659 15.5646 30.502 15.1748C30.3449 14.7849 30.2674 14.368 30.2737 13.9482C30.2961 13.1103 30.6436 12.3134 31.2436 11.7236C31.8436 11.1338 32.6499 10.7968 33.4942 10.7827C33.9244 10.7883 34.3493 10.8787 34.744 11.0486C35.1388 11.2186 35.4955 11.4647 35.7936 11.7727C36.0917 12.0807 36.3252 12.4444 36.4804 12.8428C36.6357 13.2411 36.7096 13.6661 36.698 14.093C36.6893 14.5064 36.5986 14.9142 36.4311 15.2928C36.2636 15.6715 36.0225 16.0136 35.7217 16.2997C35.4208 16.5858 35.0661 16.8103 34.6778 16.9602C34.2896 17.1102 33.8753 17.1827 33.4587 17.1737V17.1716ZM3.81776 14.0102C3.81495 13.1619 4.14978 12.3469 4.7494 11.7424C5.34903 11.138 6.1649 10.793 7.01948 10.7827C7.8759 10.7972 8.69262 11.1436 9.29516 11.7479C9.8977 12.3521 10.2383 13.1663 10.2441 14.0164C10.2365 14.8529 9.89777 15.6528 9.30109 16.2435C8.70441 16.8342 7.89763 17.1683 7.05492 17.1737C6.63153 17.1834 6.21049 17.1086 5.81674 16.9538C5.423 16.799 5.06457 16.5674 4.76269 16.2726C4.4608 15.9777 4.22162 15.6258 4.05931 15.2375C3.89699 14.8493 3.81485 14.4326 3.81776 14.0123V14.0102ZM23.37 3.87234L15.2698 4.63785C17.8962 2.7489 20.5351 1.60269 23.7014 1.86545C23.5847 2.5689 23.4825 3.18958 23.37 3.87648V3.87234ZM31.639 2.1551C31.4306 2.85855 31.1804 3.18958 30.5259 3.18958C29.7526 3.19993 28.9834 3.35303 28.208 3.42544C27.0866 3.53096 25.961 3.61786 24.7478 3.7213C24.8395 3.0551 24.9187 2.47993 25.0209 1.74545L31.639 2.1551ZM37.2796 11.4882H38.8221L37.7798 12.5226L37.2796 11.4882Z" fill="#121212"/>
</svg>
