<svg width="29" height="29" viewBox="0 0 29 29" fill="none" xmlns="http://www.w3.org/2000/svg">
<path d="M2 4.22222C2 3.44437 2 3.05544 2.15137 2.75835C2.28454 2.49701 2.49701 2.28454 2.75835 2.15137C3.05544 2 3.44437 2 4.22222 2H24.7778C25.5557 2 25.9446 2 26.2417 2.15137C26.5031 2.28454 26.7154 2.49701 26.8486 2.75835C27 3.05544 27 3.44437 27 4.22222V6.63508C27 6.97479 27 7.14464 26.9617 7.30449C26.9276 7.44621 26.8715 7.58168 26.7953 7.70594C26.7094 7.84611 26.5893 7.96622 26.3492 8.20643L17.9286 16.6269C17.6885 16.8671 17.5683 16.9872 17.4825 17.1274C17.4062 17.2517 17.3501 17.3871 17.3161 17.5289C17.2778 17.6888 17.2778 17.8586 17.2778 18.1982V21.4444L11.7222 27V18.1982C11.7222 17.8586 11.7222 17.6888 11.6838 17.5289C11.6498 17.3871 11.5937 17.2517 11.5176 17.1274C11.4317 16.9872 11.3116 16.8671 11.0713 16.6269L2.65088 8.20643C2.41067 7.96622 2.29056 7.84611 2.20467 7.70594C2.12851 7.58168 2.0724 7.44621 2.03838 7.30449C2 7.14464 2 6.97479 2 6.63508V4.22222Z" stroke="#EAEAEA" stroke-width="4" stroke-linecap="round" stroke-linejoin="round"/>
</svg>
