<svg width="41" height="21" viewBox="0 0 41 21" fill="none" xmlns="http://www.w3.org/2000/svg">
<path d="M27.1388 0.0106142C25.8638 0.0106142 24.5888 0.0389187 23.3156 0.0106142C21.2925 -0.0442258 19.5625 0.633313 18.0357 1.91055C16.3525 3.32578 14.6657 4.72154 12.9411 6.07839C12.5377 6.37799 12.0627 6.5705 11.5618 6.6374C9.04417 6.97705 6.51215 7.23887 3.98912 7.56791C3.09399 7.69679 2.27214 8.12747 1.66402 8.78635C1.0559 9.44522 0.699261 10.2914 0.655045 11.1803C0.606487 12.9192 0.624474 14.66 0.655045 16.3989C0.66943 17.4904 1.47867 18.267 2.57744 18.3165C2.68165 18.3227 2.78614 18.3227 2.89035 18.3165C4.14917 18.221 5.09867 18.4032 6.05358 19.5549C7.92922 21.8015 11.5672 21.3239 13.2073 18.8472C13.3006 18.6724 13.4446 18.5286 13.6209 18.4342C13.7973 18.3397 13.9981 18.2988 14.1981 18.3165C18.7227 18.3319 23.2478 18.3319 27.7736 18.3165C27.9613 18.3027 28.1491 18.3432 28.3137 18.4331C28.4782 18.523 28.6124 18.6584 28.6997 18.8225C30.5772 21.6777 34.6342 21.6883 36.5224 18.8331C36.7939 18.4209 37.0727 18.2794 37.5276 18.3218C37.7876 18.3351 38.0481 18.3351 38.3081 18.3218C39.8529 18.3112 40.5956 17.5859 40.5974 16.0699C40.5974 14.1752 40.6783 12.2788 40.5632 10.3913C40.5092 9.482 40.1388 8.57626 39.8133 7.70236C39.5471 6.99651 39.1191 6.35259 38.8044 5.6609C37.5456 2.88883 35.6556 0.76599 32.5104 0.130908C31.4278 -0.0831444 30.2786 0.0353806 29.1637 0.0123832C28.4875 2.63606e-09 27.8114 0.0106142 27.1388 0.0106142ZM4.62572 17.0375C3.95495 17.0375 3.32734 17.0941 2.71951 17.011C2.46055 16.9756 2.04694 16.6572 2.03975 16.4502C1.9804 14.9271 2.00737 13.4004 2.00737 11.9887C3.10794 11.787 4.18333 11.7694 5.08968 11.3766C6.23161 10.8813 5.90252 9.63591 5.98884 8.52672C8.86614 8.30206 11.6751 7.92525 14.4949 7.89164C22.037 7.80319 29.5791 7.86157 37.1212 7.86157C38.4664 7.86157 38.8062 8.11631 39.1389 9.41124C39.2056 9.68473 39.2394 9.96498 39.2396 10.2462C39.2522 12.2169 39.2396 14.1859 39.2576 16.1566C39.2576 16.7686 38.9645 17.0411 38.3585 17.0411C37.9988 17.0411 37.6553 17.0411 37.3029 17.0411C37.3766 13.3986 34.965 11.9109 32.9114 11.7499C31.8638 11.6712 30.8215 11.958 29.9675 12.5601C28.3976 13.6321 27.8581 15.1924 27.9318 16.9968H13.9949C13.6047 13.4853 11.9592 11.6791 9.23839 11.7322C6.51754 11.7853 4.80735 13.6976 4.62572 17.0375ZM28.5595 6.46581H14.5668C16.2158 5.11603 17.7246 3.87948 19.2424 2.64824C20.3897 1.71419 21.7295 1.30378 23.1987 1.28785C24.6265 1.2737 26.0562 1.28785 27.4841 1.28785H28.5631L28.5595 6.46581ZM37.596 6.46581H30.0269V1.34977C33.4221 0.967659 36.8227 3.27448 37.596 6.47111V6.46581ZM9.32111 13.0908C9.98307 13.0951 10.6288 13.2927 11.1764 13.6586C11.724 14.0244 12.1488 14.5421 12.3969 15.1458C12.645 15.7495 12.7052 16.4121 12.5699 17.0496C12.4345 17.687 12.1098 18.2705 11.6368 18.7261C11.1638 19.1817 10.5639 19.4888 9.9132 19.6085C9.2625 19.7282 8.59033 19.655 7.98197 19.3983C7.37361 19.1416 6.85648 18.7129 6.49619 18.1666C6.13589 17.6203 5.94866 16.981 5.95827 16.3299C5.98205 15.4663 6.34615 14.6456 6.97365 14.0412C7.60115 13.4368 8.44291 13.096 9.32111 13.0908ZM35.9235 16.3246C35.9312 16.7592 35.8509 17.1909 35.6875 17.5947C35.524 17.9984 35.2806 18.3662 34.9714 18.6767C34.6622 18.9871 34.2933 19.234 33.8863 19.403C33.4792 19.5719 33.0421 19.6597 32.6003 19.661C31.7334 19.6354 30.9106 19.2793 30.3058 18.6678C29.701 18.0564 29.3616 17.2376 29.3593 16.3845C29.3569 15.5314 29.6919 14.7108 30.2933 14.0961C30.8948 13.4815 31.7156 13.121 32.5823 13.0908C33.4602 13.0875 34.3038 13.4254 34.9296 14.0311C35.5554 14.6368 35.9126 15.4611 35.9235 16.3246ZM2.21238 10.4143C2.78784 9.28918 3.51616 8.82215 4.58256 8.87346C4.80016 10.462 4.49624 10.6637 2.21238 10.4143Z" fill="#121212"/>
</svg>
