<svg width="41" height="25" viewBox="0 0 41 25" fill="none" xmlns="http://www.w3.org/2000/svg">
<path d="M25.3997 0.500057C21.835 0.500057 18.2704 0.509416 14.7058 0.500057C12.1221 0.490698 10.3055 1.62939 9.22452 3.98789C8.09046 6.46182 6.92828 8.92223 5.738 11.3691C5.53354 11.7396 5.22073 12.0389 4.84137 12.227C3.94006 12.6794 2.99501 13.0491 2.06246 13.4406C1.09399 13.8477 0.609745 14.5481 0.625366 15.615C0.647236 17.1484 0.625366 18.6817 0.625366 20.2135C0.625366 21.6922 1.39859 22.4862 2.87161 22.4722C3.33086 22.4722 3.60266 22.586 3.87445 22.9885C5.20533 24.9726 7.9655 25.0163 9.32917 23.0431C9.64159 22.5845 9.954 22.4722 10.4648 22.4737C16.1632 22.4872 21.8611 22.4872 27.5584 22.4737C27.9739 22.4737 28.2426 22.547 28.4957 22.9417C29.8515 25.0022 32.6648 25.0085 34.041 22.9542C34.3034 22.5642 34.5658 22.4659 34.9876 22.4722C36.2622 22.4893 37.5369 22.4722 38.8115 22.4722C40.208 22.4815 40.6126 22.065 40.622 20.6565C40.622 19.9577 40.6985 19.2526 40.0846 18.7067C39.9425 18.5788 39.9815 18.22 39.9815 17.9673C39.9815 13.4468 39.9815 8.92639 39.9815 4.40593C39.9721 1.83529 38.6475 0.500057 36.092 0.500057H25.3997ZM9.98836 5.82228C9.98836 5.69905 9.96025 5.64133 9.97743 5.59922C10.1227 5.26697 10.2898 4.94096 10.4226 4.60715C11.2302 2.68385 12.6611 1.84465 14.762 1.85713C21.9475 1.90081 29.133 1.87273 36.3075 1.87585C37.8805 1.87585 38.5913 2.59026 38.5913 4.15167C38.5913 8.64717 38.5913 13.1427 38.5913 17.6382V18.3822C36.2482 18.7503 36.2482 18.7503 35.8577 21.0636C34.7642 21.2383 34.7642 21.2383 34.5002 20.2525C34.2652 19.4336 33.7248 18.7358 32.9903 18.3027C32.2558 17.8695 31.3829 17.7338 30.5513 17.9236C28.894 18.3276 28.1348 19.4835 27.8958 21.0932H10.0243C9.96025 20.8187 9.90714 20.591 9.85246 20.3648C9.3651 18.337 7.13448 17.2201 5.26937 18.1436C4.17593 18.6848 3.11061 18.376 1.97343 18.4555C1.97343 17.4884 1.99842 16.6321 1.96562 15.7788C1.94062 15.1752 2.18743 14.8647 2.72947 14.5887C4.8773 13.4968 7.10324 12.8603 9.54005 13.138C10.164 13.1842 10.7906 13.1842 11.4145 13.138C12.0722 13.1302 12.7014 12.8683 13.1699 12.4074C13.6385 11.9464 13.9102 11.3222 13.9279 10.6656C13.9654 9.78431 13.9529 8.89987 13.9419 8.01387C13.9232 6.62404 13.1609 5.86127 11.7644 5.83008C11.1693 5.81292 10.5757 5.8254 9.98836 5.8254V5.82228ZM7.02045 11.8386C7.43283 10.9495 7.80148 10.1556 8.16544 9.36783C9.23076 7.10136 9.23233 7.10292 11.7332 7.18403H11.8113C12.3705 7.15907 12.6251 7.46168 12.6329 7.9858C12.6454 8.81408 12.6626 9.64548 12.6329 10.4722C12.6001 11.2381 12.1284 11.7918 11.3833 11.8199C9.96806 11.887 8.55127 11.8418 7.02514 11.8418L7.02045 11.8386ZM6.66117 23.1211C6.40209 23.1335 6.14317 23.0933 5.9001 23.0029C5.65703 22.9125 5.43486 22.7738 5.24705 22.5952C5.05924 22.4165 4.90969 22.2017 4.80747 21.9636C4.70525 21.7255 4.65248 21.4692 4.65236 21.2102C4.63049 20.0731 5.4334 19.2136 6.54558 19.1824C7.70932 19.1559 8.59969 19.9982 8.59969 21.1338C8.6055 21.3915 8.55984 21.6478 8.46538 21.8876C8.37092 22.1275 8.22955 22.3462 8.04952 22.5309C7.86949 22.7156 7.65441 22.8627 7.41684 22.9634C7.17928 23.0642 6.92398 23.1168 6.66586 23.1179L6.66117 23.1211ZM31.3417 23.1211C30.8202 23.1396 30.3125 22.9511 29.9299 22.5967C29.5472 22.2423 29.3208 21.7509 29.3001 21.2302C29.2794 20.7095 29.4663 20.2018 29.8196 19.8183C30.173 19.4347 30.6641 19.2067 31.1855 19.184C31.445 19.1727 31.7042 19.2127 31.9482 19.3016C32.1922 19.3906 32.4162 19.5268 32.6073 19.7024C32.7984 19.8781 32.953 20.0896 33.062 20.3251C33.1711 20.5605 33.2325 20.815 33.2428 21.0742C33.2531 21.3334 33.212 21.592 33.1219 21.8353C33.0319 22.0786 32.8946 22.3017 32.718 22.4919C32.5413 22.6821 32.3288 22.8355 32.0927 22.9435C31.8565 23.0515 31.6013 23.1118 31.3417 23.1211ZM37.3697 21.0901V19.8656H39.2083V21.0901H37.3697ZM3.23401 21.0901C2.06403 21.1541 1.8797 20.9513 2.06871 19.8703H3.50737C3.41052 20.3102 3.32773 20.6846 3.23401 21.101V21.0901Z" fill="#121212"/>
<path d="M18.9671 19.8282C21.1805 19.8282 23.394 19.8282 25.6059 19.8282C26.1166 19.8282 26.5946 19.7705 26.5806 19.12C26.5681 18.5054 26.076 18.4727 25.6184 18.4727C21.1665 18.4727 16.7151 18.4727 12.2643 18.4727C11.7769 18.4727 11.313 18.5959 11.3114 19.1528C11.3099 19.7097 11.7472 19.836 12.2487 19.8329C14.4902 19.822 16.7224 19.8282 18.9671 19.8282Z" fill="#121212"/>
</svg>
