<svg width="41" height="21" viewBox="0 0 41 21" fill="none" xmlns="http://www.w3.org/2000/svg">
<path d="M25.4511 6.21938C25.3518 4.94912 25.2885 3.79402 25.1636 2.6459C24.989 1.04411 24.6125 0.574743 23.0482 0.518908C21.2781 0.467072 19.5065 0.52184 17.7427 0.682925C16.2554 0.8103 15.1138 1.7438 14.0699 2.75233C13.3436 3.42509 12.6642 4.14864 12.0366 4.91771C11.3948 5.73431 10.6093 6.1112 9.62005 6.25253C7.6165 6.5352 5.61979 6.85684 3.62993 7.21744C3.01138 7.3456 2.41108 7.55254 1.84317 7.83338C1.03193 8.21202 0.583527 8.84366 0.628025 9.82253C0.715309 11.789 0.710175 13.7589 0.821423 15.7237C0.898438 17.0794 1.18596 17.3167 2.55513 17.2644C3.21918 17.2399 3.53409 17.4546 3.81306 18.0827C4.55583 19.7578 5.96437 20.5255 7.70835 20.4994C9.50025 20.4732 10.878 19.5938 11.5711 17.8698C11.8278 17.2312 12.1051 16.9974 12.788 16.9974C17.7957 17.0288 22.8034 17.0288 27.8112 16.9974C28.4325 16.9974 28.7491 17.151 28.9801 17.7826C29.6459 19.5868 31.0544 20.4522 32.8788 20.4854C34.6707 20.5168 36.0724 19.688 36.8049 17.9693C37.0548 17.3795 37.3646 17.1998 37.9396 17.2714C38.3189 17.3045 38.7002 17.3045 39.0795 17.2714C40.0413 17.205 40.5855 16.6432 40.6044 15.6591C40.6215 14.8338 40.7516 13.984 40.0584 13.2966C39.8993 13.1395 39.9386 12.7452 39.9369 12.4608C39.9266 11.0073 39.9369 9.55207 39.9266 8.0986C39.901 6.57882 39.5347 6.21938 38.0611 6.21938H25.4511ZM23.7773 12.9563H12.6647C12.5364 11.3092 12.4525 9.73005 12.2745 8.16316C12.1667 7.22093 12.3584 6.49507 13.0806 5.84947C13.8884 5.12884 14.5628 4.24943 15.3825 3.5445C16.0004 3.02104 16.7209 2.37719 17.4603 2.2725C19.4764 1.98808 21.5284 1.96017 23.7773 1.81534V12.9563ZM25.4014 7.70601H38.4308V13.1762C37.4382 13.0174 36.3771 13.1238 35.6531 12.6771C33.8321 11.5622 32.0145 11.4557 30.2483 12.7138C30.0772 12.8394 29.8701 13.0086 29.6784 13.0121C28.263 13.0383 26.8493 13.0261 25.3997 13.0261L25.4014 7.70601ZM11.2271 13.2093C10.753 12.9336 10.457 12.7975 10.2002 12.6073C7.75798 10.8136 4.23408 12.042 3.51355 15.0013C3.29791 15.8842 2.89229 15.8737 2.14438 15.6469V11.8588C2.57738 11.8588 2.98813 11.8239 3.39204 11.8588C4.2221 11.9425 4.63969 11.6005 4.68248 10.7386C4.72184 9.97782 4.81426 9.22055 4.88786 8.4057L10.8232 7.53326C10.9584 9.39503 11.0816 11.1399 11.2271 13.2093ZM4.79715 16.1756C4.79715 14.4796 6.03454 13.2093 7.67241 13.2337C8.05328 13.2371 8.4297 13.3176 8.77978 13.4706C9.12985 13.6237 9.4466 13.8461 9.7116 14.125C9.97659 14.404 10.1846 14.7338 10.3234 15.0954C10.4622 15.4571 10.5291 15.8432 10.5203 16.2314C10.5118 16.612 10.4298 16.9872 10.279 17.3355C10.1281 17.6838 9.91133 17.9983 9.64107 18.261C9.37081 18.5237 9.05237 18.7295 8.70399 18.8666C8.3556 19.0037 7.98411 19.0693 7.61079 19.0598C7.2383 19.0634 6.86889 18.9908 6.52437 18.8464C6.17986 18.7019 5.86723 18.4886 5.60494 18.2189C5.34266 17.9492 5.13604 17.6287 4.9973 17.2762C4.85856 16.9238 4.7905 16.5466 4.79715 16.1669V16.1756ZM30.0874 16.1878C30.0874 14.4918 31.3146 13.2215 32.949 13.2337C33.3299 13.2362 33.7066 13.3155 34.0573 13.4671C34.408 13.6187 34.7258 13.8395 34.9924 14.1168C35.2591 14.3942 35.4692 14.7226 35.6108 15.0831C35.7524 15.4436 35.8226 15.8291 35.8174 16.2175C35.7977 16.9843 35.4819 17.7123 34.9387 18.2432C34.3956 18.7741 33.6689 19.0651 32.9165 19.0529C32.5444 19.058 32.1751 18.9872 31.8303 18.8448C31.4855 18.7023 31.172 18.491 30.9085 18.2232C30.6449 17.9555 30.4365 17.6367 30.2955 17.2857C30.1545 16.9346 30.0838 16.5584 30.0874 16.1791V16.1878ZM12.7863 14.6174H23.9501L23.8817 15.509H12.7863V14.6174ZM25.4186 14.5878H28.7456L28.9356 14.839C28.6789 15.0815 28.4393 15.5021 28.162 15.537C27.2618 15.6259 26.3479 15.5701 25.4237 15.5701L25.4186 14.5878ZM39.1616 14.5878V15.7271H37.2396L37 14.5878H39.1616ZM1.88253 10.3565C2.11529 9.85393 2.22482 9.44738 2.46785 9.16471C2.58594 9.02861 3.15243 9.04781 3.18495 9.11935C3.29227 9.52432 3.3633 9.93839 3.39717 10.3565H1.88253Z" fill="#121212"/>
<path d="M18.1979 8.17363C19.3668 8.17363 20.5375 8.1492 21.7064 8.18235C22.545 8.20678 22.9387 7.89445 22.8805 6.9941C22.8034 5.839 22.7932 4.68041 22.7572 3.52357C22.7299 2.68429 22.3071 2.44175 21.4908 2.34404C17.7735 1.89212 15.617 4.14299 13.7241 6.86498C13.2432 7.56293 13.553 8.13873 14.3967 8.15967C15.6615 8.19282 16.9263 8.17363 18.1979 8.17363ZM15.8395 6.64687C17.3918 4.2756 19.1033 3.47645 21.3162 4.00166V6.64164L15.8395 6.64687Z" fill="#121212"/>
</svg>
