<svg width="41" height="17" viewBox="0 0 41 17" fill="none" xmlns="http://www.w3.org/2000/svg">
<path d="M8.09024 9.59766C7.73344 9.59305 7.37908 9.65894 7.04922 9.79102C6.71883 9.92334 6.41935 10.1194 6.16934 10.3672C5.9193 10.615 5.72376 10.9102 5.59415 11.2334C5.46465 11.5564 5.40409 11.9016 5.41544 12.248V12.2539C5.41174 12.6042 5.47958 12.9518 5.61563 13.2764C5.75176 13.601 5.95334 13.8963 6.2084 14.1445C6.46353 14.3928 6.7675 14.5889 7.10196 14.7217C7.43631 14.8544 7.79444 14.9208 8.15567 14.917C8.51692 14.9132 8.87416 14.84 9.20547 14.7002C9.5368 14.5604 9.83591 14.3571 10.0854 14.1035C10.3348 13.8499 10.5298 13.5502 10.6586 13.2227C10.7873 12.8953 10.8479 12.5465 10.8363 12.1963V12.1934C10.8337 11.8474 10.7601 11.5049 10.6205 11.1865C10.4808 10.8681 10.2773 10.5795 10.0219 10.3379C9.76643 10.0963 9.46408 9.9063 9.13223 9.7793C8.80077 9.65249 8.44644 9.59024 8.09024 9.59766ZM31.8705 9.60449C31.6065 9.62411 31.3465 9.68225 31.099 9.77637C30.7691 9.9019 30.4678 10.0899 30.2133 10.3291C29.9587 10.5684 29.7548 10.855 29.6147 11.1709C29.5097 11.4077 29.4418 11.6579 29.4125 11.9131L29.3959 12.1699C29.391 12.5217 29.4573 12.8713 29.5912 13.1982C29.7251 13.5251 29.9245 13.8229 30.1772 14.0752C30.4299 14.3276 30.7317 14.5299 31.0648 14.6689C31.397 14.8075 31.7541 14.8802 32.1156 14.8848C32.8338 14.8698 33.5178 14.5864 34.0248 14.0928C34.5314 13.5995 34.8226 12.9352 34.8383 12.2393L34.8256 11.9795C34.7651 11.3776 34.4928 10.8104 34.0502 10.377C33.5444 9.8817 32.8568 9.60096 32.1381 9.59766H32.1352L31.8705 9.60449ZM31.8402 4.26465C31.6732 4.27025 31.4998 4.34933 31.31 4.55664H31.309C29.9739 6.01049 28.3183 6.38421 26.4232 6.37793L26.0404 6.37207C22.5716 6.27707 19.0952 6.28004 15.6186 6.31152L12.143 6.34961C10.0359 6.37499 7.93081 6.28067 5.92618 6.92383L5.52579 7.0625C5.15226 7.20264 4.79016 7.36601 4.42813 7.53516L3.33145 8.04688C2.65207 8.35007 2.24284 8.76497 2.02481 9.26172C1.80531 9.76191 1.77339 10.3605 1.87637 11.0391L1.90372 11.1826C1.93555 11.3143 1.98057 11.41 2.04239 11.4746C2.1184 11.5539 2.2391 11.6044 2.45743 11.5908C2.55548 11.5818 2.65397 11.5781 2.75235 11.5781L3.04825 11.5918L3.05215 11.5928L3.32755 11.6162C3.58404 11.6265 3.78465 11.5947 3.94766 11.5049C4.16098 11.3874 4.33548 11.1558 4.47403 10.7129L4.52286 10.5723C5.02049 9.22968 6.49992 8.36106 7.92813 8.30371H8.22208C9.0665 8.32325 9.88313 8.6043 10.5531 9.10645L10.7953 9.30371C11.3415 9.78481 11.7421 10.4061 11.9486 11.0996L11.9965 11.2422C12.0456 11.3678 12.0976 11.445 12.1606 11.4951C12.2428 11.5605 12.3658 11.5967 12.5902 11.5967L20.2328 11.5869C22.7808 11.5855 25.3288 11.585 27.8764 11.585C27.9214 11.585 27.968 11.5797 28.0209 11.5732C28.0452 11.5703 28.0717 11.569 28.099 11.5664C28.5069 10.4813 29.0359 9.66272 29.7006 9.11621C30.383 8.55531 31.1991 8.2881 32.1498 8.30273L32.4984 8.31934C33.2954 8.3882 33.9772 8.65579 34.558 9.14355C35.2029 9.68517 35.7131 10.4918 36.1254 11.5771C36.9724 11.5783 37.8365 11.5955 38.6977 11.5771L38.8158 11.5645C38.9291 11.5426 39.0353 11.4935 39.1244 11.4209C39.2139 11.3357 39.2851 11.1798 39.3266 10.9639C39.3676 10.7504 39.3762 10.4957 39.3578 10.2363C39.3395 9.9773 39.2938 9.7178 39.2279 9.49512C39.1612 9.26964 39.0774 9.09287 38.9887 8.99023V8.98926C38.6458 8.59621 38.4422 8.06546 38.2875 7.58984V7.58887C38.2317 7.41347 38.2215 7.22641 38.227 7.0459C38.2324 6.86769 38.2537 6.68127 38.267 6.51758L38.2729 6.38867C38.2767 6.10207 38.2097 5.91278 38.0932 5.79785C37.9773 5.6837 37.7877 5.61832 37.4936 5.63379L37.3607 5.64551C35.6244 5.86294 33.8667 5.44586 32.4272 4.47461L32.265 4.37988C32.1094 4.29947 31.9697 4.26037 31.8402 4.26465ZM22.2152 2.18164C18.939 2.1368 16.32 3.45481 13.7611 5.08789H16.2807C17.5753 5.08789 18.8727 5.06971 20.1762 5.09668L20.3207 5.09473C20.4547 5.0867 20.5583 5.06077 20.643 5.01465C20.7531 4.95455 20.8473 4.85113 20.935 4.66699C21.3089 3.8656 21.7416 3.08271 22.2152 2.18164ZM30.4115 3.58301C28.5438 2.53606 26.5948 2.03044 24.4994 2.16699L24.0678 2.2041C23.9754 2.21394 23.8626 2.24198 23.765 2.28418C23.6629 2.3284 23.5991 2.37847 23.5756 2.4209V2.42188C23.1005 3.25628 22.6676 4.11541 22.1625 5.08789H25.4438C25.6334 5.08789 25.8166 5.07358 26.016 5.06738C26.2096 5.06138 26.409 5.06307 26.6049 5.09863H26.6059L26.9115 5.14355C28.3595 5.29754 29.4214 4.58202 30.4115 3.58301ZM39.5199 6.61523L39.5141 6.90527C39.4906 7.19421 39.5138 7.44317 39.602 7.66797C39.6897 7.89173 39.8454 8.1014 40.1029 8.30566H40.1039L40.1732 8.36816C40.3293 8.52148 40.436 8.72992 40.5131 8.94531C40.6017 9.19304 40.6568 9.46533 40.7016 9.70312L40.7211 9.85938C40.7317 10.0161 40.717 10.1732 40.6957 10.3242C40.681 10.4287 40.6643 10.5274 40.6488 10.624L40.6107 10.9131C40.5565 11.5536 40.378 12.0386 40.0258 12.3633C39.7179 12.647 39.2939 12.7924 38.7523 12.8311L38.5121 12.8418C37.6999 12.851 36.901 12.8424 36.1273 12.8418C35.7105 13.9725 35.1981 14.7928 34.5375 15.3301C33.9427 15.8137 33.2385 16.0611 32.4027 16.1094L32.0365 16.1182C31.0861 16.11 30.281 15.8401 29.6205 15.2871C28.9762 14.7475 28.4798 13.9454 28.1137 12.8799C28.0509 12.8686 27.9878 12.859 27.9242 12.8535C25.3656 12.8519 22.8043 12.8529 20.2426 12.8516L12.5551 12.8379C12.3217 12.8372 12.211 12.8937 12.141 12.9707C12.1012 13.0146 12.07 13.0701 12.0404 13.1396L11.9516 13.3955C11.5053 14.8187 10.2209 15.8785 8.79922 16.085L8.51407 16.1143C6.79979 16.2223 5.16553 15.4814 4.58926 13.9863L4.53653 13.8389C4.3691 13.3293 4.15367 13.0704 3.89395 12.9404C3.69414 12.8405 3.45402 12.8091 3.1586 12.8193L2.84415 12.8428C2.74479 12.8531 2.61763 12.8705 2.49942 12.874C2.41027 12.8767 2.31332 12.8725 2.22208 12.8457L2.13321 12.8105C1.92948 12.7087 1.67048 12.5983 1.45059 12.4766C1.25492 12.3683 1.06444 12.2392 0.930084 12.0693L0.876373 11.9932C0.472712 11.3665 0.3933 10.5128 0.550201 9.71191C0.707221 8.91055 1.10562 8.13712 1.6879 7.67188L1.92618 7.48633C4.4114 5.60848 7.32815 5.11708 10.3607 5.10938H10.3617L10.5707 5.10254C11.056 5.06778 11.5224 4.89952 11.9145 4.61523L11.9174 4.61328L12.559 4.18945C15.7804 2.12058 19.2268 0.834179 23.2934 0.875977L23.8969 0.888672C26.8986 0.982988 29.6613 1.56252 32.2719 2.99902L32.8979 3.32812C34.3601 4.06406 35.8462 4.54649 37.5688 4.37793L37.7982 4.36523C38.3171 4.35989 38.7281 4.52533 39.019 4.83887C39.3474 5.19302 39.504 5.7173 39.5141 6.33887V6.34082L39.5199 6.61523Z" fill="#121212" stroke="#121212" stroke-width="0.25"/>
</svg>
