<svg width="41" height="23" viewBox="0 0 41 23" fill="none" xmlns="http://www.w3.org/2000/svg">
<path d="M5.42388 18.4728C6.43304 21.2895 7.97358 22.5475 10.2625 22.4874C12.5513 22.4273 14.0895 21.0947 14.8427 18.5426H26.9086C26.9842 18.7615 27.0671 18.9924 27.1524 19.2233C27.4474 20.1929 28.0583 21.0394 28.8905 21.6315C29.7227 22.2235 30.7296 22.5281 31.755 22.498C32.7805 22.4678 33.7672 22.1046 34.5622 21.4647C35.3572 20.8248 35.9159 19.9439 36.1519 18.9587C36.1741 18.7424 36.2639 18.5382 36.4089 18.3744C36.5539 18.2107 36.7469 18.0954 36.9612 18.0447C37.9 17.748 38.8227 17.4036 39.7254 17.0128C39.8857 16.9275 40.0243 16.8075 40.1308 16.6616C40.2372 16.5158 40.3086 16.348 40.3397 16.1709C40.3868 13.5971 40.3868 11.0242 40.3397 8.45204C40.3108 7.92492 40.1554 7.41212 39.8863 6.9559C38.9112 5.27695 37.8899 3.6413 36.9124 1.97437C36.6683 1.51291 36.2962 1.12948 35.8396 0.86883C35.3829 0.608177 34.8606 0.48105 34.3335 0.502285C28.7222 0.502285 23.1109 0.502285 17.4996 0.502285C17.0744 0.498484 16.653 0.582065 16.2623 0.747712C15.8716 0.913358 15.5201 1.15744 15.2302 1.46443C13.4679 3.20592 11.6543 4.89931 9.91633 6.66244C9.42453 7.16023 8.75799 7.45294 8.05402 7.48027C6.08447 7.6727 4.11491 7.88437 2.15022 8.12972C1.03869 8.26683 0.412235 8.92349 0.39761 10.0372C0.358608 12.5797 0.382984 15.127 0.378109 17.6718C0.378109 18.2996 0.733994 18.4848 1.30682 18.48C2.68893 18.4656 4.07347 18.4728 5.42388 18.4728ZM1.67733 10.6048C1.51889 9.49838 1.67733 9.31316 2.91806 9.17846C4.99974 8.93793 7.08387 8.7479 9.16068 8.48331C9.56629 8.41786 9.94255 8.23347 10.2405 7.95413C12.1906 6.10921 14.0626 4.20896 16.0151 2.37848C16.4129 1.99512 16.9315 1.75748 17.485 1.70497C23.0914 1.65927 28.71 1.67611 34.3213 1.6737C34.6475 1.65913 34.971 1.73816 35.2526 1.90123C35.5342 2.06431 35.7619 2.30444 35.9082 2.59255C36.8523 4.2234 37.8176 5.8374 38.804 7.43457C39.3354 8.29329 39.155 9.17606 39.1087 10.1358H37.3195C35.7911 10.1358 35.4231 10.6169 35.857 12.0601C35.9498 12.3496 36.1179 12.61 36.3445 12.8154C37.1245 13.4961 37.8753 14.2586 39.1526 14.1287C39.1919 14.5134 39.1927 14.9009 39.155 15.2857C39.0867 15.5912 38.9478 16.0073 38.7114 16.1276C37.9338 16.4908 37.0977 16.7386 36.2567 17.0392C36.1763 16.83 36.1105 16.6784 36.0568 16.5221C35.3475 14.5016 33.6607 13.2748 31.5961 13.2796C29.49 13.2796 27.7593 14.5545 27.1353 16.6207C26.9769 17.1402 26.7624 17.311 26.2091 17.3086C22.638 17.2822 19.0645 17.2966 15.4837 17.2918C15.2644 17.2918 15.0425 17.2533 14.8427 17.2341C14.048 14.6964 12.6342 13.3855 10.438 13.3085C7.66158 13.2075 6.13078 14.7517 5.45557 17.2148H1.61639V14.1335H2.66455C5.63351 14.1335 5.89677 13.9435 6.85961 11.1821C7.12531 10.4196 6.91811 10.0997 6.10397 10.1647C4.64874 10.2801 3.19107 10.4557 1.67733 10.6048ZM31.5985 21.3112C30.9094 21.3102 30.2361 21.107 29.6642 20.7276C29.0923 20.3482 28.6476 19.8096 28.3866 19.1802C28.1256 18.5508 28.0601 17.8591 28.1984 17.1929C28.3366 16.5267 28.6725 15.9161 29.1632 15.4386C29.6539 14.9612 30.2774 14.6385 30.9544 14.5114C31.6314 14.3844 32.3314 14.4588 32.9654 14.7252C33.5995 14.9916 34.1389 15.438 34.5153 16.0076C34.8918 16.5772 35.0881 17.2444 35.0794 17.9244C35.0762 18.3723 34.9836 18.8152 34.807 19.2278C34.6303 19.6405 34.373 20.0147 34.0498 20.3292C33.7266 20.6437 33.3437 20.8923 32.9231 21.0608C32.5025 21.2292 32.0524 21.3143 31.5985 21.3112ZM10.1235 14.4534C10.8129 14.4449 11.4893 14.6388 12.0667 15.0105C12.6442 15.3823 13.0965 15.9151 13.3663 16.5412C13.636 17.1673 13.711 17.8584 13.5817 18.5266C13.4524 19.1949 13.1246 19.8101 12.64 20.2941C12.1554 20.778 11.5359 21.1088 10.8603 21.2444C10.1847 21.3801 9.48351 21.3144 8.84584 21.0557C8.20817 20.7971 7.66285 20.3571 7.27923 19.7918C6.8956 19.2265 6.69099 18.5614 6.69142 17.8811C6.68881 16.9783 7.04825 16.1112 7.69127 15.469C8.3343 14.8268 9.20868 14.4617 10.1235 14.4534ZM1.67733 11.8075L3.54695 11.6151L5.39219 11.4275C4.9193 12.926 4.88762 12.9477 3.49089 12.9501C3.1515 12.932 2.81137 12.932 2.47198 12.9501C1.61639 13.0535 1.41164 12.6711 1.67733 11.8075ZM39.1233 12.9092C38.0483 12.8851 37.1269 12.1659 37.066 11.3842H39.1233V12.9092Z" fill="#121212"/>
<path d="M22.0749 8.48089C24.9635 8.48089 27.8544 8.50494 30.7429 8.46165C31.4124 8.43645 32.0722 8.29645 32.693 8.04792C33.8508 7.60774 34.9624 7.04488 36.1056 6.57343C36.8076 6.28478 36.988 5.94082 36.5761 5.23604C34.9892 2.52759 35.0111 2.51797 31.8423 2.51797C27.2548 2.51797 22.6648 2.5324 18.0773 2.50354C17.7432 2.4859 17.4093 2.54146 17.0996 2.66622C16.7898 2.79099 16.5119 2.98186 16.2857 3.22515C14.9621 4.56735 13.5776 5.84941 12.2515 7.1892C12.0297 7.4129 11.9785 7.80017 11.8493 8.11287C12.1662 8.23314 12.4831 8.44962 12.8 8.45443C15.9006 8.49051 18.9865 8.48089 22.0749 8.48089ZM21.6679 7.2782C21.9116 6.29441 22.2017 5.38758 22.3821 4.46392C22.4918 3.88903 22.7233 3.64128 23.3327 3.6966C23.8373 3.74231 24.3516 3.6966 24.8611 3.6966H27.8861V7.27099L21.6679 7.2782ZM21.3217 3.72066C21.0292 4.9041 20.7708 5.9769 20.4832 7.04248C20.4474 7.11146 20.3952 7.17089 20.3312 7.2157C20.2671 7.26052 20.193 7.28938 20.1151 7.29985C18.0944 7.31428 16.0736 7.29985 14.0212 7.29985C15.1815 6.1116 16.2711 4.99069 17.3704 3.87941C17.4719 3.78302 17.6051 3.72582 17.7458 3.71825C18.889 3.70863 20.042 3.71344 21.3217 3.71344V3.72066ZM29.1951 7.20845V3.6966C30.2871 3.6966 31.3475 3.8313 32.3639 3.66774C34.002 3.40315 34.8186 4.17768 35.3402 5.62331C33.3609 6.32808 31.5985 7.79055 29.1951 7.20845Z" fill="#121212"/>
<path d="M20.12 10.6578C20.5417 10.5327 21.4241 10.9897 21.4095 10.0444C21.4095 9.17845 20.5685 9.56331 20.0713 9.49355C19.8244 9.42954 19.5649 9.42954 19.318 9.49355C19.062 9.64292 18.8282 9.82668 18.6233 10.0396C18.813 10.2663 19.0356 10.4641 19.2839 10.6265C19.4936 10.7347 19.7836 10.6578 20.12 10.6578Z" fill="#121212"/>
</svg>
