<svg width="41" height="19" viewBox="0 0 41 19" fill="none" xmlns="http://www.w3.org/2000/svg">
<path d="M37.625 2.5209C38.8276 3.98127 39.6749 5.57304 39.9084 7.39435C40.0602 8.56864 39.9601 9.77452 40.0251 10.9621C40.0418 11.2865 40.307 11.5908 40.3587 11.9202C40.4921 12.7984 40.6539 13.6883 40.6206 14.5681C40.6089 14.8542 40.0652 15.2002 39.6965 15.3765C38.6408 15.8755 37.6767 16.6772 36.3741 16.5175C36.2073 16.4976 35.9821 16.767 35.8303 16.945C34.0623 19.0091 31.3103 19.0141 29.5206 16.9849C29.2528 16.7037 28.888 16.5343 28.4998 16.5109C23.4961 16.4809 18.4924 16.4809 13.4886 16.5109C13.1007 16.5326 12.7357 16.701 12.4679 16.9816C10.6849 19.0125 7.94115 19.0041 6.14814 16.955C5.89504 16.6959 5.55576 16.538 5.1941 16.5109C4.02656 16.4576 2.85902 16.466 1.69148 16.4992C0.959264 16.5192 0.607335 16.263 0.625682 15.4896C0.660708 14.1307 0.625682 12.7701 0.644029 11.4112C0.642047 10.627 0.922756 9.86814 1.43498 9.27307C1.9472 8.678 2.65681 8.28632 3.43445 8.16945C5.29751 7.87504 7.1689 7.62222 9.02696 7.30453C9.42828 7.22755 9.80253 7.04754 10.1128 6.78226C11.5639 5.5298 12.9382 4.18919 14.4177 2.97165C16.4358 1.30836 18.8059 0.516633 21.4212 0.50499C26.7052 0.49501 31.9869 0.5 37.2664 0.51996C37.7134 0.51996 38.1587 0.77278 38.6007 0.907507C38.3872 1.31834 38.1821 1.73915 37.9586 2.13502C37.8602 2.27412 37.7485 2.40336 37.625 2.5209ZM36.7177 15.3283C37.4515 14.984 38.0903 14.6912 38.7192 14.3852C39.2962 14.1024 39.6932 13.1843 39.2629 12.7751C38.569 12.1098 38.7225 11.3314 38.6308 10.4299C37.118 10.9438 36.5475 9.89927 35.8854 8.91127C35.7186 8.66843 35.2516 8.51541 34.9213 8.51541C27.6692 8.49213 20.4105 8.56032 13.1651 8.46884C9.91262 8.42726 6.76527 9.03769 3.5879 9.50673C2.71224 9.63647 2.23689 10.2037 2.07677 11.17C2.66721 11.17 3.25765 11.1085 3.82474 11.1966C4.11162 11.2399 4.60866 11.6075 4.5803 11.7389C4.40517 12.5639 4.20669 13.4221 3.79472 14.144C3.64127 14.4201 2.9224 14.4417 2.46039 14.4767C1.90164 14.5099 1.88662 14.7311 2.06342 15.1204H5.24247C5.56604 12.1264 6.91038 10.5646 9.15873 10.4997C10.1404 10.4596 11.1015 10.7878 11.8524 11.4195C13.0099 12.3743 13.3919 13.6583 13.3285 15.117H28.6083C28.9085 12.0499 30.3596 10.4598 32.778 10.5014C35.0781 10.543 36.5542 12.2545 36.7177 15.3283ZM21.96 1.87222C17.4816 1.57781 14.6812 4.27235 11.8507 7.11991H21.96V1.87222ZM23.3844 1.86224V7.12989H29.9142C29.7308 5.34351 29.5523 3.60537 29.3722 1.86224H23.3844ZM11.9792 14.5332C11.9861 14.0089 11.8376 13.4942 11.5523 13.0537C11.267 12.6133 10.8575 12.2667 10.3753 12.0575C9.89314 11.8483 9.35974 11.7859 8.84208 11.878C8.32442 11.97 7.84558 12.2126 7.46568 12.5751C7.08577 12.9377 6.82173 13.4041 6.70671 13.9157C6.59169 14.4274 6.63081 14.9616 6.81916 15.4511C7.00751 15.9407 7.3367 16.3639 7.7654 16.6675C8.1941 16.9712 8.7032 17.1418 9.22878 17.1579C9.94251 17.1735 10.6332 16.9058 11.149 16.4135C11.6648 15.9213 11.9634 15.245 11.9792 14.5332ZM35.34 14.5083C35.3418 13.984 35.1883 13.4709 34.8988 13.0333C34.6093 12.5957 34.1966 12.2531 33.7125 12.0486C33.2285 11.844 32.6946 11.7866 32.1779 11.8835C31.6613 11.9804 31.1848 12.2274 30.8084 12.5934C30.432 12.9593 30.1723 13.4281 30.062 13.9407C29.9517 14.4533 29.9957 14.9869 30.1885 15.4747C30.3813 15.9624 30.7142 16.3825 31.1455 16.6823C31.5768 16.982 32.0873 17.1481 32.6129 17.1595C33.3268 17.1675 34.0147 16.893 34.5259 16.396C35.0371 15.899 35.3298 15.2201 35.34 14.5083ZM32.9131 1.86723C33.4285 3.59539 33.8955 5.21045 34.4059 6.81054C34.456 6.97686 34.7579 7.14319 34.948 7.15484C36.1155 7.18644 37.2747 7.16981 38.489 7.16981C38.1883 5.71031 37.4907 4.36148 36.4725 3.27105C36.0939 2.84857 35.7486 2.46435 36.324 1.86723H32.9131ZM30.7082 1.64601C30.9133 3.67523 31.0884 5.39175 31.2652 7.13488H33.0883C32.5879 5.42668 32.1025 3.77004 31.5688 2.13003C31.5121 1.95206 31.1352 1.87721 30.7082 1.64601ZM37.4632 8.4888L37.3281 8.83643L38.6908 9.29716C38.6191 8.03638 37.8335 8.71501 37.4632 8.4888Z" fill="#121212"/>
</svg>
