<svg width="32" height="32" viewBox="0 0 32 32" fill="none" xmlns="http://www.w3.org/2000/svg">
<path d="M32 16.028C32 18.4226 32 20.8172 32 23.2119C31.9888 28.1673 32 31.9941 32 31.9941C27.1904 32.0016 13.6023 32.0017 8.79182 31.9942C3.8347 31.988 0.00250244 31.9942 0.00250244 31.9942C0.00250244 27.1808 0.00250244 4.8064 0.00250244 0.000488281C0.00250244 0.000488281 3.83095 0.0129863 8.78432 0.000488281C13.5956 0.000488281 18.4061 0.000488281 23.2157 0.000488281C28.1716 0.0129863 32 0.000488281 32 0.000488281C32 2.41636 32 13.6121 32 16.028ZM30.1252 15.988C30.1252 13.6359 30.1252 11.2833 30.1252 8.93034C30.1252 4.82973 30.1252 1.8752 30.1252 1.8752C25.3997 1.86936 6.73047 1.86936 2.0025 1.8752C2.0025 1.8752 1.88486 4.82348 1.87986 8.92034C1.87402 13.6463 1.87402 18.3726 1.87986 23.0994C1.88611 27.1612 2.0025 29.9999 2.0025 29.9999C6.75213 30.0058 18.3761 30.1266 23.1257 30.1208C27.1791 30.1145 30.1252 30.1208 30.1252 30.1208C30.1252 27.7499 30.1252 18.3626 30.1252 15.988Z" fill="#E6E6E6"/>
<path d="M13.8602 16.8928H10.7692V13.3197H13.8602C13.8602 13.1372 13.8602 12.9872 13.8602 12.836C13.8864 11.7574 13.8427 10.6701 13.9552 9.59899C14.1639 7.5993 15.6175 6.20827 17.6249 5.94956C18.826 5.79583 20.0159 5.92581 21.2346 6.02205V9.27154C20.4847 9.27154 19.7447 9.25154 19.011 9.27154C18.0798 9.30403 17.6061 9.79021 17.5886 10.7138C17.5724 11.5049 17.5824 12.2961 17.5824 13.0884C17.5824 13.1397 17.5949 13.1922 17.6061 13.2922H21.1384C20.9796 14.5132 20.8284 15.6818 20.6734 16.8766H17.5824V26.1214H13.8602V16.8928Z" fill="#E6E6E6"/>
</svg>
