<svg width="32" height="32" viewBox="0 0 32 32" fill="none" xmlns="http://www.w3.org/2000/svg">
<path d="M32 16.0275C32 18.4221 32 20.8167 32 23.2114C31.9888 28.1669 32 31.9937 32 31.9937C27.1904 32.0012 4.81301 32.0028 0.00254794 31.9953C0.00254794 31.9953 0.015047 28.1706 0.00254794 23.2176C0.00254794 18.4042 0.0178448 -0.00317185 0.00254794 4.09971e-07C-0.0127489 0.00317267 3.831 0.0124985 8.78436 4.09971e-07C13.5956 4.09971e-07 18.4061 4.09971e-07 23.2157 4.09971e-07C28.1716 0.0124985 32.0025 0 32.0025 0C32.0025 2.41587 32 13.6116 32 16.0275ZM30.1252 15.9875C30.1252 13.6354 30.1252 11.2828 30.1252 8.92986C30.1252 4.82925 30.0025 2 30.0025 2C25.277 1.99417 13.6448 1.86887 8.91685 1.87471C4.82467 1.87471 2.0025 2 2.0025 2C1.99667 6.72593 1.87407 18.3721 1.8799 23.0989C1.88615 27.1608 2.0025 30 2.0025 30C6.75213 30.0058 18.3761 30.1261 23.1257 30.1203C27.1792 30.114 30.1252 30.1203 30.1252 30.1203C30.1252 27.7494 30.1252 18.3621 30.1252 15.9875Z" fill="#E6E6E6"/>
<path d="M15.9826 7.24887C20.7897 7.24887 24.7381 11.1683 24.7506 15.9638C24.7561 18.284 23.8395 20.5115 22.2026 22.156C21.3921 22.9703 20.4291 23.617 19.3686 24.0592C18.3081 24.5013 17.1709 24.7303 16.0219 24.733C13.7015 24.7385 11.4739 23.822 9.82918 22.1852C8.18449 20.5484 7.25745 18.3253 7.25198 16.005C7.25198 11.202 11.1842 7.26012 15.9826 7.24887ZM22.8758 16.0312C22.8883 12.2581 19.7985 9.13983 16.0338 9.12733C12.2691 9.11483 9.14308 12.2043 9.12683 15.9688C9.11058 19.7332 12.2078 22.8602 15.9726 22.8714C19.7373 22.8827 22.8645 19.7957 22.8758 16.0312Z" fill="#E6E6E6"/>
<path d="M27.5242 6.72895C27.5278 7.06694 27.4641 7.40228 27.3366 7.71535C27.2092 8.02843 27.0206 8.31296 26.7819 8.55232C26.5433 8.79168 26.2593 8.98107 25.9465 9.10941C25.6338 9.23775 25.2986 9.30248 24.9606 9.2998C24.622 9.30079 24.2866 9.23506 23.9735 9.10638C23.6603 8.97771 23.3756 8.78859 23.1355 8.54985C22.8955 8.31111 22.7049 8.02742 22.5745 7.71498C22.4441 7.40254 22.3766 7.06748 22.3758 6.72895C22.3842 6.04538 22.659 5.39206 23.1417 4.90797C23.6244 4.42387 24.277 4.14722 24.9606 4.13685C25.6433 4.14377 26.2957 4.42 26.7758 4.90543C27.2559 5.39087 27.5248 6.04624 27.5242 6.72895ZM25.7505 6.87393V6.57522C25.5006 6.3915 25.2593 6.09155 24.9843 6.05155C24.5731 5.99156 24.2682 6.29027 24.2744 6.7302C24.2807 7.17013 24.5631 7.46634 24.9956 7.3826C25.2656 7.32886 25.5006 7.0489 25.7505 6.87393Z" fill="#E6E6E6"/>
</svg>
