<svg width="629" height="629" viewBox="0 0 629 629" fill="none" xmlns="http://www.w3.org/2000/svg">
<path d="M629 315.047C629 362.117 629 581.819 629 628.889C629 628.889 553.815 628.742 456.443 628.889C361.896 629.037 94.5629 629.037 0 628.889C0 628.889 0.245703 553.739 0 456.38C0 361.765 0 94.4681 0 0C0 0 75.2589 0.24567 172.631 0C267.21 0 534.453 0 629 0C629 0 628.779 75.2486 629 172.607C629 220.095 629 267.559 629 315.047ZM592.145 314.26C592.145 268.025 592.145 221.782 592.145 175.531C592.145 94.9267 592.145 36.8504 592.145 36.8504C499.252 36.7358 268.177 36.7358 175.235 36.8504C94.7923 36.8504 39.3648 39.3049 39.3648 39.3049C39.2501 132.201 36.7899 361.134 36.9046 454.046C37.0275 533.889 36.9046 592.064 36.9046 592.064C130.272 592.178 361.184 592.178 454.551 592.064C534.232 591.941 592.145 592.064 592.145 592.064C592.145 545.46 592.145 360.938 592.145 314.26Z" fill="#EAEAEA"/>
<path fill-rule="evenodd" clip-rule="evenodd" d="M255.033 167H372.966C391.001 167 405.545 167 417.317 167.982C429.441 168.994 440.08 171.132 449.898 176.257C464.842 184.058 477.026 196.303 484.789 211.32C489.888 221.187 492.017 231.879 493.023 244.061C494 255.891 494 270.509 494 288.631V341.369C494 359.492 494 374.108 493.023 385.938C492.017 398.122 489.888 408.814 484.789 418.681C477.026 433.698 464.842 445.942 449.898 453.743C440.08 458.867 429.441 461.007 417.317 462.018C405.545 463 391.001 463 372.966 463H255.033C237 463 222.455 463 210.683 462.018C198.56 461.007 187.92 458.867 178.102 453.743C163.159 445.942 150.974 433.698 143.212 418.681C138.112 408.814 135.984 398.122 134.977 385.938C134 374.108 134 359.492 134 341.369V288.631C134 270.508 134 255.891 134.977 244.061C135.984 231.879 138.112 221.187 143.212 211.32C150.974 196.303 163.159 184.058 178.102 176.257C187.92 171.132 198.56 168.994 210.683 167.982C222.455 167 237 167 255.033 167ZM203.59 202.035C217.477 205.309 230.368 212.249 240.857 222.287L288.947 268.313C295.597 274.678 299.885 278.765 303.401 281.621C306.759 284.349 308.34 285.038 309.214 285.308C312.334 286.267 315.666 286.267 318.786 285.308C319.66 285.038 321.241 284.349 324.599 281.621C328.115 278.765 332.403 274.678 339.053 268.313L387.142 222.287C397.631 212.249 410.523 205.309 424.41 202.035C421.66 201.504 418.446 201.078 414.609 200.758C404.35 199.902 391.168 199.889 372.255 199.889H255.745C236.833 199.889 223.649 199.902 213.391 200.758C209.554 201.078 206.34 201.504 203.59 202.035ZM458.173 232.778H442.864C430.521 232.778 418.65 237.549 409.713 246.104L361.173 292.562C355.102 298.371 349.849 303.398 345.174 307.197C340.226 311.218 334.88 314.753 328.357 316.758C318.999 319.634 309.001 319.634 299.643 316.758C293.12 314.753 287.774 311.218 282.826 307.197C278.151 303.398 272.898 298.371 266.827 292.56L218.287 246.104C209.349 237.549 197.479 232.778 185.136 232.778H169.827C168.831 236.34 168.086 240.81 167.592 246.783C166.74 257.092 166.727 270.341 166.727 289.347V340.653C166.727 359.66 166.74 372.907 167.592 383.216C168.428 393.328 169.985 399.13 172.254 403.519C176.912 412.53 184.222 419.876 193.189 424.556C197.557 426.837 203.329 428.403 213.391 429.241C223.649 430.098 236.833 430.111 255.745 430.111H372.255C391.168 430.111 404.35 430.098 414.609 429.241C424.671 428.403 430.444 426.837 434.811 424.556C443.778 419.876 451.088 412.53 455.745 403.519C458.015 399.13 459.573 393.328 460.407 383.216C461.26 372.907 461.273 359.66 461.273 340.653V289.347C461.273 270.341 461.26 257.092 460.407 246.783C459.915 240.81 459.168 236.34 458.173 232.778Z" fill="#EAEAEA"/>
</svg>
