<svg width="32" height="32" viewBox="0 0 32 32" fill="none" xmlns="http://www.w3.org/2000/svg">
<path d="M31.9975 16.028C31.9975 18.4226 31.9975 29.5996 31.9975 31.9942C31.9975 31.9942 28.1728 31.9867 23.2194 31.9942C18.4098 32.0017 4.81046 32.0017 0 31.9942C0 31.9942 0.012499 28.1711 0 23.2181C0 18.4047 0 4.8064 0 0.000488281C0 0.000488281 3.82845 0.0129863 8.78181 0.000488281C13.5931 0.000488281 27.1879 0.000488281 31.9975 0.000488281C31.9975 0.000488281 31.9863 3.82864 31.9975 8.78162C31.9975 11.1975 31.9975 13.6121 31.9975 16.028ZM30.1226 15.988C30.1226 13.6359 30.1226 11.2833 30.1226 8.93034C30.1226 4.82973 30.1226 1.8752 30.1226 1.8752C25.3972 1.86936 13.6423 1.86936 8.9143 1.8752C4.82212 1.8752 2.0025 2.00006 2.0025 2.00006C1.99667 6.72599 1.87152 18.3726 1.87735 23.0994C1.8836 27.1612 1.87735 30.1208 1.87735 30.1208C6.62698 30.1266 18.3736 30.1266 23.1232 30.1208C27.1766 30.1145 30.1226 30.1208 30.1226 30.1208C30.1226 27.7499 30.1226 18.3626 30.1226 15.988Z" fill="#E6E6E6"/>
<path d="M16.1987 21.1647C15.7813 21.6021 15.3888 22.022 14.9863 22.4345C14.8166 22.6137 14.6345 22.7807 14.4414 22.9344C13.5902 23.5931 12.6428 23.3281 12.264 22.3183C11.7641 20.9822 11.2641 19.6437 10.7904 18.2989C10.6842 17.9977 10.5317 17.8902 10.218 17.814C9.34302 17.6027 8.45684 17.3915 7.64065 17.0303C7.12998 16.7774 6.6937 16.3963 6.3745 15.9243C5.92579 15.2831 6.24951 14.4795 6.9907 14.1933C12.3703 12.1028 17.7536 10.0173 23.1407 7.93675C23.7581 7.69804 24.3906 7.65554 25.0068 7.95924C25.623 8.26295 25.9555 8.8816 25.7917 9.54775C24.7085 13.9437 23.6177 18.3376 22.5195 22.7294C22.4529 23.0003 22.3481 23.2604 22.2083 23.5018C21.7333 24.3079 20.9196 24.4854 20.1509 23.9505C18.8548 23.0494 17.5711 22.1333 16.1987 21.1647ZM7.22069 15.2244L7.14069 15.4268C7.48692 15.6768 7.79939 16.023 8.18561 16.1567C9.0382 16.4457 9.90926 16.677 10.7929 16.8491C11.2166 16.9353 11.4566 17.0891 11.6016 17.5028C12.1091 18.9425 12.6465 20.3773 13.1765 21.8021C13.3777 22.3432 13.5514 22.3882 13.9739 21.9821C14.4976 21.4821 15.0013 20.961 15.515 20.4485C16.0887 19.8749 16.1537 19.8674 16.7987 20.3236C17.9236 21.1184 19.0785 21.8871 20.1734 22.7207C21.2108 23.5043 21.3196 23.3056 21.6033 22.1883C22.6807 17.9589 23.7119 13.7171 24.7618 9.48026C24.8518 9.11906 24.7056 8.84786 24.3606 8.83536C23.9724 8.82008 23.585 8.88167 23.2207 9.01658C18.1561 10.9638 13.0927 12.9222 8.03062 14.8919C7.75814 14.9981 7.49067 15.1131 7.22069 15.2244Z" fill="#E6E6E6"/>
<path d="M11.8741 16.193C12.0278 16.0492 12.1878 15.8293 12.404 15.7043C14.8751 14.2695 17.3561 12.8497 19.8347 11.425C20.6609 10.95 21.4871 10.4776 22.3108 9.99893C22.6032 9.8277 22.9057 9.71772 23.1444 10.0402C23.3832 10.3626 23.2119 10.6163 22.962 10.855C20.8746 12.8635 18.7835 14.8682 16.7124 16.8966C16.3599 17.259 16.0565 17.6662 15.81 18.1077C15.3513 18.8863 14.9626 19.7037 14.5026 20.4823C14.3901 20.6748 14.1276 20.8797 13.9202 20.8822C13.7589 20.8822 13.5177 20.6223 13.4402 20.4273C12.9402 19.1775 12.4853 17.9114 12.0153 16.6504C11.9791 16.5429 11.9503 16.4317 11.8741 16.193ZM13.0652 16.5117C13.4015 17.4053 13.7177 18.2451 14.0514 19.1362C14.1261 19.0243 14.1945 18.9083 14.2564 18.7888C14.9188 17.2265 15.9875 15.9817 17.2724 14.9019C17.4841 14.7194 17.6864 14.5263 17.8786 14.3232C18.2536 13.9333 18.6285 13.5371 19.101 13.0422L13.0652 16.5117Z" fill="#E6E6E6"/>
</svg>
