<svg width="32" height="32" viewBox="0 0 32 32" fill="none" xmlns="http://www.w3.org/2000/svg">
<path d="M7.9314 20.2085C7.9314 17.3207 10.2785 14.9798 13.1737 14.9798C13.7527 14.9798 14.2221 15.448 14.2221 16.0255C14.2221 16.6031 13.7527 17.0713 13.1737 17.0713C11.4365 17.0713 10.0283 18.4758 10.0283 20.2085C10.0283 21.9412 11.4365 23.3458 13.1737 23.3458C14.9109 23.3458 16.319 21.9412 16.319 20.2085V7.65956C16.319 7.14666 16.692 6.70948 17.1996 6.62733C17.7071 6.54518 18.1996 6.8423 18.3622 7.32888C18.5465 7.88039 19.0187 8.77397 19.8018 9.51551C20.5671 10.2402 21.6007 10.7968 22.9593 10.7968C23.5383 10.7968 24.0077 11.265 24.0077 11.8425C24.0077 12.4201 23.5383 12.8883 22.9593 12.8883C20.9983 12.8883 19.488 12.0801 18.4159 11.0865V20.2085C18.4159 23.0963 16.069 25.4373 13.1737 25.4373C10.2785 25.4373 7.9314 23.0964 7.9314 20.2085Z" fill="#EAEAEA"/>
<path d="M31.995 16.0279C31.995 18.4225 31.995 29.5998 31.995 31.9944C31.995 31.9944 28.17 31.9869 23.2163 31.9944C18.4062 32.0019 4.80583 32.0019 -0.00500488 31.9944C-0.00500488 31.9944 0.00749511 28.1712 -0.00500488 23.2181C-0.00500488 18.4046 -0.00500488 4.80607 -0.00500488 6.10352e-05C-0.00500488 6.10352e-05 3.82375 0.0125594 8.77749 6.10352e-05C13.5891 6.10352e-05 27.185 6.10352e-05 31.995 6.10352e-05C31.995 6.10352e-05 31.9838 3.82829 31.995 8.78134C31.995 11.1973 31.995 13.612 31.995 16.0279ZM30.12 15.9879C30.12 13.6357 30.12 11.2831 30.12 8.9301C30.12 4.8294 30.12 1.8748 30.12 1.8748C25.3941 1.86897 13.6383 1.86897 8.90997 1.8748C4.8175 1.8748 1.99766 1.99967 1.99766 1.99967C1.99182 6.72571 1.86666 18.3725 1.87249 23.0994C1.87875 27.1613 1.87249 30.121 1.87249 30.121C6.62251 30.1268 18.37 30.1268 23.12 30.121C27.1737 30.1147 30.12 30.121 30.12 30.121C30.12 27.75 30.12 18.3626 30.12 15.9879Z" fill="#EAEAEA"/>
</svg>
