<svg width="575" height="575" viewBox="0 0 575 575" fill="none" xmlns="http://www.w3.org/2000/svg">
<path d="M0 0H575V575H0V0Z" fill="#121212"/>
<path d="M158.488 277.08C161.219 277.08 163.608 277.613 165.656 278.68C167.747 279.704 169.368 281.283 170.52 283.416C171.715 285.549 172.312 288.237 172.312 291.48V311H167.768V291.928C167.768 288.387 166.872 285.72 165.08 283.928C163.331 282.093 160.856 281.176 157.656 281.176C155.267 281.176 153.176 281.667 151.384 282.648C149.635 283.587 148.269 284.973 147.288 286.808C146.349 288.6 145.88 290.776 145.88 293.336V311H141.336V277.4H145.688V286.616L144.984 284.888C146.051 282.456 147.757 280.557 150.104 279.192C152.451 277.784 155.245 277.08 158.488 277.08Z" fill="white"/>
<path d="M198.282 311.32C195.039 311.32 192.117 310.595 189.514 309.144C186.954 307.651 184.927 305.624 183.434 303.064C181.941 300.461 181.194 297.496 181.194 294.168C181.194 290.797 181.941 287.832 183.434 285.272C184.927 282.712 186.954 280.707 189.514 279.256C192.074 277.805 194.997 277.08 198.282 277.08C201.61 277.08 204.554 277.805 207.114 279.256C209.717 280.707 211.743 282.712 213.194 285.272C214.687 287.832 215.434 290.797 215.434 294.168C215.434 297.496 214.687 300.461 213.194 303.064C211.743 305.624 209.717 307.651 207.114 309.144C204.511 310.595 201.567 311.32 198.282 311.32ZM198.282 307.288C200.714 307.288 202.869 306.755 204.746 305.688C206.623 304.579 208.095 303.043 209.162 301.08C210.271 299.075 210.826 296.771 210.826 294.168C210.826 291.523 210.271 289.219 209.162 287.256C208.095 285.293 206.623 283.779 204.746 282.712C202.869 281.603 200.735 281.048 198.346 281.048C195.957 281.048 193.823 281.603 191.946 282.712C190.069 283.779 188.575 285.293 187.466 287.256C186.357 289.219 185.802 291.523 185.802 294.168C185.802 296.771 186.357 299.075 187.466 301.08C188.575 303.043 190.069 304.579 191.946 305.688C193.823 306.755 195.935 307.288 198.282 307.288Z" fill="white"/>
<path d="M241.461 311V277.4H246.005V311H241.461ZM243.765 269.976C242.826 269.976 242.037 269.656 241.397 269.016C240.757 268.376 240.437 267.608 240.437 266.712C240.437 265.816 240.757 265.069 241.397 264.472C242.037 263.832 242.826 263.512 243.765 263.512C244.704 263.512 245.493 263.811 246.133 264.408C246.773 265.005 247.093 265.752 247.093 266.648C247.093 267.587 246.773 268.376 246.133 269.016C245.536 269.656 244.746 269.976 243.765 269.976Z" fill="white"/>
<path d="M300.633 277.08C303.363 277.08 305.731 277.613 307.737 278.68C309.785 279.704 311.363 281.283 312.473 283.416C313.625 285.549 314.201 288.237 314.201 291.48V311H309.656V291.928C309.656 288.387 308.803 285.72 307.096 283.928C305.432 282.093 303.064 281.176 299.992 281.176C297.688 281.176 295.683 281.667 293.977 282.648C292.313 283.587 291.011 284.973 290.073 286.808C289.177 288.6 288.729 290.776 288.729 293.336V311H284.185V291.928C284.185 288.387 283.331 285.72 281.625 283.928C279.918 282.093 277.529 281.176 274.457 281.176C272.195 281.176 270.211 281.667 268.505 282.648C266.798 283.587 265.475 284.973 264.536 286.808C263.64 288.6 263.193 290.776 263.193 293.336V311H258.648V277.4H263V286.488L262.297 284.888C263.321 282.456 264.963 280.557 267.224 279.192C269.528 277.784 272.238 277.08 275.353 277.08C278.638 277.08 281.433 277.912 283.737 279.576C286.041 281.197 287.534 283.651 288.216 286.936L286.424 286.232C287.406 283.501 289.134 281.304 291.608 279.64C294.126 277.933 297.134 277.08 300.633 277.08Z" fill="white"/>
<path d="M347.579 311V303.576L347.388 302.36V289.944C347.388 287.085 346.577 284.888 344.956 283.352C343.377 281.816 341.009 281.048 337.852 281.048C335.676 281.048 333.606 281.411 331.643 282.136C329.681 282.861 328.017 283.821 326.651 285.016L324.604 281.624C326.31 280.173 328.358 279.064 330.747 278.296C333.137 277.485 335.654 277.08 338.299 277.08C342.651 277.08 346.001 278.168 348.348 280.344C350.737 282.477 351.931 285.741 351.931 290.136V311H347.579ZM335.996 311.32C333.478 311.32 331.281 310.915 329.404 310.104C327.569 309.251 326.161 308.099 325.18 306.648C324.198 305.155 323.707 303.448 323.707 301.528C323.707 299.779 324.113 298.2 324.923 296.792C325.777 295.341 327.142 294.189 329.02 293.336C330.94 292.44 333.499 291.992 336.699 291.992H348.284V295.384H336.828C333.585 295.384 331.323 295.96 330.043 297.112C328.806 298.264 328.188 299.693 328.188 301.4C328.188 303.32 328.934 304.856 330.427 306.008C331.921 307.16 334.011 307.736 336.699 307.736C339.259 307.736 341.457 307.16 343.292 306.008C345.169 304.813 346.534 303.107 347.388 300.888L348.411 304.024C347.558 306.243 346.065 308.013 343.931 309.336C341.841 310.659 339.196 311.32 335.996 311.32Z" fill="white"/>
<path d="M378.609 323.736C375.537 323.736 372.593 323.288 369.777 322.392C366.961 321.496 364.679 320.216 362.93 318.552L365.233 315.096C366.812 316.504 368.753 317.613 371.057 318.424C373.404 319.277 375.879 319.704 378.482 319.704C382.748 319.704 385.884 318.701 387.889 316.696C389.895 314.733 390.897 311.661 390.897 307.48V299.096L391.538 293.336L391.09 287.576V277.4H395.441V306.904C395.441 312.707 394.012 316.952 391.154 319.64C388.338 322.371 384.156 323.736 378.609 323.736ZM377.777 309.72C374.577 309.72 371.698 309.037 369.138 307.672C366.578 306.264 364.551 304.323 363.057 301.848C361.607 299.373 360.882 296.536 360.882 293.336C360.882 290.136 361.607 287.32 363.057 284.888C364.551 282.413 366.578 280.493 369.138 279.128C371.698 277.763 374.577 277.08 377.777 277.08C380.764 277.08 383.452 277.699 385.841 278.936C388.231 280.173 390.13 282.008 391.538 284.44C392.946 286.872 393.65 289.837 393.65 293.336C393.65 296.835 392.946 299.8 391.538 302.232C390.13 304.664 388.231 306.52 385.841 307.8C383.452 309.08 380.764 309.72 377.777 309.72ZM378.225 305.688C380.7 305.688 382.898 305.176 384.818 304.152C386.738 303.085 388.252 301.635 389.362 299.8C390.471 297.923 391.026 295.768 391.026 293.336C391.026 290.904 390.471 288.771 389.362 286.936C388.252 285.101 386.738 283.672 384.818 282.648C382.898 281.581 380.7 281.048 378.225 281.048C375.793 281.048 373.596 281.581 371.634 282.648C369.714 283.672 368.199 285.101 367.09 286.936C366.023 288.771 365.49 290.904 365.49 293.336C365.49 295.768 366.023 297.923 367.09 299.8C368.199 301.635 369.714 303.085 371.634 304.152C373.596 305.176 375.793 305.688 378.225 305.688Z" fill="white"/>
<path d="M422.358 311.32C418.859 311.32 415.787 310.595 413.142 309.144C410.497 307.651 408.427 305.624 406.934 303.064C405.441 300.461 404.694 297.496 404.694 294.168C404.694 290.84 405.398 287.896 406.806 285.336C408.257 282.776 410.219 280.771 412.694 279.32C415.211 277.827 418.027 277.08 421.142 277.08C424.299 277.08 427.094 277.805 429.526 279.256C432.001 280.664 433.942 282.669 435.35 285.272C436.758 287.832 437.462 290.797 437.462 294.168C437.462 294.381 437.441 294.616 437.398 294.872C437.398 295.085 437.398 295.32 437.398 295.576H408.15V292.184H434.966L433.174 293.528C433.174 291.096 432.641 288.941 431.574 287.064C430.55 285.144 429.142 283.651 427.35 282.584C425.558 281.517 423.489 280.984 421.142 280.984C418.838 280.984 416.769 281.517 414.934 282.584C413.099 283.651 411.67 285.144 410.646 287.064C409.622 288.984 409.11 291.181 409.11 293.656V294.36C409.11 296.92 409.665 299.181 410.774 301.144C411.926 303.064 413.505 304.579 415.51 305.688C417.558 306.755 419.883 307.288 422.486 307.288C424.534 307.288 426.433 306.925 428.182 306.2C429.974 305.475 431.51 304.365 432.79 302.872L435.35 305.816C433.857 307.608 431.979 308.973 429.718 309.912C427.499 310.851 425.046 311.32 422.358 311.32Z" fill="white"/>
</svg>
