<svg width="503" height="440" viewBox="0 0 503 440" fill="none" xmlns="http://www.w3.org/2000/svg">
<path d="M251.44 439.91C169.147 439.91 86.8533 439.94 4.56 440C1.43 440 0 440 0 435.87C0.16 291.923 0.16 147.967 0 4C0 0.46 0.94 0 4.2 0C169.12 0.106667 334.053 0.106667 499 0C502.57 0 503 0.91 503 4.17C502.9 148.11 502.9 292.05 503 435.99C503 439.56 502.09 439.99 498.83 439.99C416.363 439.89 333.9 439.863 251.44 439.91Z" fill="#FCFCFC"/>
<path d="M152.518 171.23C151.958 213.38 166.098 247.23 189.058 277.89C191.948 281.76 195.058 285.5 197.668 289.54C205.308 301.25 202.538 312.54 190.048 318.69C175.408 325.85 159.868 331.08 145.588 339.09C127.428 349.28 108.988 358.98 93.0776 372.67C85.7486 378.748 79.7593 386.28 75.4876 394.79C73.8276 398.22 72.6676 398.72 70.0976 395.59C40.2576 359.27 21.7676 318 16.6176 271.18C8.83758 199.74 29.1376 136.9 77.1776 83.7698C113.538 43.5598 159.178 18.6898 212.948 10.2898C287.758 -1.41021 354.138 18.0698 410.608 68.2898C451.538 104.71 476.428 150.84 485.278 205.05C494.888 264 483.388 318.93 452.078 369.74C446.379 378.748 440.078 387.361 433.218 395.52C431.828 397.22 430.498 399.36 428.748 395.61C419.458 375.78 402.748 363.54 384.568 352.91C366.978 342.62 348.318 334.61 329.188 327.66C324.187 325.812 319.349 323.547 314.728 320.89C302.138 313.75 299.338 304.22 305.728 291.06C309.918 282.45 316.178 275.26 321.728 267.55C339.218 243.16 348.978 215.91 351.648 186.07C353.808 162.01 350.648 138.8 339.208 117.3C323.208 87.1398 297.348 71.7798 263.688 68.9498C245.548 67.4298 227.758 69.1298 210.818 76.1798C181.068 88.5798 163.478 111.26 155.738 142.18C153.305 151.664 152.221 161.443 152.518 171.23Z" fill="#121212"/>
</svg>
