<svg width="110" height="150" viewBox="0 0 110 150" fill="none" xmlns="http://www.w3.org/2000/svg">
<path d="M94.6064 30.499V120.095H79.4228V118.775C79.4228 104.991 79.4228 91.2023 79.4228 77.4095C79.3573 76.8704 79.2288 76.3409 79.0399 75.8317C78.6087 76.1248 78.2083 76.461 77.8451 76.8352C70.3853 86.1433 62.9454 95.4647 55.5252 104.799C55.3998 104.958 55.2546 105.103 55.0235 105.354L46.4415 94.6197L2.35642 150L0.640015 148.627L94.6064 30.499Z" fill="#E6E6E6"/>
<path d="M40.8368 87.424L31.4164 75.7657L31.0467 75.8515C30.9674 76.6965 30.8354 77.5415 30.8288 78.3931C30.8024 84.4005 30.8024 90.4101 30.8288 96.4219C30.9003 98.7461 30.1341 101.019 28.6701 102.825C24.3461 108.179 20.0881 113.606 15.6453 119.25V31.0271L49.2669 73.2769C51.2804 70.8013 53.175 68.5172 55.0235 66.1935C63.984 54.918 72.9401 43.636 81.8918 32.3474C89.9896 22.1547 98.0941 11.9663 106.205 1.78234C106.522 1.39285 106.78 0.95715 107.096 0.56766C107.185 0.413856 107.308 0.282966 107.456 0.185589C107.604 0.0882118 107.773 0.0270844 107.949 0.0071565C108.125 -0.0127714 108.304 0.0090602 108.47 0.0708836C108.636 0.132707 108.785 0.232785 108.905 0.363013C109.691 1.02317 109.315 1.42586 108.852 2.00679C97.2425 16.5962 85.6414 31.1922 74.0491 45.7947C63.2006 59.4379 52.3476 73.081 41.4903 86.7242C41.3121 86.9289 41.1074 87.1401 40.8368 87.424Z" fill="#E6E6E6"/>
</svg>
