<svg width="9" height="15" viewBox="0 0 9 15" fill="none" xmlns="http://www.w3.org/2000/svg">
<path d="M0.000305176 7.49782C0.000305176 6.44914 0.000305176 5.40045 0.000305176 4.35177C0.00529444 3.37769 0.426019 2.44493 1.17075 1.75687C1.91548 1.0688 2.92382 0.681222 3.97594 0.678632C4.76279 0.675896 5.54845 0.647982 6.3152 0.886071C7.84397 1.36115 8.98612 2.77217 8.99262 4.26255C9.00208 6.42378 9.00208 8.58537 8.99262 10.7473C8.98198 12.5951 7.29891 14.2245 5.30489 14.305C4.60908 14.3329 3.89731 14.3427 3.21392 14.2393C1.40256 13.9656 0.0144933 12.4003 0.00385221 10.7003C0.000305176 9.63241 0.000305176 8.56512 0.000305176 7.49782ZM0.768829 7.5033C0.768829 8.54322 0.76469 9.58315 0.768829 10.6231C0.775923 12.1364 1.95117 13.3718 3.57689 13.5546C4.02441 13.6049 4.48198 13.5852 4.93659 13.5841C6.78105 13.5792 8.19276 12.3116 8.20991 10.6088C8.23001 8.5383 8.22587 6.46775 8.20991 4.3972C8.19986 3.00698 7.26403 1.85375 5.80857 1.5352C5.18843 1.39892 4.51804 1.41972 3.87189 1.43395C2.12379 1.47226 0.777696 2.7667 0.768829 4.38406C0.76469 5.42399 0.768829 6.46391 0.768829 7.5033Z" fill="#121212"/>
<path d="M4.90292 5.14651C4.90292 5.5384 4.90292 5.93083 4.90292 6.32272C4.90292 6.64564 4.75395 6.83393 4.50625 6.83885C4.25854 6.84378 4.09656 6.6544 4.09597 6.3364C4.09597 5.55208 4.09597 4.76721 4.09597 3.98288C4.0939 3.94642 4.0939 3.90988 4.09597 3.87342C4.12317 3.64463 4.25027 3.487 4.50979 3.49028C4.76932 3.49357 4.89701 3.65448 4.90115 3.88765C4.90824 4.3069 4.90115 4.7267 4.90115 5.14651H4.90292Z" fill="#121212"/>
</svg>
