<svg width="17" height="17" viewBox="0 0 17 17" fill="none" xmlns="http://www.w3.org/2000/svg">
<path d="M6.77258 3.53383C7.41465 1.93314 7.73569 1.1328 8.25727 1.02187C8.39441 0.992708 8.53616 0.992708 8.6733 1.02187C9.19488 1.1328 9.51592 1.93314 10.158 3.53383C10.5231 4.44411 10.7057 4.89925 11.0473 5.20882C11.1431 5.29565 11.2471 5.37298 11.3579 5.43973C11.7527 5.6777 12.2456 5.72185 13.2314 5.81013C14.9002 5.95958 15.7345 6.03431 15.9893 6.51005C16.0421 6.60858 16.078 6.71526 16.0955 6.82566C16.18 7.35868 15.5666 7.91674 14.3398 9.03286L13.9991 9.3428C13.4256 9.86461 13.1388 10.1255 12.9729 10.4511C12.8734 10.6464 12.8067 10.8568 12.7754 11.0737C12.7233 11.4354 12.8073 11.8139 12.9753 12.5709L13.0353 12.8414C13.3365 14.1989 13.4871 14.8777 13.2991 15.2113C13.1302 15.511 12.8192 15.7029 12.4756 15.7193C12.093 15.7375 11.554 15.2983 10.4761 14.4199C9.76586 13.8412 9.41076 13.5519 9.01655 13.4388C8.6563 13.3355 8.27427 13.3355 7.91402 13.4388C7.51981 13.5519 7.16471 13.8412 6.4545 14.4199C5.37652 15.2983 4.83754 15.7375 4.45502 15.7193C4.11142 15.7029 3.80037 15.511 3.63151 15.2113C3.44351 14.8777 3.59411 14.1989 3.89531 12.8414L3.95531 12.5709C4.12327 11.8139 4.20724 11.4354 4.15513 11.0737C4.12387 10.8568 4.05715 10.6464 3.95765 10.4511C3.79178 10.1255 3.50501 9.86461 2.93146 9.3428L2.59079 9.03286C1.364 7.91674 0.750607 7.35868 0.83508 6.82566C0.852575 6.71526 0.888455 6.60858 0.941226 6.51005C1.19603 6.03431 2.03041 5.95958 3.69917 5.81013C4.68495 5.72185 5.17785 5.6777 5.57268 5.43973C5.68343 5.37298 5.78745 5.29565 5.88326 5.20882C6.22488 4.89925 6.40744 4.44411 6.77258 3.53383Z" fill="#CA9625" stroke="#CA9625"/>
</svg>
