<svg width="17" height="17" viewBox="0 0 17 17" fill="none" xmlns="http://www.w3.org/2000/svg">
<path d="M7.04834 3.53383C7.69041 1.93314 8.01145 1.1328 8.53302 1.02187C8.67017 0.992708 8.81191 0.992708 8.94906 1.02187C9.47064 1.1328 9.79167 1.93314 10.4337 3.53383C10.7989 4.44411 10.9815 4.89925 11.3231 5.20882C11.4189 5.29565 11.5229 5.37298 11.6336 5.43973C12.0285 5.6777 12.5214 5.72185 13.5072 5.81013C15.1759 5.95958 16.0103 6.03431 16.2651 6.51005C16.3179 6.60858 16.3538 6.71526 16.3712 6.82566C16.4557 7.35868 15.8423 7.91674 14.6155 9.03286L14.2749 9.3428C13.7013 9.86461 13.4145 10.1255 13.2487 10.4511C13.1492 10.6464 13.0825 10.8568 13.0512 11.0737C12.9991 11.4354 13.0831 11.8139 13.251 12.5709L13.311 12.8414C13.6122 14.1989 13.7628 14.8777 13.5748 15.2113C13.406 15.511 13.0949 15.7029 12.7513 15.7193C12.3688 15.7375 11.8298 15.2983 10.7518 14.4199C10.0416 13.8412 9.68651 13.5519 9.2923 13.4388C8.93205 13.3355 8.55003 13.3355 8.18978 13.4388C7.79557 13.5519 7.44047 13.8412 6.73026 14.4199C5.65228 15.2983 5.11329 15.7375 4.73077 15.7193C4.38717 15.7029 4.07613 15.511 3.90726 15.2113C3.71927 14.8777 3.86987 14.1989 4.17106 12.8414L4.23107 12.5709C4.39902 11.8139 4.483 11.4354 4.43089 11.0737C4.39963 10.8568 4.33291 10.6464 4.23341 10.4511C4.06754 10.1255 3.78076 9.86461 3.20722 9.3428L2.86655 9.03286C1.63976 7.91674 1.02636 7.35868 1.11084 6.82566C1.12833 6.71526 1.16421 6.60858 1.21698 6.51005C1.47178 6.03431 2.30616 5.95958 3.97492 5.81013C4.96071 5.72185 5.4536 5.6777 5.84844 5.43973C5.95919 5.37298 6.0632 5.29565 6.15902 5.20882C6.50063 4.89925 6.6832 4.44411 7.04834 3.53383Z" stroke="#CA9625"/>
</svg>
