<svg width="102" height="160" viewBox="0 0 102 160" fill="none" xmlns="http://www.w3.org/2000/svg">
<mask id="path-1-inside-1_132_25" fill="white">
<path d="M37.2732 24.8918L38.1592 21.0917L42.0853 20.4324L42.5022 18.7145L43.5793 17.7428L43.3708 16.6322L45.4902 15.9382L45.247 14.845L43.5967 14.5326L43.1971 13.6477L43.0929 11.5654L44.7432 10.1599L46.2894 10.3508L46.2373 11.1143L49.399 11.6695L50.6845 9.37906L53.7247 11.4266L57.1122 9.03203L59.2317 9.43112L59.5791 8.21648L61.768 8.94526L63.5921 8.33794L65.0513 8.68498L67.1707 7.85208L68.3173 5.21456L71.479 1.77885L73.1468 1.7615L73.9459 2.76792L75.8047 3.40994L76.2043 4.22549L79.2097 1.83091L85.151 4.3296L86.9577 1.10211L88.608 0.928589L88.3301 4.22549L86.4712 4.12138L86.8534 5.44013L86.1412 7.158L88.5211 8.77174L88.0174 9.2923L88.3996 10.7499L87.861 11.2531L88.6601 12.2422L89.8588 12.1901L89.355 13.2312L91.6481 14.9838V15.9902L87.3746 16.2852L87.4267 18.9748L88.608 19.7903L88.886 21.0744H88.3474L88.3127 21.942L87.2009 21.994L85.9674 23.0178L87.9479 23.764L87.3399 25.933L85.481 25.7768L85.4115 26.5923L84.2476 27.4947L84.0565 29.2646L85.1857 32.5268L83.3616 34.0017V34.7131L84.8904 35.4766L84.9946 36.0666L87.3746 37.2986L85.9848 39.2247L88.2085 42.5563L88.747 45.1764L89.5982 45.7144L89.9283 48.3519L88.1042 49.4103L86.7839 51.5447L89.6851 53.4187L91.4744 55.4489L91.6655 56.542L90.7622 56.9412L90.7101 58.3293L89.2508 58.2252L88.8686 59.3704L87.3225 60.7239L88.1563 62.65L87.7568 63.3788L88.4169 65.9469L87.531 66.2592L87.1314 65.3396L85.9153 66.0857L83.9523 69.5908L86.836 72.3498L86.9924 76.9134L89.2855 79.603L88.5385 81.6332L89.8588 82.4314L89.2334 83.3337L89.8415 84.4789L88.886 84.3401L88.8686 86.2662L90.1889 87.5329L90.1368 88.7996L90.8664 89.5978L90.241 89.8754L90.5884 90.7951L89.8067 90.6389L90.6927 91.923L89.8415 92.7385L89.8936 93.6582L87.4962 93.6235L87.4267 95.619L86.7145 95.7751L86.9924 96.5213L86.3844 97.8574L86.975 99.1935L86.6971 100.078L87.9479 100.998L86.6971 101.189L87.531 103.549L87.0793 104.017L87.4962 106.655L86.8187 108.72L88.1911 109.067L86.4365 110.646L87.7742 112.416L87.2182 113.422L88.2085 114.88L87.861 115.504L86.836 115.157L86.0369 115.765L86.3844 116.476L88.0521 116.893L85.9848 117.882L87.7568 119.548L86.9403 121.231L87.114 122.706H86.4017L87.0793 123.972L88 123.261L88.6601 123.486L87.6352 124.649L88.139 126.176L87.4788 128.276L88.3648 128.744L89.3724 131.52L90.7622 131.763L90.1541 132.527L88.8512 132.093L89.4072 134.141L88.2258 133.1L87.7915 133.499L88.2432 135.043L89.4593 135.355L89.0944 136.691L89.9804 137.368L89.8241 137.785L88.6949 137.472L89.9109 138.878L89.1466 141.324L89.7025 142.331L88.6601 143.268L88.9381 143.806L90.0152 143.632L90.0847 145.003L91.7871 144.882L91.5092 146.894L93.7154 146.235L92.5863 147.693L94.2887 147.901L94.5493 148.473L92.7947 149.098L94.6362 150.139L95.7306 152.395L96.6514 152.256L95.3658 153.87L97.0335 154.79L96.7382 156.16L97.4331 156.143L98.0759 154.304L99.622 156.282L101.168 155.779L101.62 156.594L98.597 156.837L96.3213 159.266L94.7057 158.486L93.2985 159.162L91.3355 156.421L87.1488 157.722L85.4463 157.444L84.2129 155.675L84.0218 151.128L82.4409 149.324L81.4854 149.896L81.1901 151.163L82.9273 154.009L83.0316 155.293L81.138 156.612L78.1847 152.499L79.4703 150.521L79.1054 147.502L78.5669 146.894L77.4203 147.311L76.8123 150.174L74.1196 149.15L71.7396 151.77L70.2109 152.204L68.2652 151.059L66.8059 151.284L67.0665 149.081L64.0785 145.055L62.9493 144.396L62.2718 144.413L61.3337 145.489L60.0481 148.144L58.6757 145.541L53.7247 144.569L53.2209 143.91L55.0102 142.366L55.0797 141.498L52.7866 140.596L52.5781 139.815L54.1416 138.617L54.3848 137.785L51.9701 136.275L48.7736 133.013L46.4631 132.718L43.4925 130.462L43.1798 129.716L44.3437 128.328L43.3882 127.269L42.3285 126.818L41.8942 127.182L42.537 128.761L42.0158 129.421L38.4198 128.015L37.0474 128.067L37.5859 132.631L36.9258 132.805L36.0571 131.642L35.258 131.52L34.042 132.805L33.2776 134.8L31.6794 134.644L30.7065 133.082L30.9671 131.677L32.1484 130.878L35.2407 130.844L35.9008 129.629L35.4317 129.109L34.0594 129.299L33.2081 127.703L31.1929 127.217L30.0464 129.022H29.004L30.2027 125.95L30.5154 121.56L29.0562 122.411L27.8922 121.994L28.257 123.174L26.5198 124.753L26.6935 127.044L26.0334 127.512L24.9737 127.148L23.7055 122.133L25.3733 120.398L23.2017 118.645L23.5318 115.799L22.0899 117.205L17.8511 114.55L14.8283 116.129L14.8804 114.463L11.1975 110.698L11.8924 108.182L16.2702 109.223L16.1834 108.373L15.2626 108.13L15.8012 105.006L14.4983 104.312L11.0933 103.965L8.50485 100.981L8.4701 99.4885L12.7089 94.5084L7.7231 92.0271L7.532 90.5174L6.80237 89.754L6.64603 86.9776L8.53959 84.1666L7.20194 83.2469L6.61128 81.1994L5.88165 80.6788L4.68297 81.2688L3.74487 80.8003L2.84152 76.2714L0.44416 70.8922L0.739484 66.2592L0.0793457 64.1596L4.544 63.9514L4.8567 62.7888L6.66339 62.1121L7.35828 63.1358L7.2193 61.5742L8.64384 61.5568L9.2866 60.6198L11.2149 61.5915L10.8675 60.6892L11.4929 60.1166L13.1258 60.6545L12.8826 59.9604L13.9076 60.0819L14.7588 58.2946L16.0444 57.8782L16.7219 52.7593L17.9901 49.2715L19.3972 49.7747L20.7175 51.5967L23.6187 48.6295L21.2039 46.1482L22.0899 44.6732L21.6208 41.0466L24.7305 42.0183L25.5296 40.474L26.8499 40.5608L27.3363 40.0055L30.3243 41.3416L31.2972 41.1855V40.2484L32.0268 40.0576L33.6945 40.9772L34.3199 38.5826L38.6282 37.4547L39.7227 34.6611L38.8193 33.2902L39.4621 31.4162L41.7031 30.6701L40.4176 29.8372L40.8519 28.1367L40.2786 26.6791L37.2732 24.8918Z"/>
</mask>
<path d="M37.2732 24.8918L38.1592 21.0917L42.0853 20.4324L42.5022 18.7145L43.5793 17.7428L43.3708 16.6322L45.4902 15.9382L45.247 14.845L43.5967 14.5326L43.1971 13.6477L43.0929 11.5654L44.7432 10.1599L46.2894 10.3508L46.2373 11.1143L49.399 11.6695L50.6845 9.37906L53.7247 11.4266L57.1122 9.03203L59.2317 9.43112L59.5791 8.21648L61.768 8.94526L63.5921 8.33794L65.0513 8.68498L67.1707 7.85208L68.3173 5.21456L71.479 1.77885L73.1468 1.7615L73.9459 2.76792L75.8047 3.40994L76.2043 4.22549L79.2097 1.83091L85.151 4.3296L86.9577 1.10211L88.608 0.928589L88.3301 4.22549L86.4712 4.12138L86.8534 5.44013L86.1412 7.158L88.5211 8.77174L88.0174 9.2923L88.3996 10.7499L87.861 11.2531L88.6601 12.2422L89.8588 12.1901L89.355 13.2312L91.6481 14.9838V15.9902L87.3746 16.2852L87.4267 18.9748L88.608 19.7903L88.886 21.0744H88.3474L88.3127 21.942L87.2009 21.994L85.9674 23.0178L87.9479 23.764L87.3399 25.933L85.481 25.7768L85.4115 26.5923L84.2476 27.4947L84.0565 29.2646L85.1857 32.5268L83.3616 34.0017V34.7131L84.8904 35.4766L84.9946 36.0666L87.3746 37.2986L85.9848 39.2247L88.2085 42.5563L88.747 45.1764L89.5982 45.7144L89.9283 48.3519L88.1042 49.4103L86.7839 51.5447L89.6851 53.4187L91.4744 55.4489L91.6655 56.542L90.7622 56.9412L90.7101 58.3293L89.2508 58.2252L88.8686 59.3704L87.3225 60.7239L88.1563 62.65L87.7568 63.3788L88.4169 65.9469L87.531 66.2592L87.1314 65.3396L85.9153 66.0857L83.9523 69.5908L86.836 72.3498L86.9924 76.9134L89.2855 79.603L88.5385 81.6332L89.8588 82.4314L89.2334 83.3337L89.8415 84.4789L88.886 84.3401L88.8686 86.2662L90.1889 87.5329L90.1368 88.7996L90.8664 89.5978L90.241 89.8754L90.5884 90.7951L89.8067 90.6389L90.6927 91.923L89.8415 92.7385L89.8936 93.6582L87.4962 93.6235L87.4267 95.619L86.7145 95.7751L86.9924 96.5213L86.3844 97.8574L86.975 99.1935L86.6971 100.078L87.9479 100.998L86.6971 101.189L87.531 103.549L87.0793 104.017L87.4962 106.655L86.8187 108.72L88.1911 109.067L86.4365 110.646L87.7742 112.416L87.2182 113.422L88.2085 114.88L87.861 115.504L86.836 115.157L86.0369 115.765L86.3844 116.476L88.0521 116.893L85.9848 117.882L87.7568 119.548L86.9403 121.231L87.114 122.706H86.4017L87.0793 123.972L88 123.261L88.6601 123.486L87.6352 124.649L88.139 126.176L87.4788 128.276L88.3648 128.744L89.3724 131.52L90.7622 131.763L90.1541 132.527L88.8512 132.093L89.4072 134.141L88.2258 133.1L87.7915 133.499L88.2432 135.043L89.4593 135.355L89.0944 136.691L89.9804 137.368L89.8241 137.785L88.6949 137.472L89.9109 138.878L89.1466 141.324L89.7025 142.331L88.6601 143.268L88.9381 143.806L90.0152 143.632L90.0847 145.003L91.7871 144.882L91.5092 146.894L93.7154 146.235L92.5863 147.693L94.2887 147.901L94.5493 148.473L92.7947 149.098L94.6362 150.139L95.7306 152.395L96.6514 152.256L95.3658 153.87L97.0335 154.79L96.7382 156.16L97.4331 156.143L98.0759 154.304L99.622 156.282L101.168 155.779L101.62 156.594L98.597 156.837L96.3213 159.266L94.7057 158.486L93.2985 159.162L91.3355 156.421L87.1488 157.722L85.4463 157.444L84.2129 155.675L84.0218 151.128L82.4409 149.324L81.4854 149.896L81.1901 151.163L82.9273 154.009L83.0316 155.293L81.138 156.612L78.1847 152.499L79.4703 150.521L79.1054 147.502L78.5669 146.894L77.4203 147.311L76.8123 150.174L74.1196 149.15L71.7396 151.77L70.2109 152.204L68.2652 151.059L66.8059 151.284L67.0665 149.081L64.0785 145.055L62.9493 144.396L62.2718 144.413L61.3337 145.489L60.0481 148.144L58.6757 145.541L53.7247 144.569L53.2209 143.91L55.0102 142.366L55.0797 141.498L52.7866 140.596L52.5781 139.815L54.1416 138.617L54.3848 137.785L51.9701 136.275L48.7736 133.013L46.4631 132.718L43.4925 130.462L43.1798 129.716L44.3437 128.328L43.3882 127.269L42.3285 126.818L41.8942 127.182L42.537 128.761L42.0158 129.421L38.4198 128.015L37.0474 128.067L37.5859 132.631L36.9258 132.805L36.0571 131.642L35.258 131.52L34.042 132.805L33.2776 134.8L31.6794 134.644L30.7065 133.082L30.9671 131.677L32.1484 130.878L35.2407 130.844L35.9008 129.629L35.4317 129.109L34.0594 129.299L33.2081 127.703L31.1929 127.217L30.0464 129.022H29.004L30.2027 125.95L30.5154 121.56L29.0562 122.411L27.8922 121.994L28.257 123.174L26.5198 124.753L26.6935 127.044L26.0334 127.512L24.9737 127.148L23.7055 122.133L25.3733 120.398L23.2017 118.645L23.5318 115.799L22.0899 117.205L17.8511 114.55L14.8283 116.129L14.8804 114.463L11.1975 110.698L11.8924 108.182L16.2702 109.223L16.1834 108.373L15.2626 108.13L15.8012 105.006L14.4983 104.312L11.0933 103.965L8.50485 100.981L8.4701 99.4885L12.7089 94.5084L7.7231 92.0271L7.532 90.5174L6.80237 89.754L6.64603 86.9776L8.53959 84.1666L7.20194 83.2469L6.61128 81.1994L5.88165 80.6788L4.68297 81.2688L3.74487 80.8003L2.84152 76.2714L0.44416 70.8922L0.739484 66.2592L0.0793457 64.1596L4.544 63.9514L4.8567 62.7888L6.66339 62.1121L7.35828 63.1358L7.2193 61.5742L8.64384 61.5568L9.2866 60.6198L11.2149 61.5915L10.8675 60.6892L11.4929 60.1166L13.1258 60.6545L12.8826 59.9604L13.9076 60.0819L14.7588 58.2946L16.0444 57.8782L16.7219 52.7593L17.9901 49.2715L19.3972 49.7747L20.7175 51.5967L23.6187 48.6295L21.2039 46.1482L22.0899 44.6732L21.6208 41.0466L24.7305 42.0183L25.5296 40.474L26.8499 40.5608L27.3363 40.0055L30.3243 41.3416L31.2972 41.1855V40.2484L32.0268 40.0576L33.6945 40.9772L34.3199 38.5826L38.6282 37.4547L39.7227 34.6611L38.8193 33.2902L39.4621 31.4162L41.7031 30.6701L40.4176 29.8372L40.8519 28.1367L40.2786 26.6791L37.2732 24.8918Z" fill="#038405" stroke="#EAEAEA" stroke-width="2" mask="url(#path-1-inside-1_132_25)"/>
</svg>
