<svg width="157" height="182" viewBox="0 0 157 182" fill="none" xmlns="http://www.w3.org/2000/svg">
<mask id="path-1-inside-1_132_23" fill="white">
<path d="M44.5205 3.35611L50.6703 4.25841L53.7104 2.66202L55.0654 2.55791L57.2022 3.23464L57.4628 4.20636L60.0165 4.64016L62.7613 7.83295L63.6994 7.65943L63.8036 8.92613L65.0197 8.6832L65.6798 9.22111L67.5213 8.2841L71.569 8.57909L72.4897 9.35993L76.051 9.13435L77.684 7.98912L77.8578 11.8239L79.2996 11.6157L80.5504 13.5244L82.0444 13.9062L82.2355 15.2076L86.4222 15.3638L87.1519 13.8888L89.1323 13.2121L89.3408 12.3965L90.6437 12.9171L95.1257 12.7783L96.1854 13.9582L98.6349 14.8432L99.1387 15.624L98.8086 17.3245L100.859 18.331L101.223 19.2333L104.35 18.383L106.227 19.9968L108.398 20.1182L110.222 21.2808L112.932 18.1401L125.232 17.6542L125.631 27.9787L128.046 27.7185L129.453 28.9157L127.768 31.9524L127.716 33.757L133.414 33.514L134.595 32.4035L136.402 33.3405L138.417 33.5835L138.504 32.82L139.963 32.0565L140.641 33.2711L141.735 32.5076L142.083 33.0455L141.509 34.3817L142.986 35.2319L144.341 33.3232L143.473 33.3752L143.264 31.2756L143.803 30.6162L144.967 31.9177L145.714 30.6162L149.883 33.5661L151.342 32.5423L153.392 32.9241L154.035 33.6182L155.842 33.6529L156.189 35.0237L155.65 37.4009L153.253 39.7087L153.114 41.5481L152.367 41.8778L152.732 43.6303L151.568 43.2486L150.022 45.1226L147.416 45.5217L147.503 50.1026H148.615L149.449 52.6881L147.624 52.7055L146.912 51.4041L144.463 49.7903L144.723 47.9336L143.073 47.9857L142.291 55.0653L143.872 55.8115L143.907 58.2581L142.361 60.5833L139.199 61.2427L140.519 65.494L139.651 66.3789L141.04 67.1251L141.179 68.0621L137.809 71.3243L135.342 75.697L135.603 76.5646L134.752 76.9984L134.821 81.1803L132.32 82.8808L131.972 84.8068L132.615 86.2297L129.853 86.3165L129.557 87.1494L126.413 87.3923L126.569 89.4572L124.988 90.2034L127.299 95.3222L127.334 96.1725L126.326 96.5716L126.118 97.8383L128.376 99.8338L127.803 100.875L128.272 101.257L127.803 102.367L128.133 103.512L127.073 105.178L127.612 106.254L127.125 108.961L127.664 109.499L127.629 111.564L129.262 112.258L128.863 113.854L129.54 116.093L127.699 120.413L125.753 120.865L125.232 121.628L125.84 122.201L125.736 123.762L124.519 125.133L126.83 126.851L126.048 128.534L126.917 130.321L124.832 130.755L121.097 130.929L121.08 128.465L120.211 127.875L117.657 129.471L117.501 131.658L114.444 130.981L113.905 132.82L112.689 133.323L112.272 134.312L109.388 133.549L107.547 132.282L104.871 135.648L103.673 134.382L103.117 134.555L102.683 136.169L100.685 136.221L100.216 137.401L99.6772 137.418L99.4514 139.171L101.05 138.668L100.841 139.397L98.1832 139.987L98.4264 138.338L97.8358 138.512L97.3667 140.316L97.9226 141.548L96.7587 141.375L96.4286 144.134L95.3689 143.856L94.674 146.65L93.4232 146.407L92.6936 148.923L89.9662 148.628L89.0975 151.196L87.1171 152.064L87.4298 153.226L86.596 153.243L86.6307 154.094L85.5536 153.851L85.3278 155.048L84.4245 155.76L84.8066 156.54L83.5385 156.627L83.608 157.877L84.2681 158.224L77.8925 158.067L76.9718 159.23L75.8252 159.334L73.6711 161.26L72.5419 162.614L72.455 164.245L71.4822 165.737L68.1814 166.396L67.5213 165.772L65.1413 164.158L65.8536 162.44L65.4714 161.121L67.3302 161.225L67.6082 157.929L65.9578 158.102L64.1511 161.33L58.2098 158.831L55.2044 161.225L54.8049 160.41L52.946 159.768L52.1469 158.761L50.4792 158.779L47.3174 162.215L46.1709 164.852L44.0515 165.685L42.5922 165.338L40.7681 165.945L38.5792 165.216L38.2318 166.431L36.1124 166.032L32.7248 168.427L29.6847 166.379L28.3991 168.67L25.2374 168.114L25.2895 167.351L23.7434 167.16L22.093 168.565L22.1973 170.648L22.5968 171.533L24.2472 171.845L24.4904 172.938L22.371 173.632L22.5795 174.743L21.5024 175.714L21.0854 177.432L17.1593 178.092L16.2734 181.892L14.1018 180.174L7.34405 170.474L7.67411 167.073L8.47323 165.876L5.79792 163.932L5.65894 162.405L6.42332 161.92L6.14536 160.965L6.97923 159.733H7.83047L7.91732 156.749L5.62419 155.673L3.15734 156.419L2.41034 156.055L1.76758 154.892L2.27136 153.886L3.33106 153.92L3.27895 153.174L5.58945 152.098L4.56449 150.693L4.23442 148.506L5.65894 147.604L6.31908 149.339L7.41354 149.131L8.14317 147.535L7.29193 146.094L5.8674 146.077L5.72843 143.995L5.06828 142.902L3.86961 143.231L4.59924 140.906L0.881592 138.772L4.65135 139.362L5.20726 136.065L4.77296 135.041L3.01836 133.67L3.13997 131.848L6.9966 131.779L7.34405 132.525L9.86301 132.837L10.4537 133.462L13.268 133.167L14.0845 131.154L14.9009 130.53L14.4319 128.916L13.1811 129.471L13.6849 127.58L12.5904 124.491L13.9281 124.508L14.9357 125.74L16.4123 125.879L16.6729 126.452L19.4003 126.192L17.472 124.248L17.2809 123.207L16.6382 123.346L17.2462 122.426L18.0279 122.548L18.8792 121.177L18.3233 119.251L19.5393 120.951L23.1701 121.663L22.9616 120.917L25.9497 119.546L30.3101 117.967L31.0571 118.401L30.8486 116.631L32.9159 116.717L36.4251 115.676L36.4598 117.585L38.3186 119.615L37.4848 120.622L39.3262 120.83L41.324 120.17L42.4532 120.951L44.1557 124.838L44.868 125.098L45.4065 124.439L44.2947 122.964L46.97 118.956L47.4043 117.134L47.0221 113.993L47.9081 111.789L47.9428 108.926L49.2284 105.855L55.8125 106.896L56.8374 104.866L56.7853 103.981L55.3086 102.61L54.0926 102.454L54.7528 96.0163L52.4422 94.1596L54.4227 93.3788L59.2869 92.9103L59.4954 90.186L60.7462 89.7348L59.7386 85.2754L55.604 82.5164L53.1545 82.8287L50.9656 82.1867L51.4173 80.4168L50.6355 79.0807L52.0253 78.4039L54.0405 78.6815L54.0578 77.1199L54.8743 77.2066L55.1176 77.9701L57.6192 76.8769L57.6365 75.8705L58.6789 75.8532L58.2098 73.1983L54.5617 69.1726L51.3478 68.4438L51.2783 66.8648L50.5313 65.8931L50.9135 64.6958L49.4021 63.4811L48.3424 63.4117L47.8907 61.3989L45.8408 60.4445L44.4337 58.9349L44.59 56.2973L44.1383 55.9156L45.3544 55.395L44.6421 54.0763L43.1134 55.2562L42.1405 54.8918L41.5846 55.2736L40.2296 54.5448L40.4554 52.8269L38.5445 52.8443L37.8496 53.9548L38.4403 54.7704L37.4848 54.458L36.8594 55.0827L36.9636 53.5904L36.4251 53.6425L36.0255 52.4105L33.4544 50.4844L33.4718 45.2094L32.1689 45.2788L32.3947 44.1682L31.0745 44.1335L31.3524 42.9536L28.3296 43.2833L28.1212 42.2942L30.7096 41.3051L30.6923 40.4549L29.094 39.7261L29.7542 38.1991L30.7791 37.6786L31.1961 35.5789L29.9453 33.5314L28.8161 33.6702L28.2949 31.8135L27.0267 32.577V31.1195L29.2156 30.9286L29.0245 31.5706L29.6673 31.7268L30.3448 29.8528L31.3524 30.1651L33.4892 26.4864L34.0972 23.7795L35.0006 22.8946L34.8442 21.8187L35.9734 19.4762L35.3828 17.9319L34.6531 18.5739L34.0625 18.2963L34.6705 16.856L32.9506 14.9647L33.3676 13.5244L34.1667 12.9692L33.3502 10.8175L34.7574 8.40557L36.512 7.32973L37.2416 6.14979L35.1917 5.40365L32.8812 5.52512L30.8486 4.17165L30.5185 3.26934L37.4327 4.06754L40.4381 3.2867L41.6541 3.52962L40.8897 1.08298L41.6194 0.874756L44.1905 1.55149L43.9646 2.8876L44.5205 3.35611Z"/>
</mask>
<path d="M44.5205 3.35611L50.6703 4.25841L53.7104 2.66202L55.0654 2.55791L57.2022 3.23464L57.4628 4.20636L60.0165 4.64016L62.7613 7.83295L63.6994 7.65943L63.8036 8.92613L65.0197 8.6832L65.6798 9.22111L67.5213 8.2841L71.569 8.57909L72.4897 9.35993L76.051 9.13435L77.684 7.98912L77.8578 11.8239L79.2996 11.6157L80.5504 13.5244L82.0444 13.9062L82.2355 15.2076L86.4222 15.3638L87.1519 13.8888L89.1323 13.2121L89.3408 12.3965L90.6437 12.9171L95.1257 12.7783L96.1854 13.9582L98.6349 14.8432L99.1387 15.624L98.8086 17.3245L100.859 18.331L101.223 19.2333L104.35 18.383L106.227 19.9968L108.398 20.1182L110.222 21.2808L112.932 18.1401L125.232 17.6542L125.631 27.9787L128.046 27.7185L129.453 28.9157L127.768 31.9524L127.716 33.757L133.414 33.514L134.595 32.4035L136.402 33.3405L138.417 33.5835L138.504 32.82L139.963 32.0565L140.641 33.2711L141.735 32.5076L142.083 33.0455L141.509 34.3817L142.986 35.2319L144.341 33.3232L143.473 33.3752L143.264 31.2756L143.803 30.6162L144.967 31.9177L145.714 30.6162L149.883 33.5661L151.342 32.5423L153.392 32.9241L154.035 33.6182L155.842 33.6529L156.189 35.0237L155.65 37.4009L153.253 39.7087L153.114 41.5481L152.367 41.8778L152.732 43.6303L151.568 43.2486L150.022 45.1226L147.416 45.5217L147.503 50.1026H148.615L149.449 52.6881L147.624 52.7055L146.912 51.4041L144.463 49.7903L144.723 47.9336L143.073 47.9857L142.291 55.0653L143.872 55.8115L143.907 58.2581L142.361 60.5833L139.199 61.2427L140.519 65.494L139.651 66.3789L141.04 67.1251L141.179 68.0621L137.809 71.3243L135.342 75.697L135.603 76.5646L134.752 76.9984L134.821 81.1803L132.32 82.8808L131.972 84.8068L132.615 86.2297L129.853 86.3165L129.557 87.1494L126.413 87.3923L126.569 89.4572L124.988 90.2034L127.299 95.3222L127.334 96.1725L126.326 96.5716L126.118 97.8383L128.376 99.8338L127.803 100.875L128.272 101.257L127.803 102.367L128.133 103.512L127.073 105.178L127.612 106.254L127.125 108.961L127.664 109.499L127.629 111.564L129.262 112.258L128.863 113.854L129.54 116.093L127.699 120.413L125.753 120.865L125.232 121.628L125.84 122.201L125.736 123.762L124.519 125.133L126.83 126.851L126.048 128.534L126.917 130.321L124.832 130.755L121.097 130.929L121.08 128.465L120.211 127.875L117.657 129.471L117.501 131.658L114.444 130.981L113.905 132.82L112.689 133.323L112.272 134.312L109.388 133.549L107.547 132.282L104.871 135.648L103.673 134.382L103.117 134.555L102.683 136.169L100.685 136.221L100.216 137.401L99.6772 137.418L99.4514 139.171L101.05 138.668L100.841 139.397L98.1832 139.987L98.4264 138.338L97.8358 138.512L97.3667 140.316L97.9226 141.548L96.7587 141.375L96.4286 144.134L95.3689 143.856L94.674 146.65L93.4232 146.407L92.6936 148.923L89.9662 148.628L89.0975 151.196L87.1171 152.064L87.4298 153.226L86.596 153.243L86.6307 154.094L85.5536 153.851L85.3278 155.048L84.4245 155.76L84.8066 156.54L83.5385 156.627L83.608 157.877L84.2681 158.224L77.8925 158.067L76.9718 159.23L75.8252 159.334L73.6711 161.26L72.5419 162.614L72.455 164.245L71.4822 165.737L68.1814 166.396L67.5213 165.772L65.1413 164.158L65.8536 162.44L65.4714 161.121L67.3302 161.225L67.6082 157.929L65.9578 158.102L64.1511 161.33L58.2098 158.831L55.2044 161.225L54.8049 160.41L52.946 159.768L52.1469 158.761L50.4792 158.779L47.3174 162.215L46.1709 164.852L44.0515 165.685L42.5922 165.338L40.7681 165.945L38.5792 165.216L38.2318 166.431L36.1124 166.032L32.7248 168.427L29.6847 166.379L28.3991 168.67L25.2374 168.114L25.2895 167.351L23.7434 167.16L22.093 168.565L22.1973 170.648L22.5968 171.533L24.2472 171.845L24.4904 172.938L22.371 173.632L22.5795 174.743L21.5024 175.714L21.0854 177.432L17.1593 178.092L16.2734 181.892L14.1018 180.174L7.34405 170.474L7.67411 167.073L8.47323 165.876L5.79792 163.932L5.65894 162.405L6.42332 161.92L6.14536 160.965L6.97923 159.733H7.83047L7.91732 156.749L5.62419 155.673L3.15734 156.419L2.41034 156.055L1.76758 154.892L2.27136 153.886L3.33106 153.92L3.27895 153.174L5.58945 152.098L4.56449 150.693L4.23442 148.506L5.65894 147.604L6.31908 149.339L7.41354 149.131L8.14317 147.535L7.29193 146.094L5.8674 146.077L5.72843 143.995L5.06828 142.902L3.86961 143.231L4.59924 140.906L0.881592 138.772L4.65135 139.362L5.20726 136.065L4.77296 135.041L3.01836 133.67L3.13997 131.848L6.9966 131.779L7.34405 132.525L9.86301 132.837L10.4537 133.462L13.268 133.167L14.0845 131.154L14.9009 130.53L14.4319 128.916L13.1811 129.471L13.6849 127.58L12.5904 124.491L13.9281 124.508L14.9357 125.74L16.4123 125.879L16.6729 126.452L19.4003 126.192L17.472 124.248L17.2809 123.207L16.6382 123.346L17.2462 122.426L18.0279 122.548L18.8792 121.177L18.3233 119.251L19.5393 120.951L23.1701 121.663L22.9616 120.917L25.9497 119.546L30.3101 117.967L31.0571 118.401L30.8486 116.631L32.9159 116.717L36.4251 115.676L36.4598 117.585L38.3186 119.615L37.4848 120.622L39.3262 120.83L41.324 120.17L42.4532 120.951L44.1557 124.838L44.868 125.098L45.4065 124.439L44.2947 122.964L46.97 118.956L47.4043 117.134L47.0221 113.993L47.9081 111.789L47.9428 108.926L49.2284 105.855L55.8125 106.896L56.8374 104.866L56.7853 103.981L55.3086 102.61L54.0926 102.454L54.7528 96.0163L52.4422 94.1596L54.4227 93.3788L59.2869 92.9103L59.4954 90.186L60.7462 89.7348L59.7386 85.2754L55.604 82.5164L53.1545 82.8287L50.9656 82.1867L51.4173 80.4168L50.6355 79.0807L52.0253 78.4039L54.0405 78.6815L54.0578 77.1199L54.8743 77.2066L55.1176 77.9701L57.6192 76.8769L57.6365 75.8705L58.6789 75.8532L58.2098 73.1983L54.5617 69.1726L51.3478 68.4438L51.2783 66.8648L50.5313 65.8931L50.9135 64.6958L49.4021 63.4811L48.3424 63.4117L47.8907 61.3989L45.8408 60.4445L44.4337 58.9349L44.59 56.2973L44.1383 55.9156L45.3544 55.395L44.6421 54.0763L43.1134 55.2562L42.1405 54.8918L41.5846 55.2736L40.2296 54.5448L40.4554 52.8269L38.5445 52.8443L37.8496 53.9548L38.4403 54.7704L37.4848 54.458L36.8594 55.0827L36.9636 53.5904L36.4251 53.6425L36.0255 52.4105L33.4544 50.4844L33.4718 45.2094L32.1689 45.2788L32.3947 44.1682L31.0745 44.1335L31.3524 42.9536L28.3296 43.2833L28.1212 42.2942L30.7096 41.3051L30.6923 40.4549L29.094 39.7261L29.7542 38.1991L30.7791 37.6786L31.1961 35.5789L29.9453 33.5314L28.8161 33.6702L28.2949 31.8135L27.0267 32.577V31.1195L29.2156 30.9286L29.0245 31.5706L29.6673 31.7268L30.3448 29.8528L31.3524 30.1651L33.4892 26.4864L34.0972 23.7795L35.0006 22.8946L34.8442 21.8187L35.9734 19.4762L35.3828 17.9319L34.6531 18.5739L34.0625 18.2963L34.6705 16.856L32.9506 14.9647L33.3676 13.5244L34.1667 12.9692L33.3502 10.8175L34.7574 8.40557L36.512 7.32973L37.2416 6.14979L35.1917 5.40365L32.8812 5.52512L30.8486 4.17165L30.5185 3.26934L37.4327 4.06754L40.4381 3.2867L41.6541 3.52962L40.8897 1.08298L41.6194 0.874756L44.1905 1.55149L43.9646 2.8876L44.5205 3.35611Z" fill="#038405" stroke="#EAEAEA" stroke-width="2" mask="url(#path-1-inside-1_132_23)"/>
</svg>
