<svg width="148" height="158" viewBox="0 0 148 158" fill="none" xmlns="http://www.w3.org/2000/svg">
<mask id="path-1-inside-1_132_28" fill="white">
<path d="M96.0985 0.955111L98.131 0.226323L102.613 3.28029L106.487 4.06114L106.991 4.77257H110.778L111.421 3.76615L112.88 4.5817L113.922 2.88119L117.518 4.26936L117.848 5.17167L119.881 6.52513L122.192 6.40367L124.241 7.14981L123.512 8.32975L121.757 9.40558L120.35 11.8175L121.167 13.9692L120.367 14.5244L119.95 15.9647L121.67 17.8561L121.062 19.2963L121.653 19.5739L122.383 18.9319L122.973 20.4762L121.844 22.8188L122 23.8946L121.097 24.7795L120.489 27.4865L118.352 31.1651L117.345 30.8528L116.667 32.7268L116.024 32.5706L116.215 31.9286L114.027 32.1195V33.577L115.295 32.8136L115.816 34.6702L116.945 34.5314L118.196 36.579L117.779 38.6786L116.754 39.1991L116.094 40.7261L117.692 41.4549L117.709 42.3052L115.121 43.2942L115.329 44.2833L118.352 43.9536L118.074 45.1335L119.395 45.1683L119.169 46.2788L120.472 46.2094L120.454 51.4844L123.025 53.4105L123.425 54.6425L123.963 54.5904L123.859 56.0827L124.485 55.458L125.44 55.7704L124.849 54.9548L125.544 53.8443L127.455 53.8269L127.229 55.5448L128.584 56.2736L129.14 55.8918L130.113 56.2562L131.642 55.0763L132.354 56.3951L131.138 56.9156L131.59 57.2974L131.434 59.9349L132.841 61.4445L134.891 62.3989L135.342 64.4117L136.402 64.4811L137.913 65.6958L137.531 66.8931L138.278 67.8648L138.348 69.4438L141.561 70.1726L145.21 74.1983L145.679 76.8532L144.636 76.8705L144.619 77.877L142.117 78.9701L141.874 78.2066L141.058 78.1199L141.04 79.6816L139.025 79.4039L137.635 80.0807L138.417 81.4168L137.965 83.1867L140.154 83.8287L142.604 83.5164L146.738 86.2754L147.746 90.7348L146.495 91.186L146.287 93.9103L141.423 94.3788L139.442 95.1596L141.753 97.0163L141.092 103.454L142.308 103.61L143.785 104.981L143.837 105.866L142.812 107.896L136.228 106.855L134.943 109.926L134.908 112.789L134.022 114.993L134.404 118.134L133.97 119.956L131.295 123.964L132.406 125.439L131.868 126.098L131.156 125.838L129.453 121.951L128.324 121.17L126.326 121.83L124.485 121.622L125.318 120.615L123.46 118.585L123.425 116.676L119.916 117.717L117.848 117.631L118.057 119.401L117.31 118.967L112.949 120.546L109.961 121.917L110.17 122.663L106.539 121.951L105.323 120.251L105.879 122.177L105.028 123.548L104.246 123.426L103.638 124.346L104.281 124.207L104.472 125.248L106.4 127.192L103.673 127.452L103.412 126.879L101.936 126.74L100.928 125.508L99.5903 125.491L100.685 128.58L100.181 130.471L101.432 129.916L101.901 131.53L101.084 132.154L100.268 134.167L97.4535 134.462L96.8629 133.837L94.3439 133.525L93.9964 132.779L90.1398 132.848L90.0182 134.67L91.7728 136.041L92.2071 137.065L91.6512 140.362L87.8814 139.772L91.5991 141.906L90.8695 144.231L92.0681 143.902L92.7283 144.995L92.8672 147.077L94.2918 147.094L95.143 148.535L94.4134 150.131L93.3189 150.339L92.6588 148.604L91.2343 149.506L91.5643 151.693L92.5893 153.098L90.2788 154.174L90.3309 154.92L89.2712 154.886L88.7674 155.892L89.4102 157.055L86.179 155.736L86.37 153.411L85.8315 152.109L83.9032 152.04L79.369 147.823L78.6915 148.812L79.039 151.797L76.1031 151.78L76.1378 150.565L75.0086 150.461L74.4875 151.172L70.4224 151.641L69.5711 152.3L65.8361 151.814L66.3225 148.847L62.3443 146.452V145.828L58.9394 145.533L59.0957 141.455L58.5572 141.073L59.1826 140.622L58.6093 138.262L59.0436 137.742L58.4356 137.412L58.2445 138.262L57.0458 138.557L56.4725 138.037L56.5767 135.625L54.9611 132.623L53.9535 132.276L51.4172 133.681L50.3054 133.647L47.8733 131.946L47.4911 130.575L48.0817 129.447L46.3445 127.591L45.528 128.545L43.287 128.528L42.4705 130.627L38.3533 129.881L36.0776 128.285L35.4695 126.688L34.3751 126.376L32.1862 122.35L29.1461 122.541L28.8507 121.327L27.7215 120.98L28.208 117.162L26.575 117.509L25.0288 116.815L24.8899 114.611L25.3415 114.23L24.6988 114.021L25.3589 112.928L24.7161 112.338L22.7531 112.72L22.1103 112.061L21.4502 110.343L21.7455 108.451L23.1353 106.491L24.195 105.918L26.5923 106.039L26.575 106.525L30.2231 106.074L32.1862 104.53L32.5684 103.385L30.8659 103.194L29.1113 101.476L27.1135 101.233L22.2319 95.7149L21.4154 92.1057L18.8617 90.1622L20.1299 89.8152L19.4003 89.6417L18.9833 88.5658L19.8693 87.6115L18.8791 87.2644L18.6532 84.2972L17.2114 83.5337L16.6554 84.0196L16.3254 82.4058L15.5957 81.8853L15.7868 80.7227L15.0225 79.8724L15.3178 79.0222L16.1517 78.9875L16.3254 77.1135L14.7098 75.8294L13.5632 76.0029L12.6251 73.9207L11.3048 73.5216L9.60234 71.3352L8.64687 71.2311L8.82059 70.0338L7.88249 69.0447L7.84775 66.7196L6.16265 64.7241L6.1279 63.9259L5.88469 64.3423L4.14748 63.8912L3.8174 64.3944L3.12252 63.9259L3.5047 63.145L2.80982 62.2427L2.60135 60.0737L3.67843 59.3276L3.33098 58.9805L4.21696 56.8636L5.3809 56.7421L4.99871 55.753L5.53725 54.8854L4.8771 54.3996L6.40586 53.584L6.37111 52.6817L5.79783 52.3867L6.42323 52.005L5.74571 51.9876L4.96396 50.8597L5.39827 49.8013L3.3136 49.4542L3.17463 48.2743L4.77287 47.0943L4.49491 46.0185L3.90426 45.3244L2.68821 45.7235L1.55902 44.6824L1.43741 43.2769L1.698 43.9883L4.21696 44.4742L4.89447 43.8495L2.56661 39.5115L3.90426 38.0018L4.1301 36.6657L2.28865 35.6246L0.812012 32.6921L4.14748 31.061L4.96396 29.8984L6.82279 30.2454L11.0269 28.6491L11.6349 29.3431L11.7044 31.2519L13.7543 30.6272L18.7401 31.9633L16.7771 34.2191L16.9508 35.7981L19.3655 35.1214L23.7259 36.7872L25.2026 34.8611L28.3643 33.0218L31.057 28.7358L39.7952 23.9293L42.5747 20.8753L41.2371 15.9126L44.034 11.5052L43.7561 10.4294L46.6225 8.3124L51.921 8.36446L57.4454 7.56626L60.9198 6.40367L63.4214 7.35803L66.0446 6.99364L67.5733 8.22564H68.4767L72.4028 5.43195L73.0977 5.57077L73.532 6.94158L77.9272 5.60547L78.6915 6.95894H80.6546L82.5829 5.08491L83.9032 4.89404L88.3505 1.78801L90.9216 1.77066L94.1528 0.104858L96.0985 0.955111Z"/>
</mask>
<path d="M96.0985 0.955111L98.131 0.226323L102.613 3.28029L106.487 4.06114L106.991 4.77257H110.778L111.421 3.76615L112.88 4.5817L113.922 2.88119L117.518 4.26936L117.848 5.17167L119.881 6.52513L122.192 6.40367L124.241 7.14981L123.512 8.32975L121.757 9.40558L120.35 11.8175L121.167 13.9692L120.367 14.5244L119.95 15.9647L121.67 17.8561L121.062 19.2963L121.653 19.5739L122.383 18.9319L122.973 20.4762L121.844 22.8188L122 23.8946L121.097 24.7795L120.489 27.4865L118.352 31.1651L117.345 30.8528L116.667 32.7268L116.024 32.5706L116.215 31.9286L114.027 32.1195V33.577L115.295 32.8136L115.816 34.6702L116.945 34.5314L118.196 36.579L117.779 38.6786L116.754 39.1991L116.094 40.7261L117.692 41.4549L117.709 42.3052L115.121 43.2942L115.329 44.2833L118.352 43.9536L118.074 45.1335L119.395 45.1683L119.169 46.2788L120.472 46.2094L120.454 51.4844L123.025 53.4105L123.425 54.6425L123.963 54.5904L123.859 56.0827L124.485 55.458L125.44 55.7704L124.849 54.9548L125.544 53.8443L127.455 53.8269L127.229 55.5448L128.584 56.2736L129.14 55.8918L130.113 56.2562L131.642 55.0763L132.354 56.3951L131.138 56.9156L131.59 57.2974L131.434 59.9349L132.841 61.4445L134.891 62.3989L135.342 64.4117L136.402 64.4811L137.913 65.6958L137.531 66.8931L138.278 67.8648L138.348 69.4438L141.561 70.1726L145.21 74.1983L145.679 76.8532L144.636 76.8705L144.619 77.877L142.117 78.9701L141.874 78.2066L141.058 78.1199L141.04 79.6816L139.025 79.4039L137.635 80.0807L138.417 81.4168L137.965 83.1867L140.154 83.8287L142.604 83.5164L146.738 86.2754L147.746 90.7348L146.495 91.186L146.287 93.9103L141.423 94.3788L139.442 95.1596L141.753 97.0163L141.092 103.454L142.308 103.61L143.785 104.981L143.837 105.866L142.812 107.896L136.228 106.855L134.943 109.926L134.908 112.789L134.022 114.993L134.404 118.134L133.97 119.956L131.295 123.964L132.406 125.439L131.868 126.098L131.156 125.838L129.453 121.951L128.324 121.17L126.326 121.83L124.485 121.622L125.318 120.615L123.46 118.585L123.425 116.676L119.916 117.717L117.848 117.631L118.057 119.401L117.31 118.967L112.949 120.546L109.961 121.917L110.17 122.663L106.539 121.951L105.323 120.251L105.879 122.177L105.028 123.548L104.246 123.426L103.638 124.346L104.281 124.207L104.472 125.248L106.4 127.192L103.673 127.452L103.412 126.879L101.936 126.74L100.928 125.508L99.5903 125.491L100.685 128.58L100.181 130.471L101.432 129.916L101.901 131.53L101.084 132.154L100.268 134.167L97.4535 134.462L96.8629 133.837L94.3439 133.525L93.9964 132.779L90.1398 132.848L90.0182 134.67L91.7728 136.041L92.2071 137.065L91.6512 140.362L87.8814 139.772L91.5991 141.906L90.8695 144.231L92.0681 143.902L92.7283 144.995L92.8672 147.077L94.2918 147.094L95.143 148.535L94.4134 150.131L93.3189 150.339L92.6588 148.604L91.2343 149.506L91.5643 151.693L92.5893 153.098L90.2788 154.174L90.3309 154.92L89.2712 154.886L88.7674 155.892L89.4102 157.055L86.179 155.736L86.37 153.411L85.8315 152.109L83.9032 152.04L79.369 147.823L78.6915 148.812L79.039 151.797L76.1031 151.78L76.1378 150.565L75.0086 150.461L74.4875 151.172L70.4224 151.641L69.5711 152.3L65.8361 151.814L66.3225 148.847L62.3443 146.452V145.828L58.9394 145.533L59.0957 141.455L58.5572 141.073L59.1826 140.622L58.6093 138.262L59.0436 137.742L58.4356 137.412L58.2445 138.262L57.0458 138.557L56.4725 138.037L56.5767 135.625L54.9611 132.623L53.9535 132.276L51.4172 133.681L50.3054 133.647L47.8733 131.946L47.4911 130.575L48.0817 129.447L46.3445 127.591L45.528 128.545L43.287 128.528L42.4705 130.627L38.3533 129.881L36.0776 128.285L35.4695 126.688L34.3751 126.376L32.1862 122.35L29.1461 122.541L28.8507 121.327L27.7215 120.98L28.208 117.162L26.575 117.509L25.0288 116.815L24.8899 114.611L25.3415 114.23L24.6988 114.021L25.3589 112.928L24.7161 112.338L22.7531 112.72L22.1103 112.061L21.4502 110.343L21.7455 108.451L23.1353 106.491L24.195 105.918L26.5923 106.039L26.575 106.525L30.2231 106.074L32.1862 104.53L32.5684 103.385L30.8659 103.194L29.1113 101.476L27.1135 101.233L22.2319 95.7149L21.4154 92.1057L18.8617 90.1622L20.1299 89.8152L19.4003 89.6417L18.9833 88.5658L19.8693 87.6115L18.8791 87.2644L18.6532 84.2972L17.2114 83.5337L16.6554 84.0196L16.3254 82.4058L15.5957 81.8853L15.7868 80.7227L15.0225 79.8724L15.3178 79.0222L16.1517 78.9875L16.3254 77.1135L14.7098 75.8294L13.5632 76.0029L12.6251 73.9207L11.3048 73.5216L9.60234 71.3352L8.64687 71.2311L8.82059 70.0338L7.88249 69.0447L7.84775 66.7196L6.16265 64.7241L6.1279 63.9259L5.88469 64.3423L4.14748 63.8912L3.8174 64.3944L3.12252 63.9259L3.5047 63.145L2.80982 62.2427L2.60135 60.0737L3.67843 59.3276L3.33098 58.9805L4.21696 56.8636L5.3809 56.7421L4.99871 55.753L5.53725 54.8854L4.8771 54.3996L6.40586 53.584L6.37111 52.6817L5.79783 52.3867L6.42323 52.005L5.74571 51.9876L4.96396 50.8597L5.39827 49.8013L3.3136 49.4542L3.17463 48.2743L4.77287 47.0943L4.49491 46.0185L3.90426 45.3244L2.68821 45.7235L1.55902 44.6824L1.43741 43.2769L1.698 43.9883L4.21696 44.4742L4.89447 43.8495L2.56661 39.5115L3.90426 38.0018L4.1301 36.6657L2.28865 35.6246L0.812012 32.6921L4.14748 31.061L4.96396 29.8984L6.82279 30.2454L11.0269 28.6491L11.6349 29.3431L11.7044 31.2519L13.7543 30.6272L18.7401 31.9633L16.7771 34.2191L16.9508 35.7981L19.3655 35.1214L23.7259 36.7872L25.2026 34.8611L28.3643 33.0218L31.057 28.7358L39.7952 23.9293L42.5747 20.8753L41.2371 15.9126L44.034 11.5052L43.7561 10.4294L46.6225 8.3124L51.921 8.36446L57.4454 7.56626L60.9198 6.40367L63.4214 7.35803L66.0446 6.99364L67.5733 8.22564H68.4767L72.4028 5.43195L73.0977 5.57077L73.532 6.94158L77.9272 5.60547L78.6915 6.95894H80.6546L82.5829 5.08491L83.9032 4.89404L88.3505 1.78801L90.9216 1.77066L94.1528 0.104858L96.0985 0.955111Z" fill="#038405" stroke="#EAEAEA" stroke-width="2" mask="url(#path-1-inside-1_132_28)"/>
</svg>
