<svg width="151" height="208" viewBox="0 0 151 208" fill="none" xmlns="http://www.w3.org/2000/svg">
<mask id="path-1-inside-1_132_10" fill="white">
<path d="M78.5935 0.404297L79.6879 2.74684L80.7477 2.52125L82.3807 4.46468L79.9138 6.04373L80.4871 6.78986L79.9485 7.32779L80.8519 8.16069L85.1776 10.0521L88.3914 10.2082L88.8257 8.05658L90.8583 8.42096L89.7291 15.7262L89.2253 16.2815L92.0049 21.9383L89.2948 22.8405L89.3122 24.6452L87.8876 23.8643L86.5153 26.4324L88.4436 26.5018L88.6868 27.3L91.1883 27.248L92.7518 28.0462L93.9679 28.0983L94.6107 27.3694L98.2936 27.9074L99.388 27.4909L99.3186 35.7158L101.299 35.5076L102.254 37.1387L104.582 36.9305L104.669 38.1104L103.158 38.2492L102.532 39.1168L102.828 41.5114L101.629 43.5243L103.001 44.9471L104.912 45.1553L105.347 46.4047L104.113 46.8732L104.739 47.7755L104.721 49.4413L103.106 49.8231L102.984 50.6039L101.525 51.0898L102.341 61.9695L104.826 64.9194L103.801 66.4984L104.061 67.9386L103.436 67.956L104.947 69.0145L104.582 69.8994L106.424 71.3744L108.109 71.01L108.595 72.0858L111.601 70.6803L112.504 76.8403L113.616 76.5106L115.179 77.9508L111.722 80.1198L111.965 82.0112L111.201 82.8961L111.097 84.8049L113.564 86.1063L118.845 85.4816L120.982 87.5465L120.947 89.9237L122.285 92.0234L122.163 93.1512L121.416 93.88L121.989 94.9732L123.744 95.9102L127.097 95.9796L126.94 97.0728L134.48 99.6236L133.82 102.157L135.053 102.851L135.105 104.239L134.167 105.801L135.522 108.577L147.387 109.393L147.422 113.575L148.43 114.373L149.385 114.13L150.497 115.102L148.899 119.179L149.42 121.158L142.575 121.296L137.92 120.689L137.642 121.487L135.366 121.8L134.74 124.003L134.949 125.964L132.69 126.051L132.204 128.324L133.038 129.851L132.69 132.714L131.527 133.738L131.7 137.382L129.546 137.763L129.459 136.15L125.412 136.167L125.533 138.753L123.292 138.77L123.31 140.037L122.597 140.939L113.373 141.008L113.147 143.195L106.98 143.368L106.962 146.769L104.495 146.804L104.217 149.546L102.949 149.65L103.001 152.738L103.523 153.259L103.193 155.358L104.096 155.792L104.009 162.889L103.088 162.924L103.158 164.312L101.056 164.798L99.249 168.511L99.3706 170.143L106.111 170.351L105.538 172.52L105.781 173.943L105.26 174.567L103.279 174.637L103.158 175.938L99.944 176.702L100.674 178.211L100.222 184.527L98.9189 187.234L95.931 190.844L94.1938 191.139L92.0743 187.633L89.9028 186.939L88.0093 188.883L85.8204 188.189L84.3264 188.432L79.9485 187.043L73.9204 189.195L68.8477 189.733L64.3136 188.449L59.1019 189.612L57.8858 190.635L58.2507 192.128L56.3224 192.908L47.3062 205.94L45.0131 207.987H44.544L46.4897 206.027L46.1596 204.239L44.2661 202.279L41.2954 200.873L38.4464 202.522L37.0392 204.031L34.7287 204.586L31.2196 206.617L28.7527 202.712L32.9394 199.329L33.3042 199.728L35.7363 198.305L32.7831 196.014L34.7982 193.169L33.3737 191.555L32.2098 192.492L26.5812 189.837L28.1447 188.883L27.4845 185.568L26.3901 185.846L24.3402 182.827L23.8711 183.018L23.6279 182.324L22.8983 182.792L22.7072 181.768L22.0644 182.497L21.5259 181.612L20.8831 181.838L18.8505 179.461L20.8831 179.339L20.6399 178.871L25.2435 179.287L23.0894 169.205L24.1317 169.032L24.4097 169.813L29.0654 169.518L29.6734 170.68L32.1924 169.553L32.0708 168.893L34.5203 167.331L33.7385 164.295L35.441 163.861L36.935 167.21L39.2629 166.03L38.7764 164.503L41.0349 159.002L41.5213 158.968L41.6776 156.226L38.5854 156.087L38.7764 155.237L37.9252 154.855L36.5355 157.423L32.3488 153.71L31.9145 154.126L28.7527 148.834L27.554 150.118L26.2859 148.088L25.4346 148.695L24.2359 146.977L21.1785 149.424L17.3566 142.83L13.5694 144.652L12.4924 144.149L12.336 142.934L13.5694 142.674L13.5173 141.824L11.2416 142.188L10.8594 139.776L12.8572 139.464L12.9961 138.874L14.1427 139.186L15.1503 137.469L10.5814 137.954L9.88654 133.72L9.03526 133.668L8.13193 127.977L3.26774 128.654L3.21557 125.947L3.92784 125.791L4.39692 123.778L4.17107 122.945L3.04189 123.205L2.62492 120.498L1.00932 120.602L0.592407 118.225L3.42408 117.67V116.872L6.30787 116.889L5.61294 113.297L3.07662 113.592L2.60759 110.278L3.45881 110.035L2.10378 108.942L3.31985 108.196L2.31224 106.443L3.05923 105.402L2.72915 102.955L4.13635 102.521L4.04946 102.035L5.21342 102.799L6.82902 101.931H6.22098L7.0722 101.307L7.5934 102.331L8.40989 102.14L10.4945 103.094L10.8594 102.539L12.2317 103.84L12.5966 105.437L13.3957 104.916L14.1601 105.888L15.8799 105.384L16.3142 106.426L18.7984 107.085L19.0938 105.367L20.1361 105.384L21.2827 103.042L19.945 93.9321L20.7268 94.4874L21.1437 93.238L21.8559 93.585L22.186 93.0124L23.7148 93.0471L22.186 82.8267L19.9798 83.1217L19.7887 82.1847L16.7659 82.5318L16.2274 79.4778L16.4879 77.9855L17.2871 77.3261L16.9396 74.3416L17.6345 74.0292L17.0612 73.6301L17.8951 73.1269L18.7463 73.3699L18.4857 71.062L17.8083 71.01L17.5303 67.4354L18.92 67.0537L18.6769 64.5723L21.9255 63.9997L21.6301 62.0042L19.8755 61.4663L19.1806 59.8699L16.4011 59.8352L16.1231 57.3886L14.4902 57.0068L12.5618 57.3712L12.1796 54.751L11.1895 52.4432L10.7378 48.9208L11.4674 48.7819L11.9712 47.7929L10.6856 44.4613L10.4424 42.1881L9.38273 42.2055L9.19161 41.6502L10.9462 38.978L12.6834 39.3597L12.7529 40.4182L14.0732 41.1123L16.5922 41.2511L16.957 41.8411L17.9646 41.7196L18.9374 39.273L25.5215 39.9324L29.2739 43.8539L29.9688 42.4311L28.8222 42.3096L28.7527 41.6155L27.1718 40.3141L27.9015 39.1862L28.5095 39.2383L28.8048 37.8848L31.3759 38.2492L31.706 36.4967L32.4704 36.6355L33.1826 34.9523L36.0317 35.6985L35.7711 36.5487L38.6722 38.2145L38.7417 32.471L39.9578 31.6381L40.7743 29.9549L43.0674 30.007L43.2063 28.5841L46.6635 28.7056L46.9414 27.1265L45.6385 26.8142L46.2465 25.4781L44.7873 24.194L45.4648 23.3958L45.9859 23.7255L46.3855 23.1182L45.7253 22.7538L47.3409 22.025L47.5842 21.2268L48.5222 22.3026L49.2866 22.1985L49.4604 19.3528L50.3464 19.4395L50.0684 17.2358L51.2497 17.0276L51.9272 16.1253L53.8208 16.3509L53.9077 16.8714L54.7589 16.2815L55.6101 16.5938L55.4364 16.1426L57.1736 15.3618L56.8609 13.4704L56.0444 12.6722L56.5309 12.2037L59.432 11.7005L64.7479 8.85476L63.2017 7.08486L56.8956 4.72498L59.5188 2.15685L60.3006 1.2719L63.6014 0.803388L74.1984 3.54502L75.9356 3.16327L75.9704 3.61444L77.0995 3.71855L77.4991 1.63631L78.5935 0.404297Z"/>
</mask>
<path d="M78.5935 0.404297L79.6879 2.74684L80.7477 2.52125L82.3807 4.46468L79.9138 6.04373L80.4871 6.78986L79.9485 7.32779L80.8519 8.16069L85.1776 10.0521L88.3914 10.2082L88.8257 8.05658L90.8583 8.42096L89.7291 15.7262L89.2253 16.2815L92.0049 21.9383L89.2948 22.8405L89.3122 24.6452L87.8876 23.8643L86.5153 26.4324L88.4436 26.5018L88.6868 27.3L91.1883 27.248L92.7518 28.0462L93.9679 28.0983L94.6107 27.3694L98.2936 27.9074L99.388 27.4909L99.3186 35.7158L101.299 35.5076L102.254 37.1387L104.582 36.9305L104.669 38.1104L103.158 38.2492L102.532 39.1168L102.828 41.5114L101.629 43.5243L103.001 44.9471L104.912 45.1553L105.347 46.4047L104.113 46.8732L104.739 47.7755L104.721 49.4413L103.106 49.8231L102.984 50.6039L101.525 51.0898L102.341 61.9695L104.826 64.9194L103.801 66.4984L104.061 67.9386L103.436 67.956L104.947 69.0145L104.582 69.8994L106.424 71.3744L108.109 71.01L108.595 72.0858L111.601 70.6803L112.504 76.8403L113.616 76.5106L115.179 77.9508L111.722 80.1198L111.965 82.0112L111.201 82.8961L111.097 84.8049L113.564 86.1063L118.845 85.4816L120.982 87.5465L120.947 89.9237L122.285 92.0234L122.163 93.1512L121.416 93.88L121.989 94.9732L123.744 95.9102L127.097 95.9796L126.94 97.0728L134.48 99.6236L133.82 102.157L135.053 102.851L135.105 104.239L134.167 105.801L135.522 108.577L147.387 109.393L147.422 113.575L148.43 114.373L149.385 114.13L150.497 115.102L148.899 119.179L149.42 121.158L142.575 121.296L137.92 120.689L137.642 121.487L135.366 121.8L134.74 124.003L134.949 125.964L132.69 126.051L132.204 128.324L133.038 129.851L132.69 132.714L131.527 133.738L131.7 137.382L129.546 137.763L129.459 136.15L125.412 136.167L125.533 138.753L123.292 138.77L123.31 140.037L122.597 140.939L113.373 141.008L113.147 143.195L106.98 143.368L106.962 146.769L104.495 146.804L104.217 149.546L102.949 149.65L103.001 152.738L103.523 153.259L103.193 155.358L104.096 155.792L104.009 162.889L103.088 162.924L103.158 164.312L101.056 164.798L99.249 168.511L99.3706 170.143L106.111 170.351L105.538 172.52L105.781 173.943L105.26 174.567L103.279 174.637L103.158 175.938L99.944 176.702L100.674 178.211L100.222 184.527L98.9189 187.234L95.931 190.844L94.1938 191.139L92.0743 187.633L89.9028 186.939L88.0093 188.883L85.8204 188.189L84.3264 188.432L79.9485 187.043L73.9204 189.195L68.8477 189.733L64.3136 188.449L59.1019 189.612L57.8858 190.635L58.2507 192.128L56.3224 192.908L47.3062 205.94L45.0131 207.987H44.544L46.4897 206.027L46.1596 204.239L44.2661 202.279L41.2954 200.873L38.4464 202.522L37.0392 204.031L34.7287 204.586L31.2196 206.617L28.7527 202.712L32.9394 199.329L33.3042 199.728L35.7363 198.305L32.7831 196.014L34.7982 193.169L33.3737 191.555L32.2098 192.492L26.5812 189.837L28.1447 188.883L27.4845 185.568L26.3901 185.846L24.3402 182.827L23.8711 183.018L23.6279 182.324L22.8983 182.792L22.7072 181.768L22.0644 182.497L21.5259 181.612L20.8831 181.838L18.8505 179.461L20.8831 179.339L20.6399 178.871L25.2435 179.287L23.0894 169.205L24.1317 169.032L24.4097 169.813L29.0654 169.518L29.6734 170.68L32.1924 169.553L32.0708 168.893L34.5203 167.331L33.7385 164.295L35.441 163.861L36.935 167.21L39.2629 166.03L38.7764 164.503L41.0349 159.002L41.5213 158.968L41.6776 156.226L38.5854 156.087L38.7764 155.237L37.9252 154.855L36.5355 157.423L32.3488 153.71L31.9145 154.126L28.7527 148.834L27.554 150.118L26.2859 148.088L25.4346 148.695L24.2359 146.977L21.1785 149.424L17.3566 142.83L13.5694 144.652L12.4924 144.149L12.336 142.934L13.5694 142.674L13.5173 141.824L11.2416 142.188L10.8594 139.776L12.8572 139.464L12.9961 138.874L14.1427 139.186L15.1503 137.469L10.5814 137.954L9.88654 133.72L9.03526 133.668L8.13193 127.977L3.26774 128.654L3.21557 125.947L3.92784 125.791L4.39692 123.778L4.17107 122.945L3.04189 123.205L2.62492 120.498L1.00932 120.602L0.592407 118.225L3.42408 117.67V116.872L6.30787 116.889L5.61294 113.297L3.07662 113.592L2.60759 110.278L3.45881 110.035L2.10378 108.942L3.31985 108.196L2.31224 106.443L3.05923 105.402L2.72915 102.955L4.13635 102.521L4.04946 102.035L5.21342 102.799L6.82902 101.931H6.22098L7.0722 101.307L7.5934 102.331L8.40989 102.14L10.4945 103.094L10.8594 102.539L12.2317 103.84L12.5966 105.437L13.3957 104.916L14.1601 105.888L15.8799 105.384L16.3142 106.426L18.7984 107.085L19.0938 105.367L20.1361 105.384L21.2827 103.042L19.945 93.9321L20.7268 94.4874L21.1437 93.238L21.8559 93.585L22.186 93.0124L23.7148 93.0471L22.186 82.8267L19.9798 83.1217L19.7887 82.1847L16.7659 82.5318L16.2274 79.4778L16.4879 77.9855L17.2871 77.3261L16.9396 74.3416L17.6345 74.0292L17.0612 73.6301L17.8951 73.1269L18.7463 73.3699L18.4857 71.062L17.8083 71.01L17.5303 67.4354L18.92 67.0537L18.6769 64.5723L21.9255 63.9997L21.6301 62.0042L19.8755 61.4663L19.1806 59.8699L16.4011 59.8352L16.1231 57.3886L14.4902 57.0068L12.5618 57.3712L12.1796 54.751L11.1895 52.4432L10.7378 48.9208L11.4674 48.7819L11.9712 47.7929L10.6856 44.4613L10.4424 42.1881L9.38273 42.2055L9.19161 41.6502L10.9462 38.978L12.6834 39.3597L12.7529 40.4182L14.0732 41.1123L16.5922 41.2511L16.957 41.8411L17.9646 41.7196L18.9374 39.273L25.5215 39.9324L29.2739 43.8539L29.9688 42.4311L28.8222 42.3096L28.7527 41.6155L27.1718 40.3141L27.9015 39.1862L28.5095 39.2383L28.8048 37.8848L31.3759 38.2492L31.706 36.4967L32.4704 36.6355L33.1826 34.9523L36.0317 35.6985L35.7711 36.5487L38.6722 38.2145L38.7417 32.471L39.9578 31.6381L40.7743 29.9549L43.0674 30.007L43.2063 28.5841L46.6635 28.7056L46.9414 27.1265L45.6385 26.8142L46.2465 25.4781L44.7873 24.194L45.4648 23.3958L45.9859 23.7255L46.3855 23.1182L45.7253 22.7538L47.3409 22.025L47.5842 21.2268L48.5222 22.3026L49.2866 22.1985L49.4604 19.3528L50.3464 19.4395L50.0684 17.2358L51.2497 17.0276L51.9272 16.1253L53.8208 16.3509L53.9077 16.8714L54.7589 16.2815L55.6101 16.5938L55.4364 16.1426L57.1736 15.3618L56.8609 13.4704L56.0444 12.6722L56.5309 12.2037L59.432 11.7005L64.7479 8.85476L63.2017 7.08486L56.8956 4.72498L59.5188 2.15685L60.3006 1.2719L63.6014 0.803388L74.1984 3.54502L75.9356 3.16327L75.9704 3.61444L77.0995 3.71855L77.4991 1.63631L78.5935 0.404297Z" fill="#038405" stroke="#EAEAEA" stroke-width="2" mask="url(#path-1-inside-1_132_10)"/>
</svg>
