<svg width="141" height="203" viewBox="0 0 141 203" fill="none" xmlns="http://www.w3.org/2000/svg">
<mask id="path-1-inside-1_132_18" fill="white">
<path d="M29.6768 1.67988L31.0491 6.06995L30.8754 7.73577L34.6452 9.8527L35.6006 8.30836L37.7375 8.72482L37.6159 9.80064L38.3629 9.87007L38.9362 11.4838L41.1945 12.1952L44.5473 10.408L46.4756 10.8071L48.2476 12.3861L50.1759 10.7724L50.1065 8.39513H50.645L52.0695 10.1477L50.5756 11.8309L50.9403 14.3816L52.7123 15.093L54.0673 17.6438L55.4744 17.852L56.5689 19.3617L58.5146 19.3443L60.2171 20.6804L63.153 20.2293L64.2475 21.2357L63.5177 22.1554L63.9868 23.7517L63.5873 24.0988L65.0118 26.8404L66.0715 26.8925L70.4146 24.3591L72.9162 24.9143L75.3656 23.1097L76.8596 20.6631L79.6044 18.3726L82.245 22.7974L82.4883 25.8513L83.6869 28.298L85.7715 30.3455L91.1916 31.9072L95.1873 30.0159L97.6715 30.4149L100.764 32.0808L104.707 32.4798L104.099 34.7356L107.608 43.2381L112.942 44.8692L116.312 48.4091L121.35 48.1488L123.313 47.4373L125.206 44.8866L130.661 44.2272L131.704 44.7825L135.838 43.2555L135.908 45.0428L137.662 47.4373L130.296 51.7927L129.723 56.8769L132.485 61.8049L136.099 64.3556L139 67.479L138.149 72.2856L140.546 74.7495L140.338 76.6583L139.434 77.1441L135.804 77.1268L132.26 81.8292L129.584 82.5406L124.32 91.0258L124.164 93.5419L120.707 92.9345L116.52 93.1254L114.262 94.9474L109.745 93.9236L108.564 94.8953L109.224 95.4159L108.112 98.574L108.824 99.3895L109.988 98.4872L111.361 99.5457L113.167 99.6845L113.515 101.454L115.391 103.918L114.523 105.22L115.634 106.417L116.103 106.053L117.128 106.834L117.702 108.76L118.744 107.424L119.23 108.256L123.139 107.788L125.12 109.801L127.378 110.252L128.073 107.285L129.845 105.879L131.217 106.66L132.364 110.061L126.475 116.967L116.069 112.681L115.617 113.15L115.912 114.121L115.252 114.174L114.853 115.301L115.044 117.037L114.071 118.269L114.158 119.379L112.386 119.449L112.403 121.375L111.656 121.687L111.569 122.884L110.44 123.387L110.874 124.012L110.388 124.689L111.239 124.932L111.448 126.598L110.284 127.899L110.822 128.177L110.77 129.148L109.71 129.669L109.867 130.589L107.886 133.174L109.502 135.222L112.855 134.84L113.272 135.534L115.617 134.632L116.538 135.36L117.511 135.274L117.354 135.864L118.952 136.697L119.96 141.972L118.779 142.683L118.831 145.251L121.767 147.42L121.367 148.444L122.514 149.711L122.288 151.203L122.965 151.741L122.288 152.383L123.261 153.771L124.32 152.765L123.956 154.239L124.616 155.923L121.315 157.45L118.987 157.484L118.518 159.584L120.916 159.653L121.402 160.642L121.993 160.399L122.792 161.441L122.444 162.43L122.983 163.002L125.033 160.174L125.988 160.486L125.606 160.209L126.249 159.237L127.03 158.977L129.046 164.529L128.316 165.518L128.333 167.115L124.407 166.768L124.077 170.932L122.479 171.14L121.94 174.368L120.273 176.554L119.995 179.782L118.171 180.84L120.933 182.489L120.985 183.252L114.627 183.356L115.721 185.82L116.955 186.705L116.52 187.92L117.146 188.44V190.939L116.399 191.147L115.617 193.646L115.634 197.88L113.81 198.279L113.828 200.153L112.281 201.975L105.593 200.934L102.188 201.107L101.024 202.097L100.243 201.489L99.374 201.94L96.9592 198.938L94.9441 199.528L94.3187 201.038L93.2763 201.611L91.6259 198.054L83.1136 198.401L82.6793 199.563L77.7282 199.893L77.5371 200.622L73.9585 199.771V198.14L73.3157 198.123L72.7945 196.162L74.3928 192.084L73.2809 191.095L72.3255 191.338L71.318 190.54L71.3006 186.358L59.4353 185.543L58.0802 182.766L59.0184 181.205L58.9489 179.799L57.7329 179.105L58.393 176.572L50.8535 174.038L51.0099 172.945L47.6569 172.876L45.9024 171.939L45.3291 170.845L46.0935 170.134L46.2151 169.006L44.86 166.907L44.8948 164.529L42.7581 162.482L37.4769 163.106L35.01 161.805L35.1317 159.896L35.896 159.011L35.6528 157.12L39.1098 154.951L37.5464 153.511L36.4346 153.84L35.5312 147.68L32.5432 149.086L32.0394 148.01L30.3717 148.374L28.5302 146.9L28.895 145.997L27.3836 144.956L28.009 144.939L27.7485 143.499L28.7908 141.902L26.3066 138.97L25.4901 128.09L26.9493 127.604L27.0709 126.823L28.7039 126.441V124.776L28.0959 123.891L29.3293 123.422L28.895 122.173L26.9841 121.965L25.6116 120.524L26.8103 118.529L26.515 116.134L27.1404 115.267L28.6518 115.128L28.5649 113.965L26.2197 114.156L25.2643 112.525L23.2838 112.733L23.3533 104.508L22.2588 104.925L18.5759 104.387L17.9331 105.116L16.7171 105.046L15.1536 104.265L12.652 104.318L12.4088 103.519L10.4805 103.45L11.8529 100.882L13.2774 101.663L13.26 99.858L15.9701 98.9557L13.1906 93.2989L13.6943 92.7437L14.8236 85.4211L12.791 85.0567L12.3567 87.2083L9.16021 87.0522L4.83455 85.1608L3.93116 84.3279L4.4697 83.7726L3.89639 83.0438L6.3807 81.4648L4.74771 79.5214L3.68793 79.747L2.59347 77.4044L2.29817 76.5889L4.99084 75.3395L4.27863 74.4025L7.7009 73.1011L7.1103 71.47L3.35785 70.6545L3.02778 69.0581L4.15701 62.256L3.01049 60.972L3.04517 58.4559L1.13427 58.4733L1.48173 54.812L0.734741 54.1179L1.39489 51.6886L3.51425 51.8448L5.72055 50.179L5.96368 49.3808L3.49686 49.0164L4.36547 47.0556L7.28398 47.2985L6.64122 45.1642L6.95391 43.6372L8.67374 43.5158L8.84752 42.5094L10.0636 42.1276L9.26444 40.3751L12.8605 39.386L11.8182 38.9175L11.0017 36.037L10.2894 35.5165L11.2449 35.0132L11.0364 34.3018L9.68135 34.1456L8.76068 34.7356L7.42299 32.7054L8.81275 29.4953L10.0983 30.7793L12.2698 28.0551L13.3643 27.8816L13.3816 27.2048L10.7932 25.3655L11.436 23.1965L14.5109 23.1791L15.5706 22.1727L12.0961 17.3835L13.4859 15.3013L17.4294 13.6875L17.6205 15.5095L20.2263 13.7049L19.8094 12.6985L21.616 11.8309L21.6508 11.1368L22.9537 10.2865L21.1643 6.39965L20.678 1.03785L26.1155 1.74929L28.5997 0.326416L29.5725 0.638754L29.6768 1.67988Z"/>
</mask>
<path d="M29.6768 1.67988L31.0491 6.06995L30.8754 7.73577L34.6452 9.8527L35.6006 8.30836L37.7375 8.72482L37.6159 9.80064L38.3629 9.87007L38.9362 11.4838L41.1945 12.1952L44.5473 10.408L46.4756 10.8071L48.2476 12.3861L50.1759 10.7724L50.1065 8.39513H50.645L52.0695 10.1477L50.5756 11.8309L50.9403 14.3816L52.7123 15.093L54.0673 17.6438L55.4744 17.852L56.5689 19.3617L58.5146 19.3443L60.2171 20.6804L63.153 20.2293L64.2475 21.2357L63.5177 22.1554L63.9868 23.7517L63.5873 24.0988L65.0118 26.8404L66.0715 26.8925L70.4146 24.3591L72.9162 24.9143L75.3656 23.1097L76.8596 20.6631L79.6044 18.3726L82.245 22.7974L82.4883 25.8513L83.6869 28.298L85.7715 30.3455L91.1916 31.9072L95.1873 30.0159L97.6715 30.4149L100.764 32.0808L104.707 32.4798L104.099 34.7356L107.608 43.2381L112.942 44.8692L116.312 48.4091L121.35 48.1488L123.313 47.4373L125.206 44.8866L130.661 44.2272L131.704 44.7825L135.838 43.2555L135.908 45.0428L137.662 47.4373L130.296 51.7927L129.723 56.8769L132.485 61.8049L136.099 64.3556L139 67.479L138.149 72.2856L140.546 74.7495L140.338 76.6583L139.434 77.1441L135.804 77.1268L132.26 81.8292L129.584 82.5406L124.32 91.0258L124.164 93.5419L120.707 92.9345L116.52 93.1254L114.262 94.9474L109.745 93.9236L108.564 94.8953L109.224 95.4159L108.112 98.574L108.824 99.3895L109.988 98.4872L111.361 99.5457L113.167 99.6845L113.515 101.454L115.391 103.918L114.523 105.22L115.634 106.417L116.103 106.053L117.128 106.834L117.702 108.76L118.744 107.424L119.23 108.256L123.139 107.788L125.12 109.801L127.378 110.252L128.073 107.285L129.845 105.879L131.217 106.66L132.364 110.061L126.475 116.967L116.069 112.681L115.617 113.15L115.912 114.121L115.252 114.174L114.853 115.301L115.044 117.037L114.071 118.269L114.158 119.379L112.386 119.449L112.403 121.375L111.656 121.687L111.569 122.884L110.44 123.387L110.874 124.012L110.388 124.689L111.239 124.932L111.448 126.598L110.284 127.899L110.822 128.177L110.77 129.148L109.71 129.669L109.867 130.589L107.886 133.174L109.502 135.222L112.855 134.84L113.272 135.534L115.617 134.632L116.538 135.36L117.511 135.274L117.354 135.864L118.952 136.697L119.96 141.972L118.779 142.683L118.831 145.251L121.767 147.42L121.367 148.444L122.514 149.711L122.288 151.203L122.965 151.741L122.288 152.383L123.261 153.771L124.32 152.765L123.956 154.239L124.616 155.923L121.315 157.45L118.987 157.484L118.518 159.584L120.916 159.653L121.402 160.642L121.993 160.399L122.792 161.441L122.444 162.43L122.983 163.002L125.033 160.174L125.988 160.486L125.606 160.209L126.249 159.237L127.03 158.977L129.046 164.529L128.316 165.518L128.333 167.115L124.407 166.768L124.077 170.932L122.479 171.14L121.94 174.368L120.273 176.554L119.995 179.782L118.171 180.84L120.933 182.489L120.985 183.252L114.627 183.356L115.721 185.82L116.955 186.705L116.52 187.92L117.146 188.44V190.939L116.399 191.147L115.617 193.646L115.634 197.88L113.81 198.279L113.828 200.153L112.281 201.975L105.593 200.934L102.188 201.107L101.024 202.097L100.243 201.489L99.374 201.94L96.9592 198.938L94.9441 199.528L94.3187 201.038L93.2763 201.611L91.6259 198.054L83.1136 198.401L82.6793 199.563L77.7282 199.893L77.5371 200.622L73.9585 199.771V198.14L73.3157 198.123L72.7945 196.162L74.3928 192.084L73.2809 191.095L72.3255 191.338L71.318 190.54L71.3006 186.358L59.4353 185.543L58.0802 182.766L59.0184 181.205L58.9489 179.799L57.7329 179.105L58.393 176.572L50.8535 174.038L51.0099 172.945L47.6569 172.876L45.9024 171.939L45.3291 170.845L46.0935 170.134L46.2151 169.006L44.86 166.907L44.8948 164.529L42.7581 162.482L37.4769 163.106L35.01 161.805L35.1317 159.896L35.896 159.011L35.6528 157.12L39.1098 154.951L37.5464 153.511L36.4346 153.84L35.5312 147.68L32.5432 149.086L32.0394 148.01L30.3717 148.374L28.5302 146.9L28.895 145.997L27.3836 144.956L28.009 144.939L27.7485 143.499L28.7908 141.902L26.3066 138.97L25.4901 128.09L26.9493 127.604L27.0709 126.823L28.7039 126.441V124.776L28.0959 123.891L29.3293 123.422L28.895 122.173L26.9841 121.965L25.6116 120.524L26.8103 118.529L26.515 116.134L27.1404 115.267L28.6518 115.128L28.5649 113.965L26.2197 114.156L25.2643 112.525L23.2838 112.733L23.3533 104.508L22.2588 104.925L18.5759 104.387L17.9331 105.116L16.7171 105.046L15.1536 104.265L12.652 104.318L12.4088 103.519L10.4805 103.45L11.8529 100.882L13.2774 101.663L13.26 99.858L15.9701 98.9557L13.1906 93.2989L13.6943 92.7437L14.8236 85.4211L12.791 85.0567L12.3567 87.2083L9.16021 87.0522L4.83455 85.1608L3.93116 84.3279L4.4697 83.7726L3.89639 83.0438L6.3807 81.4648L4.74771 79.5214L3.68793 79.747L2.59347 77.4044L2.29817 76.5889L4.99084 75.3395L4.27863 74.4025L7.7009 73.1011L7.1103 71.47L3.35785 70.6545L3.02778 69.0581L4.15701 62.256L3.01049 60.972L3.04517 58.4559L1.13427 58.4733L1.48173 54.812L0.734741 54.1179L1.39489 51.6886L3.51425 51.8448L5.72055 50.179L5.96368 49.3808L3.49686 49.0164L4.36547 47.0556L7.28398 47.2985L6.64122 45.1642L6.95391 43.6372L8.67374 43.5158L8.84752 42.5094L10.0636 42.1276L9.26444 40.3751L12.8605 39.386L11.8182 38.9175L11.0017 36.037L10.2894 35.5165L11.2449 35.0132L11.0364 34.3018L9.68135 34.1456L8.76068 34.7356L7.42299 32.7054L8.81275 29.4953L10.0983 30.7793L12.2698 28.0551L13.3643 27.8816L13.3816 27.2048L10.7932 25.3655L11.436 23.1965L14.5109 23.1791L15.5706 22.1727L12.0961 17.3835L13.4859 15.3013L17.4294 13.6875L17.6205 15.5095L20.2263 13.7049L19.8094 12.6985L21.616 11.8309L21.6508 11.1368L22.9537 10.2865L21.1643 6.39965L20.678 1.03785L26.1155 1.74929L28.5997 0.326416L29.5725 0.638754L29.6768 1.67988Z" fill="#038405" stroke="#EAEAEA" stroke-width="2" mask="url(#path-1-inside-1_132_18)"/>
</svg>
