<svg width="235" height="153" viewBox="0 0 235 153" fill="none" xmlns="http://www.w3.org/2000/svg">
<mask id="path-1-inside-1_132_9" fill="white">
<path d="M55.6943 26.146L57.8658 28.1935L61.045 29.4949L63.0949 29.4602L64.0851 31.421L66.0134 32.8786L69.0535 33.243L69.4357 33.9544L69.1056 35.8978L69.6963 36.8695L71.1208 37.4595L72.3022 37.1298L73.7266 38.5874L75.5508 39.0906L76.7668 40.2879L78.8167 40.3226L79.39 40.7738L79.3031 42.1099L80.5539 40.0624L80.2586 38.2057L81.909 36.5746L81.023 35.9152L79.4942 36.5225L79.2858 33.3818L82.3433 33.1215L80.9883 32.3233L81.0751 31.4036L82.4301 31.2648L82.4649 30.3278L81.7352 30.2237L81.7874 28.8182L80.2065 27.673L79.7548 26.5798L80.4323 22.5541L82.7602 18.9449L81.2141 17.4526L82.7602 16.0644L83.403 14.468L86.4605 12.5419L85.644 8.9674L89.2053 11.5355L89.9001 10.9455L91.1683 11.9173L92.2802 11.0844L94.3648 12.4725L95.633 11.8131L95.1987 10.0953L95.8241 8.79387L96.8143 9.1062L96.7275 7.42307L97.874 7.50981L98.8816 6.36459L100.237 6.00018L100.949 6.88513L101.748 6.72897L102.651 5.47961L103.572 5.72254L105.535 4.47319L106.96 4.71612L106.994 2.06125L108.176 1.47129L109.774 2.18273L110.573 1.52334L110.295 0.863951L112.501 0.534284L112.762 1.10691L114.847 1.74893L114.308 2.58182L113.04 2.46037L112.866 3.10239L114.777 4.14352L115.889 3.43208L116.601 1.12425L117.869 0.20459L121.361 3.36266L121.379 4.33437L121.848 4.10881L123.289 3.50148L123.898 1.87038L125.426 3.01562L125.756 4.61201L126.243 3.44942L127.98 2.65124L129.144 4.03939L130.377 3.03296L132.115 3.17178L133.087 3.88323L132.184 4.17821L132.115 4.73349L134.217 6.22577L131.854 6.69426L131.923 7.666L134.165 8.20391L134.616 7.18014L135.832 7.37099L136.875 9.12357L138.855 9.69619L139.029 10.5985L138.438 11.2579L141.044 12.5246L140.922 13.2187L143.615 15.353L144.292 14.9539V16.0817L147.593 17.8864L148.809 19.2051L149.417 19.1184L149.226 20.038L150.408 19.6042L150.599 18.7713L150.946 19.5001L153.847 19.9686L155.706 18.9101L157.634 18.9275L157.773 20.4545L160.866 20.2463L162.412 22.0335L163.28 20.7148L164.062 20.6974L164.34 21.5997L165.556 21.2353L167.015 21.6171L167.467 23.5258L168.058 23.8902L169.239 21.9988L170.542 21.9121L171.046 21.1139L172.401 20.6801L172.731 19.6736L174.52 20.1074L175.979 17.522L178.759 20.1942L178.116 21.0271L182.077 24.8966L180.34 27.4474L181.903 28.7488L180.739 30.484L183.953 32.1151L183.345 34.475H186.785L188.887 36.5225L189.808 36.2622L190.468 36.7654L189.912 38.1363L187.758 38.3271L189.095 39.8541L188.001 42.0058L196.235 47.8187L194.463 51.2371L198.303 54.1002L195.54 58.0912L197.052 59.2017L198.667 57.1195L200.37 58.3688L200.422 58.9761L202.698 56.2519L201.968 55.7486L204.383 52.3129L205.912 51.7924L204.974 51.6188L205.582 50.7339L204.643 50.3868L204.887 49.9878L205.738 50.1266L207.962 47.5411L212.774 51.6709L213.59 51.723L214.355 52.9723L218.211 52.3476L218.072 51.7403L219.288 51.5321L219.253 50.9074L223.11 50.7339L223.51 53.354L225.438 52.9897L227.071 53.3714L227.349 55.8181L230.128 55.8354L230.823 57.4318L232.578 57.9697L232.873 59.9652L229.642 60.5378L229.885 63.0192L228.495 63.4009L228.773 66.9754L229.434 67.0275L229.694 69.3353L228.843 69.0924L228.009 69.613L228.582 70.0121L227.87 70.3244L228.235 73.3089L227.436 73.9683L227.193 75.4606L227.714 78.5146L230.754 78.1675L230.928 79.0872L233.151 78.7922L234.68 89.0126L233.151 88.9779L232.821 89.5679L232.109 89.2208L231.675 90.4702L230.893 89.9149L232.231 99.0074L231.067 101.35L230.042 101.333L229.746 103.068L227.262 102.391L226.828 101.35L225.091 101.853L224.326 100.881L223.527 101.402L223.162 99.8056L221.772 98.5042L221.408 99.0595L219.323 98.1051L218.524 98.296L217.985 97.2722L217.134 97.9142H217.759L216.144 98.7818L214.963 98.0183L215.067 98.5216L213.66 98.9554L213.972 101.402L213.225 102.443L214.233 104.196L213.017 104.959L214.389 106.035L213.538 106.278L214.007 109.592L216.543 109.297L217.238 112.889L214.355 112.854V113.653L211.505 114.208L211.922 116.585L213.555 116.481L213.972 119.188L210.394 120.09L210.272 120.819L206.641 121.27L201.864 120.784L201.69 120.038L198.841 119.813L198.893 121.513L195.87 121.947L195.193 120.611L191.128 120.593L190.502 120.038L190.954 118.234L188.626 119.24L183.971 119.257L183.762 117.678H186.385L187.132 114.364L186.003 112.577L186.629 112.039L185.986 111.067L184.561 112.004L183.901 108.95L182.633 109.384L182.546 108.933L183.762 108.291L183.31 105.879L182.025 105.549L181.608 104.456L183.467 103.745L182.72 100.708L178.203 101.749L178.88 100.691L178.464 100.309L177.995 100.673L177.925 99.5627L178.724 99.0595L178.655 98.3827L177.63 97.654L168.753 99.9271L168.266 97.1681L164.514 97.4631L162.255 93.6803L151.554 99.1636L151.328 97.5672L140.644 95.0685L137.986 93.1771L135.363 94.0447L133.782 93.2812L130.899 94.4438L126.781 94.3223L124.297 95.242L122.942 97.2722L120.249 97.9663L119.937 97.3937L115.854 97.9142L115.872 94.4091L113.839 94.6867L113.717 94.1835L112.415 94.2356L113.578 101.055L111.494 101.506L111.893 104.595L112.553 104.647L113.075 107.371L115.229 107.215L115.854 111.605L113.77 112.091L113.405 111.102L111.945 111.657L112.084 112.768L109.166 113.167L110.052 117.591L112.606 116.412L113.196 118.771L114.829 118.702L115.055 120.576L113.717 121.548L114.482 126.719L118.234 126.059L118.599 128.35L118.095 128.541L118.217 130.848L116.758 131.022L117.192 133.937L115.264 134.492L115.837 137.633L116.758 137.581L117.47 140.479L117.001 141.294L116.636 140.809L116.723 141.711L116.063 141.989L117.505 142.683L116.827 143.516L118.199 143.29L118.651 144.956L118.165 146.431L115.906 147.507L113.144 147.628L104.944 145.719L100.914 144.14L97.1965 143.863L88.1629 146.865L80.6582 147.663L75.1686 150.092L70.1827 151.324L61.8615 152.99L60.2459 151.636L57.8658 148.01L40.9627 150.717L40.4589 148.235L37.8184 149.12L37.8531 144.505L38.7391 144.192L38.9475 143.064L38.0268 142.856L37.1235 140.687L31.1822 141.884L31.7207 145.598L22.3918 147.368L22.5135 148.444L23.7643 150.005L21.558 150.942L21.4537 149.224L19.7686 148.27L19.925 145.806L19.4907 145.476L17.4234 146.76L15.7904 146.639L15.9989 145.372L17.0586 144.279L16.8501 142.769L13.0977 143.637L8.5636 142.561L8.65044 140.895L0.867676 141.312L2.95236 139.178L1.54522 130.154L7.34752 128.662L7.10434 126.701L6.4963 126.597L6.13145 124.931L7.12167 124.48L6.56575 120.576L7.93817 120.177L7.26068 116.255L8.14663 115.891L7.83394 112.924L4.20316 113.618L3.43878 113.236L2.72651 111.727L3.54301 111.397L2.77863 107.961L3.38666 106.851L4.37689 107.232L4.49851 105.115L5.29762 104.456L5.59291 102.686L9.60588 102.218L9.39743 99.9965L9.76228 100.396L11.6558 100.135L12.177 102.079L11.5342 99.0421L16.4679 97.6886L16.329 96.6302L17.0586 96.5261L16.9717 95.9014L14.0705 96.6475L13.8621 95.4502L16.5548 94.7908L15.7383 90.7825L17.4755 90.661L17.6145 92.5351L19.178 92.3962L19.4212 96.7169L20.2724 96.9078L21.0194 95.3635L21.7838 95.3808L20.3767 92.7433L21.6796 92.5871L21.7491 91.9451L28.5242 90.8866L28.4026 89.3943L31.3906 88.8391L31.4254 88.3012L32.4504 87.9021L32.6588 85.6637L35.2646 84.9175L34.396 81.6033L33.3711 81.4471L33.4926 76.9008L31.0953 77.0223L31.0779 75.3045L30.2093 74.7839L30.8521 73.6386L30.7131 71.782L32.433 71.2961L30.9563 57.8656L31.5991 57.588L31.547 56.8245L33.1626 56.7724L33.1105 55.8354L37.4709 55.2628L37.801 56.5642L39.7466 55.9569L39.1039 53.1979L41.3796 53.1458L41.9008 54.2911L46.7824 51.5494L47.9637 50.7339L47.6162 48.1311L50.2395 47.6279L50.5 45.268L47.2862 45.8059L47.0777 44.7474L46.1049 44.8689L43.3253 42.1619L41.4144 42.3355L39.5382 41.6587L38.9128 39.5765L38.0094 39.9409L37.6099 39.3683L37.4362 35.5855L38.6001 35.3599L39.5382 36.2622L41.7444 35.9325L43.2906 33.8156L43.8117 34.4403L45.3926 34.3709L45.7922 36.1234L46.3828 36.2449L47.9984 35.4814L48.6065 36.0019L49.9094 35.7764L49.8399 35.2558L50.7954 35.0302L51.1776 37.5636L53.1232 37.7892L53.1059 35.1517L53.9919 31.8201L54.6172 31.5078L55.6943 26.146Z"/>
</mask>
<path d="M55.6943 26.146L57.8658 28.1935L61.045 29.4949L63.0949 29.4602L64.0851 31.421L66.0134 32.8786L69.0535 33.243L69.4357 33.9544L69.1056 35.8978L69.6963 36.8695L71.1208 37.4595L72.3022 37.1298L73.7266 38.5874L75.5508 39.0906L76.7668 40.2879L78.8167 40.3226L79.39 40.7738L79.3031 42.1099L80.5539 40.0624L80.2586 38.2057L81.909 36.5746L81.023 35.9152L79.4942 36.5225L79.2858 33.3818L82.3433 33.1215L80.9883 32.3233L81.0751 31.4036L82.4301 31.2648L82.4649 30.3278L81.7352 30.2237L81.7874 28.8182L80.2065 27.673L79.7548 26.5798L80.4323 22.5541L82.7602 18.9449L81.2141 17.4526L82.7602 16.0644L83.403 14.468L86.4605 12.5419L85.644 8.9674L89.2053 11.5355L89.9001 10.9455L91.1683 11.9173L92.2802 11.0844L94.3648 12.4725L95.633 11.8131L95.1987 10.0953L95.8241 8.79387L96.8143 9.1062L96.7275 7.42307L97.874 7.50981L98.8816 6.36459L100.237 6.00018L100.949 6.88513L101.748 6.72897L102.651 5.47961L103.572 5.72254L105.535 4.47319L106.96 4.71612L106.994 2.06125L108.176 1.47129L109.774 2.18273L110.573 1.52334L110.295 0.863951L112.501 0.534284L112.762 1.10691L114.847 1.74893L114.308 2.58182L113.04 2.46037L112.866 3.10239L114.777 4.14352L115.889 3.43208L116.601 1.12425L117.869 0.20459L121.361 3.36266L121.379 4.33437L121.848 4.10881L123.289 3.50148L123.898 1.87038L125.426 3.01562L125.756 4.61201L126.243 3.44942L127.98 2.65124L129.144 4.03939L130.377 3.03296L132.115 3.17178L133.087 3.88323L132.184 4.17821L132.115 4.73349L134.217 6.22577L131.854 6.69426L131.923 7.666L134.165 8.20391L134.616 7.18014L135.832 7.37099L136.875 9.12357L138.855 9.69619L139.029 10.5985L138.438 11.2579L141.044 12.5246L140.922 13.2187L143.615 15.353L144.292 14.9539V16.0817L147.593 17.8864L148.809 19.2051L149.417 19.1184L149.226 20.038L150.408 19.6042L150.599 18.7713L150.946 19.5001L153.847 19.9686L155.706 18.9101L157.634 18.9275L157.773 20.4545L160.866 20.2463L162.412 22.0335L163.28 20.7148L164.062 20.6974L164.34 21.5997L165.556 21.2353L167.015 21.6171L167.467 23.5258L168.058 23.8902L169.239 21.9988L170.542 21.9121L171.046 21.1139L172.401 20.6801L172.731 19.6736L174.52 20.1074L175.979 17.522L178.759 20.1942L178.116 21.0271L182.077 24.8966L180.34 27.4474L181.903 28.7488L180.739 30.484L183.953 32.1151L183.345 34.475H186.785L188.887 36.5225L189.808 36.2622L190.468 36.7654L189.912 38.1363L187.758 38.3271L189.095 39.8541L188.001 42.0058L196.235 47.8187L194.463 51.2371L198.303 54.1002L195.54 58.0912L197.052 59.2017L198.667 57.1195L200.37 58.3688L200.422 58.9761L202.698 56.2519L201.968 55.7486L204.383 52.3129L205.912 51.7924L204.974 51.6188L205.582 50.7339L204.643 50.3868L204.887 49.9878L205.738 50.1266L207.962 47.5411L212.774 51.6709L213.59 51.723L214.355 52.9723L218.211 52.3476L218.072 51.7403L219.288 51.5321L219.253 50.9074L223.11 50.7339L223.51 53.354L225.438 52.9897L227.071 53.3714L227.349 55.8181L230.128 55.8354L230.823 57.4318L232.578 57.9697L232.873 59.9652L229.642 60.5378L229.885 63.0192L228.495 63.4009L228.773 66.9754L229.434 67.0275L229.694 69.3353L228.843 69.0924L228.009 69.613L228.582 70.0121L227.87 70.3244L228.235 73.3089L227.436 73.9683L227.193 75.4606L227.714 78.5146L230.754 78.1675L230.928 79.0872L233.151 78.7922L234.68 89.0126L233.151 88.9779L232.821 89.5679L232.109 89.2208L231.675 90.4702L230.893 89.9149L232.231 99.0074L231.067 101.35L230.042 101.333L229.746 103.068L227.262 102.391L226.828 101.35L225.091 101.853L224.326 100.881L223.527 101.402L223.162 99.8056L221.772 98.5042L221.408 99.0595L219.323 98.1051L218.524 98.296L217.985 97.2722L217.134 97.9142H217.759L216.144 98.7818L214.963 98.0183L215.067 98.5216L213.66 98.9554L213.972 101.402L213.225 102.443L214.233 104.196L213.017 104.959L214.389 106.035L213.538 106.278L214.007 109.592L216.543 109.297L217.238 112.889L214.355 112.854V113.653L211.505 114.208L211.922 116.585L213.555 116.481L213.972 119.188L210.394 120.09L210.272 120.819L206.641 121.27L201.864 120.784L201.69 120.038L198.841 119.813L198.893 121.513L195.87 121.947L195.193 120.611L191.128 120.593L190.502 120.038L190.954 118.234L188.626 119.24L183.971 119.257L183.762 117.678H186.385L187.132 114.364L186.003 112.577L186.629 112.039L185.986 111.067L184.561 112.004L183.901 108.95L182.633 109.384L182.546 108.933L183.762 108.291L183.31 105.879L182.025 105.549L181.608 104.456L183.467 103.745L182.72 100.708L178.203 101.749L178.88 100.691L178.464 100.309L177.995 100.673L177.925 99.5627L178.724 99.0595L178.655 98.3827L177.63 97.654L168.753 99.9271L168.266 97.1681L164.514 97.4631L162.255 93.6803L151.554 99.1636L151.328 97.5672L140.644 95.0685L137.986 93.1771L135.363 94.0447L133.782 93.2812L130.899 94.4438L126.781 94.3223L124.297 95.242L122.942 97.2722L120.249 97.9663L119.937 97.3937L115.854 97.9142L115.872 94.4091L113.839 94.6867L113.717 94.1835L112.415 94.2356L113.578 101.055L111.494 101.506L111.893 104.595L112.553 104.647L113.075 107.371L115.229 107.215L115.854 111.605L113.77 112.091L113.405 111.102L111.945 111.657L112.084 112.768L109.166 113.167L110.052 117.591L112.606 116.412L113.196 118.771L114.829 118.702L115.055 120.576L113.717 121.548L114.482 126.719L118.234 126.059L118.599 128.35L118.095 128.541L118.217 130.848L116.758 131.022L117.192 133.937L115.264 134.492L115.837 137.633L116.758 137.581L117.47 140.479L117.001 141.294L116.636 140.809L116.723 141.711L116.063 141.989L117.505 142.683L116.827 143.516L118.199 143.29L118.651 144.956L118.165 146.431L115.906 147.507L113.144 147.628L104.944 145.719L100.914 144.14L97.1965 143.863L88.1629 146.865L80.6582 147.663L75.1686 150.092L70.1827 151.324L61.8615 152.99L60.2459 151.636L57.8658 148.01L40.9627 150.717L40.4589 148.235L37.8184 149.12L37.8531 144.505L38.7391 144.192L38.9475 143.064L38.0268 142.856L37.1235 140.687L31.1822 141.884L31.7207 145.598L22.3918 147.368L22.5135 148.444L23.7643 150.005L21.558 150.942L21.4537 149.224L19.7686 148.27L19.925 145.806L19.4907 145.476L17.4234 146.76L15.7904 146.639L15.9989 145.372L17.0586 144.279L16.8501 142.769L13.0977 143.637L8.5636 142.561L8.65044 140.895L0.867676 141.312L2.95236 139.178L1.54522 130.154L7.34752 128.662L7.10434 126.701L6.4963 126.597L6.13145 124.931L7.12167 124.48L6.56575 120.576L7.93817 120.177L7.26068 116.255L8.14663 115.891L7.83394 112.924L4.20316 113.618L3.43878 113.236L2.72651 111.727L3.54301 111.397L2.77863 107.961L3.38666 106.851L4.37689 107.232L4.49851 105.115L5.29762 104.456L5.59291 102.686L9.60588 102.218L9.39743 99.9965L9.76228 100.396L11.6558 100.135L12.177 102.079L11.5342 99.0421L16.4679 97.6886L16.329 96.6302L17.0586 96.5261L16.9717 95.9014L14.0705 96.6475L13.8621 95.4502L16.5548 94.7908L15.7383 90.7825L17.4755 90.661L17.6145 92.5351L19.178 92.3962L19.4212 96.7169L20.2724 96.9078L21.0194 95.3635L21.7838 95.3808L20.3767 92.7433L21.6796 92.5871L21.7491 91.9451L28.5242 90.8866L28.4026 89.3943L31.3906 88.8391L31.4254 88.3012L32.4504 87.9021L32.6588 85.6637L35.2646 84.9175L34.396 81.6033L33.3711 81.4471L33.4926 76.9008L31.0953 77.0223L31.0779 75.3045L30.2093 74.7839L30.8521 73.6386L30.7131 71.782L32.433 71.2961L30.9563 57.8656L31.5991 57.588L31.547 56.8245L33.1626 56.7724L33.1105 55.8354L37.4709 55.2628L37.801 56.5642L39.7466 55.9569L39.1039 53.1979L41.3796 53.1458L41.9008 54.2911L46.7824 51.5494L47.9637 50.7339L47.6162 48.1311L50.2395 47.6279L50.5 45.268L47.2862 45.8059L47.0777 44.7474L46.1049 44.8689L43.3253 42.1619L41.4144 42.3355L39.5382 41.6587L38.9128 39.5765L38.0094 39.9409L37.6099 39.3683L37.4362 35.5855L38.6001 35.3599L39.5382 36.2622L41.7444 35.9325L43.2906 33.8156L43.8117 34.4403L45.3926 34.3709L45.7922 36.1234L46.3828 36.2449L47.9984 35.4814L48.6065 36.0019L49.9094 35.7764L49.8399 35.2558L50.7954 35.0302L51.1776 37.5636L53.1232 37.7892L53.1059 35.1517L53.9919 31.8201L54.6172 31.5078L55.6943 26.146Z" fill="#038405" stroke="#EAEAEA" stroke-width="2" mask="url(#path-1-inside-1_132_9)"/>
</svg>
