<svg width="183" height="259" viewBox="0 0 183 259" fill="none" xmlns="http://www.w3.org/2000/svg">
<mask id="path-1-inside-1_132_21" fill="white">
<path d="M92.9083 2.50288L93.69 3.33578L96.6954 2.13848L99.197 4.61984L101.646 0.455322L104.165 1.80881L105.104 0.628854L106.267 2.58965L106.024 4.6719L107.553 4.72395L108.925 7.25737L111.948 8.03821L112.991 7.03178L116.135 7.08384L119.922 8.33319L121.312 7.76057L123.553 8.12497L124.161 10.7798L126.645 11.1095V11.9598L125.116 12.3415L124.335 11.6821L124.143 12.2201L124.786 12.5844L122.719 12.5324L122.424 13.5388L120.53 13.2265L119.47 14.8055L118.115 15.0832L119.679 16.0549L120.947 18.8312L119.175 19.7509L120.478 22.7181L120.252 23.9154L122.406 25.1821L123.831 27.1429L123.362 27.6808L125.168 37.2591L130.589 36.5303L130.936 38.2829L131.405 38.3349L131.44 39.3414L130.206 39.5149L130.728 41.7186L128.678 42.4127L130.554 52.7025L133.16 52.234L133.611 54.2468L141.689 52.7546L142.072 53.6048L144.747 52.8587L144.486 55.7218H145.424L148.048 55.0103L147.405 52.4596L152.113 51.5399L152.356 52.6851L151.244 53.8824L151.539 57.214L149.542 57.6478L149.698 58.446L149.889 59.2963L151.175 60.3374L154.302 60.2507L154.597 61.1703L156.942 60.7886L157.568 63.8078L155.778 64.2069L156.525 69.1523L155.535 69.3605L155.622 71.2692L157.776 70.9222L158.262 72.9003L157.081 73.178L157.533 75.989L157.793 76.7351L158.61 76.6657L159.096 77.8283L156.942 78.9215L157.29 80.275L158.228 80.1015L159.096 83.7627L164.343 82.7043L163.804 84.561L164.986 84.4048L165.68 87.0076L174.662 84.6997L174.905 88.3784L173.15 88.7949L173.793 91.9703L171.848 92.3L171.552 91.2068L170.996 91.3109L171.048 94.1913L176.104 94.1567L176.399 92.7858L178.814 92.3L179.196 93.0461L180.325 92.8553L182.288 100.455L181.819 100.681L182.358 103.457L181.732 103.666L181.645 105.54L180.099 105.227L178.032 105.696L178.883 108.333L172.872 109.34L172.421 108.507L169.745 108.975L169.693 109.826L165.559 110.936L166.862 116.159L167.991 116.246L169.78 117.582L170.979 120.914L172.108 120.809L173.706 121.903L173.463 124.748L174.905 127.386L173.237 129.833L175.357 132.626L174.905 135.819L176.156 136.652L174.975 137.329L175.739 137.745L175.044 139.463L165.524 141.823L155.031 145.849L152.495 145.328L149.941 146.473L148.604 149.492L149.09 150.863L149.976 151.436L150.289 151.019L151.175 155.115L149.872 160.841L147.996 162.16L145.807 165.196L141.898 173.3L138.337 179.425L135.679 182.427L133.959 185.967L127.844 192.352L118.515 204.169L88.6869 228.167L84.1527 233.39L83.4926 235.906L82.6066 235.663L82.485 236.236L84.8997 238.595L85.6988 237.919L85.2472 237.207L85.7857 236.392L86.7238 237.259L86.7064 238.353L87.2102 237.45L89.5902 237.086L91.0842 237.901L91.5359 237.311L91.8833 237.676L91.1016 238.995L91.7096 240.782L90.8063 242.934L91.7096 249.024L90.2156 254.108L90.5283 257.249L89.069 257.405L88.8779 258.602L87.106 258.967L86.5848 258.464L85.5946 255.375L86.6543 253.761L86.1158 250.499L85.3166 248.278L82.0159 244.165L79.0974 242.17L74.9454 241.025L71.9574 239.324L67.5623 239.845L66.0856 238.873L63.862 240.66L60.9435 240.175L59.7969 241.268L57.886 241.84L57.3822 242.951L55.8013 243.905L51.8231 245.155L46.1945 248.521L44.8568 248.694L43.8492 250.273L44.1098 252.026L43.3975 252.963L41.8341 252.39L39.402 249.892L37.7169 249.822L36.2576 248.33L34.9373 248.382L33.9645 249.354L35.3542 250.378L35.0936 251.332L32.2272 252.755L32.9221 254.23L34.5551 255.271L34.6072 256.086L30.2816 257.544L25.6606 255.982L21.1438 255.548L8.3926 249.406L4.7097 243.159L4.55333 239.099L0.609863 237.468L2.52079 234.136L6.1516 230.787L10.8768 232.592L13.1873 232.141L12.8746 233.268L13.5 235.75L18.2947 234.57L16.9571 228.687L20.2752 227.907L18.5901 220.758L16.4533 220.723L18.4164 216.524L19.9972 214.91L22.9331 215.309L23.2111 214.303L22.5857 211.891L24.8614 212.411L29.8473 211.092L29.3087 208.091L34.2771 206.668L32.6789 198.946L33.0611 197.922L32.6963 196.222L34.0166 195.927L33.6865 195.094L45.7254 192.387L47.2542 188.621L43.9882 184.509L50.6765 176.18L44.0924 170.731L46.6462 164.641L42.859 153.935L48.4529 153.518L48.3313 152.13L46.3508 152.165L46.2466 151.349L48.7308 151.072L49.2172 149.892L50.746 149.319L56.4093 149.076L56.5135 146.629L60.735 145.38L60.9608 150.343L61.5341 150.377L61.8989 151.609L59.8316 153.449L61.2909 157.422L59.0325 160.147L60.9956 160.823L62.5765 159.331L62.4896 158.394L64.3831 157.405L64.9043 158.116L65.9467 157.648L64.9043 155.184L65.7208 154.577L65.1823 153.293L66.7805 152.529L66.5199 150.655L67.4059 150.03L70.2897 156.676L69.7685 154.837L73.5383 150.759L76.5611 153.796L75.2234 155.462L76.6132 156.78L80.0008 157.388L80.9388 162.107L82.207 161.882L82.5023 162.663L86.6022 162.073L85.8726 155.861L86.6891 155.392L87.3666 156.624L90.1287 155.999L90.6325 155.132L89.6771 153.223L90.5109 152.772L92.5956 154.178L93.4468 157.631L95.3752 159.106L94.5413 160.095L99.058 162.836L98.9712 161.118L102.029 158.689L104.895 160.268L105.642 159.626L107.049 160.147L109.308 158.863L111.184 160.407L115.232 157.717L114.954 156.312L113.633 157.891L113.112 156.642L112.487 156.173L111.966 156.468L111.41 155.41L111.497 156.589L110.611 155.826L110.35 156.78L109.134 156.468L109.568 155.184L107.171 155.219L107.275 154.282L105.451 153.692L107.119 152.911L105.677 152.737L105.19 152.078L105.833 150.655L104.999 150.794L105.034 149.492L104.739 150.36L104.096 150.082L103.505 151.002H102.967L103.401 149.406L102.116 150.725L102.324 150.013L101.438 150.03L101.421 149.163L100.257 149.024L100.604 148.365L99.6313 147.861L99.9614 147.41L99.197 146.265L98.45 146.3L102.793 145.224L102.011 144.391L101.977 143.246L103.436 141.701L102.741 137.78L104.27 134.084L104.235 128.739L102.011 124.158L103.505 123.135L104.443 123.221L103.87 121.851L102.637 121.157L100.205 122.909L98.9712 120.341L99.4228 119.994L98.9364 117.322L96.8691 117.669L96.5217 118.398L91.2406 119.473L89.3817 113.487L88.8085 114.077L85.1429 114.268L84.587 111.457L80.713 112.55L79.8097 111.127L82.1028 110.693L82.4329 104.273L83.8921 103.648L83.0235 99.0152L79.1669 99.3449L79.2537 100.924L78.2635 101.184L77.3776 97.8179L76.2831 98.0609L76.1789 96.9677L81.1994 95.7183L79.4796 85.9317L82.2418 85.2203L80.713 75.4684L76.7174 76.1452L75.6403 76.8392L75.6577 78.1233L76.231 78.4183L75.4145 78.9215L75.4319 80.9864L72.2875 82.444L71.9227 81.0732L70.4287 81.4723L69.5774 77.6548L70.3939 77.0128L69.9249 74.6182L66.85 75.4684L65.6861 68.8226L63.0455 69.9852L61.5515 71.6336L61.2562 67.7294L58.216 70.8528L57.6254 68.6491L58.5461 67.5732L58.3029 67.0874L56.7394 68.3367L56.3572 67.8856L58.0771 66.428L58.1465 63.0964L57.8512 62.6799L55.9403 63.5475L53.7514 59.5219L57.8165 58.0122L57.9207 56.9884L59.7795 54.5939L59.38 53.223L60.6829 52.0084L59.1541 52.0778L59.988 50.4641L59.9533 48.5206L60.5786 48.3471L59.1368 45.137L59.6753 43.5579L61.6383 42.3433L63.1323 37.9532L61.621 37.3112L60.0401 38.5605L58.8241 36.8253L58.8414 35.8883L60.2138 33.4764L63.0455 31.3421L63.3582 30.3356L59.7969 30.6827L59.8316 29.8498L59.519 30.8389H58.9457L57.3648 21.434L54.5505 21.3473L54.7763 22.3537L52.5006 22.3884L52.0315 22.8395L52.7264 23.2039L52.8654 24.2624L51.7015 23.4468L52.1184 25.3209L50.8676 25.8067L48.6613 25.5465L45.0132 22.5446L42.4942 24.3145L39.9231 20.792L39.9405 19.6294L37.5431 17.738L38.2554 15.4649L38.0817 14.4585L37.2304 14.2676L38.099 13.6082L39.2977 14.632L39.4541 13.5562L42.8243 12.4456L43.884 7.03178L46.1771 8.03821L46.7851 7.46558L47.7753 7.6738L48.505 10.5195L49.391 9.94692L48.9914 9.00992L50.0685 7.56969L49.8079 5.55684L50.6765 4.68924L50.4507 3.99516L51.1108 3.75224L54.8458 7.27471L55.5928 7.04912L56.2182 7.6044L55.367 8.41995L57.6775 8.28113L58.9457 8.94052L59.5537 8.21171L60.9435 8.35053L61.7947 7.76057L62.3332 9.28756L61.2388 9.46106L60.9782 10.0857L58.9978 10.294L59.9011 11.6474L62.2464 10.9013L62.6807 12.3936L63.6188 12.8968L65.4429 13.1224L67.6491 12.3068L67.8229 12.9141L68.6915 12.4109L68.9347 12.7927L69.8033 12.3589L69.5774 11.6474L70.2202 10.6757L74.598 9.89487L75.1887 11.2136L76.5437 11.7516L80.5914 12.1333L80.8172 11.6474L81.7206 11.6995L81.3558 10.8319L82.1723 10.4328L82.4676 9.13137L84.6912 9.86018L84.587 10.9187L86.1505 11.231L86.3937 10.641L85.6988 10.2246L86.4806 9.98163L86.8801 6.25094L85.6988 3.71752L87.2623 4.2728L89.5902 2.93669L92.5261 2.9714L92.9083 2.50288Z"/>
</mask>
<path d="M92.9083 2.50288L93.69 3.33578L96.6954 2.13848L99.197 4.61984L101.646 0.455322L104.165 1.80881L105.104 0.628854L106.267 2.58965L106.024 4.6719L107.553 4.72395L108.925 7.25737L111.948 8.03821L112.991 7.03178L116.135 7.08384L119.922 8.33319L121.312 7.76057L123.553 8.12497L124.161 10.7798L126.645 11.1095V11.9598L125.116 12.3415L124.335 11.6821L124.143 12.2201L124.786 12.5844L122.719 12.5324L122.424 13.5388L120.53 13.2265L119.47 14.8055L118.115 15.0832L119.679 16.0549L120.947 18.8312L119.175 19.7509L120.478 22.7181L120.252 23.9154L122.406 25.1821L123.831 27.1429L123.362 27.6808L125.168 37.2591L130.589 36.5303L130.936 38.2829L131.405 38.3349L131.44 39.3414L130.206 39.5149L130.728 41.7186L128.678 42.4127L130.554 52.7025L133.16 52.234L133.611 54.2468L141.689 52.7546L142.072 53.6048L144.747 52.8587L144.486 55.7218H145.424L148.048 55.0103L147.405 52.4596L152.113 51.5399L152.356 52.6851L151.244 53.8824L151.539 57.214L149.542 57.6478L149.698 58.446L149.889 59.2963L151.175 60.3374L154.302 60.2507L154.597 61.1703L156.942 60.7886L157.568 63.8078L155.778 64.2069L156.525 69.1523L155.535 69.3605L155.622 71.2692L157.776 70.9222L158.262 72.9003L157.081 73.178L157.533 75.989L157.793 76.7351L158.61 76.6657L159.096 77.8283L156.942 78.9215L157.29 80.275L158.228 80.1015L159.096 83.7627L164.343 82.7043L163.804 84.561L164.986 84.4048L165.68 87.0076L174.662 84.6997L174.905 88.3784L173.15 88.7949L173.793 91.9703L171.848 92.3L171.552 91.2068L170.996 91.3109L171.048 94.1913L176.104 94.1567L176.399 92.7858L178.814 92.3L179.196 93.0461L180.325 92.8553L182.288 100.455L181.819 100.681L182.358 103.457L181.732 103.666L181.645 105.54L180.099 105.227L178.032 105.696L178.883 108.333L172.872 109.34L172.421 108.507L169.745 108.975L169.693 109.826L165.559 110.936L166.862 116.159L167.991 116.246L169.78 117.582L170.979 120.914L172.108 120.809L173.706 121.903L173.463 124.748L174.905 127.386L173.237 129.833L175.357 132.626L174.905 135.819L176.156 136.652L174.975 137.329L175.739 137.745L175.044 139.463L165.524 141.823L155.031 145.849L152.495 145.328L149.941 146.473L148.604 149.492L149.09 150.863L149.976 151.436L150.289 151.019L151.175 155.115L149.872 160.841L147.996 162.16L145.807 165.196L141.898 173.3L138.337 179.425L135.679 182.427L133.959 185.967L127.844 192.352L118.515 204.169L88.6869 228.167L84.1527 233.39L83.4926 235.906L82.6066 235.663L82.485 236.236L84.8997 238.595L85.6988 237.919L85.2472 237.207L85.7857 236.392L86.7238 237.259L86.7064 238.353L87.2102 237.45L89.5902 237.086L91.0842 237.901L91.5359 237.311L91.8833 237.676L91.1016 238.995L91.7096 240.782L90.8063 242.934L91.7096 249.024L90.2156 254.108L90.5283 257.249L89.069 257.405L88.8779 258.602L87.106 258.967L86.5848 258.464L85.5946 255.375L86.6543 253.761L86.1158 250.499L85.3166 248.278L82.0159 244.165L79.0974 242.17L74.9454 241.025L71.9574 239.324L67.5623 239.845L66.0856 238.873L63.862 240.66L60.9435 240.175L59.7969 241.268L57.886 241.84L57.3822 242.951L55.8013 243.905L51.8231 245.155L46.1945 248.521L44.8568 248.694L43.8492 250.273L44.1098 252.026L43.3975 252.963L41.8341 252.39L39.402 249.892L37.7169 249.822L36.2576 248.33L34.9373 248.382L33.9645 249.354L35.3542 250.378L35.0936 251.332L32.2272 252.755L32.9221 254.23L34.5551 255.271L34.6072 256.086L30.2816 257.544L25.6606 255.982L21.1438 255.548L8.3926 249.406L4.7097 243.159L4.55333 239.099L0.609863 237.468L2.52079 234.136L6.1516 230.787L10.8768 232.592L13.1873 232.141L12.8746 233.268L13.5 235.75L18.2947 234.57L16.9571 228.687L20.2752 227.907L18.5901 220.758L16.4533 220.723L18.4164 216.524L19.9972 214.91L22.9331 215.309L23.2111 214.303L22.5857 211.891L24.8614 212.411L29.8473 211.092L29.3087 208.091L34.2771 206.668L32.6789 198.946L33.0611 197.922L32.6963 196.222L34.0166 195.927L33.6865 195.094L45.7254 192.387L47.2542 188.621L43.9882 184.509L50.6765 176.18L44.0924 170.731L46.6462 164.641L42.859 153.935L48.4529 153.518L48.3313 152.13L46.3508 152.165L46.2466 151.349L48.7308 151.072L49.2172 149.892L50.746 149.319L56.4093 149.076L56.5135 146.629L60.735 145.38L60.9608 150.343L61.5341 150.377L61.8989 151.609L59.8316 153.449L61.2909 157.422L59.0325 160.147L60.9956 160.823L62.5765 159.331L62.4896 158.394L64.3831 157.405L64.9043 158.116L65.9467 157.648L64.9043 155.184L65.7208 154.577L65.1823 153.293L66.7805 152.529L66.5199 150.655L67.4059 150.03L70.2897 156.676L69.7685 154.837L73.5383 150.759L76.5611 153.796L75.2234 155.462L76.6132 156.78L80.0008 157.388L80.9388 162.107L82.207 161.882L82.5023 162.663L86.6022 162.073L85.8726 155.861L86.6891 155.392L87.3666 156.624L90.1287 155.999L90.6325 155.132L89.6771 153.223L90.5109 152.772L92.5956 154.178L93.4468 157.631L95.3752 159.106L94.5413 160.095L99.058 162.836L98.9712 161.118L102.029 158.689L104.895 160.268L105.642 159.626L107.049 160.147L109.308 158.863L111.184 160.407L115.232 157.717L114.954 156.312L113.633 157.891L113.112 156.642L112.487 156.173L111.966 156.468L111.41 155.41L111.497 156.589L110.611 155.826L110.35 156.78L109.134 156.468L109.568 155.184L107.171 155.219L107.275 154.282L105.451 153.692L107.119 152.911L105.677 152.737L105.19 152.078L105.833 150.655L104.999 150.794L105.034 149.492L104.739 150.36L104.096 150.082L103.505 151.002H102.967L103.401 149.406L102.116 150.725L102.324 150.013L101.438 150.03L101.421 149.163L100.257 149.024L100.604 148.365L99.6313 147.861L99.9614 147.41L99.197 146.265L98.45 146.3L102.793 145.224L102.011 144.391L101.977 143.246L103.436 141.701L102.741 137.78L104.27 134.084L104.235 128.739L102.011 124.158L103.505 123.135L104.443 123.221L103.87 121.851L102.637 121.157L100.205 122.909L98.9712 120.341L99.4228 119.994L98.9364 117.322L96.8691 117.669L96.5217 118.398L91.2406 119.473L89.3817 113.487L88.8085 114.077L85.1429 114.268L84.587 111.457L80.713 112.55L79.8097 111.127L82.1028 110.693L82.4329 104.273L83.8921 103.648L83.0235 99.0152L79.1669 99.3449L79.2537 100.924L78.2635 101.184L77.3776 97.8179L76.2831 98.0609L76.1789 96.9677L81.1994 95.7183L79.4796 85.9317L82.2418 85.2203L80.713 75.4684L76.7174 76.1452L75.6403 76.8392L75.6577 78.1233L76.231 78.4183L75.4145 78.9215L75.4319 80.9864L72.2875 82.444L71.9227 81.0732L70.4287 81.4723L69.5774 77.6548L70.3939 77.0128L69.9249 74.6182L66.85 75.4684L65.6861 68.8226L63.0455 69.9852L61.5515 71.6336L61.2562 67.7294L58.216 70.8528L57.6254 68.6491L58.5461 67.5732L58.3029 67.0874L56.7394 68.3367L56.3572 67.8856L58.0771 66.428L58.1465 63.0964L57.8512 62.6799L55.9403 63.5475L53.7514 59.5219L57.8165 58.0122L57.9207 56.9884L59.7795 54.5939L59.38 53.223L60.6829 52.0084L59.1541 52.0778L59.988 50.4641L59.9533 48.5206L60.5786 48.3471L59.1368 45.137L59.6753 43.5579L61.6383 42.3433L63.1323 37.9532L61.621 37.3112L60.0401 38.5605L58.8241 36.8253L58.8414 35.8883L60.2138 33.4764L63.0455 31.3421L63.3582 30.3356L59.7969 30.6827L59.8316 29.8498L59.519 30.8389H58.9457L57.3648 21.434L54.5505 21.3473L54.7763 22.3537L52.5006 22.3884L52.0315 22.8395L52.7264 23.2039L52.8654 24.2624L51.7015 23.4468L52.1184 25.3209L50.8676 25.8067L48.6613 25.5465L45.0132 22.5446L42.4942 24.3145L39.9231 20.792L39.9405 19.6294L37.5431 17.738L38.2554 15.4649L38.0817 14.4585L37.2304 14.2676L38.099 13.6082L39.2977 14.632L39.4541 13.5562L42.8243 12.4456L43.884 7.03178L46.1771 8.03821L46.7851 7.46558L47.7753 7.6738L48.505 10.5195L49.391 9.94692L48.9914 9.00992L50.0685 7.56969L49.8079 5.55684L50.6765 4.68924L50.4507 3.99516L51.1108 3.75224L54.8458 7.27471L55.5928 7.04912L56.2182 7.6044L55.367 8.41995L57.6775 8.28113L58.9457 8.94052L59.5537 8.21171L60.9435 8.35053L61.7947 7.76057L62.3332 9.28756L61.2388 9.46106L60.9782 10.0857L58.9978 10.294L59.9011 11.6474L62.2464 10.9013L62.6807 12.3936L63.6188 12.8968L65.4429 13.1224L67.6491 12.3068L67.8229 12.9141L68.6915 12.4109L68.9347 12.7927L69.8033 12.3589L69.5774 11.6474L70.2202 10.6757L74.598 9.89487L75.1887 11.2136L76.5437 11.7516L80.5914 12.1333L80.8172 11.6474L81.7206 11.6995L81.3558 10.8319L82.1723 10.4328L82.4676 9.13137L84.6912 9.86018L84.587 10.9187L86.1505 11.231L86.3937 10.641L85.6988 10.2246L86.4806 9.98163L86.8801 6.25094L85.6988 3.71752L87.2623 4.2728L89.5902 2.93669L92.5261 2.9714L92.9083 2.50288Z" fill="#038405" stroke="#EAEAEA" stroke-width="2" mask="url(#path-1-inside-1_132_21)"/>
</svg>
