<svg width="212" height="156" viewBox="0 0 212 156" fill="none" xmlns="http://www.w3.org/2000/svg">
<mask id="path-1-inside-1_132_13" fill="white">
<path d="M189.406 137.994L191.942 137.63L191.543 139.816L189.562 139.243L186.974 136.554L188.207 136.762L189.406 137.994ZM62.3285 131.99L68.2003 133.031L74.211 134.975L77.1469 134.402L80.2739 132.476L82.3933 134.229L84.0611 134.506L84.7907 133.656L86.8059 135.096L90.2282 135.391L91.8265 136.346L89.6375 136.97L80.5693 136.294L61.6162 132.094L62.3285 131.99ZM174.466 127.201L173.441 127.913L173.094 129.127L171.078 130.203L171.322 132.563H170.887L170.192 129.509L172.486 127.288L174.466 127.201ZM195.469 126.039L197.675 139.99L203.252 155.19L202.296 155.693L200.958 151.182L199.656 149.412L198.613 149.637L198.075 151.529L196.911 152.657L195.556 152.848L195.087 151.702L196.303 148.839L197.015 143.703L196.251 142.783L196.216 141.274L198.144 143.2L196.65 139.4L195.521 138.931L195.816 137.127L195.139 137.196L194.6 134.35L193.523 133.222L192.429 133.378L191.491 136.866L190.205 134.316L188.503 133.413L189.111 131.973L188.624 130.741L186.366 129.839L186.349 129.006L189.319 129.526L191.647 128.659L192.585 131.227L193.228 131.487L194.305 129.943L193.784 126.056L194.965 125.049L195.469 126.039ZM7.43233 116.963L10.2466 116.582L10.5941 117.015L9.3954 117.38L9.22166 117.987L26.7502 122.308L11.619 118.942L5.74723 116.738L2.65498 114.187L1.02199 111.341L0.796143 108.079L1.50841 106.622L2.06433 106.743L1.97749 111.098L2.60286 113.319L4.07951 115.246L7.43233 116.963ZM93.5637 2.56104L98.0978 3.63689L101.85 2.75192L102.059 4.27891L100.982 5.3721L100.773 6.63879L102.406 6.76024L104.491 5.49355L104.925 5.8059L104.769 8.26987L106.454 9.2069L106.558 10.9247L108.764 9.98776L107.514 8.4434L107.392 7.36758L116.721 5.59766L116.2 1.88431L122.141 0.687012L123.044 2.87339L123.948 3.08161L123.756 4.20948L122.871 4.52184L122.836 9.12016L125.459 8.23518L125.963 10.7165L142.866 8.0096L145.246 11.6362L146.862 12.9896L155.183 11.3239L160.203 13.944L161.211 15.0545L162.288 21.3707L163.07 21.336L164.234 28.3116L165.015 28.9536L166.353 27.5828L168.038 27.3572L169.028 28.1727L170.609 27.843L170.436 26.9407L171.617 26.6978L171.391 24.737L177.332 23.5744L177.072 24.9973L175.178 25.5699L175.769 28.4504L177.437 28.1901L177.906 29.5609L178.114 30.9664L175.838 31.3829L177.541 43.5293L179.469 43.3558L180.303 50.5917L181.623 50.4181L182.162 53.0383L183.291 53.0904L183.499 54.7908L187.113 54.3397L187.339 56.1443L190.205 55.6932L191.213 62.7381L194.218 62.4778L194.93 67.1108L191.386 67.6487L191.855 71.3274L190.987 71.3621L190.969 73.2014L190.153 73.2535L190.17 74.017L185.532 74.659L185.636 75.7869L183.708 76.0645L184.177 79.2226L186.957 78.9103L187.13 80.0555L190.796 79.587L191.352 84.4629L188.85 85.1744L189.389 88.2457L190.935 88.1936L191.404 90.8832L199.273 89.6339L199.586 91.9417L198.787 92.1673L199.326 94.7701L202.453 94.3016L206.952 97.0779L208.915 96.8176L209.975 112.33L211.66 112.174L210.166 114.083L207.751 115.575L199.586 117.31L195.868 120.347L194.67 123.991L192.429 124.095L191.543 122.95L189.91 123.401L187.165 122.082L183.83 122.985L183.482 125.032L184.75 129.561L182.579 134.992L181.45 136.866L178.948 139.157L178.427 138.185L177.628 137.821L177.054 138.237L176.116 139.087L175.23 141.499L174.657 138.671L175.178 137.526L174.362 136.745L171.461 136.016L171.565 134.975L172.486 133.621L175.161 134.038V133.5L173.128 133.136L172.607 130.342L173.945 129.301L174.796 127.67L174.518 126.976L175.213 127.08L175.838 130.047L176.568 127.652L179.017 126.663L180.216 128.884L180.147 129.353L179.365 129.214L179.452 129.977L180.442 130.342L181.536 127.861L181.658 123.679L180.268 122.811L178.965 120.954L178.149 121.006L177.523 121.891V123.141L178.496 125.032L176.881 125.449L176.637 126.143L174.952 125.778L173.563 124.494H172.781L172.329 123.297L171.634 123.28L169.254 120.816L167.534 121.249L166.527 119.688L166.648 118.022L165.658 115.888L164.72 115.645L165.623 118.161L164.772 121.215L165.485 123.384L166.614 122.967L167.065 123.644L165.936 125.57L165.676 128.52L164.477 128.815L164.286 124.251L162.271 121.961L160.898 117.97L159.595 116.894L158.831 114.864L157.146 112.938L156.277 112.99L155.426 115.402L154.036 114.187L153.289 115.055L155.86 115.801L157.632 121.197L159.3 122.707L159.039 123.765L156.468 125.778L155.86 125.032L156.972 122.291L156.104 119.931L155.026 119.601L154.279 122.03L152.768 122.533L153.011 122.95L154.21 122.377L155.026 123.106L155.565 124.13L155.339 125.362L156.729 126.316L155.878 127.982L155.026 126.334L154.088 125.761L152.959 127.219L152.125 127.097L152.021 125.31L150.753 124.13L149.537 126.004L149.589 127.6L145.507 120.208L143.787 118.855L142.397 118.49L140.747 119.08L139.843 117.675L139.183 118.577L137.446 118.872L133.763 115.94L133.259 117.068L130.723 117.137L130.358 118.334L131.661 120.677L130.497 120.902L128.916 120.087L127.978 119.306L127.804 118.334L127.179 118.629L125.72 117.206L125.98 118.23L124.278 118.525L125.546 125.865L124.33 126.299L123.861 125.067L122.367 124.286L121.238 126.16H120.317L119.796 127.687L118.997 127.895L118.215 127.305L118.51 129.335L121.203 131.296L118.597 130.758L117.45 131.314L117.155 133.153L118.58 135.166L117.033 135.044L115.244 133.569L113.298 134.281L113.09 135.183L107.948 128.26L107.461 128.069L106.628 128.85L106.297 131.279L104.821 131.036L104.699 129.908H105.794L106.297 127.461L104.925 126.438L103.17 125.934L101.034 126.507L100.513 126.837L100.495 128.815L99.9392 128.503L100.2 126.351L101.503 124.72L100.269 122.933L101.398 119.306L100.096 121.596L99.1401 121.301L99.6265 122.533L98.8796 124.546L95.6831 127.184L92.9209 126.16L92.087 124.668L90.0197 124.46L89.4464 125.102L89.985 125.986L89.099 127.288L89.8113 128.138L88.9774 128.468L86.0936 128.312L84.3738 128.85L79.7354 127.913L78.1372 128.416L74.5585 127.357L73.0992 127.861L72.7865 128.572L69.1731 129.353L67.766 128.711L64.8648 129.37L61.4251 131.019L61.1124 131.817L61.5641 132.164L58.5587 131.47L41.3776 126.108L42.6979 126.351L43.4101 125.275L42.889 123.47L43.1148 123.054L43.3754 123.644L43.8966 123.436L43.4101 122.169L41.5339 121.614L40.7174 122.36L41.4123 122.898L40.7696 122.828L38.5112 120.469L36.9824 120.486L34.7067 118.785L33.8902 116.547L32.2919 115.853L31.4928 116.616L27.8447 115.992L26.6634 114.829L26.0206 113.042L23.3974 112.469L22.2682 114.829L17.0739 114.569L16.4485 115.228L16.1705 112.782L15.1282 112.573L15.4757 111.602L17.0565 110.352L19.5234 109.381L24.7698 109.242L27.0977 108.53L29.5819 107.333L30.4679 105.737L32.014 105.65L33.0042 104.834L31.1627 100.444L30.1899 99.4031L29.3734 99.2122L27.8447 100.427L26.6634 100.479L18.012 97.1126L18.9501 95.5162L20.3399 95.4468L21 93.9025L22.1987 94.371L23.6753 93.781L24.0054 94.4404L28.5569 96.0888L32.153 96.2797L34.0118 95.5683L36.8608 95.4989L41.2908 97.1126L44.8868 97.3035L49.6989 98.5355L53.1733 97.8241L54.4589 96.6094L54.6152 95.8806L53.2428 95.6724L51.0365 96.1235L49.5078 96.9565L49.3688 97.5985H48.3265L46.2939 96.2624L47.5968 95.8633L47.51 95.2559L45.6859 94.9089L47.8401 94.7701L46.7977 94.3363L46.5024 93.2431L47.4058 92.3755L46.4503 91.5773L47.2667 91.4211L47.3363 89.7206L46.7803 89.0265L43.8966 87.5516L37.5384 90.3974L35.4537 85.7296L32.5699 85.5387L28.4701 82.0857L28.7654 81.2701L31.2323 81.1313L30.5547 80.177L34.4982 79.5349L33.9423 75.7348L33.1605 75.8563L32.8479 74.4508L35.7143 73.7393L36.2528 74.2078L39.2235 73.7047L39.5535 72.7676L42.3678 72.1429L42.003 69.1584L44.1572 68.0652L42.7152 65.5665L49.9595 70.1648L51.5403 70.0087L51.106 67.0241L56.8041 66.0871L57.2036 68.204L60.8345 67.7355L60.4696 65.5665L61.234 65.393L60.765 62.6687L61.4077 62.582L61.5641 63.6578L63.1797 63.3975L63.8919 64.9766L70.0938 64.5254L70.5455 67.909L74.0547 67.3538L74.6801 67.9264L74.9233 67.0241L77.2685 66.7465L77.3381 66.1044L85.3119 64.6642L85.1555 63.6925L83.6615 63.9527L83.3835 62.4605L79.7528 63.0851L79.0058 62.7555L78.832 61.2458L84.0437 60.0659L83.8352 58.6777L87.2228 58.2439L86.9622 56.9078L85.364 57.0813L84.2695 53.5588L85.4508 52.5004L89.6723 54.8256L92.3476 50.6437L84.3738 45.7678L82.9145 41.7421L85.3292 38.4104L85.833 36.2241H88.4736L88.5952 35.6688L89.2553 37.0397L90.5235 37.2479L90.4366 36.467L92.1565 35.3738L92.1913 33.6907L94.0848 33.4131L94.9708 34.9227L95.9437 35.0789L96.7254 34.5583L95.961 33.8816L96.0479 32.5455L98.9143 32.1117L96.4301 29.2833L95.2488 28.3289L94.467 28.3636L94.3628 24.7891L96.2563 23.9388L95.5267 19.1323L90.6278 19.9132L90.3324 19.2538L90.0892 14.1523L91.3922 13.7358L91.34 12.1568L92.2608 11.7923L92.5039 17.0327L96.378 16.4427L95.6136 8.89457L96.9339 8.18313L96.6559 6.22233L96.4127 5.70177L93.7721 7.29818L93.5637 2.56104Z"/>
</mask>
<path d="M189.406 137.994L191.942 137.63L191.543 139.816L189.562 139.243L186.974 136.554L188.207 136.762L189.406 137.994ZM62.3285 131.99L68.2003 133.031L74.211 134.975L77.1469 134.402L80.2739 132.476L82.3933 134.229L84.0611 134.506L84.7907 133.656L86.8059 135.096L90.2282 135.391L91.8265 136.346L89.6375 136.97L80.5693 136.294L61.6162 132.094L62.3285 131.99ZM174.466 127.201L173.441 127.913L173.094 129.127L171.078 130.203L171.322 132.563H170.887L170.192 129.509L172.486 127.288L174.466 127.201ZM195.469 126.039L197.675 139.99L203.252 155.19L202.296 155.693L200.958 151.182L199.656 149.412L198.613 149.637L198.075 151.529L196.911 152.657L195.556 152.848L195.087 151.702L196.303 148.839L197.015 143.703L196.251 142.783L196.216 141.274L198.144 143.2L196.65 139.4L195.521 138.931L195.816 137.127L195.139 137.196L194.6 134.35L193.523 133.222L192.429 133.378L191.491 136.866L190.205 134.316L188.503 133.413L189.111 131.973L188.624 130.741L186.366 129.839L186.349 129.006L189.319 129.526L191.647 128.659L192.585 131.227L193.228 131.487L194.305 129.943L193.784 126.056L194.965 125.049L195.469 126.039ZM7.43233 116.963L10.2466 116.582L10.5941 117.015L9.3954 117.38L9.22166 117.987L26.7502 122.308L11.619 118.942L5.74723 116.738L2.65498 114.187L1.02199 111.341L0.796143 108.079L1.50841 106.622L2.06433 106.743L1.97749 111.098L2.60286 113.319L4.07951 115.246L7.43233 116.963ZM93.5637 2.56104L98.0978 3.63689L101.85 2.75192L102.059 4.27891L100.982 5.3721L100.773 6.63879L102.406 6.76024L104.491 5.49355L104.925 5.8059L104.769 8.26987L106.454 9.2069L106.558 10.9247L108.764 9.98776L107.514 8.4434L107.392 7.36758L116.721 5.59766L116.2 1.88431L122.141 0.687012L123.044 2.87339L123.948 3.08161L123.756 4.20948L122.871 4.52184L122.836 9.12016L125.459 8.23518L125.963 10.7165L142.866 8.0096L145.246 11.6362L146.862 12.9896L155.183 11.3239L160.203 13.944L161.211 15.0545L162.288 21.3707L163.07 21.336L164.234 28.3116L165.015 28.9536L166.353 27.5828L168.038 27.3572L169.028 28.1727L170.609 27.843L170.436 26.9407L171.617 26.6978L171.391 24.737L177.332 23.5744L177.072 24.9973L175.178 25.5699L175.769 28.4504L177.437 28.1901L177.906 29.5609L178.114 30.9664L175.838 31.3829L177.541 43.5293L179.469 43.3558L180.303 50.5917L181.623 50.4181L182.162 53.0383L183.291 53.0904L183.499 54.7908L187.113 54.3397L187.339 56.1443L190.205 55.6932L191.213 62.7381L194.218 62.4778L194.93 67.1108L191.386 67.6487L191.855 71.3274L190.987 71.3621L190.969 73.2014L190.153 73.2535L190.17 74.017L185.532 74.659L185.636 75.7869L183.708 76.0645L184.177 79.2226L186.957 78.9103L187.13 80.0555L190.796 79.587L191.352 84.4629L188.85 85.1744L189.389 88.2457L190.935 88.1936L191.404 90.8832L199.273 89.6339L199.586 91.9417L198.787 92.1673L199.326 94.7701L202.453 94.3016L206.952 97.0779L208.915 96.8176L209.975 112.33L211.66 112.174L210.166 114.083L207.751 115.575L199.586 117.31L195.868 120.347L194.67 123.991L192.429 124.095L191.543 122.95L189.91 123.401L187.165 122.082L183.83 122.985L183.482 125.032L184.75 129.561L182.579 134.992L181.45 136.866L178.948 139.157L178.427 138.185L177.628 137.821L177.054 138.237L176.116 139.087L175.23 141.499L174.657 138.671L175.178 137.526L174.362 136.745L171.461 136.016L171.565 134.975L172.486 133.621L175.161 134.038V133.5L173.128 133.136L172.607 130.342L173.945 129.301L174.796 127.67L174.518 126.976L175.213 127.08L175.838 130.047L176.568 127.652L179.017 126.663L180.216 128.884L180.147 129.353L179.365 129.214L179.452 129.977L180.442 130.342L181.536 127.861L181.658 123.679L180.268 122.811L178.965 120.954L178.149 121.006L177.523 121.891V123.141L178.496 125.032L176.881 125.449L176.637 126.143L174.952 125.778L173.563 124.494H172.781L172.329 123.297L171.634 123.28L169.254 120.816L167.534 121.249L166.527 119.688L166.648 118.022L165.658 115.888L164.72 115.645L165.623 118.161L164.772 121.215L165.485 123.384L166.614 122.967L167.065 123.644L165.936 125.57L165.676 128.52L164.477 128.815L164.286 124.251L162.271 121.961L160.898 117.97L159.595 116.894L158.831 114.864L157.146 112.938L156.277 112.99L155.426 115.402L154.036 114.187L153.289 115.055L155.86 115.801L157.632 121.197L159.3 122.707L159.039 123.765L156.468 125.778L155.86 125.032L156.972 122.291L156.104 119.931L155.026 119.601L154.279 122.03L152.768 122.533L153.011 122.95L154.21 122.377L155.026 123.106L155.565 124.13L155.339 125.362L156.729 126.316L155.878 127.982L155.026 126.334L154.088 125.761L152.959 127.219L152.125 127.097L152.021 125.31L150.753 124.13L149.537 126.004L149.589 127.6L145.507 120.208L143.787 118.855L142.397 118.49L140.747 119.08L139.843 117.675L139.183 118.577L137.446 118.872L133.763 115.94L133.259 117.068L130.723 117.137L130.358 118.334L131.661 120.677L130.497 120.902L128.916 120.087L127.978 119.306L127.804 118.334L127.179 118.629L125.72 117.206L125.98 118.23L124.278 118.525L125.546 125.865L124.33 126.299L123.861 125.067L122.367 124.286L121.238 126.16H120.317L119.796 127.687L118.997 127.895L118.215 127.305L118.51 129.335L121.203 131.296L118.597 130.758L117.45 131.314L117.155 133.153L118.58 135.166L117.033 135.044L115.244 133.569L113.298 134.281L113.09 135.183L107.948 128.26L107.461 128.069L106.628 128.85L106.297 131.279L104.821 131.036L104.699 129.908H105.794L106.297 127.461L104.925 126.438L103.17 125.934L101.034 126.507L100.513 126.837L100.495 128.815L99.9392 128.503L100.2 126.351L101.503 124.72L100.269 122.933L101.398 119.306L100.096 121.596L99.1401 121.301L99.6265 122.533L98.8796 124.546L95.6831 127.184L92.9209 126.16L92.087 124.668L90.0197 124.46L89.4464 125.102L89.985 125.986L89.099 127.288L89.8113 128.138L88.9774 128.468L86.0936 128.312L84.3738 128.85L79.7354 127.913L78.1372 128.416L74.5585 127.357L73.0992 127.861L72.7865 128.572L69.1731 129.353L67.766 128.711L64.8648 129.37L61.4251 131.019L61.1124 131.817L61.5641 132.164L58.5587 131.47L41.3776 126.108L42.6979 126.351L43.4101 125.275L42.889 123.47L43.1148 123.054L43.3754 123.644L43.8966 123.436L43.4101 122.169L41.5339 121.614L40.7174 122.36L41.4123 122.898L40.7696 122.828L38.5112 120.469L36.9824 120.486L34.7067 118.785L33.8902 116.547L32.2919 115.853L31.4928 116.616L27.8447 115.992L26.6634 114.829L26.0206 113.042L23.3974 112.469L22.2682 114.829L17.0739 114.569L16.4485 115.228L16.1705 112.782L15.1282 112.573L15.4757 111.602L17.0565 110.352L19.5234 109.381L24.7698 109.242L27.0977 108.53L29.5819 107.333L30.4679 105.737L32.014 105.65L33.0042 104.834L31.1627 100.444L30.1899 99.4031L29.3734 99.2122L27.8447 100.427L26.6634 100.479L18.012 97.1126L18.9501 95.5162L20.3399 95.4468L21 93.9025L22.1987 94.371L23.6753 93.781L24.0054 94.4404L28.5569 96.0888L32.153 96.2797L34.0118 95.5683L36.8608 95.4989L41.2908 97.1126L44.8868 97.3035L49.6989 98.5355L53.1733 97.8241L54.4589 96.6094L54.6152 95.8806L53.2428 95.6724L51.0365 96.1235L49.5078 96.9565L49.3688 97.5985H48.3265L46.2939 96.2624L47.5968 95.8633L47.51 95.2559L45.6859 94.9089L47.8401 94.7701L46.7977 94.3363L46.5024 93.2431L47.4058 92.3755L46.4503 91.5773L47.2667 91.4211L47.3363 89.7206L46.7803 89.0265L43.8966 87.5516L37.5384 90.3974L35.4537 85.7296L32.5699 85.5387L28.4701 82.0857L28.7654 81.2701L31.2323 81.1313L30.5547 80.177L34.4982 79.5349L33.9423 75.7348L33.1605 75.8563L32.8479 74.4508L35.7143 73.7393L36.2528 74.2078L39.2235 73.7047L39.5535 72.7676L42.3678 72.1429L42.003 69.1584L44.1572 68.0652L42.7152 65.5665L49.9595 70.1648L51.5403 70.0087L51.106 67.0241L56.8041 66.0871L57.2036 68.204L60.8345 67.7355L60.4696 65.5665L61.234 65.393L60.765 62.6687L61.4077 62.582L61.5641 63.6578L63.1797 63.3975L63.8919 64.9766L70.0938 64.5254L70.5455 67.909L74.0547 67.3538L74.6801 67.9264L74.9233 67.0241L77.2685 66.7465L77.3381 66.1044L85.3119 64.6642L85.1555 63.6925L83.6615 63.9527L83.3835 62.4605L79.7528 63.0851L79.0058 62.7555L78.832 61.2458L84.0437 60.0659L83.8352 58.6777L87.2228 58.2439L86.9622 56.9078L85.364 57.0813L84.2695 53.5588L85.4508 52.5004L89.6723 54.8256L92.3476 50.6437L84.3738 45.7678L82.9145 41.7421L85.3292 38.4104L85.833 36.2241H88.4736L88.5952 35.6688L89.2553 37.0397L90.5235 37.2479L90.4366 36.467L92.1565 35.3738L92.1913 33.6907L94.0848 33.4131L94.9708 34.9227L95.9437 35.0789L96.7254 34.5583L95.961 33.8816L96.0479 32.5455L98.9143 32.1117L96.4301 29.2833L95.2488 28.3289L94.467 28.3636L94.3628 24.7891L96.2563 23.9388L95.5267 19.1323L90.6278 19.9132L90.3324 19.2538L90.0892 14.1523L91.3922 13.7358L91.34 12.1568L92.2608 11.7923L92.5039 17.0327L96.378 16.4427L95.6136 8.89457L96.9339 8.18313L96.6559 6.22233L96.4127 5.70177L93.7721 7.29818L93.5637 2.56104Z" fill="#038405" stroke="#EAEAEA" stroke-width="2" mask="url(#path-1-inside-1_132_13)"/>
</svg>
