<svg width="183" height="178" viewBox="0 0 183 178" fill="none" xmlns="http://www.w3.org/2000/svg">
<mask id="path-1-inside-1_132_29" fill="white">
<path d="M0.182861 58.3239L5.16867 57.0919L10.6583 54.6626L18.163 53.8644L27.1966 50.8625L30.9143 51.1228L34.9446 52.7192L43.1442 54.6105L45.8891 54.5064L48.1474 53.4132L48.6513 51.9557L48.1996 50.2899L46.8271 50.5155L47.5047 49.6652L46.0628 48.9711L46.7056 48.6935L46.6361 47.7912L47.0009 48.277L47.47 47.4615L46.7403 44.5463L45.8196 44.5984L45.2463 41.475L47.1746 40.9197L46.7403 38.0046L48.1822 37.8311L48.0779 35.5406L48.5818 35.3497L48.217 33.0419L44.4646 33.7013L43.6828 28.5304L45.0205 27.5586L44.7946 25.6846L43.1616 25.754L42.571 23.3941L40.0173 24.5741L39.1313 20.1493L42.0498 19.7328L41.9108 18.6397L43.3701 18.0844L43.7349 19.0561L45.837 18.5876L45.2115 14.1802L43.0574 14.3363L42.5362 11.6121L41.8761 11.5773L41.4591 8.48868L43.5438 8.03753L42.3799 1.21815L43.6828 1.18346L43.8044 1.66932L45.837 1.39168L45.8196 4.89681L49.8847 4.37624L50.1974 4.96621L52.8901 4.27213L54.2451 2.22457L56.7293 1.30491L60.8465 1.42639L63.7303 0.263776L65.3112 1.02727L67.9344 0.159668L70.575 2.05107L81.2588 4.54975L81.4847 6.12879L92.186 0.645525L94.4443 4.4283L98.1967 4.13331L98.6831 6.90963L107.56 4.61917L108.585 5.34795L108.637 6.02468L107.838 6.52788L107.925 7.63842L108.394 7.25669L108.811 7.65579L108.134 8.6969L112.65 7.65579L113.415 10.6924L111.556 11.4038L111.973 12.497L113.258 12.8267L113.727 15.2386L112.511 15.8807L112.598 16.3318L113.849 15.898L114.509 18.9694L115.934 18.0323L116.577 18.9867L115.951 19.542L117.08 21.3292L116.351 24.6435H113.71L113.919 26.2225L118.574 26.1878L120.902 25.1988L120.45 27.0034L121.076 27.5586L125.141 27.576L125.818 28.9121L128.841 28.4783L128.789 26.7778L131.638 27.0034L131.812 27.7495L136.589 28.2354L140.22 27.7842L140.359 27.0554L143.92 26.1531L145.05 25.8928L145.275 26.7257L144.806 28.7386L144.094 28.8947L144.146 31.6017L149.01 30.925L149.914 36.6164L150.765 36.6685L151.46 40.9024L156.029 40.4165L155.021 42.1344L153.875 41.8221L153.736 42.412L151.738 42.7244L152.12 45.1363L154.396 44.7719L154.448 45.6222L153.214 45.8824L153.371 47.0971L154.448 47.6003L158.235 45.7783L162.057 52.3721L165.114 49.9255L166.313 51.6433L167.164 51.036L168.432 53.0662L169.631 51.7822L172.793 57.0745L173.227 56.6581L177.414 60.3714L178.804 57.8034L179.655 58.1851L179.464 59.0353L182.556 59.1741L182.4 61.9158L181.913 61.9505L179.655 67.4511L180.141 68.9781L177.813 70.158L176.319 66.8091L174.617 67.2429L175.399 70.2795L172.949 71.8412L173.071 72.5006L170.552 73.6285L169.944 72.4658L165.288 72.7608L165.01 71.98L163.968 72.1535L166.122 82.2351L161.518 81.8186L161.762 82.2871L159.729 82.4086L161.762 84.7858L162.404 84.5603L162.943 85.4452L163.586 84.7164L163.777 85.7402L164.506 85.2717L164.75 85.9658L165.219 85.7749L167.269 88.7942L168.363 88.5165L169.023 91.8308L167.46 92.7851L173.088 95.4401L174.252 94.503L175.677 96.1168L173.662 98.9625L176.615 101.253L174.183 102.676L173.818 102.277L169.631 105.66L172.098 109.565L170.326 110.727L167.703 111.178L162.821 115.36L160.354 119.906L157.818 126.639L154.604 130.96L153.406 130.908L155.143 129.71L155.438 128.548L157.818 126.361L158.305 125.112L157.106 122.475L154.865 120.254L151.581 118.397L145.536 118.605L143.121 119.924L133.862 123.03L131.603 124.574L127.451 129.606L121.163 140.417L119.547 142.221L118.331 141.944L116.316 143.21L115.795 143.158L115.916 142.377L116.854 142.725L117.827 142.048L118.487 140.382L119.599 140.295L122.066 138.404L124.568 134.135L124.62 131.515L123.091 129.294L120.364 127.68L118.348 127.784L115.795 128.808L110.792 127.923L105.215 128.6L102.071 129.901L93.4889 134.899L85.6193 143.401L77.1764 147.479L71.7215 154.68L61.1245 172.327L57.7543 174.982L50.0237 177.81V175.728L52.56 173.802L52.421 172.692L54.2103 171.755L58.7619 170.904L63.2265 168.77L63.7998 165.942L67.778 160.389L68.2645 157.977L69.4284 157.734L71.652 154.194L71.2003 153.865L70.2623 154.35L69.4805 156.311L68.4034 154.611L66.2493 154.402L65.5718 150.637L66.6488 149.058L66.5967 147.635L66.0234 146.75L63.0875 145.657L61.9236 143.54L61.1766 143.28L61.7672 141.631L60.0995 142.603L61.385 146.368L62.8096 147.618L62.9138 151.227L61.6804 153.379L58.1191 155.652L56.6251 159.105L54.94 159.261L53.8802 143.748L51.9172 144.009L47.4178 141.232L44.2908 141.701L43.7523 139.098L44.5514 138.872L44.2387 136.564L36.3691 137.814L35.9001 135.124L34.3539 135.176L33.8154 132.105L36.317 131.394L35.7611 126.518L32.0956 126.986L31.9218 125.841L29.1423 126.153L28.6732 122.995L30.6015 122.717L30.4973 121.59L35.1357 120.948L35.1183 120.184L35.9348 120.132L35.9522 118.293L36.8208 118.258L36.3517 114.579L39.8957 114.041L39.1834 109.408L36.178 109.669L35.1704 102.624L32.304 103.075L32.0782 101.27L28.4648 101.722L28.2563 100.021L27.1271 99.9689L26.5886 97.3487L25.2683 97.5223L24.4344 90.2865L22.5061 90.46L20.8036 78.3135L23.0794 77.8971L22.8709 76.4915L22.4019 75.1207L20.7341 75.381L20.1435 72.5006L22.0371 71.9279L22.2976 70.5051L16.3564 71.6677L16.5822 73.6285L15.4009 73.8714L15.5746 74.7737L13.9937 75.1034L13.0035 74.2878L11.3184 74.5134L9.98075 75.8842L9.19903 75.2422L8.03507 68.2667L7.2533 68.3014L6.17623 61.9852L5.16867 60.8747L0.182861 58.3239Z"/>
</mask>
<path d="M0.182861 58.3239L5.16867 57.0919L10.6583 54.6626L18.163 53.8644L27.1966 50.8625L30.9143 51.1228L34.9446 52.7192L43.1442 54.6105L45.8891 54.5064L48.1474 53.4132L48.6513 51.9557L48.1996 50.2899L46.8271 50.5155L47.5047 49.6652L46.0628 48.9711L46.7056 48.6935L46.6361 47.7912L47.0009 48.277L47.47 47.4615L46.7403 44.5463L45.8196 44.5984L45.2463 41.475L47.1746 40.9197L46.7403 38.0046L48.1822 37.8311L48.0779 35.5406L48.5818 35.3497L48.217 33.0419L44.4646 33.7013L43.6828 28.5304L45.0205 27.5586L44.7946 25.6846L43.1616 25.754L42.571 23.3941L40.0173 24.5741L39.1313 20.1493L42.0498 19.7328L41.9108 18.6397L43.3701 18.0844L43.7349 19.0561L45.837 18.5876L45.2115 14.1802L43.0574 14.3363L42.5362 11.6121L41.8761 11.5773L41.4591 8.48868L43.5438 8.03753L42.3799 1.21815L43.6828 1.18346L43.8044 1.66932L45.837 1.39168L45.8196 4.89681L49.8847 4.37624L50.1974 4.96621L52.8901 4.27213L54.2451 2.22457L56.7293 1.30491L60.8465 1.42639L63.7303 0.263776L65.3112 1.02727L67.9344 0.159668L70.575 2.05107L81.2588 4.54975L81.4847 6.12879L92.186 0.645525L94.4443 4.4283L98.1967 4.13331L98.6831 6.90963L107.56 4.61917L108.585 5.34795L108.637 6.02468L107.838 6.52788L107.925 7.63842L108.394 7.25669L108.811 7.65579L108.134 8.6969L112.65 7.65579L113.415 10.6924L111.556 11.4038L111.973 12.497L113.258 12.8267L113.727 15.2386L112.511 15.8807L112.598 16.3318L113.849 15.898L114.509 18.9694L115.934 18.0323L116.577 18.9867L115.951 19.542L117.08 21.3292L116.351 24.6435H113.71L113.919 26.2225L118.574 26.1878L120.902 25.1988L120.45 27.0034L121.076 27.5586L125.141 27.576L125.818 28.9121L128.841 28.4783L128.789 26.7778L131.638 27.0034L131.812 27.7495L136.589 28.2354L140.22 27.7842L140.359 27.0554L143.92 26.1531L145.05 25.8928L145.275 26.7257L144.806 28.7386L144.094 28.8947L144.146 31.6017L149.01 30.925L149.914 36.6164L150.765 36.6685L151.46 40.9024L156.029 40.4165L155.021 42.1344L153.875 41.8221L153.736 42.412L151.738 42.7244L152.12 45.1363L154.396 44.7719L154.448 45.6222L153.214 45.8824L153.371 47.0971L154.448 47.6003L158.235 45.7783L162.057 52.3721L165.114 49.9255L166.313 51.6433L167.164 51.036L168.432 53.0662L169.631 51.7822L172.793 57.0745L173.227 56.6581L177.414 60.3714L178.804 57.8034L179.655 58.1851L179.464 59.0353L182.556 59.1741L182.4 61.9158L181.913 61.9505L179.655 67.4511L180.141 68.9781L177.813 70.158L176.319 66.8091L174.617 67.2429L175.399 70.2795L172.949 71.8412L173.071 72.5006L170.552 73.6285L169.944 72.4658L165.288 72.7608L165.01 71.98L163.968 72.1535L166.122 82.2351L161.518 81.8186L161.762 82.2871L159.729 82.4086L161.762 84.7858L162.404 84.5603L162.943 85.4452L163.586 84.7164L163.777 85.7402L164.506 85.2717L164.75 85.9658L165.219 85.7749L167.269 88.7942L168.363 88.5165L169.023 91.8308L167.46 92.7851L173.088 95.4401L174.252 94.503L175.677 96.1168L173.662 98.9625L176.615 101.253L174.183 102.676L173.818 102.277L169.631 105.66L172.098 109.565L170.326 110.727L167.703 111.178L162.821 115.36L160.354 119.906L157.818 126.639L154.604 130.96L153.406 130.908L155.143 129.71L155.438 128.548L157.818 126.361L158.305 125.112L157.106 122.475L154.865 120.254L151.581 118.397L145.536 118.605L143.121 119.924L133.862 123.03L131.603 124.574L127.451 129.606L121.163 140.417L119.547 142.221L118.331 141.944L116.316 143.21L115.795 143.158L115.916 142.377L116.854 142.725L117.827 142.048L118.487 140.382L119.599 140.295L122.066 138.404L124.568 134.135L124.62 131.515L123.091 129.294L120.364 127.68L118.348 127.784L115.795 128.808L110.792 127.923L105.215 128.6L102.071 129.901L93.4889 134.899L85.6193 143.401L77.1764 147.479L71.7215 154.68L61.1245 172.327L57.7543 174.982L50.0237 177.81V175.728L52.56 173.802L52.421 172.692L54.2103 171.755L58.7619 170.904L63.2265 168.77L63.7998 165.942L67.778 160.389L68.2645 157.977L69.4284 157.734L71.652 154.194L71.2003 153.865L70.2623 154.35L69.4805 156.311L68.4034 154.611L66.2493 154.402L65.5718 150.637L66.6488 149.058L66.5967 147.635L66.0234 146.75L63.0875 145.657L61.9236 143.54L61.1766 143.28L61.7672 141.631L60.0995 142.603L61.385 146.368L62.8096 147.618L62.9138 151.227L61.6804 153.379L58.1191 155.652L56.6251 159.105L54.94 159.261L53.8802 143.748L51.9172 144.009L47.4178 141.232L44.2908 141.701L43.7523 139.098L44.5514 138.872L44.2387 136.564L36.3691 137.814L35.9001 135.124L34.3539 135.176L33.8154 132.105L36.317 131.394L35.7611 126.518L32.0956 126.986L31.9218 125.841L29.1423 126.153L28.6732 122.995L30.6015 122.717L30.4973 121.59L35.1357 120.948L35.1183 120.184L35.9348 120.132L35.9522 118.293L36.8208 118.258L36.3517 114.579L39.8957 114.041L39.1834 109.408L36.178 109.669L35.1704 102.624L32.304 103.075L32.0782 101.27L28.4648 101.722L28.2563 100.021L27.1271 99.9689L26.5886 97.3487L25.2683 97.5223L24.4344 90.2865L22.5061 90.46L20.8036 78.3135L23.0794 77.8971L22.8709 76.4915L22.4019 75.1207L20.7341 75.381L20.1435 72.5006L22.0371 71.9279L22.2976 70.5051L16.3564 71.6677L16.5822 73.6285L15.4009 73.8714L15.5746 74.7737L13.9937 75.1034L13.0035 74.2878L11.3184 74.5134L9.98075 75.8842L9.19903 75.2422L8.03507 68.2667L7.2533 68.3014L6.17623 61.9852L5.16867 60.8747L0.182861 58.3239Z" fill="#038405" stroke="#EAEAEA" stroke-width="2" mask="url(#path-1-inside-1_132_29)"/>
</svg>
