<svg width="178" height="192" viewBox="0 0 178 192" fill="none" xmlns="http://www.w3.org/2000/svg">
<mask id="path-1-inside-1_132_7" fill="white">
<path d="M159.87 1.40978L160.53 1.2189L166.141 3.61349L166.94 3.2144L168.069 3.57879L170.189 1.63535L171.283 1.70476L172.604 2.85L172.43 3.70025L173.316 4.13406L172.499 6.30307L171.109 6.82363L171.787 8.40267L170.884 8.73236L171.405 9.35704L170.675 10.1899L170.745 11.4566L170.137 12.411L169.372 12.5151L169.859 13.938L168.782 15.8814L166.784 16.6623L167.774 17.8422L166.593 19.0395L166.784 20.3236L168.069 22.2149L167.444 22.4058L167.131 24.0543L168.33 24.2278L167.461 23.8113L168.26 23.3255L172.517 25.2863L172.378 26.258L173.802 26.7612L174.323 27.9758L173.976 28.8434L175.105 28.5311L177.051 29.2078L177.572 28.722L177.537 33.4244L175.678 33.4764L173.246 34.5523L171.857 32.3312L171.023 32.2965L169.06 34.1705L166.784 34.1011L166.072 35.6455L167.861 36.409L170.206 39.272L168.851 43.8183L167.409 43.853L166.575 43.1416L165.481 43.4886L165.116 44.6512L163.292 44.2L162.632 45.1371L161.034 45.2412L161.138 46.0047L158.549 46.2129L158.497 48.0696L155.318 50.0824L155.631 52.8761L156.274 53.1537L156.743 54.4898L155.388 55.0972L154.137 57.8214L153.355 57.7347L152.869 58.4635L153.546 58.6717L154.276 61.2051L156.135 63.3047L156.604 68.8053L155.718 70.662L157.125 71.0784L157.281 74.0804L159.383 76.4923L161.225 76.822L160.304 77.8111L157.577 77.7243L157.368 78.4531L158.132 80.3098L159.071 80.8303L159.488 83.7802L156.969 85.1336L156.274 84.8213L155.857 85.9492L156.117 87.4241L155.336 88.4132L154.919 91.1895L156.03 92.2307L155.092 93.48L156.135 94.0526L155.874 95.6143L155.075 95.5622L154.728 94.6773L153.338 94.5558L153.737 95.3714L154.606 95.4408L154.728 96.6728L153.286 96.8984L151.792 96.5687L151.826 95.5102L150.437 94.7641L151.548 93.5147L151.01 93.0636L149.342 94.2782L150.506 96.7943L150.384 98.9286L152.017 98.8939L152.851 101.011L152.139 102.555L150.923 102.937L151.687 103.562L150.61 103.804L152.539 104.238L151.687 106.477L152.243 107.587L150.089 109.999L150.576 112.116L149.794 112.654L147.622 112.741L146.788 113.678L147.275 114.129L145.955 116.159L147.709 117.86L144.93 122.632L145.607 123.239L145.85 122.788L150.419 123.621L150.506 124.488L152.365 124.853L151.774 126.657L153.129 127.802L151.653 128.896L150.697 131.95L152.782 132.835L152.799 131.95L155.11 130.596L156.395 135.194L157.003 135.524L157.716 134.969L160.009 134.847L159.765 138.3L160.391 141.077L158.949 141.059L158.237 141.754L158.775 143.576L158.132 144.981L159.018 145.363L157.333 147.376L158.063 149.892L157.212 150.62L159.279 154.663H160.356L160.773 155.618L161.815 155.496L162.215 155.982L160.738 156.971L156.308 157.995L157.107 159.557L156.934 163.045L155.075 164.016L155.353 164.849L154.311 168.077L155.388 168.753L154.154 169.083L153.963 170.194L151.114 173.716L152.191 175.607L150.732 177.187L149.603 177.308L148.977 179.998L146.615 179.911L146.945 181.039L146.302 181.299L145.937 182.774L145.086 182.635L144.269 183.381L144.721 184.006L143.071 184.544L143.279 185.949L138.606 189.142L135.844 189.42L135.635 190.253L136.435 190.756L135.879 191.537L134.645 190.947L134.28 191.381L133.447 190.461L133.064 191.086L132.856 190.6H128.878L128.965 189.402L126.671 189.715L126.48 190.756L122.415 190.461L120.244 191.78L117.933 189.506L118.298 186.8L115.484 186.852L113.017 185.672L112.565 186.088L111.21 185.411L110.95 184.197L108.396 184.44L107.962 185.168L108.396 186.279L106.676 187.06L106.468 188.552L104.296 189.159L104.904 190.166L104.261 191.571L103.341 190.877L102.75 191.381L102.142 190.669L97.8857 191.623L97.7467 190.999L98.7543 189.68L98.5459 188.934L96.3569 188.535L94.3765 189.107L93.9075 187.424L95.2104 185.394L92.2919 186.748L90.7979 181.455L87.4624 180.293L88.0704 179.269L87.2365 178.818L88.3831 178.956L88.5221 177.898L89.4081 177.811L89.8424 178.748L91.9618 178.071L93.0389 176.51L92.4482 175.417L93.0389 173.751L91.3538 173.647L87.4624 173.785L86.5591 173.456L84.7523 168.823L82.4592 167.695L81.0173 165.509L78.2204 166.272L78.203 167.643L76.6917 167.938L76.9696 170.142L76.3095 170.506L76.4658 172.085L70.9588 171.79L69.8122 172.97L68.6309 172.606L68.6136 174.428L67.6928 175.486L64.1489 175.017L63.2456 175.816L61.2999 174.827L61.0046 175.521L59.4932 175.486L56.4009 177.464L55.098 177.325L54.8548 175.955L52.3011 174.393L49.869 177.464L49.261 175.087L45.6475 173.733L45.6823 172.206L45.1959 172.259L44.97 171.217L41.5998 170.61L41.5824 169.378L40.4185 169.343L40.4533 167.504L43.3718 167.712L43.893 167.14L43.4239 166.498L43.8235 165.856L42.2947 164.346L43.5976 161.847L43.3544 159.609L42.6943 159.383L42.6596 158.602L41.7388 158.915L41.6693 156.867L40.2969 156.746L40.349 155.895L37.7953 154.316L37.9169 152.113L35.0679 151.644L34.4772 153.102L28.0669 153.171L27.65 153.744L24.7314 152.928L24.0887 152.252L23.3069 152.755L23.0985 154.698L21.7955 154.941L20.8227 154.872L20.5795 153.865L21.3612 154.004L21.4133 153.032L23.1158 151.679L20.7706 153.449L17.3309 151.818L15.1594 152.373L15.0204 151.228L15.7674 149.788L14.8467 148.313L15.6458 148.018L16.5491 148.712L16.775 147.462L17.5914 146.751L16.8792 142.708L15.1594 141.719L14.8467 140.903L12.1366 140.174L10.7642 136.079L9.66973 134.57L9.63501 131.221L7.34187 130.284L7.11602 128.774L1.27899 129.139L0.896798 126.362L1.71329 124.349L0.323486 122.406L1.95648 121.625L2.21705 120.914L0.809905 118.849L0.618837 115.569L1.24421 114.684L2.77297 114.91L3.50263 114.424L2.13021 113.73L2.98143 112.116L1.43533 110.051L1.95648 109.479L4.00643 109.687L4.54497 109.253L4.45808 107.848L3.45051 106.685L7.84567 104.481L8.36682 102.607L7.20291 103.11L7.74144 102.468L6.64699 101.844L8.4016 100.143L9.99981 99.4665L9.2007 97.4363L10.243 95.7011L8.12363 91.2936L6.71649 91.658L6.19529 91.1201L5.93472 89.0379L8.27998 88.1529L8.34948 87.5456L6.47326 86.4871L6.05634 84.1619L5.22246 83.3637L6.00423 79.9801L5.30935 79.5636L3.97166 80.4833L2.8772 78.4357L2.91198 77.6375L4.37124 76.9087L2.84247 76.4749L1.74802 75.243L2.33867 74.5315L3.93693 74.9306L4.49285 74.3927L3.18994 73.5251L3.25939 72.8657L1.67851 72.4493L1.83491 71.3734L3.24205 69.6382L2.18232 68.4409L2.9467 67.8683L4.14539 69.0309L5.34407 69.1524L5.69149 67.6601L4.96188 64.9879L8.48844 64.2417L8.7664 62.1768L9.96508 59.8863L9.51339 59.4352L8.07152 59.8516L7.8804 59.1402L8.95747 58.4808L10.382 58.5676L10.2257 57.7173L11.1464 56.4853L10.104 53.7784L12.6578 52.6505L13.2832 49.8395L15.1767 48.1737L15.6979 46.4038L18.8944 46.8029L20.2147 44.5991L19.3461 41.9963L20.1104 41.3369L21.3612 42.1178L21.8998 41.4411L21.0312 41.4064L21.0485 40.747L22.473 39.81L23.0116 40.2785L24.0018 40.0182L23.7759 38.6821L25.2179 38.3524L24.2102 37.5021L24.7488 36.6692L25.6174 37.8492L26.5208 37.6236L26.5034 36.6692L25.4784 36.2875L25.878 35.6281L25.4958 35.0381L26.4513 34.8473L26.017 33.9276L26.7466 34.0317L26.0344 33.355L26.9551 32.8344L26.0691 31.5504L26.5729 31.3248L26.903 32.2965L27.4936 32.3486L26.625 30.1448L27.7195 29.9887L27.6152 28.6005L28.3622 28.4617L28.2927 29.1905L29.7694 29.711L34.4599 28.479L36.3187 28.5311L38.8724 27.3859L40.0016 29.5375L43.0939 30.2663L43.007 31.2207L43.8582 32.2618L45.5086 33.0774L48.0276 32.1056L49.3305 29.364L48.9135 28.8434L49.6258 27.0909L53.2218 25.5812L52.7701 24.4187L54.3336 23.6205L57.0958 23.6552L58.1381 25.7374L59.3716 25.9803L61.1435 25.1127L66.1815 26.2059L70.125 26.1712L72.5744 26.9L73.0435 27.9932L76.5353 26.3447L78.6026 27.7503L81.5732 26.6224L83.6232 27.3512L86.9239 29.7284L86.7501 30.7001L85.9163 31.6371L84.6655 31.9148L85.1345 32.5568L84.4049 32.8344L87.6882 32.0189L94.9325 33.8235L95.193 32.7824L97.2082 32.9038L98.0768 30.3878L100.926 30.2837L102.576 28.9823L104.296 28.6699L106.537 27.2123L106.693 25.616L108.066 25.373L108.222 24.3319L110.984 23.1173L110.811 22.1802L108.604 22.5793L109.838 18.9354L108.483 15.9855L109.734 13.8859L111.818 14.0942L112.756 13.4348L112.114 12.411L112.513 10.589H111.297L110.272 7.18803L110.359 5.73045L111.019 5.03637L113.191 4.96696L115.136 6.32042L116.63 5.90397L118.072 7.17067L119.306 5.85191L121.703 6.06014L123.475 8.47208L125.108 8.00357L129.555 11.3525L130.615 13.3133L133.829 11.5955L134.385 12.4284L136.278 11.7863L137.355 12.2548L138.606 10.4676L141.281 10.9187L141.455 13.3133L142.671 13.6083L145.92 10.9881L147.831 11.0402L148.317 9.58261L150.628 7.83005L151.67 5.79986L152.33 6.12955L152.417 6.96245L151.774 7.32684L152.156 8.10769L154.867 5.90397L155.996 4.1167L158.011 4.56786L158.132 1.51389L159.175 1.39243L159.418 0.837158L159.87 1.40978Z"/>
</mask>
<path d="M159.87 1.40978L160.53 1.2189L166.141 3.61349L166.94 3.2144L168.069 3.57879L170.189 1.63535L171.283 1.70476L172.604 2.85L172.43 3.70025L173.316 4.13406L172.499 6.30307L171.109 6.82363L171.787 8.40267L170.884 8.73236L171.405 9.35704L170.675 10.1899L170.745 11.4566L170.137 12.411L169.372 12.5151L169.859 13.938L168.782 15.8814L166.784 16.6623L167.774 17.8422L166.593 19.0395L166.784 20.3236L168.069 22.2149L167.444 22.4058L167.131 24.0543L168.33 24.2278L167.461 23.8113L168.26 23.3255L172.517 25.2863L172.378 26.258L173.802 26.7612L174.323 27.9758L173.976 28.8434L175.105 28.5311L177.051 29.2078L177.572 28.722L177.537 33.4244L175.678 33.4764L173.246 34.5523L171.857 32.3312L171.023 32.2965L169.06 34.1705L166.784 34.1011L166.072 35.6455L167.861 36.409L170.206 39.272L168.851 43.8183L167.409 43.853L166.575 43.1416L165.481 43.4886L165.116 44.6512L163.292 44.2L162.632 45.1371L161.034 45.2412L161.138 46.0047L158.549 46.2129L158.497 48.0696L155.318 50.0824L155.631 52.8761L156.274 53.1537L156.743 54.4898L155.388 55.0972L154.137 57.8214L153.355 57.7347L152.869 58.4635L153.546 58.6717L154.276 61.2051L156.135 63.3047L156.604 68.8053L155.718 70.662L157.125 71.0784L157.281 74.0804L159.383 76.4923L161.225 76.822L160.304 77.8111L157.577 77.7243L157.368 78.4531L158.132 80.3098L159.071 80.8303L159.488 83.7802L156.969 85.1336L156.274 84.8213L155.857 85.9492L156.117 87.4241L155.336 88.4132L154.919 91.1895L156.03 92.2307L155.092 93.48L156.135 94.0526L155.874 95.6143L155.075 95.5622L154.728 94.6773L153.338 94.5558L153.737 95.3714L154.606 95.4408L154.728 96.6728L153.286 96.8984L151.792 96.5687L151.826 95.5102L150.437 94.7641L151.548 93.5147L151.01 93.0636L149.342 94.2782L150.506 96.7943L150.384 98.9286L152.017 98.8939L152.851 101.011L152.139 102.555L150.923 102.937L151.687 103.562L150.61 103.804L152.539 104.238L151.687 106.477L152.243 107.587L150.089 109.999L150.576 112.116L149.794 112.654L147.622 112.741L146.788 113.678L147.275 114.129L145.955 116.159L147.709 117.86L144.93 122.632L145.607 123.239L145.85 122.788L150.419 123.621L150.506 124.488L152.365 124.853L151.774 126.657L153.129 127.802L151.653 128.896L150.697 131.95L152.782 132.835L152.799 131.95L155.11 130.596L156.395 135.194L157.003 135.524L157.716 134.969L160.009 134.847L159.765 138.3L160.391 141.077L158.949 141.059L158.237 141.754L158.775 143.576L158.132 144.981L159.018 145.363L157.333 147.376L158.063 149.892L157.212 150.62L159.279 154.663H160.356L160.773 155.618L161.815 155.496L162.215 155.982L160.738 156.971L156.308 157.995L157.107 159.557L156.934 163.045L155.075 164.016L155.353 164.849L154.311 168.077L155.388 168.753L154.154 169.083L153.963 170.194L151.114 173.716L152.191 175.607L150.732 177.187L149.603 177.308L148.977 179.998L146.615 179.911L146.945 181.039L146.302 181.299L145.937 182.774L145.086 182.635L144.269 183.381L144.721 184.006L143.071 184.544L143.279 185.949L138.606 189.142L135.844 189.42L135.635 190.253L136.435 190.756L135.879 191.537L134.645 190.947L134.28 191.381L133.447 190.461L133.064 191.086L132.856 190.6H128.878L128.965 189.402L126.671 189.715L126.48 190.756L122.415 190.461L120.244 191.78L117.933 189.506L118.298 186.8L115.484 186.852L113.017 185.672L112.565 186.088L111.21 185.411L110.95 184.197L108.396 184.44L107.962 185.168L108.396 186.279L106.676 187.06L106.468 188.552L104.296 189.159L104.904 190.166L104.261 191.571L103.341 190.877L102.75 191.381L102.142 190.669L97.8857 191.623L97.7467 190.999L98.7543 189.68L98.5459 188.934L96.3569 188.535L94.3765 189.107L93.9075 187.424L95.2104 185.394L92.2919 186.748L90.7979 181.455L87.4624 180.293L88.0704 179.269L87.2365 178.818L88.3831 178.956L88.5221 177.898L89.4081 177.811L89.8424 178.748L91.9618 178.071L93.0389 176.51L92.4482 175.417L93.0389 173.751L91.3538 173.647L87.4624 173.785L86.5591 173.456L84.7523 168.823L82.4592 167.695L81.0173 165.509L78.2204 166.272L78.203 167.643L76.6917 167.938L76.9696 170.142L76.3095 170.506L76.4658 172.085L70.9588 171.79L69.8122 172.97L68.6309 172.606L68.6136 174.428L67.6928 175.486L64.1489 175.017L63.2456 175.816L61.2999 174.827L61.0046 175.521L59.4932 175.486L56.4009 177.464L55.098 177.325L54.8548 175.955L52.3011 174.393L49.869 177.464L49.261 175.087L45.6475 173.733L45.6823 172.206L45.1959 172.259L44.97 171.217L41.5998 170.61L41.5824 169.378L40.4185 169.343L40.4533 167.504L43.3718 167.712L43.893 167.14L43.4239 166.498L43.8235 165.856L42.2947 164.346L43.5976 161.847L43.3544 159.609L42.6943 159.383L42.6596 158.602L41.7388 158.915L41.6693 156.867L40.2969 156.746L40.349 155.895L37.7953 154.316L37.9169 152.113L35.0679 151.644L34.4772 153.102L28.0669 153.171L27.65 153.744L24.7314 152.928L24.0887 152.252L23.3069 152.755L23.0985 154.698L21.7955 154.941L20.8227 154.872L20.5795 153.865L21.3612 154.004L21.4133 153.032L23.1158 151.679L20.7706 153.449L17.3309 151.818L15.1594 152.373L15.0204 151.228L15.7674 149.788L14.8467 148.313L15.6458 148.018L16.5491 148.712L16.775 147.462L17.5914 146.751L16.8792 142.708L15.1594 141.719L14.8467 140.903L12.1366 140.174L10.7642 136.079L9.66973 134.57L9.63501 131.221L7.34187 130.284L7.11602 128.774L1.27899 129.139L0.896798 126.362L1.71329 124.349L0.323486 122.406L1.95648 121.625L2.21705 120.914L0.809905 118.849L0.618837 115.569L1.24421 114.684L2.77297 114.91L3.50263 114.424L2.13021 113.73L2.98143 112.116L1.43533 110.051L1.95648 109.479L4.00643 109.687L4.54497 109.253L4.45808 107.848L3.45051 106.685L7.84567 104.481L8.36682 102.607L7.20291 103.11L7.74144 102.468L6.64699 101.844L8.4016 100.143L9.99981 99.4665L9.2007 97.4363L10.243 95.7011L8.12363 91.2936L6.71649 91.658L6.19529 91.1201L5.93472 89.0379L8.27998 88.1529L8.34948 87.5456L6.47326 86.4871L6.05634 84.1619L5.22246 83.3637L6.00423 79.9801L5.30935 79.5636L3.97166 80.4833L2.8772 78.4357L2.91198 77.6375L4.37124 76.9087L2.84247 76.4749L1.74802 75.243L2.33867 74.5315L3.93693 74.9306L4.49285 74.3927L3.18994 73.5251L3.25939 72.8657L1.67851 72.4493L1.83491 71.3734L3.24205 69.6382L2.18232 68.4409L2.9467 67.8683L4.14539 69.0309L5.34407 69.1524L5.69149 67.6601L4.96188 64.9879L8.48844 64.2417L8.7664 62.1768L9.96508 59.8863L9.51339 59.4352L8.07152 59.8516L7.8804 59.1402L8.95747 58.4808L10.382 58.5676L10.2257 57.7173L11.1464 56.4853L10.104 53.7784L12.6578 52.6505L13.2832 49.8395L15.1767 48.1737L15.6979 46.4038L18.8944 46.8029L20.2147 44.5991L19.3461 41.9963L20.1104 41.3369L21.3612 42.1178L21.8998 41.4411L21.0312 41.4064L21.0485 40.747L22.473 39.81L23.0116 40.2785L24.0018 40.0182L23.7759 38.6821L25.2179 38.3524L24.2102 37.5021L24.7488 36.6692L25.6174 37.8492L26.5208 37.6236L26.5034 36.6692L25.4784 36.2875L25.878 35.6281L25.4958 35.0381L26.4513 34.8473L26.017 33.9276L26.7466 34.0317L26.0344 33.355L26.9551 32.8344L26.0691 31.5504L26.5729 31.3248L26.903 32.2965L27.4936 32.3486L26.625 30.1448L27.7195 29.9887L27.6152 28.6005L28.3622 28.4617L28.2927 29.1905L29.7694 29.711L34.4599 28.479L36.3187 28.5311L38.8724 27.3859L40.0016 29.5375L43.0939 30.2663L43.007 31.2207L43.8582 32.2618L45.5086 33.0774L48.0276 32.1056L49.3305 29.364L48.9135 28.8434L49.6258 27.0909L53.2218 25.5812L52.7701 24.4187L54.3336 23.6205L57.0958 23.6552L58.1381 25.7374L59.3716 25.9803L61.1435 25.1127L66.1815 26.2059L70.125 26.1712L72.5744 26.9L73.0435 27.9932L76.5353 26.3447L78.6026 27.7503L81.5732 26.6224L83.6232 27.3512L86.9239 29.7284L86.7501 30.7001L85.9163 31.6371L84.6655 31.9148L85.1345 32.5568L84.4049 32.8344L87.6882 32.0189L94.9325 33.8235L95.193 32.7824L97.2082 32.9038L98.0768 30.3878L100.926 30.2837L102.576 28.9823L104.296 28.6699L106.537 27.2123L106.693 25.616L108.066 25.373L108.222 24.3319L110.984 23.1173L110.811 22.1802L108.604 22.5793L109.838 18.9354L108.483 15.9855L109.734 13.8859L111.818 14.0942L112.756 13.4348L112.114 12.411L112.513 10.589H111.297L110.272 7.18803L110.359 5.73045L111.019 5.03637L113.191 4.96696L115.136 6.32042L116.63 5.90397L118.072 7.17067L119.306 5.85191L121.703 6.06014L123.475 8.47208L125.108 8.00357L129.555 11.3525L130.615 13.3133L133.829 11.5955L134.385 12.4284L136.278 11.7863L137.355 12.2548L138.606 10.4676L141.281 10.9187L141.455 13.3133L142.671 13.6083L145.92 10.9881L147.831 11.0402L148.317 9.58261L150.628 7.83005L151.67 5.79986L152.33 6.12955L152.417 6.96245L151.774 7.32684L152.156 8.10769L154.867 5.90397L155.996 4.1167L158.011 4.56786L158.132 1.51389L159.175 1.39243L159.418 0.837158L159.87 1.40978Z" fill="#038405" stroke="#EAEAEA" stroke-width="2" mask="url(#path-1-inside-1_132_7)"/>
</svg>
