<svg width="156" height="164" viewBox="0 0 156 164" fill="none" xmlns="http://www.w3.org/2000/svg">
<mask id="path-1-inside-1_132_27" fill="white">
<path d="M27.3734 13.3172L27.356 12.5364L28.2072 12.9007L30.2919 12.4322L31.2648 11.3564L33.0367 11.235L34.5828 10.402L41.358 11.1655L43.4948 11.0094L45.9269 9.48237L49.9051 9.2915L50.3915 9.70796L51.5555 8.68419L51.6597 7.27868L52.7368 8.3545L56.7845 9.04857L59.373 10.2806L61.0407 9.37826L61.9961 6.41107H64.741L65.6096 7.74716L68.1459 6.75811L70.6649 10.7491L72.3673 10.055L72.489 7.591L73.7224 7.24396L76.9883 8.0942L78.6735 7.67777L79.6289 8.80564L80.2369 8.66682L81.4356 4.50233L83.225 4.57173L83.4161 3.80826L86.7689 2.92328L87.568 0.580767L88.4366 0.389893L89.7916 1.06662L89.6701 2.33332L93.1097 4.72792L92.7797 6.654L93.5614 6.56723L94.0305 8.11157L92.467 10.0377L93.8394 10.645L93.822 12.5364L96.0804 14.1674L95.5419 16.215L92.7971 19.4251L94.2737 20.8133L94.8296 22.5832L96.5494 23.4855L95.3334 25.429L95.3855 26.8518L96.949 27.4071L102.074 27.1642L102.995 28.0318L104.697 27.3203L108.519 27.6153L110.187 26.3139L110.795 27.4765H112.063L112.323 24.0061L115.225 24.0928L115.989 25.2554L116.84 23.9367L118.299 24.6828L119.863 21.3165L120.975 21.9585L121.253 21.1256L125.596 22.1147L127.263 23.2947L125.856 24.6655L125.387 27.0948L127.159 30.409L127.819 33.7406L129.452 35.2502L130.373 35.042L130.251 35.9617L128.115 36.9507L128.323 38.0092L130.859 40.0394L128.792 43.5445L125.648 45.0715L125.37 46.9455L126.447 47.8305L126.708 50.416L127.646 51.7L129.609 51.6133L132.388 53.2096L131.919 54.5978L132.162 55.8992L132.805 55.986L131.954 56.9924L133.656 58.502L135.011 58.2591L136.401 59.2829L136.992 57.6171L137.808 57.2006L138.312 59.6646L139.129 60.1158L138.573 60.8619L137.339 60.5843L138.607 62.8054L137.861 67.716L138.33 68.7051H139.042L139.111 69.7289L136.054 70.6312L136.401 72.8696L134.282 72.1755L132.927 75.9409L132.18 74.7436V75.6286L131.659 75.8368L133.691 79.5849L136.175 78.5437L136.228 80.1748L136.818 80.5392L134.247 84.4781L134.925 85.1722L134.264 86.1786L136.314 88.4171L137.166 87.9312L138.955 88.8509L137.878 90.0135L138.503 90.6555L139.077 93.3624L140.536 94.2994L141.109 99.748L146.929 101.639L146.651 102.229L147.988 104.294L146.842 104.502L146.199 105.925L146.911 106.463L146.599 107.192L147.624 107.244L150.021 109.673L151.55 109.725L151.428 111.131L153.218 111.704L153.409 113.005L154.347 113.057L153.912 115.018L151.828 115.295L151.637 116.562L152.262 117.638L155.007 118.471L155.91 123.26L154.277 123.208L155.094 123.711L154.885 125.256L152.801 125.776L152.835 127.355L151.741 129.368L146.703 131.502L147.05 132.3L142.308 136.361L143.732 138.235L143.246 139.727L142.099 139.987L141.561 142.139L140.866 142.868L140.136 142.694L140.102 143.441L141.457 144.968L141.335 146.373L141.995 147.588L141.404 149.288L141.908 150.503L141.422 151.093L138.486 151.058L136.158 152.394L134.595 151.839L135.776 154.39L135.394 158.12L134.595 158.363L135.289 158.797L135.064 159.37L133.5 159.075L133.604 158.016L131.381 157.288L131.068 158.572L130.251 158.988L130.616 159.838L129.713 159.804L129.487 160.272L125.457 159.908L124.102 159.37L123.511 158.051L119.133 158.832L118.491 159.804L118.716 160.515L117.848 160.931L117.605 160.55L116.736 161.053L116.545 160.463L114.339 161.279L112.514 161.053L111.594 160.55L111.159 159.057L108.814 159.804L107.893 158.45L109.874 158.242L110.134 157.617L111.246 157.444L110.708 155.917L109.857 156.507L108.467 156.368L107.859 157.097L106.591 156.437L104.28 156.576L105.131 155.778L104.506 155.205L103.759 155.431L100.024 151.891L99.3637 152.134L99.5722 152.828L98.7036 153.696L98.9642 155.726L97.8871 157.149L98.2693 158.086L97.3833 158.658L96.6537 155.813L95.6635 155.604L95.0554 156.177L92.7797 155.188L91.72 160.602L88.3324 161.695L88.1934 162.771L86.9947 161.747L87.5506 160.012L86.5952 157.895L85.049 157.964L84.5974 157.235L82.5474 157.877L81.5746 156.888L77.7527 157.808L77.1968 156.056L75.3554 156.212L75.2338 155.622L73.1144 154.997L71.8983 153.609L71.2034 154.095L70.4738 153.487L68.1633 155.413L66.8082 155.622L67.6769 156.767L66.6519 157.635L66.3392 159.196L66.1134 162.198L66.565 163.1L64.4977 162.441L61.9614 158.155L63.0732 156.298L62.361 153.817L59.6335 153.626L57.8442 156.958L56.1244 157.305L55.221 156.68L55.3426 154.737L57.7226 153.175L58.7997 151.18L58.8344 148.889L57.9137 147.258L56.107 148.473L54.9604 147.779L49.3145 150.971L48.1679 150.104L48.1505 146.894L46.8129 146.061L45.6142 145.991L45.093 147.432L43.6164 148.559L42.5046 148.421L41.8618 147.015L42.6609 143.007L41.7749 141.272L40.3678 140.508L34.2528 139.901L30.9347 137.176L29.5449 133.307L26.5743 132.023L24.4548 129.594L21.9533 128.657L18.3051 130.131L16.012 129.958L13.0413 128.257L13.8405 126.227L13.354 125.603L9.65376 127.546L7.63858 126.436L6.47465 124.232L6.64835 121.334L4.91113 116.111L0.238037 113.404L1.22824 109.465L2.72225 107.47L1.76677 104.78L2.46167 103.6L1.24563 102.195L1.19349 101.31L2.35745 101.171L2.21847 100.546L3.46926 98.6895L2.51379 97.2146L2.87859 95.8264V94.82L2.82648 91.0893L1.38458 88.8682L1.52356 85.7969L2.80911 84.5476L2.86123 83.09L1.5062 81.3721L1.85364 80.4004L0.759181 79.7063L4.14678 74.2925L7.74281 74.1363L6.59624 72.5573L7.86443 71.0303L7.37801 69.5206L8.21186 68.8092L9.91433 69.5553L9.75799 67.9069L12.3638 69.6247L13.5799 68.4274L13.354 66.4666L15.5429 66.0849L16.0293 65.4949L19.3996 67.9936L20.4245 67.2996L21.849 67.9242L22.9435 66.8137L22.7698 66.1717L24.2116 65.1652L24.1248 62.9789L24.976 64.662L26.2963 63.6036L26.5569 64.3671L27.356 64.2456L28.6068 65.1306L30.2919 64.6447L31.1605 63.7597L30.7957 61.7122L30.4135 61.2263L29.3365 61.3478L28.7111 59.3002L29.7534 58.4153L28.2941 56.7321L29.0759 55.5348L29.1454 53.9037L28.4852 52.7064L28.8848 51.1968L27.8946 49.2013L26.2442 48.5766L26.1573 47.5702L27.0954 47.3967L27.0781 46.6506L26.1573 46.4944L26.0531 45.7656L27.3213 45.245L28.3115 42.0349L26.9564 42.5555L25.6883 41.1326L24.9587 41.4276L23.3952 40.6988L22.4397 41.1153L22.0749 40.0047L22.7871 39.0156L23.2562 37.7142L24.0553 37.7663L24.4201 36.864L21.6927 36.1005L21.7101 33.0812L22.7003 32.526L23.8121 33.9141L24.8544 32.9598L25.0281 30.704L22.8914 28.6912L23.7426 27.0253L24.7502 26.5568L25.2366 24.9778L25.9315 25.4116L26.0531 24.4052L26.001 22.6526L23.4125 20.7439L23.2214 17.8461L25.9836 17.4643L25.7056 16.7529L27.495 14.9136L27.3734 13.3172Z"/>
</mask>
<path d="M27.3734 13.3172L27.356 12.5364L28.2072 12.9007L30.2919 12.4322L31.2648 11.3564L33.0367 11.235L34.5828 10.402L41.358 11.1655L43.4948 11.0094L45.9269 9.48237L49.9051 9.2915L50.3915 9.70796L51.5555 8.68419L51.6597 7.27868L52.7368 8.3545L56.7845 9.04857L59.373 10.2806L61.0407 9.37826L61.9961 6.41107H64.741L65.6096 7.74716L68.1459 6.75811L70.6649 10.7491L72.3673 10.055L72.489 7.591L73.7224 7.24396L76.9883 8.0942L78.6735 7.67777L79.6289 8.80564L80.2369 8.66682L81.4356 4.50233L83.225 4.57173L83.4161 3.80826L86.7689 2.92328L87.568 0.580767L88.4366 0.389893L89.7916 1.06662L89.6701 2.33332L93.1097 4.72792L92.7797 6.654L93.5614 6.56723L94.0305 8.11157L92.467 10.0377L93.8394 10.645L93.822 12.5364L96.0804 14.1674L95.5419 16.215L92.7971 19.4251L94.2737 20.8133L94.8296 22.5832L96.5494 23.4855L95.3334 25.429L95.3855 26.8518L96.949 27.4071L102.074 27.1642L102.995 28.0318L104.697 27.3203L108.519 27.6153L110.187 26.3139L110.795 27.4765H112.063L112.323 24.0061L115.225 24.0928L115.989 25.2554L116.84 23.9367L118.299 24.6828L119.863 21.3165L120.975 21.9585L121.253 21.1256L125.596 22.1147L127.263 23.2947L125.856 24.6655L125.387 27.0948L127.159 30.409L127.819 33.7406L129.452 35.2502L130.373 35.042L130.251 35.9617L128.115 36.9507L128.323 38.0092L130.859 40.0394L128.792 43.5445L125.648 45.0715L125.37 46.9455L126.447 47.8305L126.708 50.416L127.646 51.7L129.609 51.6133L132.388 53.2096L131.919 54.5978L132.162 55.8992L132.805 55.986L131.954 56.9924L133.656 58.502L135.011 58.2591L136.401 59.2829L136.992 57.6171L137.808 57.2006L138.312 59.6646L139.129 60.1158L138.573 60.8619L137.339 60.5843L138.607 62.8054L137.861 67.716L138.33 68.7051H139.042L139.111 69.7289L136.054 70.6312L136.401 72.8696L134.282 72.1755L132.927 75.9409L132.18 74.7436V75.6286L131.659 75.8368L133.691 79.5849L136.175 78.5437L136.228 80.1748L136.818 80.5392L134.247 84.4781L134.925 85.1722L134.264 86.1786L136.314 88.4171L137.166 87.9312L138.955 88.8509L137.878 90.0135L138.503 90.6555L139.077 93.3624L140.536 94.2994L141.109 99.748L146.929 101.639L146.651 102.229L147.988 104.294L146.842 104.502L146.199 105.925L146.911 106.463L146.599 107.192L147.624 107.244L150.021 109.673L151.55 109.725L151.428 111.131L153.218 111.704L153.409 113.005L154.347 113.057L153.912 115.018L151.828 115.295L151.637 116.562L152.262 117.638L155.007 118.471L155.91 123.26L154.277 123.208L155.094 123.711L154.885 125.256L152.801 125.776L152.835 127.355L151.741 129.368L146.703 131.502L147.05 132.3L142.308 136.361L143.732 138.235L143.246 139.727L142.099 139.987L141.561 142.139L140.866 142.868L140.136 142.694L140.102 143.441L141.457 144.968L141.335 146.373L141.995 147.588L141.404 149.288L141.908 150.503L141.422 151.093L138.486 151.058L136.158 152.394L134.595 151.839L135.776 154.39L135.394 158.12L134.595 158.363L135.289 158.797L135.064 159.37L133.5 159.075L133.604 158.016L131.381 157.288L131.068 158.572L130.251 158.988L130.616 159.838L129.713 159.804L129.487 160.272L125.457 159.908L124.102 159.37L123.511 158.051L119.133 158.832L118.491 159.804L118.716 160.515L117.848 160.931L117.605 160.55L116.736 161.053L116.545 160.463L114.339 161.279L112.514 161.053L111.594 160.55L111.159 159.057L108.814 159.804L107.893 158.45L109.874 158.242L110.134 157.617L111.246 157.444L110.708 155.917L109.857 156.507L108.467 156.368L107.859 157.097L106.591 156.437L104.28 156.576L105.131 155.778L104.506 155.205L103.759 155.431L100.024 151.891L99.3637 152.134L99.5722 152.828L98.7036 153.696L98.9642 155.726L97.8871 157.149L98.2693 158.086L97.3833 158.658L96.6537 155.813L95.6635 155.604L95.0554 156.177L92.7797 155.188L91.72 160.602L88.3324 161.695L88.1934 162.771L86.9947 161.747L87.5506 160.012L86.5952 157.895L85.049 157.964L84.5974 157.235L82.5474 157.877L81.5746 156.888L77.7527 157.808L77.1968 156.056L75.3554 156.212L75.2338 155.622L73.1144 154.997L71.8983 153.609L71.2034 154.095L70.4738 153.487L68.1633 155.413L66.8082 155.622L67.6769 156.767L66.6519 157.635L66.3392 159.196L66.1134 162.198L66.565 163.1L64.4977 162.441L61.9614 158.155L63.0732 156.298L62.361 153.817L59.6335 153.626L57.8442 156.958L56.1244 157.305L55.221 156.68L55.3426 154.737L57.7226 153.175L58.7997 151.18L58.8344 148.889L57.9137 147.258L56.107 148.473L54.9604 147.779L49.3145 150.971L48.1679 150.104L48.1505 146.894L46.8129 146.061L45.6142 145.991L45.093 147.432L43.6164 148.559L42.5046 148.421L41.8618 147.015L42.6609 143.007L41.7749 141.272L40.3678 140.508L34.2528 139.901L30.9347 137.176L29.5449 133.307L26.5743 132.023L24.4548 129.594L21.9533 128.657L18.3051 130.131L16.012 129.958L13.0413 128.257L13.8405 126.227L13.354 125.603L9.65376 127.546L7.63858 126.436L6.47465 124.232L6.64835 121.334L4.91113 116.111L0.238037 113.404L1.22824 109.465L2.72225 107.47L1.76677 104.78L2.46167 103.6L1.24563 102.195L1.19349 101.31L2.35745 101.171L2.21847 100.546L3.46926 98.6895L2.51379 97.2146L2.87859 95.8264V94.82L2.82648 91.0893L1.38458 88.8682L1.52356 85.7969L2.80911 84.5476L2.86123 83.09L1.5062 81.3721L1.85364 80.4004L0.759181 79.7063L4.14678 74.2925L7.74281 74.1363L6.59624 72.5573L7.86443 71.0303L7.37801 69.5206L8.21186 68.8092L9.91433 69.5553L9.75799 67.9069L12.3638 69.6247L13.5799 68.4274L13.354 66.4666L15.5429 66.0849L16.0293 65.4949L19.3996 67.9936L20.4245 67.2996L21.849 67.9242L22.9435 66.8137L22.7698 66.1717L24.2116 65.1652L24.1248 62.9789L24.976 64.662L26.2963 63.6036L26.5569 64.3671L27.356 64.2456L28.6068 65.1306L30.2919 64.6447L31.1605 63.7597L30.7957 61.7122L30.4135 61.2263L29.3365 61.3478L28.7111 59.3002L29.7534 58.4153L28.2941 56.7321L29.0759 55.5348L29.1454 53.9037L28.4852 52.7064L28.8848 51.1968L27.8946 49.2013L26.2442 48.5766L26.1573 47.5702L27.0954 47.3967L27.0781 46.6506L26.1573 46.4944L26.0531 45.7656L27.3213 45.245L28.3115 42.0349L26.9564 42.5555L25.6883 41.1326L24.9587 41.4276L23.3952 40.6988L22.4397 41.1153L22.0749 40.0047L22.7871 39.0156L23.2562 37.7142L24.0553 37.7663L24.4201 36.864L21.6927 36.1005L21.7101 33.0812L22.7003 32.526L23.8121 33.9141L24.8544 32.9598L25.0281 30.704L22.8914 28.6912L23.7426 27.0253L24.7502 26.5568L25.2366 24.9778L25.9315 25.4116L26.0531 24.4052L26.001 22.6526L23.4125 20.7439L23.2214 17.8461L25.9836 17.4643L25.7056 16.7529L27.495 14.9136L27.3734 13.3172Z" fill="#038405" stroke="#EAEAEA" stroke-width="2" mask="url(#path-1-inside-1_132_27)"/>
</svg>
