<svg width="125" height="163" viewBox="0 0 125 163" fill="none" xmlns="http://www.w3.org/2000/svg">
<mask id="path-1-inside-1_132_11" fill="white">
<path d="M0.459262 74.7107L0.111816 73.4614L2.21386 69.748L0.789337 66.1561L1.90116 64.1259L1.98802 62.3907L3.96844 61.4711L3.72523 60.8117L1.83167 60.135L1.22364 58.5039L2.73502 54.7038L1.51897 52.8297L4.66333 49.394L4.95866 48.1967L5.56669 47.7109L6.4353 48.2661L7.58186 47.3985L8.81529 41.9326L9.9966 41.2906L10.7089 41.7591L12.7935 39.3992L13.6969 40.0586L14.1833 39.7983L15.1909 40.9609L17.5361 40.2668L21.2364 41.4468L21.7228 40.5097L25.232 38.0284L27.4904 38.9307L28.0637 40.0586L30.4784 37.2822L35.1515 37.9763L35.7769 38.9654L36.6629 39.1042L37.0972 37.6293L38.5391 38.1152L39.1297 37.1955L40.5369 37.5773L43.3686 35.3562L47.9548 33.8639L49.362 33.6383L51.325 35.3388L52.3847 34.8877L52.35 33.2219L53.1317 31.7816L52.7322 31.157L53.4097 29.8209L49.5878 30.0811L47.3989 29.5779L46.8256 28.6062L47.6074 27.8774L48.3023 25.3961L46.7214 24.6846L44.7236 25.049L44.5673 23.4006L44.6367 22.1165L46.982 22.7065L48.0591 21.6827L49.084 22.5503L50.4217 20.364L50.0047 18.6982L52.489 16.4771L49.7442 15.193L48.6845 11.8788L49.3793 10.8377L51.0471 10.5427L51.4119 8.11337L50.6128 6.15261L51.2382 5.21558L53.2012 5.05942L52.6106 2.33512L54.3999 1.20725L54.452 0.669337L55.1643 0.912266L54.9211 0.304932L56.4672 0.634626L57.6832 1.79721L56.832 2.35249L57.4574 3.3936L58.8472 3.53242L60.6365 2.43926L62.0263 4.20915L64.4931 5.63204L65.5181 4.95531L68.1066 6.10053L69.4442 5.89231L71.8416 11.2715L72.7449 15.8004L73.683 16.2689L74.8817 15.6789L75.6113 16.1995L76.202 18.247L77.5397 19.1667L75.6461 21.9777L75.8024 24.754L76.5321 25.5175L76.7232 27.0272L81.709 29.5085L77.4702 34.4886L77.5049 35.9808L80.0934 38.9654L83.4983 39.3125L84.8012 40.0065L84.2627 43.1299L85.1834 43.3728L85.2703 44.2231L80.8925 43.182L80.1976 45.698L83.8805 49.4634L83.8284 51.1292L86.8512 49.5502L91.09 52.2051L92.5319 50.7995L92.2018 53.6453L94.3733 55.3978L92.7056 57.133L93.9738 62.1478L95.0335 62.5122L95.6936 62.0437L95.5199 59.7532L97.2571 58.1742L96.8923 56.9942L98.0562 57.4107L99.5155 56.5604L99.2028 60.9505L98.0041 64.0218H99.0464L100.193 62.2172L102.208 62.7031L103.059 64.2995L104.432 64.1086L104.901 64.6292L104.241 65.8438L101.148 65.8785L99.9672 66.6767L99.7066 68.0822L100.679 69.6439L102.278 69.8001L103.042 67.8046L104.258 66.5205L105.057 66.642L105.926 67.8046L106.586 67.6311L106.047 63.0675L107.42 63.0154L111.016 64.4209L111.537 63.7616L110.894 62.1825L111.329 61.8181L112.388 62.2693L113.344 63.3278L112.18 64.7159L112.493 65.4621L115.463 67.7178L117.774 68.0128L120.97 71.275L123.385 72.7846L123.142 73.6175L121.578 74.8148L121.787 75.5957L124.08 76.498L124.01 77.3656L122.221 78.9099L122.725 79.5693L120.067 83.3694L120.501 83.9594L120.414 86.996L121.265 88.6445L121.179 99.4722L122.447 103.81L121.839 105.285H117.878L116.471 103.984L113.309 103.463L111.433 104.192L109.192 104.157L105.405 105.754L101.114 110.144L96.4927 116.79L94.1996 117.223L92.0281 119.132L92.6882 119.583L92.5319 120.52L93.9216 121.665L93.7827 122.828L93.2094 123.123L91.6459 122.498L90.7252 122.915L91.1595 124.529L89.6655 124.893L89.6133 127.183L88.0151 127.583L87.7893 129.075L85.8262 128.294L84.8707 128.693L84.558 129.318L85.3745 131.226L80.5972 136.449L81.0141 138.029L80.2845 139.243L81.1357 142.02L80.8404 142.714L81.3963 142.991L80.9099 143.581L83.1335 146.028L83.3246 147.347L82.4734 147.694L82.6645 148.561L84.8012 150.522L84.6449 151.164L85.5309 151.494L84.7144 153.888L82.595 156.873L81.1183 162.686L78.8599 162.963L78.443 160.43L76.0283 158.053L76.063 156.942L75.1944 155.849L75.5766 154.617L72.9708 154.183L72.6581 153.16L71.9632 152.934L71.1293 153.732L70.1565 152.57L68.3845 152.778L68.1934 151.685L66.3867 150.713L66.0566 149.672L66.4909 147.989L65.2054 145.924L64.3368 145.507L63.7983 143.286L62.7038 143.147L62.1479 143.633L61.1751 141.915L60.1327 141.672L60.8276 137.092L63.7635 134.558L62.1479 131.174L59.8374 129.717L59.4552 128.433L58.1349 127.93L56.5019 124.928L57.5269 123.435L57.0057 122.498L57.8049 121.77L57.6138 121.214L59.0557 119.67L57.9091 118.334L55.4944 117.327L55.9113 114.968L55.4596 114.083L52.9406 112.157L51.3424 109.745L48.4239 108.218L47.5726 107.176L47.868 105.736L46.8604 104.851L43.7681 104.209L43.8724 105.424L41.9962 108.148L41.2665 107.385L37.4968 106.604L37.5315 105.979L35.7596 104.782L35.9159 103.619L35.1863 102.891L35.4295 100.739L34.5261 99.7498L34.3698 98.084L35.3079 96.7132L34.4219 95.7068L34.335 93.5724L34.8909 92.6354L34.1266 91.8372L32.3199 92.5834L31.5207 93.7807L30.878 93.3642L29.0713 94.7003L26.8302 94.2839L25.5968 97.0949L25.7705 97.9105L25.1451 98.4137L22.2961 97.6849L21.497 96.1926L22.5046 90.9176L21.3754 89.3906L18.092 90.05L14.9303 86.8225L14.5829 82.7968L9.71864 82.5365L5.75778 78.6497L5.67092 77.2094L4.92391 76.55L3.49939 76.5153L2.9956 75.3701L0.459262 74.7107Z"/>
</mask>
<path d="M0.459262 74.7107L0.111816 73.4614L2.21386 69.748L0.789337 66.1561L1.90116 64.1259L1.98802 62.3907L3.96844 61.4711L3.72523 60.8117L1.83167 60.135L1.22364 58.5039L2.73502 54.7038L1.51897 52.8297L4.66333 49.394L4.95866 48.1967L5.56669 47.7109L6.4353 48.2661L7.58186 47.3985L8.81529 41.9326L9.9966 41.2906L10.7089 41.7591L12.7935 39.3992L13.6969 40.0586L14.1833 39.7983L15.1909 40.9609L17.5361 40.2668L21.2364 41.4468L21.7228 40.5097L25.232 38.0284L27.4904 38.9307L28.0637 40.0586L30.4784 37.2822L35.1515 37.9763L35.7769 38.9654L36.6629 39.1042L37.0972 37.6293L38.5391 38.1152L39.1297 37.1955L40.5369 37.5773L43.3686 35.3562L47.9548 33.8639L49.362 33.6383L51.325 35.3388L52.3847 34.8877L52.35 33.2219L53.1317 31.7816L52.7322 31.157L53.4097 29.8209L49.5878 30.0811L47.3989 29.5779L46.8256 28.6062L47.6074 27.8774L48.3023 25.3961L46.7214 24.6846L44.7236 25.049L44.5673 23.4006L44.6367 22.1165L46.982 22.7065L48.0591 21.6827L49.084 22.5503L50.4217 20.364L50.0047 18.6982L52.489 16.4771L49.7442 15.193L48.6845 11.8788L49.3793 10.8377L51.0471 10.5427L51.4119 8.11337L50.6128 6.15261L51.2382 5.21558L53.2012 5.05942L52.6106 2.33512L54.3999 1.20725L54.452 0.669337L55.1643 0.912266L54.9211 0.304932L56.4672 0.634626L57.6832 1.79721L56.832 2.35249L57.4574 3.3936L58.8472 3.53242L60.6365 2.43926L62.0263 4.20915L64.4931 5.63204L65.5181 4.95531L68.1066 6.10053L69.4442 5.89231L71.8416 11.2715L72.7449 15.8004L73.683 16.2689L74.8817 15.6789L75.6113 16.1995L76.202 18.247L77.5397 19.1667L75.6461 21.9777L75.8024 24.754L76.5321 25.5175L76.7232 27.0272L81.709 29.5085L77.4702 34.4886L77.5049 35.9808L80.0934 38.9654L83.4983 39.3125L84.8012 40.0065L84.2627 43.1299L85.1834 43.3728L85.2703 44.2231L80.8925 43.182L80.1976 45.698L83.8805 49.4634L83.8284 51.1292L86.8512 49.5502L91.09 52.2051L92.5319 50.7995L92.2018 53.6453L94.3733 55.3978L92.7056 57.133L93.9738 62.1478L95.0335 62.5122L95.6936 62.0437L95.5199 59.7532L97.2571 58.1742L96.8923 56.9942L98.0562 57.4107L99.5155 56.5604L99.2028 60.9505L98.0041 64.0218H99.0464L100.193 62.2172L102.208 62.7031L103.059 64.2995L104.432 64.1086L104.901 64.6292L104.241 65.8438L101.148 65.8785L99.9672 66.6767L99.7066 68.0822L100.679 69.6439L102.278 69.8001L103.042 67.8046L104.258 66.5205L105.057 66.642L105.926 67.8046L106.586 67.6311L106.047 63.0675L107.42 63.0154L111.016 64.4209L111.537 63.7616L110.894 62.1825L111.329 61.8181L112.388 62.2693L113.344 63.3278L112.18 64.7159L112.493 65.4621L115.463 67.7178L117.774 68.0128L120.97 71.275L123.385 72.7846L123.142 73.6175L121.578 74.8148L121.787 75.5957L124.08 76.498L124.01 77.3656L122.221 78.9099L122.725 79.5693L120.067 83.3694L120.501 83.9594L120.414 86.996L121.265 88.6445L121.179 99.4722L122.447 103.81L121.839 105.285H117.878L116.471 103.984L113.309 103.463L111.433 104.192L109.192 104.157L105.405 105.754L101.114 110.144L96.4927 116.79L94.1996 117.223L92.0281 119.132L92.6882 119.583L92.5319 120.52L93.9216 121.665L93.7827 122.828L93.2094 123.123L91.6459 122.498L90.7252 122.915L91.1595 124.529L89.6655 124.893L89.6133 127.183L88.0151 127.583L87.7893 129.075L85.8262 128.294L84.8707 128.693L84.558 129.318L85.3745 131.226L80.5972 136.449L81.0141 138.029L80.2845 139.243L81.1357 142.02L80.8404 142.714L81.3963 142.991L80.9099 143.581L83.1335 146.028L83.3246 147.347L82.4734 147.694L82.6645 148.561L84.8012 150.522L84.6449 151.164L85.5309 151.494L84.7144 153.888L82.595 156.873L81.1183 162.686L78.8599 162.963L78.443 160.43L76.0283 158.053L76.063 156.942L75.1944 155.849L75.5766 154.617L72.9708 154.183L72.6581 153.16L71.9632 152.934L71.1293 153.732L70.1565 152.57L68.3845 152.778L68.1934 151.685L66.3867 150.713L66.0566 149.672L66.4909 147.989L65.2054 145.924L64.3368 145.507L63.7983 143.286L62.7038 143.147L62.1479 143.633L61.1751 141.915L60.1327 141.672L60.8276 137.092L63.7635 134.558L62.1479 131.174L59.8374 129.717L59.4552 128.433L58.1349 127.93L56.5019 124.928L57.5269 123.435L57.0057 122.498L57.8049 121.77L57.6138 121.214L59.0557 119.67L57.9091 118.334L55.4944 117.327L55.9113 114.968L55.4596 114.083L52.9406 112.157L51.3424 109.745L48.4239 108.218L47.5726 107.176L47.868 105.736L46.8604 104.851L43.7681 104.209L43.8724 105.424L41.9962 108.148L41.2665 107.385L37.4968 106.604L37.5315 105.979L35.7596 104.782L35.9159 103.619L35.1863 102.891L35.4295 100.739L34.5261 99.7498L34.3698 98.084L35.3079 96.7132L34.4219 95.7068L34.335 93.5724L34.8909 92.6354L34.1266 91.8372L32.3199 92.5834L31.5207 93.7807L30.878 93.3642L29.0713 94.7003L26.8302 94.2839L25.5968 97.0949L25.7705 97.9105L25.1451 98.4137L22.2961 97.6849L21.497 96.1926L22.5046 90.9176L21.3754 89.3906L18.092 90.05L14.9303 86.8225L14.5829 82.7968L9.71864 82.5365L5.75778 78.6497L5.67092 77.2094L4.92391 76.55L3.49939 76.5153L2.9956 75.3701L0.459262 74.7107Z" fill="#038405" stroke="#EAEAEA" stroke-width="2" mask="url(#path-1-inside-1_132_11)"/>
</svg>
