<svg width="147" height="107" viewBox="0 0 147 107" fill="none" xmlns="http://www.w3.org/2000/svg">
<mask id="path-1-inside-1_132_26" fill="white">
<path d="M31.0126 5.11437L32.6629 5.91256L33.7226 4.88879L36.7801 5.60023L37.6487 4.68057L40.2893 7.17925L41.349 7.10985L42.1829 9.22681L44.7192 8.70624L44.8929 7.75187L43.8159 6.65871L44.198 5.96461L47.5335 7.83864L45.4315 9.29621L46.3869 12.1593L45.2056 12.1767L43.7985 13.2525L43.7464 14.7274L44.9624 17.6426L47.2034 19.534L49.1839 20.3321L49.6529 23.0911L50.5215 24.1843L51.2685 24.4619L52.2935 23.1258L53.5964 22.64L54.6387 23.0044L56.9492 21.5815L58.9644 22.7094L59.0513 24.1149L60.0589 24.3231L63.0469 30.7261L66.7298 30.5872L67.9632 29.4594L70.3258 31.3681L72.48 29.9626L73.366 32.3224L76.0586 33.5891L78.8556 34.4394L81.0271 33.2074L83.4592 33.7106L85.9955 34.37L86.4993 35.5152L87.9239 35.5499L88.6709 36.2093L88.7577 37.6496L92.7186 41.5364L97.5828 41.7967L97.9302 45.8224L101.092 49.0499L104.375 48.3905L105.505 49.9175L104.497 55.1925L105.296 56.6848L108.145 57.4136L108.77 56.9104L108.597 56.0948L109.83 53.2838L112.071 53.7002L113.878 52.3641L114.521 52.7806L115.32 51.5833L117.126 50.8371L117.891 51.6353L117.335 52.5723L117.422 54.7067L118.308 55.7131L117.37 57.0839L117.526 58.7497L118.429 59.7388L118.186 61.8904L118.916 62.6192L118.759 63.7818L120.531 64.9791L120.497 65.6038L124.266 66.3846L124.996 67.1481L126.872 64.4238L126.768 63.2092L129.86 63.8512L130.868 64.7362L130.573 66.1764L131.424 67.2175L134.342 68.7445L135.941 71.1564L138.46 73.0825L138.911 73.9675L138.494 76.3274L140.909 77.3338L142.056 78.6699L140.614 80.2142L140.805 80.7695L140.006 81.4983L140.527 82.4353L139.502 83.9276L141.135 86.9295L142.455 87.4327L142.837 88.7168L145.148 90.1743L146.763 93.558L143.828 96.0914L143.133 100.672L142.438 101.488L140.805 101.349L139.919 102.165L135.489 100.499L133.022 101.939L132.345 104.299L130.451 105.323L128.992 104.334L126.403 106.069L125.031 105.982L123.346 106.884L121.209 105.062L116.484 105.34L115.476 103.379L113.548 102.061L111.811 102.355L110.421 100.794L108.944 101.488L108.579 100.863L107.137 101.176L106.495 102.494L103.003 102.963L102.03 103.813L100.936 103.119L99.5111 99.8221L96.9053 98.3819L95.1507 98.2084L90.3212 99.3015L87.2811 97.2019L84.3973 97.6184L82.2431 96.1955L81.8088 98.2777L80.2453 100.742L77.6569 99.9956L76.6493 98.8157L75.5027 98.9545L74.6168 97.7572L73.2443 97.601L71.7156 96.1261L70.6559 96.1434L70.8644 94.5991L68.3106 93.905L67.5984 93.1068L68.2412 91.5278L66.9382 90.3479L66.7993 89.1679L66.0349 89.0638L65.5832 89.7926L62.4041 89.3414L61.6918 87.5715L60.9448 87.3633L59.9372 88.0747L59.3119 89.567L57.8352 90.2264L58.3738 91.0766L57.3141 92.0831L57.6789 93.1763L56.9319 94.1306L57.4878 94.79L56.4628 96.1955L56.8971 96.5252L56.5497 97.3928L53.11 97.5663L52.0503 98.781L49.5139 96.9243L48.8712 97.2366L46.9429 96.2649L46.4391 97.3755L47.5335 98.0869L48.1242 100.846L45.0667 101.818L44.615 100.638L41.7486 99.5098L41.5054 98.833L43.2252 96.9243L44.1459 93.2457L43.3816 93.4712L42.982 91.5799L41.5922 90.7817L40.7757 89.2547L40.88 87.6409L40.324 87.5195L39.7508 88.5259L39.4728 87.1551L38.8822 87.5715L37.7877 87.1898L38.0135 87.9706L37.5098 88.3177L36.8322 87.3806L35.6162 87.3459L31.7248 89.8273L27.0169 88.3697L27.4686 87.5195L26.8259 85.4719L27.3991 85.2637L26.5479 83.8582L26.0441 83.9623L25.4013 82.2618L25.8183 80.5786L23.5251 79.4855L22.5349 77.9758L22.5697 76.9867L21.51 76.7612L21.7532 76.015L20.9019 75.5292L19.1473 76.5876L17.7055 75.6853L15.8293 75.8762L14.648 77.1429L12.1985 73.2907L12.0248 70.8615L10.6523 69.2998L10.9824 66.9225L7.97703 66.2631L6.43091 64.0594L7.83805 61.8904L6.18769 61.7863L4.46785 60.4328L0.83706 62.4804L0.4375 59.5479L1.74041 47.974L3.07807 44.7639L4.98901 43.0981L5.89237 43.0807L7.12579 40.8597L10.1833 38.2569L12.3201 37.5801L13.623 33.2074L13.5709 32.496L12.5285 31.6631L12.6849 30.674L15.0996 27.273L14.4395 24.1843L14.8217 21.8938L15.6555 20.4883L17.0627 19.6728L17.6881 16.5321L17.3059 15.7859L20.2244 11.5694L20.485 10.1638L21.84 9.50445L22.9866 9.76472L24.4459 8.87978L23.9594 7.59571L24.7586 6.86693L24.8628 2.5289L26.0267 1.19278L26.9301 0.811035L29.1711 2.28597L31.0126 5.11437Z"/>
</mask>
<path d="M31.0126 5.11437L32.6629 5.91256L33.7226 4.88879L36.7801 5.60023L37.6487 4.68057L40.2893 7.17925L41.349 7.10985L42.1829 9.22681L44.7192 8.70624L44.8929 7.75187L43.8159 6.65871L44.198 5.96461L47.5335 7.83864L45.4315 9.29621L46.3869 12.1593L45.2056 12.1767L43.7985 13.2525L43.7464 14.7274L44.9624 17.6426L47.2034 19.534L49.1839 20.3321L49.6529 23.0911L50.5215 24.1843L51.2685 24.4619L52.2935 23.1258L53.5964 22.64L54.6387 23.0044L56.9492 21.5815L58.9644 22.7094L59.0513 24.1149L60.0589 24.3231L63.0469 30.7261L66.7298 30.5872L67.9632 29.4594L70.3258 31.3681L72.48 29.9626L73.366 32.3224L76.0586 33.5891L78.8556 34.4394L81.0271 33.2074L83.4592 33.7106L85.9955 34.37L86.4993 35.5152L87.9239 35.5499L88.6709 36.2093L88.7577 37.6496L92.7186 41.5364L97.5828 41.7967L97.9302 45.8224L101.092 49.0499L104.375 48.3905L105.505 49.9175L104.497 55.1925L105.296 56.6848L108.145 57.4136L108.77 56.9104L108.597 56.0948L109.83 53.2838L112.071 53.7002L113.878 52.3641L114.521 52.7806L115.32 51.5833L117.126 50.8371L117.891 51.6353L117.335 52.5723L117.422 54.7067L118.308 55.7131L117.37 57.0839L117.526 58.7497L118.429 59.7388L118.186 61.8904L118.916 62.6192L118.759 63.7818L120.531 64.9791L120.497 65.6038L124.266 66.3846L124.996 67.1481L126.872 64.4238L126.768 63.2092L129.86 63.8512L130.868 64.7362L130.573 66.1764L131.424 67.2175L134.342 68.7445L135.941 71.1564L138.46 73.0825L138.911 73.9675L138.494 76.3274L140.909 77.3338L142.056 78.6699L140.614 80.2142L140.805 80.7695L140.006 81.4983L140.527 82.4353L139.502 83.9276L141.135 86.9295L142.455 87.4327L142.837 88.7168L145.148 90.1743L146.763 93.558L143.828 96.0914L143.133 100.672L142.438 101.488L140.805 101.349L139.919 102.165L135.489 100.499L133.022 101.939L132.345 104.299L130.451 105.323L128.992 104.334L126.403 106.069L125.031 105.982L123.346 106.884L121.209 105.062L116.484 105.34L115.476 103.379L113.548 102.061L111.811 102.355L110.421 100.794L108.944 101.488L108.579 100.863L107.137 101.176L106.495 102.494L103.003 102.963L102.03 103.813L100.936 103.119L99.5111 99.8221L96.9053 98.3819L95.1507 98.2084L90.3212 99.3015L87.2811 97.2019L84.3973 97.6184L82.2431 96.1955L81.8088 98.2777L80.2453 100.742L77.6569 99.9956L76.6493 98.8157L75.5027 98.9545L74.6168 97.7572L73.2443 97.601L71.7156 96.1261L70.6559 96.1434L70.8644 94.5991L68.3106 93.905L67.5984 93.1068L68.2412 91.5278L66.9382 90.3479L66.7993 89.1679L66.0349 89.0638L65.5832 89.7926L62.4041 89.3414L61.6918 87.5715L60.9448 87.3633L59.9372 88.0747L59.3119 89.567L57.8352 90.2264L58.3738 91.0766L57.3141 92.0831L57.6789 93.1763L56.9319 94.1306L57.4878 94.79L56.4628 96.1955L56.8971 96.5252L56.5497 97.3928L53.11 97.5663L52.0503 98.781L49.5139 96.9243L48.8712 97.2366L46.9429 96.2649L46.4391 97.3755L47.5335 98.0869L48.1242 100.846L45.0667 101.818L44.615 100.638L41.7486 99.5098L41.5054 98.833L43.2252 96.9243L44.1459 93.2457L43.3816 93.4712L42.982 91.5799L41.5922 90.7817L40.7757 89.2547L40.88 87.6409L40.324 87.5195L39.7508 88.5259L39.4728 87.1551L38.8822 87.5715L37.7877 87.1898L38.0135 87.9706L37.5098 88.3177L36.8322 87.3806L35.6162 87.3459L31.7248 89.8273L27.0169 88.3697L27.4686 87.5195L26.8259 85.4719L27.3991 85.2637L26.5479 83.8582L26.0441 83.9623L25.4013 82.2618L25.8183 80.5786L23.5251 79.4855L22.5349 77.9758L22.5697 76.9867L21.51 76.7612L21.7532 76.015L20.9019 75.5292L19.1473 76.5876L17.7055 75.6853L15.8293 75.8762L14.648 77.1429L12.1985 73.2907L12.0248 70.8615L10.6523 69.2998L10.9824 66.9225L7.97703 66.2631L6.43091 64.0594L7.83805 61.8904L6.18769 61.7863L4.46785 60.4328L0.83706 62.4804L0.4375 59.5479L1.74041 47.974L3.07807 44.7639L4.98901 43.0981L5.89237 43.0807L7.12579 40.8597L10.1833 38.2569L12.3201 37.5801L13.623 33.2074L13.5709 32.496L12.5285 31.6631L12.6849 30.674L15.0996 27.273L14.4395 24.1843L14.8217 21.8938L15.6555 20.4883L17.0627 19.6728L17.6881 16.5321L17.3059 15.7859L20.2244 11.5694L20.485 10.1638L21.84 9.50445L22.9866 9.76472L24.4459 8.87978L23.9594 7.59571L24.7586 6.86693L24.8628 2.5289L26.0267 1.19278L26.9301 0.811035L29.1711 2.28597L31.0126 5.11437Z" fill="#038405" stroke="#EAEAEA" stroke-width="2" mask="url(#path-1-inside-1_132_26)"/>
</svg>
